<svg width="1365" height="506" viewBox="0 0 1365 506" fill="none" xmlns="http://www.w3.org/2000/svg">
<path d="M234.5 0H0.5V335.5C10.3333 335.5 33.5 324.6 47.5 281C61.5 237.4 101 201.5 142.5 201.5C177.5 201.5 192.8 198.3 252 165.5C311.2 132.7 265 41.5 234.5 0Z" fill="#2F4534"/>
<path d="M1046.5 501.5C1103.25 486.376 1222.64 441.476 1246.27 382.863C1269.89 324.25 1344 359 1364 375" stroke="white"/>
<path d="M1166.5 501.5C1192.38 496.93 1247.31 470.216 1259.96 399.914C1272.61 329.611 1335.92 315.125 1364.5 317" stroke="white"/>
<path d="M181.5 2C128.166 36.8333 22.3998 132.9 25.9998 238.5C29.5998 344.1 102.5 460.167 138.5 505" stroke="white"/>
<path d="M0.5 145.5C44 184.5 124.9 274.3 110.5 327.5C92.5 394 15.5 408.5 52.5 505" stroke="white"/>
</svg>
