<svg width="304" height="316" viewBox="0 0 304 316" fill="none" xmlns="http://www.w3.org/2000/svg">
<path d="M151.075 315.87H145.559L146.113 306.348C146.209 306.324 146.29 306.274 146.358 306.198C146.46 306.088 146.509 305.928 146.509 305.718V302.896H146.769C146.96 302.896 147.109 302.873 147.216 302.826C147.325 302.779 147.377 302.668 147.377 302.496C147.377 302.25 147.176 302.128 146.769 302.128H146.509V301.874C146.509 301.663 146.537 301.502 146.589 301.388C146.647 301.275 146.769 301.217 146.961 301.217C147.031 301.217 147.12 301.227 147.217 301.241C147.319 301.258 147.392 301.265 147.433 301.265C147.522 301.265 147.599 301.23 147.663 301.16C147.728 301.09 147.761 301.005 147.761 300.907C147.761 300.601 147.452 300.45 146.828 300.45C146.693 300.45 146.569 300.456 146.456 300.47L147.304 285.922L138.1 285.079L138.234 283.956C138.345 283.306 138.42 282.64 138.468 282.001L138.927 278.166C140.795 273.579 142.587 269.182 143.594 265.389C143.9 264.237 144.171 263.141 144.412 262.112C144.7 261.059 144.905 260.141 144.986 259.438C145.713 255.572 145.662 253.169 145.662 253.169L145.37 253.308L145.387 253.027L205.091 219.086C206.876 219.083 210.794 219.075 215.641 219.065L155.293 253.891L151.73 306.245C151.59 306.271 146.24 306.298 146.113 306.348C145.85 306.451 146.768 297.994 146.589 298.188C146.408 298.381 151.092 302.229 151 302.5C150.905 302.769 150.398 303.877 150.398 304.192C150.398 304.86 150.59 305.39 150.97 305.781C151.177 305.994 151.431 306.149 151.73 306.245L151.075 315.87ZM148.127 302.034C147.781 302.034 147.609 302.273 147.609 302.752V305.718C147.609 305.931 147.66 306.092 147.757 306.2C147.855 306.311 147.971 306 148.127 306C148.283 306 148.421 306.311 148.522 306.203C148.622 306.096 148.676 305.933 148.676 305.718V304.828C148.676 304.509 148.686 304.237 148.705 304.014C148.728 303.793 148.765 303.6 148.818 303.438C148.872 303.277 148.95 303.158 149.049 303.074C149.147 302.993 149.276 302.951 149.432 302.951C149.544 302.951 149.678 302.976 149.828 303.022C149.976 303.07 150.07 303.096 150.111 303.096C150.215 303.096 150.311 303.054 150.402 302.968C150.49 302.885 150.536 302.776 150.536 302.647C150.536 302.463 150.431 302.314 150.219 302.202C150.008 302.089 149.793 302.034 149.568 302.034C149.343 302.034 149.166 302.089 149.03 302.202C148.897 302.314 148.767 302.479 148.64 302.697C148.632 302.479 148.588 302.314 148.511 302.202C148.432 302.089 148.305 302.034 148.127 302.034ZM151.792 305.334C151.732 305.267 151.68 305.189 151.634 305.101C151.539 304.918 151.492 304.703 151.488 304.461H151.851L151.792 305.334ZM151.893 303.856H151.488C151.524 303.497 151.628 303.227 151.798 303.044C151.847 302.991 151.9 302.946 151.957 302.908L151.893 303.856Z" fill="#75A2A5"/>
<path d="M147.575 218.455L147.552 217.587L147.695 199.969C147.72 196.912 146.449 166.825 142.938 166.796C139.428 166.768 137.421 164.414 135.636 168.165L135.732 206.55L135.731 206.656C135.729 206.937 135.659 207.197 135.548 207.428C135.302 207.941 134.828 208.292 134.28 208.287C133.582 208.282 133.005 207.706 132.882 206.95C132.865 206.847 132.855 206.741 132.856 206.632L132.797 165.975C132.824 162.686 130.086 160.302 126.798 160.275C123.509 160.248 121.13 161.427 121.104 164.715L120.98 198.835L120.888 206.329V206.399C120.888 207.381 120.107 208.171 119.124 208.164L119.002 208.163C118.02 208.154 117.236 207.351 117.255 209.108L117.096 164.637C116.219 159.576 112.871 160.377 107.943 161.339L105.227 164.332L105.283 190.889L104.567 204.554C104.556 205.801 103.522 206.804 102.274 206.794C101.027 206.784 100.017 205.765 100.026 204.517L99.8987 198.705L99.4104 167.789C99.3266 163.718 96.4273 161.408 92.528 161.361C88.4734 161.24 86.1367 166.15 86.2189 170.218C86.2189 170.218 92.2208 200.669 79.1369 233.153C75.2285 242.846 87.2398 272.009 87.3034 272.114L86.9634 279.935C87.1819 283.759 92.6257 286.756 97.084 286.63L135.261 288.357C139.027 288.251 138.55 278.761 138.516 278.167C138.516 278.167 145.111 262.516 145.024 258.768L147.575 218.455Z" fill="#EAC2A7"/>
<path d="M72.9927 23.5112C72.9914 23.5112 72.9902 23.5112 72.989 23.5112C71.7241 23.51 70.4954 22.8484 69.8256 21.6702C69.5036 21.1039 69.3504 20.4875 69.3496 19.8797C69.3484 18.612 70.01 17.3799 71.1902 16.7093C71.2026 16.7019 71.2149 16.6953 71.2272 16.6884C71.2284 16.688 71.2297 16.6871 71.2309 16.6863C71.7869 16.3791 72.3894 16.2333 72.9836 16.2329C72.984 16.2329 72.9849 16.2329 72.9853 16.2329C72.9865 16.2329 72.9873 16.2329 72.9885 16.2329C74.2275 16.2338 75.432 16.8691 76.1105 18.0029C76.1125 18.0062 76.1146 18.0099 76.1166 18.0136C76.1285 18.0337 76.1404 18.0534 76.1519 18.074C76.4739 18.6403 76.6275 19.2567 76.6279 19.8645C76.6295 21.1318 75.968 22.3638 74.7869 23.0357C74.7807 23.039 74.7741 23.0427 74.7676 23.0464C74.7618 23.0496 74.7561 23.0529 74.7499 23.0562C74.7487 23.057 74.747 23.0574 74.7458 23.0583C74.1902 23.365 73.5885 23.5108 72.9947 23.5112C72.9939 23.5112 72.9931 23.5112 72.9927 23.5112Z" fill="#75A2A5"/>
<path d="M69.7067 27.792C67.9289 27.1238 66.3647 25.859 65.3528 24.0795C63.0559 20.0381 64.4695 14.8998 68.5113 12.6021C69.8246 11.8551 71.2537 11.5007 72.664 11.5007C75.5925 11.5007 78.438 13.0313 79.9887 15.7594C80.9977 17.5339 81.286 19.5186 80.9546 21.3831L78.8688 22.1691C78.1509 23.4352 77.2626 24.8196 75.9103 25.5883C74.7239 26.2627 73.3136 26.3883 72.0032 26.3883C71.8192 26.3883 71.6369 26.3858 71.4578 26.3817L69.7067 27.792ZM72.9929 23.5112C72.9933 23.5112 72.9941 23.5112 72.995 23.5112C73.5888 23.5108 74.1904 23.365 74.7461 23.0582C74.7473 23.0574 74.7489 23.057 74.7502 23.0561C74.7563 23.0529 74.7621 23.0496 74.7678 23.0463C74.7744 23.0426 74.781 23.0389 74.7871 23.0356C75.9682 22.3638 76.6298 21.1318 76.6282 19.8644C76.6278 19.2566 76.4742 18.6402 76.1522 18.0739C76.1407 18.0534 76.1288 18.0337 76.1169 18.0135C76.1148 18.0098 76.1128 18.0061 76.1107 18.0029C75.4323 16.869 74.2282 16.2337 72.9888 16.2329C72.9876 16.2329 72.9868 16.2329 72.9855 16.2329C72.9851 16.2329 72.9843 16.2329 72.9839 16.2329C72.3896 16.2333 71.7872 16.3791 71.2311 16.6863C71.2299 16.6871 71.2287 16.6879 71.2274 16.6883C71.2151 16.6953 71.2028 16.7019 71.1905 16.7093C70.0102 17.3799 69.3486 18.6119 69.3499 19.8796C69.3507 20.4874 69.5039 21.1038 69.8258 21.6701C70.4956 22.8483 71.7244 23.5099 72.9892 23.5112C72.9904 23.5112 72.9917 23.5112 72.9929 23.5112Z" fill="#75A2A5"/>
<path d="M57.8553 48.6414L54.9375 39.6982L69.7068 27.7921L71.4583 26.3827C71.6382 26.3864 71.8209 26.3888 72.0057 26.3888C73.3158 26.3888 74.7248 26.2632 75.9108 25.5893C77.2631 24.8205 78.1518 23.4365 78.8693 22.1704L80.9563 21.3856L99.2496 14.5L105.187 21.7339L57.8553 48.6414ZM94.7679 23.2324C94.3905 23.2324 93.9959 23.34 93.625 23.5511L65.0736 39.782C64.0884 40.3421 63.6425 41.4173 64.2026 42.4029C64.5521 43.0176 65.1316 43.3137 65.7574 43.3137C66.1352 43.3137 66.5295 43.2061 66.9003 42.9951L95.4513 26.7638C96.4373 26.2036 96.8829 25.1289 96.3227 24.1433C95.9732 23.5285 95.3938 23.2324 94.7679 23.2324Z" fill="#75A2A5"/>
<path d="M108.626 21.1644L59.6491 49.0073L59.6343 49.0155L60.8117 52.5974L111.101 24.0086L108.626 21.1644Z" fill="#808080"/>
<path d="M230.208 140.899L224.096 135.642C223.945 135.512 223.799 135.402 223.657 135.299L223.586 135.252L223.483 135.181L219.896 132.093L218.542 129.711L229.602 139.169L229.682 139.238C229.895 139.422 230.003 139.697 230.106 139.931C230.245 140.241 230.279 140.584 230.208 140.899ZM217.444 113.537L215.79 112.303C214.684 111.35 213.787 110.936 212.9 110.936C212.502 110.936 212.106 111.019 211.694 111.175C210.724 110.562 209.712 110.123 208.981 110.123C208.753 110.123 208.553 110.166 208.39 110.258L208.724 110.565C208.426 110.614 208.125 110.707 207.813 110.839L147.231 4.27208C146.199 2.45734 144.307 1.43929 142.359 1.43929C142.104 1.43929 141.848 1.45694 141.592 1.49266L140.636 0.32843C141.034 0.102158 141.588 -0.000106812 142.252 -0.000106812C146.523 -0.000106812 155.37 4.22115 156.825 6.78085C156.825 6.78085 188.643 62.9917 217.444 113.537Z" fill="#75A2A5"/>
<path d="M250.888 186.611C252.416 189.299 251.476 192.716 249.145 194.042L117.146 269.082C114.101 270.813 110.683 269.873 109.155 267.185L5.49702 84.8459C3.96904 82.1581 4.90939 78.7404 7.59734 77.2123L139.597 2.17197C142.286 0.64386 145.703 1.58429 147.231 4.27213L250.888 186.611Z" fill="#0F4226"/>
<path d="M303.636 270.51L303.226 270.111V183.978L303.636 184.286V270.51Z" fill="#E8E8E8"/>
<path d="M303.225 270.111L256.508 224.73L257.342 223.718C257.868 223.846 258.412 223.909 258.964 223.909C259.34 223.909 259.72 223.879 260.1 223.821C260.903 224.157 261.772 224.319 262.66 224.319C265.065 224.319 267.608 223.124 269.368 220.921L287.518 198.206C289.87 195.263 293.413 190.715 292.165 187.351C291.97 186.826 290.658 184.917 289.971 184.129L295.117 177.885L303.225 183.978V270.111Z" fill="#75A2A5"/>
<path d="M184.061 285.381C182.928 285.381 181.795 284.949 180.932 284.084L180.799 283.951C179.072 282.223 179.073 279.422 180.801 277.696L182.127 276.371L189.157 282.118L187.187 284.087C186.323 284.95 185.192 285.381 184.061 285.381ZM195.581 275.7L188.55 269.952L190.521 267.984C191.384 267.121 192.516 266.689 193.647 266.689C194.78 266.689 195.912 267.122 196.776 267.986L196.909 268.12C198.636 269.848 198.634 272.648 196.907 274.375L195.581 275.7Z" fill="#75A2A5"/>
<path d="M194.111 284.88C193.126 284.879 192.135 284.552 191.314 283.881L189.157 282.118L182.127 276.371L180.675 275.185C178.784 273.639 178.505 270.852 180.051 268.961L180.169 268.815C181.044 267.745 182.315 267.191 183.597 267.191C184.581 267.191 185.572 267.518 186.393 268.189L188.55 269.952L195.581 275.7L197.032 276.886C198.923 278.432 199.203 281.219 197.657 283.11L197.538 283.256C196.664 284.325 195.392 284.88 194.111 284.88Z" fill="#75A2A5"/>
<path d="M189.928 268.12C191.655 269.848 191.653 272.648 189.925 274.375L180.205 284.087C178.477 285.814 175.677 285.812 173.95 284.084L173.817 283.951C172.09 282.223 172.092 279.422 173.82 277.696L183.54 267.984C185.268 266.257 188.068 266.258 189.795 267.986L189.928 268.12Z" fill="#CCCCCC"/>
<path d="M190.676 283.11C192.222 281.219 191.942 278.432 190.05 276.886L179.412 268.19C177.521 266.644 174.734 266.924 173.188 268.815L173.069 268.961C171.523 270.852 171.803 273.639 173.694 275.185L184.333 283.881C186.224 285.427 189.011 285.147 190.556 283.256L190.676 283.11Z" fill="#CCCCCC"/>
<path d="M11.9899 195.034C10.8572 195.034 9.72486 194.601 8.86101 193.737L8.72788 193.604C7.00097 191.875 7.00257 189.075 8.73026 187.348L10.056 186.023L17.0867 191.771L15.1162 193.74C14.2527 194.602 13.1212 195.034 11.9899 195.034ZM23.5104 185.352L16.4798 179.605L18.4506 177.636C19.3138 176.774 20.4452 176.342 21.5766 176.342C22.7092 176.342 23.8418 176.774 24.7055 177.639L24.8385 177.772C26.5654 179.5 26.5637 182.301 24.8361 184.028L23.5104 185.352Z" fill="#75A2A5"/>
<path d="M22.0405 194.532C21.0561 194.532 20.0651 194.205 19.2438 193.534L17.087 191.771L10.0562 186.023L8.60509 184.837C6.71408 183.291 6.43412 180.505 7.98009 178.613L8.09926 178.467C8.97354 177.398 10.2445 176.844 11.5264 176.844C12.5109 176.844 13.5017 177.171 14.3232 177.842L16.48 179.605L23.5107 185.352L24.9616 186.538C26.8527 188.085 27.1328 190.871 25.587 192.763L25.4675 192.909C24.5936 193.978 23.3222 194.532 22.0405 194.532Z" fill="#75A2A5"/>
<path d="M17.8571 177.772C19.5839 179.5 19.5823 182.301 17.8546 184.028L8.13455 193.74C6.40654 195.466 3.60615 195.465 1.87957 193.737L1.74643 193.604C0.0195245 191.876 0.0211254 189.075 1.74881 187.348L11.469 177.636C13.197 175.91 15.9976 175.911 17.724 177.639L17.8571 177.772Z" fill="#CCCCCC"/>
<path d="M18.6055 192.763C20.1513 190.871 19.8712 188.085 17.9801 186.538L7.34169 177.842C5.45068 176.296 2.66342 176.576 1.11779 178.467L0.998779 178.613C-0.54735 180.505 -0.267399 183.291 1.62361 184.837L12.2623 193.534C14.1533 195.079 16.9407 194.8 18.486 192.909L18.6055 192.763Z" fill="#CCCCCC"/>
<path d="M16.6675 41.9941C13.8035 41.9941 11.4819 39.6726 11.4819 36.809C11.4819 33.945 13.8035 31.6235 16.6675 31.6235C19.5311 31.6235 21.8526 33.945 21.8526 36.809C21.8526 39.6726 19.5311 41.9941 16.6675 41.9941Z" fill="#75A2A5"/>
<path d="M8.19678 36.809C8.19678 39.6726 10.5182 41.9941 13.3821 41.9941C16.2457 41.9941 18.5672 39.6726 18.5672 36.809C18.5672 33.945 16.2457 31.6235 13.3821 31.6235C10.5182 31.6235 8.19678 33.945 8.19678 36.809Z" fill="#CCCCCC"/>
<path d="M264.301 116.736C261.437 116.736 259.116 114.415 259.116 111.551C259.116 108.687 261.437 106.365 264.301 106.365C267.165 106.365 269.486 108.687 269.486 111.551C269.486 114.415 267.165 116.736 264.301 116.736Z" fill="#75A2A5"/>
<path d="M255.831 111.551C255.831 114.415 258.152 116.736 261.016 116.736C263.879 116.736 266.201 114.415 266.201 111.551C266.201 108.687 263.879 106.365 261.016 106.365C258.152 106.365 255.831 108.687 255.831 111.551Z" fill="#CCCCCC"/>
<path d="M250.422 82.1431C232.191 82.1431 217.41 67.3631 217.41 49.1322C217.41 30.9001 232.191 16.121 250.422 16.121C268.654 16.121 283.434 30.9001 283.434 49.1322C283.434 67.3631 268.654 82.1431 250.422 82.1431Z" fill="#77A4A8"/>
<path d="M213.975 26.5906L213.966 26.5778C213.969 26.5819 213.972 26.5861 213.975 26.5906ZM213.967 26.5774C210.915 21.541 212.611 14.9267 217.643 11.8664C219.391 10.8036 221.334 10.2956 223.255 10.2956C226.865 10.2956 230.395 12.0903 232.396 15.3715L213.966 26.5778L213.967 26.5774ZM232.404 15.3846C232.401 15.3801 232.399 15.3756 232.396 15.3715V15.3711L232.404 15.3846Z" fill="#77A4A8"/>
<path d="M278.827 28.5464C278.83 28.5431 278.833 28.5394 278.837 28.5361L278.827 28.5464ZM278.837 28.5361L263.316 13.5594L263.306 13.5697C265.381 11.4186 268.163 10.3468 270.954 10.3468C273.666 10.3468 276.387 11.3591 278.478 13.3767C282.717 17.4674 282.919 24.2931 278.837 28.5361Z" fill="#77A4A8"/>
<path d="M272.385 51.828C272.385 70.0589 257.606 84.8389 239.375 84.8389C221.143 84.8389 206.363 70.0589 206.363 51.828C206.363 33.596 221.143 18.8164 239.375 18.8164C257.606 18.8164 272.385 33.596 272.385 51.828Z" fill="#638472"/>
<path d="M267.088 51.9139C267.088 67.2659 254.642 79.7117 239.289 79.7117C223.937 79.7117 211.491 67.2659 211.491 51.9139C211.491 36.5614 223.937 24.1148 239.289 24.1148C254.642 24.1148 267.088 36.5614 267.088 51.9139Z" fill="#EAEAEA"/>
<path d="M225.361 16.9517L225.371 16.9627C221.584 12.4433 214.768 11.9197 210.249 15.7061C205.73 19.4925 205.05 26.2944 208.836 30.8142L208.827 30.8027L225.361 16.9517Z" fill="#638472"/>
<path d="M253.756 17.3047L253.747 17.3154C257.699 12.9417 264.53 12.6748 268.904 16.6275C273.278 20.581 273.701 27.4047 269.748 31.7783L269.757 31.7672L253.756 17.3047Z" fill="#638472"/>
<path d="M241.706 28.5489C241.706 30.0019 240.529 31.1797 239.076 31.1797C237.622 31.1797 236.445 30.0019 236.445 28.5489C236.445 27.0964 237.622 25.9182 239.076 25.9182C240.529 25.9182 241.706 27.0964 241.706 28.5489Z" fill="#998675"/>
<path d="M265.297 50.792C265.297 52.245 264.118 53.4224 262.666 53.4224C261.212 53.4224 260.035 52.245 260.035 50.792C260.035 49.3391 261.212 48.1613 262.666 48.1613C264.118 48.1613 265.297 49.3391 265.297 50.792Z" fill="#998675"/>
<path d="M242.38 75.7308C242.38 77.1833 241.203 78.3611 239.749 78.3611C238.296 78.3611 237.119 77.1833 237.119 75.7308C237.119 74.2778 238.296 73.0996 239.749 73.0996C241.203 73.0996 242.38 74.2778 242.38 75.7308Z" fill="#998675"/>
<path d="M240.766 50.5845L253.141 31.8756L240.766 50.5845Z" fill="#FF8215"/>
<path d="M241.28 50.9243L253.655 32.2159C253.843 31.9321 253.765 31.5498 253.481 31.3621C253.198 31.1744 252.815 31.2524 252.628 31.5362L240.252 50.2447C240.064 50.5284 240.142 50.9108 240.426 51.0985C240.71 51.2861 241.092 51.2081 241.28 50.9243Z" fill="#0071BC"/>
<path d="M218.79 51.4658C218.79 52.9188 217.611 54.0962 216.158 54.0962C214.705 54.0962 213.528 52.9188 213.528 51.4658C213.528 50.0129 214.705 48.8351 216.158 48.8351C217.611 48.8351 218.79 50.0129 218.79 51.4658Z" fill="#998675"/>
<path d="M238.422 176.784L110.612 249.443L14.6562 80.6509L142.356 7.79819L238.422 176.784Z" fill="#CCCCCC"/>
<path d="M232.478 174.669L104.667 247.328L10.3457 81.4114L138.047 8.56157L232.478 174.669Z" fill="#E9E7DA"/>
<path d="M117.413 238.272L135.44 250.693L114.155 245.576L107.837 242.757L111.096 235.453L117.413 238.272Z" fill="#FBB03B"/>
<path d="M113.452 245.262C114.228 245.609 115.104 245.334 115.4 244.672C115.695 244.009 115.314 243.174 114.539 242.828L47.4993 212.917C46.7231 212.572 45.8476 212.845 45.5519 213.508C45.2558 214.171 45.6373 215.006 46.4122 215.352L113.452 245.262Z" fill="#3F9DEA"/>
<path d="M114.539 242.828C115.314 243.174 116.191 242.9 116.486 242.237C116.782 241.574 116.401 240.739 115.625 240.393L48.5851 210.483C47.8098 210.137 46.9342 210.411 46.6381 211.074C46.3424 211.737 46.7235 212.572 47.4997 212.917L114.539 242.828Z" fill="#5DB3F9"/>
<path d="M115.625 240.393C116.401 240.739 117.277 240.465 117.573 239.802C117.868 239.139 117.486 238.305 116.712 237.959L49.6712 208.048C48.8959 207.702 48.0199 207.977 47.7239 208.639C47.4286 209.302 47.8097 210.137 48.585 210.483L115.625 240.393Z" fill="#3FA2FF"/>
<path d="M50.7179 208.533C50.605 208.473 50.4916 208.414 50.3734 208.361L45.4593 206.169C43.1333 205.131 40.505 205.954 39.6179 207.942C38.7309 209.929 39.875 212.435 42.201 213.473L47.1147 215.665C47.233 215.718 47.3993 215.658 47.5188 215.702L50.7179 208.533Z" fill="#E57225"/>
<path d="M131.273 247.77L130.527 249.441L135.463 250.641L131.273 247.77Z" fill="#3FA2FF"/>
<path d="M59.1099 212.259L55.8512 219.563L47.4653 215.822L50.724 208.518L59.1099 212.259Z" fill="#8C8C8C"/>
<path d="M53.883 209.928L50.6244 217.232L49.2207 216.605L52.479 209.301L53.883 209.928Z" fill="#B3B3B3"/>
<path d="M56.6915 211.18L53.4324 218.484L52.0283 217.857L55.2874 210.554L56.6915 211.18Z" fill="#B3B3B3"/>
<path d="M59.8502 212.59L56.5916 219.893L55.1875 219.267L58.4462 211.964L59.8502 212.59Z" fill="#B3B3B3"/>
<path d="M63.9526 18.9339C65.7 17.941 67.9209 18.552 68.9143 20.299C69.9073 22.046 69.297 24.2673 67.5492 25.2607C65.8026 26.2537 63.5813 25.6422 62.5879 23.8952C61.5949 22.1483 62.206 19.9269 63.9526 18.9339ZM68.6724 27.8135C70.0247 27.0447 70.913 25.6603 71.6309 24.3942L73.7166 23.6082C74.0481 21.7442 73.7598 19.759 72.7508 17.9845C70.4535 13.9435 65.3148 12.53 61.2734 14.8273C57.2316 17.125 55.818 22.2632 58.1153 26.3046C59.1268 28.0841 60.6914 29.3493 62.4688 30.0171L64.2199 28.6069C65.6753 28.6381 67.3192 28.5822 68.6724 27.8135Z" fill="#666666"/>
<path d="M88.2134 28.9895L59.662 45.2204C58.6768 45.7805 57.5249 45.6138 56.9643 44.6282C56.4042 43.6426 56.8502 42.5675 57.8354 42.0069L86.3867 25.776C87.3723 25.2159 88.5239 25.3826 89.0844 26.3682C89.6446 27.3538 89.199 28.4289 88.2134 28.9895ZM103.762 31.0416L92.0113 16.7249L73.718 23.6114L71.631 24.3954C70.9135 25.6619 70.0249 27.0454 68.6725 27.8142C67.3194 28.5834 65.6755 28.6384 64.22 28.6072L62.4685 30.017L47.6992 41.9231L52.2983 56.0198L101.275 28.1776L103.762 31.0416Z" fill="#666666"/>
<path d="M101.275 28.1775L52.2985 56.0197L52.2837 56.0283L53.4615 59.6106L103.751 31.0214L101.275 28.1775Z" fill="#4D4D4D"/>
<path d="M60.5039 73.8999L111.494 44.9132L60.5039 73.8999Z" fill="#C1272D"/>
<path d="M61.4173 75.5065L112.407 46.5198C113.294 46.0151 113.605 44.887 113.1 44C112.596 43.1125 111.468 42.802 110.581 43.3063L59.5907 72.2934C58.7036 72.7977 58.3932 73.9258 58.8975 74.8133C59.4022 75.7008 60.5303 76.0108 61.4173 75.5065Z" fill="#666666"/>
<path d="M81.5476 130.591L169.372 80.6633C169.57 80.5511 169.639 80.3006 169.526 80.1031C169.414 79.906 169.163 79.837 168.966 79.9491L81.1418 129.877C80.9447 129.989 80.8757 130.239 80.9878 130.437C81.0999 130.634 81.3504 130.703 81.5476 130.591Z" fill="#666666"/>
<path d="M91.2897 147.728L179.115 97.7998C179.312 97.6881 179.381 97.4372 179.269 97.2401C179.156 97.0429 178.906 96.974 178.709 97.0861L90.8835 147.014C90.6864 147.126 90.6174 147.376 90.7295 147.574C90.8416 147.771 91.0925 147.84 91.2897 147.728Z" fill="#666666"/>
<path d="M86.2155 138.802L174.04 88.8747C174.238 88.7626 174.306 88.5121 174.194 88.3149C174.082 88.1174 173.831 88.0484 173.634 88.1605L85.8093 138.088C85.6122 138.2 85.5432 138.451 85.6553 138.648C85.7674 138.845 86.0183 138.914 86.2155 138.802Z" fill="#666666"/>
<path d="M62.2666 96.6748L148.664 47.5587L62.2666 96.6748Z" fill="#C1272D"/>
<path d="M62.4694 97.0317L148.866 47.9161C149.064 47.8039 149.133 47.553 149.02 47.3559C148.908 47.1588 148.658 47.0898 148.461 47.2019L62.0637 96.3175C61.8666 96.4297 61.7976 96.6806 61.9097 96.8777C62.0218 97.0748 62.2723 97.1438 62.4694 97.0317Z" fill="#666666"/>
<path d="M72.0085 113.811L158.406 64.6956C158.603 64.5835 158.672 64.3326 158.56 64.1355C158.447 63.9383 158.197 63.8693 157.999 63.9815L71.6028 113.098C71.4056 113.21 71.3366 113.46 71.4488 113.657C71.5609 113.854 71.8114 113.923 72.0085 113.811Z" fill="#666666"/>
<path d="M66.9347 104.886L153.331 55.7701C153.528 55.6579 153.597 55.4074 153.485 55.2103C153.373 55.0132 153.123 54.9442 152.926 55.0563L66.5285 104.172C66.3314 104.284 66.2624 104.535 66.3745 104.732C66.4867 104.929 66.7376 104.998 66.9347 104.886Z" fill="#666666"/>
<path d="M100.017 163.079L191.412 111.122C191.609 111.01 191.678 110.759 191.566 110.562C191.454 110.365 191.203 110.296 191.006 110.408L99.6106 162.365C99.4135 162.477 99.3445 162.727 99.4566 162.925C99.5687 163.122 99.8196 163.191 100.017 163.079Z" fill="#666666"/>
<path d="M109.758 180.215L201.153 128.259C201.35 128.147 201.419 127.896 201.307 127.698C201.195 127.501 200.945 127.432 200.747 127.544L109.353 179.501C109.155 179.613 109.086 179.864 109.198 180.061C109.31 180.258 109.561 180.327 109.758 180.215Z" fill="#666666"/>
<path d="M104.685 171.291L196.08 119.333C196.277 119.221 196.346 118.97 196.234 118.773C196.122 118.576 195.871 118.507 195.674 118.619L104.279 170.576C104.082 170.688 104.013 170.939 104.125 171.136C104.237 171.334 104.488 171.403 104.685 171.291Z" fill="#666666"/>
<path d="M64.2959 114.054L63.4035 114.561C63.8602 115.366 64.0749 116.233 64.0754 117.093C64.0754 117.986 63.8413 118.868 63.4002 119.644C62.9579 120.419 62.3123 121.086 61.4779 121.561L52.5524 126.635C51.7487 127.092 50.8814 127.307 50.0214 127.307C49.1286 127.307 48.2461 127.073 47.4708 126.631C46.6954 126.19 46.0281 125.544 45.5529 124.709L40.4791 115.784C40.0224 114.98 39.8077 114.113 39.8073 113.253C39.8073 112.36 40.0409 111.477 40.4824 110.702C40.9243 109.927 41.5698 109.259 42.4047 108.784L51.3298 103.71C52.1339 103.254 53.0012 103.039 53.8612 103.039C54.754 103.038 55.6365 103.273 56.4118 103.714C57.1876 104.156 57.8549 104.802 58.3297 105.636L63.4035 114.561L64.2959 114.054L65.1887 113.547L60.1149 104.621C59.4545 103.459 58.5132 102.547 57.4278 101.929C56.342 101.312 55.1117 100.986 53.8612 100.986C52.6575 100.985 51.4333 101.289 50.3151 101.926L41.39 106.999C40.2282 107.659 39.3153 108.601 38.698 109.686C38.08 110.772 37.7539 112.002 37.7539 113.253C37.7535 114.456 38.0578 115.681 38.6939 116.799L43.7677 125.724C44.4281 126.886 45.3694 127.799 46.4548 128.416C47.5406 129.034 48.7709 129.36 50.0214 129.36C51.2247 129.36 52.4493 129.056 53.5671 128.42L62.4926 123.346C63.6544 122.686 64.5673 121.744 65.1846 120.659C65.8022 119.574 66.1283 118.343 66.1287 117.093C66.1291 115.889 65.8244 114.665 65.1887 113.547L64.2959 114.054Z" fill="#666666"/>
<path d="M101.64 179.744L100.748 180.252C101.204 181.055 101.419 181.923 101.42 182.783C101.42 183.676 101.186 184.559 100.744 185.334C100.302 186.109 99.6566 186.777 98.8221 187.251L89.8966 192.325C89.0929 192.782 88.2256 192.997 87.3652 192.997C86.4725 192.997 85.5899 192.763 84.8146 192.322C84.0392 191.88 83.3723 191.234 82.8972 190.4L77.8234 181.474C77.3667 180.67 77.1519 179.803 77.1515 178.943C77.1511 178.05 77.3852 177.168 77.8266 176.392C78.2685 175.617 78.9141 174.949 79.749 174.475L88.6741 169.401C89.4781 168.944 90.3455 168.729 91.2054 168.729C92.0978 168.729 92.9807 168.963 93.7561 169.404C94.5314 169.846 95.1988 170.492 95.6739 171.327L100.748 180.252L101.64 179.744L102.533 179.237L97.4587 170.312C96.7987 169.15 95.8571 168.237 94.7717 167.62C93.6863 167.002 92.4559 166.676 91.2054 166.676C90.0017 166.675 88.7775 166.98 87.6593 167.616L78.7338 172.689C77.572 173.35 76.6595 174.291 76.0423 175.376C75.4242 176.462 75.0981 177.693 75.0981 178.943C75.0977 180.147 75.402 181.371 76.0382 182.489L81.1124 191.415C81.7723 192.576 82.7136 193.489 83.799 194.106C84.8848 194.724 86.1148 195.05 87.3652 195.05C88.5689 195.051 89.7931 194.746 90.9114 194.11L99.8365 189.036C100.999 188.377 101.911 187.435 102.529 186.349C103.146 185.264 103.473 184.034 103.473 182.783C103.473 181.58 103.169 180.355 102.533 179.237L101.64 179.744Z" fill="#666666"/>
<path d="M121.53 214.732L120.637 215.239C121.094 216.043 121.308 216.91 121.309 217.77C121.309 218.662 121.075 219.545 120.634 220.321C120.192 221.097 119.546 221.764 118.711 222.239L109.786 227.312C108.982 227.769 108.115 227.984 107.255 227.984C106.362 227.984 105.479 227.75 104.704 227.309C103.929 226.867 103.261 226.221 102.786 225.387L97.7125 216.461C97.2558 215.658 97.0411 214.79 97.0407 213.93C97.0407 213.038 97.2747 212.155 97.7162 211.38C98.1581 210.604 98.8037 209.937 99.6381 209.462L108.564 204.388C109.367 203.931 110.235 203.717 111.095 203.716C111.988 203.716 112.87 203.95 113.646 204.391C114.421 204.833 115.088 205.479 115.563 206.314L120.637 215.239L121.53 214.732L122.422 214.224L117.348 205.299C116.688 204.137 115.747 203.224 114.661 202.607C113.575 201.989 112.345 201.663 111.095 201.663C109.891 201.662 108.667 201.967 107.549 202.603L98.6234 207.677C97.4616 208.337 96.5491 209.278 95.9314 210.364C95.3138 211.449 94.9877 212.679 94.9873 213.93C94.9873 215.134 95.2916 216.358 95.9273 217.476L101.002 226.402C101.662 227.563 102.603 228.476 103.688 229.093C104.774 229.711 106.004 230.038 107.255 230.038C108.458 230.038 109.683 229.733 110.801 229.097L119.726 224.024C120.888 223.363 121.801 222.422 122.418 221.336C123.036 220.251 123.362 219.021 123.362 217.77C123.363 216.566 123.058 215.342 122.422 214.224L121.53 214.732Z" fill="#666666"/>
<path d="M83.374 147.613L82.4816 148.12C82.9383 148.924 83.1531 149.791 83.1535 150.651C83.1535 151.544 82.9194 152.427 82.4779 153.203C82.036 153.978 81.3905 154.645 80.556 155.12L71.6309 160.194C70.8268 160.651 69.9591 160.865 69.0991 160.866C68.2063 160.866 67.3238 160.632 66.5485 160.19C65.7731 159.749 65.1058 159.103 64.6311 158.268L59.5572 149.343C59.1006 148.539 58.8858 147.672 58.8854 146.812C58.8854 145.919 59.119 145.036 59.5605 144.261C60.0024 143.486 60.648 142.818 61.4825 142.344L70.4079 137.27C71.212 136.813 72.0794 136.598 72.9393 136.598C73.8321 136.597 74.715 136.832 75.49 137.273C76.2653 137.715 76.9327 138.361 77.4074 139.195L82.4816 148.12L83.374 147.613L84.2668 147.106L79.1926 138.181C78.5326 137.019 77.5914 136.106 76.506 135.489C75.4202 134.871 74.1898 134.545 72.9393 134.545C71.7356 134.544 70.5114 134.848 69.3932 135.485L60.4677 140.558C59.3059 141.219 58.3934 142.16 57.7762 143.245C57.1581 144.331 56.832 145.561 56.832 146.812C56.8316 148.015 57.1359 149.24 57.7721 150.358L62.8459 159.283C63.5058 160.445 64.4475 161.358 65.5329 161.975C66.6183 162.593 67.8486 162.919 69.0991 162.919C70.3028 162.919 71.5274 162.615 72.6457 161.979L81.5708 156.906C82.7325 156.245 83.6455 155.303 84.2627 154.218C84.8803 153.133 85.2064 151.902 85.2068 150.651C85.2072 149.448 84.9025 148.224 84.2668 147.106L83.374 147.613Z" fill="#666666"/>
<path d="M119.703 197.709L211.098 145.752C211.295 145.64 211.364 145.389 211.252 145.192C211.14 144.995 210.89 144.926 210.692 145.038L119.298 196.995C119.1 197.107 119.031 197.358 119.144 197.555C119.256 197.753 119.506 197.822 119.703 197.709Z" fill="#666666"/>
<path d="M129.446 214.845L220.841 162.889C221.038 162.777 221.107 162.526 220.995 162.329C220.883 162.131 220.632 162.063 220.435 162.175L129.04 214.131C128.843 214.243 128.774 214.494 128.886 214.691C128.998 214.889 129.248 214.958 129.446 214.845Z" fill="#666666"/>
<path d="M124.371 205.92L199.627 163.138L215.767 153.963C215.964 153.851 216.033 153.6 215.921 153.403C215.808 153.206 215.558 153.137 215.361 153.249L199.222 162.424L123.966 205.206C123.768 205.318 123.699 205.569 123.812 205.766C123.924 205.963 124.174 206.032 124.372 205.92H124.371Z" fill="#666666"/>
<path d="M215.641 219.065L216.368 218.646C228.25 218.623 243.071 218.596 247.176 218.596C247.875 218.596 248.263 218.597 248.274 218.598L248.961 219.007C242.426 219.014 226.64 219.044 215.641 219.065ZM288.149 186.34C287.552 185.355 286.353 183.698 285.975 183.416C285.975 183.416 278.288 168.27 275.372 165.916L246.247 137.928L245.569 137.385L231.677 126.518C231.471 126.339 231.271 126.194 231.072 126.061L219.501 117.147C218.816 115.947 218.131 114.744 217.444 113.537L234.768 126.472C234.967 126.604 235.167 126.75 235.373 126.928L249.265 137.796L249.943 138.339L279.068 166.326C281.984 168.681 289.671 183.826 289.671 183.826C289.744 183.881 289.847 183.986 289.971 184.128L288.149 186.34Z" fill="#75A2A5"/>
<path d="M205.09 219.086L205.828 218.667C208.65 218.661 212.338 218.654 216.367 218.646L215.641 219.065C210.794 219.075 206.876 219.083 205.09 219.086Z" fill="#6C9497"/>
<path d="M228.662 141.903C228.65 141.903 228.638 141.903 228.626 141.903L228.397 141.88C228.256 141.839 228.111 141.786 227.977 141.707C227.439 141.264 226.672 140.617 225.747 139.831L222.905 137.386L219.896 132.093L223.483 135.181L223.587 135.252L223.657 135.299C223.799 135.402 223.945 135.512 224.096 135.642L230.208 140.899C230.16 141.113 230.064 141.313 229.92 141.481C229.829 141.587 229.721 141.677 229.603 141.749C229.604 141.749 229.604 141.748 229.604 141.748C229.604 141.747 229.604 141.747 229.603 141.747C229.59 141.747 229.469 141.786 229.294 141.825C229.119 141.864 228.891 141.903 228.662 141.903ZM219.501 117.147L213.099 112.215C212.67 111.846 212.188 111.488 211.694 111.176C212.106 111.019 212.503 110.936 212.9 110.936C213.787 110.936 214.684 111.351 215.79 112.303L217.444 113.537C218.131 114.744 218.817 115.947 219.501 117.147Z" fill="#6C9497"/>
<path d="M203.196 219.161C202.467 219.161 201.84 218.987 201.3 218.676C202.232 218.674 203.807 218.671 205.828 218.667L205.09 219.086C204.415 219.088 204.044 219.088 204.044 219.088C203.747 219.138 203.465 219.161 203.196 219.161ZM222.904 137.386L220.399 135.232C220.305 135.15 220.212 135.076 220.121 135.007C216.047 131.496 211.612 127.649 209.396 125.725L206.425 120.499L219.895 132.093L222.904 137.386Z" fill="#D06924"/>
<path d="M262.66 224.319C261.772 224.319 260.903 224.156 260.1 223.821C262.146 223.51 264.187 222.368 265.672 220.51L283.822 197.796C286.174 194.852 289.717 190.304 288.469 186.94C288.421 186.811 288.306 186.598 288.149 186.34L289.971 184.129C290.658 184.917 291.97 186.826 292.165 187.351C293.413 190.715 289.87 195.263 287.518 198.206L269.368 220.92C267.608 223.124 265.065 224.319 262.66 224.319Z" fill="#6C9497"/>
<path d="M220.096 152.889L219.777 152.328L220.224 152.712C220.185 152.773 220.143 152.832 220.096 152.889ZM209.396 125.725C208.501 124.948 207.967 124.484 207.967 124.484L201.994 119.456L200.223 117.932L198.312 114.569C199.252 114.714 200.149 115.097 200.905 115.748L206.425 120.499L209.396 125.725Z" fill="#BABABA"/>
<path d="M206.355 165.77C205.908 165.77 205.459 165.638 205.072 165.369C205.009 165.325 204.947 165.277 204.887 165.226L201.203 162.242L203.084 161.173L204.066 161.977L207.947 165.121C207.793 165.273 207.622 165.399 207.439 165.498L207.448 165.49L206.417 165.769C206.397 165.769 206.376 165.77 206.355 165.77ZM218.726 153.631C218.314 153.631 217.894 153.475 217.54 153.17L209.778 146.503L211.098 145.752C211.289 145.643 211.36 145.404 211.262 145.211L212.221 146.035C212.341 146.138 212.472 146.226 212.582 146.335C212.593 146.338 212.606 146.34 212.619 146.34C212.64 146.34 212.662 146.337 212.685 146.334C212.707 146.331 212.73 146.328 212.751 146.328C212.776 146.328 212.797 146.333 212.813 146.345L219.777 152.328L220.096 152.889C220.087 152.901 220.077 152.912 220.067 152.923L219.957 153.051C219.862 153.162 219.757 153.258 219.646 153.337L219.957 153.05L218.912 153.621C218.851 153.628 218.788 153.631 218.726 153.631ZM200.223 117.932L197.209 115.337C196.877 115.052 196.518 114.818 196.141 114.633C196.563 114.546 196.991 114.501 197.417 114.501C197.718 114.501 198.017 114.523 198.311 114.569L200.223 117.932Z" fill="#D4D2C6"/>
<path d="M200.519 161.687L200.37 161.567L193.371 155.83L195.257 154.758L202.404 160.615L200.519 161.687ZM192.69 155.272L176.696 142.162L178.335 141.23C178.943 141.507 179.551 141.888 180.153 142.377L194.577 154.199L192.69 155.272ZM175.997 141.615C175.547 141.292 175.095 141.028 174.643 140.821C175.052 140.722 175.468 140.672 175.888 140.672C176.36 140.672 176.839 140.735 177.319 140.863L175.997 141.615Z" fill="#D4D2C6"/>
<path d="M176.696 142.162L176.457 141.966C176.304 141.842 176.15 141.725 175.997 141.615L177.319 140.863C177.657 140.953 177.996 141.076 178.335 141.231L176.696 142.162Z" fill="#5E5E5E"/>
<path d="M209.116 145.934C209.101 145.922 209.079 145.918 209.055 145.918C209.035 145.918 209.012 145.921 208.989 145.923C208.966 145.926 208.944 145.929 208.923 145.929C208.911 145.929 208.9 145.928 208.89 145.925L208.867 145.906C208.826 145.867 208.782 145.83 208.738 145.794L193.435 132.646L195.37 131.546L211.023 145.004C210.982 144.991 210.938 144.984 210.895 144.984C210.826 144.984 210.756 145.001 210.692 145.038L209.116 145.934ZM192.773 132.078L187.064 127.172L186.417 126.615C185.958 126.221 185.458 125.906 184.934 125.669L184.99 125.637C185.356 125.571 185.728 125.537 186.1 125.537C187.522 125.537 188.951 126.026 190.113 127.026L194.708 130.977L192.773 132.078Z" fill="#D4D2C6"/>
<path d="M193.435 132.646L192.773 132.078L194.709 130.978L195.37 131.546L193.435 132.646Z" fill="#5E5E5E"/>
<path d="M184.934 125.669C184.922 125.664 184.911 125.659 184.9 125.654C184.93 125.648 184.96 125.642 184.99 125.637L184.934 125.669Z" fill="#5E5E5E"/>
<path d="M193.371 155.83L192.69 155.272L194.577 154.199L195.258 154.757L193.371 155.83ZM209.778 146.502L209.117 145.935C209.116 145.935 209.116 145.934 209.116 145.934L210.693 145.038C210.757 145.001 210.826 144.984 210.895 144.984C210.939 144.984 210.982 144.991 211.023 145.004L211.262 145.21C211.36 145.404 211.289 145.643 211.098 145.752L209.778 146.502Z" fill="#5E5E5E"/>
<path d="M201.204 162.242L200.519 161.687L202.404 160.615L203.084 161.173L201.204 162.242Z" fill="#5E5E5E"/>
<path d="M43.6836 118.786C47.5118 120.258 51.3397 121.731 55.1679 123.203C56.2829 123.632 57.5432 122.541 57.5071 121.421C57.2476 113.413 56.9876 105.404 56.7281 97.3956C56.6509 95.0186 52.9544 95.0112 53.032 97.3956C53.2916 105.404 53.5515 113.413 53.8111 121.421C54.5909 120.828 55.3704 120.233 56.1502 119.639C52.3224 118.167 48.4941 116.694 44.6663 115.222C42.438 114.364 41.4832 117.939 43.6836 118.786Z" fill="#0071BC"/>
<path d="M63.3256 152.195C67.1539 153.668 70.9822 155.141 74.8104 156.613C75.9254 157.042 77.1857 155.951 77.1496 154.831C76.8901 146.823 76.6301 138.814 76.3706 130.806C76.2934 128.428 72.5969 128.421 72.6745 130.806C72.9341 138.814 73.194 146.823 73.4536 154.831C74.2334 154.237 75.0129 153.643 75.7927 153.049C71.9649 151.577 68.1362 150.104 64.3084 148.632C62.0801 147.775 61.1253 151.349 63.3256 152.195Z" fill="#0071BC"/>
<path d="M94.7932 242.141C94.594 241.798 94.4347 241.522 94.3217 241.323C94.2601 241.214 94.2022 241.113 94.1484 241.018C94.1862 241.053 94.2256 241.089 94.2667 241.127C94.3341 241.19 94.3948 241.253 94.4486 241.316L94.7513 241.848C94.78 241.947 94.7936 242.045 94.7932 242.141Z" fill="#C0A08B"/>
<path d="M94.7509 241.848L94.4482 241.316C94.6006 241.494 94.6996 241.672 94.7509 241.848Z" fill="#BC6023"/>
<path d="M94.3678 241.174C94.335 241.148 94.3025 241.123 94.2705 241.097C94.273 241.079 94.2767 241.054 94.2812 241.022L94.3678 241.174Z" fill="#C0A08B"/>
<path d="M95.8438 242.03C95.5404 242.03 94.9326 241.616 94.4032 241.202C94.3913 241.193 94.3794 241.183 94.3679 241.174L94.2812 241.022C94.3375 240.617 94.5511 239.083 94.8389 236.957L96.6455 237.764C96.4356 239.168 96.2299 240.55 96.034 241.867C96.0167 241.981 95.9481 242.03 95.8438 242.03Z" fill="#BC6023"/>
<path d="M97.8748 229.555L95.9265 228.685C95.9902 228.181 96.0539 227.678 96.1159 227.177C96.6099 223.889 97.0189 221.172 97.2308 219.768L98.9031 222.71C98.6288 224.536 98.2694 226.926 97.8748 229.555ZM99.3979 219.425L97.713 216.461C97.2563 215.658 97.0415 214.79 97.0411 213.93C97.0411 213.601 97.0731 213.273 97.1352 212.952C98.506 214.35 99.485 216.384 99.4398 219.146C99.4398 219.146 99.4255 219.242 99.3979 219.425ZM95.1414 212.453C94.0621 211.552 92.9627 211.136 92.9627 211.136L92.9508 211.221C92.8363 211.166 92.7209 211.115 92.6055 211.068C93.4987 211.076 94.4178 211.299 95.3134 211.79C95.2457 212.008 95.1882 212.229 95.1414 212.453Z" fill="#C0BEB4"/>
<path d="M96.6454 237.764L94.8389 236.958C94.9522 236.12 95.0771 235.192 95.2085 234.204L97.0548 235.027C96.9177 235.941 96.7809 236.857 96.6454 237.764Z" fill="#3883C0"/>
<path d="M97.0549 235.027L95.2085 234.204C95.3255 233.323 95.4475 232.396 95.5715 231.446L97.4643 232.291C97.3292 233.193 97.192 234.109 97.0549 235.027Z" fill="#5094CC"/>
<path d="M97.4641 232.291L95.5713 231.446C95.6892 230.541 95.8082 229.613 95.9261 228.685L97.8743 229.555C97.7413 230.444 97.6037 231.36 97.4641 232.291Z" fill="#3887D1"/>
<path d="M98.9028 222.71L97.2306 219.768C97.3304 219.106 97.3862 218.736 97.3862 218.736C97.399 217.97 97.3329 217.261 97.2014 216.605C97.2023 216.559 97.2027 216.516 97.2027 216.475C97.2047 214.642 96.1822 213.322 95.1411 212.453C95.1879 212.229 95.2454 212.008 95.3132 211.79C95.5978 211.946 95.8803 212.129 96.1588 212.341C96.1588 212.341 96.1596 212.341 96.1612 212.341C96.1928 212.341 96.5464 212.355 97.1168 212.933C97.123 212.94 97.1292 212.946 97.1349 212.952C97.0729 213.273 97.0409 213.601 97.0409 213.931C97.0413 214.79 97.2561 215.658 97.7127 216.461L99.3977 219.425C99.3213 219.932 99.1451 221.102 98.9028 222.71Z" fill="#575757"/>
<path d="M94.2285 241.063C94.194 241.035 94.1599 241.008 94.1266 240.98C94.1184 240.965 94.1098 240.951 94.1016 240.936C94.1024 240.906 94.1028 240.878 94.1036 240.851C94.1558 240.94 94.1997 241.014 94.2285 241.063Z" fill="#C0A08B"/>
<path d="M147.305 285.921L145.554 315.955L75.8516 315.87L79.3554 279.703L147.305 285.921Z" fill="#C69C6D"/>
<path d="M248.274 218.598L255.085 222.656C258.145 224.959 262.888 223.995 265.672 220.51L283.822 197.796C286.174 194.852 289.717 190.304 288.469 186.94C288.24 186.321 286.452 183.773 285.975 183.416C285.975 183.416 278.288 168.27 275.372 165.916L246.247 137.928L245.569 137.385L231.677 126.518C231.471 126.339 231.271 126.194 231.072 126.061L212.094 111.892C209.785 109.904 208.39 110.258 206.092 111.838L206.057 111.879C204.071 114.191 204.417 117.62 206.728 119.608L229.601 139.169L229.682 139.238C229.895 139.422 230.003 139.697 230.106 139.931C230.339 140.451 230.277 141.066 229.92 141.481C229.695 141.742 229.369 141.908 229.034 141.942L228.397 141.88C228.256 141.839 228.111 141.786 227.976 141.707C227.888 141.653 227.798 141.595 227.715 141.523L220.399 135.232C220.249 135.102 220.103 134.991 219.961 134.888L219.89 134.841L219.787 134.771L197.209 115.337C194.807 113.269 190.979 113.908 188.858 116.262L188.842 116.28C186.722 118.634 187.038 122.295 189.44 124.363L213.73 145.271C213.858 145.381 214.041 145.399 214.159 145.482L219.887 150.315L219.938 150.359C220.683 150.999 220.708 152.178 220.068 152.923L219.958 153.051C219.318 153.797 218.285 153.81 217.54 153.17L209.117 145.935C209.089 145.911 209.039 145.917 208.989 145.923C208.951 145.928 208.913 145.933 208.886 145.924C208.776 145.815 208.645 145.728 208.525 145.625L186.417 126.615C183.838 124.396 179.943 124.693 177.724 127.272L177.186 127.897C174.966 130.475 175.524 134.055 178.102 136.274L200.51 155.564C200.616 155.655 200.724 155.734 200.831 155.817C200.876 155.862 200.917 155.908 200.967 155.951L203.423 158.006L207.834 161.801C208.779 162.615 208.886 164.041 208.072 164.986C207.259 165.933 205.833 166.039 204.887 165.226L200.37 161.567L176.457 141.966C173.294 139.4 169.962 139.789 167.406 142.735C164.695 145.752 167.455 150.123 170.615 152.689L196.526 176.985C196.526 176.985 224.59 200.922 224.849 200.96C229.597 201.654 198.467 205.602 198.467 205.602C194.631 206.235 194.494 211.855 194.494 211.855C195.123 215.697 196.513 219.312 200.349 218.678C200.349 218.678 248.152 218.579 248.274 218.598Z" fill="#EAC2A7"/>
<path d="M176.413 144.387C178.211 145.955 178.382 148.699 176.797 150.517C175.211 152.335 172.469 152.537 170.672 150.971L168.502 149.079C166.705 147.51 166.532 144.766 168.118 142.948C169.703 141.13 172.446 140.927 174.243 142.495L176.413 144.387Z" fill="#F4DDC9"/>
<path d="M198.02 118.011C199.816 119.579 199.989 122.323 198.403 124.142C196.819 125.96 194.077 126.162 192.278 124.596L190.108 122.703C188.311 121.135 188.139 118.391 189.724 116.573C191.31 114.755 194.053 114.552 195.85 116.12L198.02 118.011Z" fill="#F4DDC9"/>
<path d="M186.638 129.346C188.434 130.914 188.606 133.659 187.021 135.477C185.437 137.294 182.695 137.497 180.896 135.93L178.727 134.037C176.929 132.47 176.757 129.726 178.342 127.908C179.928 126.089 182.67 125.887 184.468 127.454L186.638 129.346Z" fill="#F4DDC9"/>
<path d="M213.1 113.842C214.647 115.174 214.822 117.508 213.491 119.055C212.158 120.602 209.825 120.777 208.277 119.444L206.721 118.105C205.175 116.773 205 114.44 206.331 112.892C207.663 111.346 209.997 111.171 211.544 112.503L213.1 113.842Z" fill="#F4DDC9"/>
<path d="M206.36 165.772C205.911 165.773 205.461 165.64 205.072 165.369C205.459 165.638 205.908 165.77 206.355 165.77C206.376 165.77 206.397 165.769 206.418 165.769L207.449 165.49L207.44 165.499C207.105 165.68 206.733 165.772 206.36 165.772Z" fill="#DAC0A9"/>
<path d="M204.454 168.105L203.249 167.274L177.856 147.153C177.741 146.117 177.256 145.122 176.413 144.387L174.243 142.495C173.431 141.787 172.426 141.44 171.422 141.44C171.187 141.44 170.951 141.459 170.719 141.497L169.971 140.905C170.741 140.572 171.544 140.398 172.359 140.398C173.731 140.398 175.135 140.894 176.456 141.966L200.37 161.567L204.887 165.226C204.947 165.277 205.009 165.325 205.072 165.369C205.46 165.64 205.911 165.773 206.359 165.772C206.733 165.772 207.105 165.68 207.439 165.498L204.454 168.105Z" fill="#E5B89A"/>
<path d="M177.856 147.153L170.719 141.497C170.952 141.459 171.187 141.44 171.422 141.44C172.426 141.44 173.431 141.787 174.243 142.495L176.413 144.387C177.256 145.122 177.742 146.116 177.856 147.153Z" fill="#EAC6AB"/>
<path d="M218.912 153.621L219.957 153.05L219.646 153.337C219.422 153.496 219.171 153.59 218.912 153.621Z" fill="#DAC0A9"/>
<path d="M208.89 145.925C208.889 145.925 208.887 145.925 208.886 145.924C208.88 145.918 208.874 145.912 208.868 145.906L208.89 145.925ZM208.738 145.795C208.668 145.738 208.595 145.684 208.526 145.625L193.433 132.648L193.436 132.646L208.738 145.795ZM192.772 132.079L187.064 127.173L192.774 132.078L192.772 132.079Z" fill="#DAC0A9"/>
<path d="M193.433 132.648L192.771 132.079L192.774 132.078L193.436 132.646L193.433 132.648Z" fill="#9F8776"/>
<path d="M216.939 155.829L187.984 131.567C187.783 130.732 187.331 129.951 186.637 129.346L184.468 127.454C183.703 126.787 182.767 126.441 181.821 126.403L180.74 125.497C181.116 125.376 181.541 125.323 181.989 125.323C183.751 125.323 185.874 126.15 186.804 126.949L187.064 127.172L192.771 132.079L193.432 132.648L208.525 145.625C208.594 145.684 208.667 145.738 208.738 145.795L208.867 145.906C208.874 145.912 208.88 145.918 208.886 145.924C208.887 145.925 208.888 145.925 208.89 145.925L217.433 153.266C217.767 153.555 218.178 153.691 218.588 153.691C218.661 153.691 218.734 153.687 218.807 153.679L218.912 153.621C219.171 153.59 219.422 153.496 219.646 153.337L216.939 155.829Z" fill="#E5B89A"/>
<path d="M187.985 131.567L181.821 126.403C182.767 126.441 183.703 126.787 184.468 127.454L186.638 129.346C187.331 129.951 187.783 130.732 187.985 131.567Z" fill="#EAC6AB"/>
<path d="M229.034 141.942L228.626 141.903C228.638 141.903 228.65 141.903 228.662 141.903C228.891 141.903 229.12 141.864 229.294 141.825C229.469 141.786 229.59 141.747 229.603 141.747C229.604 141.747 229.604 141.747 229.604 141.748C229.604 141.748 229.604 141.749 229.603 141.749C229.43 141.855 229.234 141.921 229.034 141.942ZM227.977 141.707C227.888 141.653 227.798 141.595 227.715 141.523L225.747 139.831C226.672 140.617 227.439 141.264 227.977 141.707Z" fill="#A6A292"/>
<path d="M220.121 135.007C220.067 134.966 220.014 134.926 219.961 134.888L219.89 134.841L219.787 134.771L209.509 125.924L209.396 125.725C211.612 127.649 216.047 131.496 220.121 135.007Z" fill="#D88C59"/>
<path d="M209.509 125.924L201.994 119.456L207.967 124.484C207.967 124.484 208.501 124.948 209.396 125.725L209.509 125.924Z" fill="#CDB4A3"/>
<path d="M195.887 114.517C195.203 114.228 194.466 114.09 193.721 114.09C193.212 114.09 192.698 114.154 192.196 114.278L192.06 114.163C192.741 114.07 193.305 114.011 193.807 114.011C194.575 114.011 195.201 114.149 195.887 114.517Z" fill="#E4CBB3"/>
<path d="M226.905 143.889L199.41 120.433C199.236 119.523 198.769 118.665 198.02 118.011L195.85 116.12C195.062 115.433 194.093 115.086 193.119 115.066L192.196 114.279C192.698 114.155 193.211 114.09 193.721 114.09C194.466 114.09 195.203 114.228 195.886 114.517C196.407 114.796 196.962 115.208 197.641 115.792L201.994 119.456L209.509 125.924L219.787 134.771L219.89 134.841L219.961 134.888C220.014 134.926 220.067 134.966 220.121 135.007C222.206 136.804 224.197 138.513 225.747 139.831L227.715 141.523C227.798 141.595 227.887 141.653 227.976 141.707C228.147 141.848 228.385 141.899 228.625 141.903L229.034 141.943C229.233 141.922 229.43 141.855 229.603 141.749C229.508 141.961 227.785 142.868 226.905 143.889Z" fill="#E5B89A"/>
<path d="M199.411 120.433L193.119 115.066C194.093 115.086 195.062 115.433 195.85 116.12L198.02 118.011C198.769 118.665 199.236 119.523 199.411 120.433Z" fill="#EAC6AB"/>
<path d="M211.358 111.317C210.574 110.77 209.886 110.525 209.204 110.525C209.044 110.525 208.885 110.539 208.724 110.565L208.39 110.258C208.553 110.166 208.753 110.124 208.98 110.124C209.711 110.124 210.724 110.562 211.694 111.176C211.583 111.218 211.471 111.265 211.358 111.317Z" fill="#ABA999"/>
<path d="M231.072 126.062L219.773 117.626C219.681 117.464 219.592 117.309 219.5 117.147L231.072 126.062Z" fill="#ABA999"/>
<path d="M219.773 117.626L212.094 111.892C211.838 111.672 211.594 111.481 211.358 111.317C211.472 111.265 211.583 111.217 211.694 111.176C212.188 111.488 212.67 111.846 213.099 112.215L219.501 117.147C219.593 117.309 219.681 117.464 219.773 117.626Z" fill="#A6A292"/>
<path d="M283.954 179.552L214.242 115.625C214.051 114.955 213.667 114.331 213.1 113.842L211.544 112.502C211.073 112.097 210.53 111.832 209.964 111.702L208.724 110.565C208.885 110.539 209.044 110.525 209.204 110.525C209.886 110.525 210.574 110.77 211.358 111.317C211.594 111.481 211.838 111.672 212.094 111.892L219.773 117.626L231.072 126.061C231.271 126.194 231.471 126.34 231.677 126.518L245.569 137.385L246.247 137.928L275.372 165.916C277.338 167.504 281.469 174.898 283.954 179.552Z" fill="#E5B89A"/>
<path d="M214.242 115.625L209.964 111.702C210.53 111.832 211.073 112.098 211.544 112.502L213.1 113.842C213.667 114.331 214.051 114.955 214.242 115.625Z" fill="#EAC6AB"/>
<path d="M246.172 228.711L303.225 276.007V191.057L290.205 179.846L246.172 228.711Z" fill="#C69C6D"/>
<path d="M206.718 213.203C206.718 215.47 204.879 217.309 202.611 217.309H200.147C197.88 217.309 196.041 215.47 196.041 213.203C196.041 210.935 197.88 209.096 200.147 209.096H202.611C204.879 209.096 206.718 210.935 206.718 213.203Z" fill="#F4DDC9"/>
<path d="M194.664 210.415C194.685 210.206 195.132 206.036 198.467 205.602C195.89 206.027 194.982 208.704 194.664 210.415ZM198.467 205.602C201.887 205.156 225.215 201.044 225.215 201.044L225.34 201.139C225.611 202.16 198.467 205.602 198.467 205.602Z" fill="#E29159"/>
<path d="M194.664 210.422C194.664 210.422 194.664 210.42 194.664 210.415C194.982 208.704 195.889 206.027 198.467 205.602C198.467 205.602 225.611 202.159 225.34 201.138L228.791 203.757L201.456 209.096H200.147C199.294 209.096 198.502 209.356 197.846 209.801L194.664 210.422Z" fill="#E5B89A"/>
<path d="M197.846 209.801C198.502 209.356 199.294 209.096 200.147 209.096H201.456L197.846 209.801Z" fill="#EAC6AB"/>
<path d="M79.1367 233.153L85.397 213.461C87.1973 210.845 90.9192 209.503 94.1056 211.93C94.1056 211.93 94.4658 211.916 95.0637 212.523C96.4444 213.922 97.432 215.961 97.3865 218.736C97.3865 218.736 95.5639 230.816 94.1315 240.44C93.9808 241.456 94.2637 250.73 96.8362 253.119C100.108 256.158 82.581 247.437 79.1367 233.153Z" fill="#EAC2A7"/>
<path d="M138.1 285.079L138 285.07C138.092 284.71 138.169 284.336 138.234 283.956L138.1 285.079ZM138.468 282.001C138.614 280.078 138.529 278.405 138.516 278.166C138.516 278.166 142.79 268.023 144.411 262.112C144.171 263.141 143.9 264.237 143.594 265.389C142.586 269.182 140.795 273.579 138.927 278.166L138.468 282.001ZM144.986 259.438C145.015 259.185 145.028 258.961 145.024 258.768L145.37 253.308L145.662 253.169C145.662 253.169 145.713 255.572 144.986 259.438Z" fill="#D6AE8F"/>
<path d="M138 285.07L135.556 284.847L137.572 275.573L140.223 267.624L141.866 260.485L142.367 254.744L145.369 253.308L145.024 258.768C145.028 258.961 145.015 259.185 144.986 259.438C144.892 259.935 144.786 260.455 144.665 260.998C144.585 261.36 144.5 261.731 144.411 262.112C142.79 268.023 138.516 278.167 138.516 278.167C138.529 278.405 138.614 280.078 138.468 282.001L138.234 283.956C138.169 284.336 138.092 284.71 138 285.07Z" fill="#E1B190"/>
<path d="M138.033 285.635L135.439 285.381L135.556 284.846L138 285.07L138.1 285.079L138.033 285.635Z" fill="#DDAD8A"/>
<path d="M111.578 270.51L96.7014 253.625C96.8838 253.689 97.0234 253.722 97.115 253.722C97.3388 253.722 97.2739 253.526 96.8357 253.119C95.0362 251.448 94.3569 246.408 94.1631 243.182C94.5618 242.888 94.791 242.526 94.7926 242.141C95.5631 243.467 96.9335 245.796 98.5708 248.568L109.155 267.185C109.527 267.841 110.013 268.393 110.578 268.827C111.208 269.889 111.578 270.51 111.578 270.51Z" fill="#E4B797"/>
<path d="M110.578 268.827C110.013 268.393 109.528 267.841 109.155 267.185L98.5713 248.568C102.621 255.425 108.303 264.996 110.578 268.827Z" fill="#E29763"/>
<path d="M94.1486 241.018C94.1325 241.003 94.1168 240.988 94.1011 240.974C94.1011 240.969 94.1015 240.964 94.1015 240.959C94.1102 240.966 94.1184 240.973 94.1271 240.98C94.1346 240.993 94.1416 241.005 94.1486 241.018Z" fill="#E4B797"/>
<path d="M94.1635 243.182C94.1076 242.255 94.092 241.479 94.101 240.974C94.1166 240.989 94.1322 241.003 94.1483 241.018C94.2021 241.113 94.26 241.214 94.3216 241.323C94.4345 241.522 94.5938 241.798 94.793 242.141C94.7914 242.526 94.5622 242.888 94.1635 243.182ZM94.1269 240.98C94.1183 240.973 94.1101 240.966 94.1014 240.959C94.1014 240.952 94.1019 240.944 94.1019 240.936C94.1101 240.951 94.1187 240.966 94.1269 240.98Z" fill="#D3A98C"/>
<path d="M94.2668 241.127C94.2668 241.127 94.2526 241.104 94.2285 241.063C94.2427 241.074 94.2568 241.085 94.271 241.097C94.268 241.117 94.2668 241.127 94.2668 241.127Z" fill="#E4B797"/>
<path d="M94.2702 241.097C94.2563 241.085 94.2423 241.074 94.2284 241.063C94.1996 241.014 94.1557 240.94 94.1035 240.851C94.1052 240.804 94.1068 240.759 94.1084 240.719L94.2809 241.022C94.2764 241.054 94.2727 241.079 94.2702 241.097Z" fill="#D3A98C"/>
<path d="M94.2814 241.022L94.1089 240.719C94.1146 240.597 94.122 240.503 94.1315 240.44C94.304 239.28 94.4822 238.085 94.6625 236.879L94.8391 236.958C94.5512 239.083 94.3376 240.617 94.2814 241.022Z" fill="#D28F63"/>
<path d="M95.9265 228.685L95.8916 228.67C95.968 228.161 96.0431 227.663 96.1158 227.177C96.0538 227.678 95.9902 228.181 95.9265 228.685Z" fill="#D3B59D"/>
<path d="M94.8387 236.958L94.6621 236.879C94.798 235.969 94.9348 235.053 95.0711 234.142L95.2083 234.204C95.0769 235.192 94.952 236.12 94.8387 236.958Z" fill="#9D9DA1"/>
<path d="M95.2084 234.203L95.0713 234.142C95.2093 233.221 95.3464 232.305 95.4811 231.406L95.5715 231.446C95.4475 232.396 95.3255 233.323 95.2084 234.203Z" fill="#A6A4A6"/>
<path d="M95.5718 231.446L95.4814 231.406C95.6215 230.472 95.7591 229.556 95.8917 228.67L95.9266 228.685C95.8087 229.613 95.6897 230.541 95.5718 231.446Z" fill="#9D9FA8"/>
<path d="M95.1161 212.576C95.0989 212.558 95.0812 212.54 95.0636 212.523C94.4932 211.944 94.1396 211.93 94.1079 211.93C94.1063 211.93 94.1055 211.93 94.1055 211.93C93.7269 211.642 93.3408 211.407 92.9507 211.221L92.9626 211.136C92.9626 211.136 94.062 211.552 95.1412 212.453C95.1326 212.494 95.1244 212.535 95.1161 212.576Z" fill="#D3B59D"/>
<path d="M97.2016 216.605C96.8628 214.915 96.0911 213.583 95.1162 212.576C95.1244 212.535 95.1326 212.494 95.1413 212.453C96.1823 213.322 97.2049 214.642 97.2028 216.475C97.2028 216.516 97.2024 216.559 97.2016 216.605Z" fill="#A98C77"/>
<path d="M97.1152 253.722C97.0237 253.722 96.884 253.689 96.7017 253.624L93.5202 250.014L88.7441 241.307L92.9506 211.221C93.3408 211.407 93.7268 211.642 94.1054 211.93C94.1054 211.93 94.1062 211.93 94.1079 211.93C94.1395 211.93 94.4931 211.944 95.0635 212.522C95.0812 212.54 95.0988 212.558 95.1161 212.576C96.091 213.583 96.8627 214.915 97.2015 216.605C97.1735 218.252 96.6861 222.595 96.1157 227.176C96.043 227.663 95.9678 228.161 95.8914 228.67C95.7588 229.555 95.6212 230.472 95.4812 231.406C95.3465 232.305 95.2093 233.221 95.0713 234.142C94.935 235.053 94.7982 235.969 94.6623 236.878C94.482 238.085 94.3038 239.28 94.1313 240.44C94.1219 240.503 94.1145 240.597 94.1087 240.719C94.1071 240.759 94.1054 240.804 94.1038 240.851C93.8685 240.451 93.4594 239.758 93.4475 239.758C93.4397 239.758 93.6036 240.057 94.1017 240.936C94.1017 240.944 94.1013 240.952 94.1013 240.959C94.1013 240.964 94.1009 240.969 94.1009 240.974C94.0919 241.478 94.1075 242.255 94.1633 243.182C94.3572 246.408 95.0364 251.448 96.836 253.118C97.2742 253.525 97.339 253.722 97.1152 253.722Z" fill="#E4B797"/>
<path d="M89.2314 212.681C94.4682 213.476 94.7849 222.404 89.8137 222.102C89.8137 222.102 82.5662 221.859 83.0874 220.725L85.4635 213.367C85.9838 212.233 89.2314 212.681 89.2314 212.681Z" fill="#F4DDC9"/>
<path d="M238.75 51.8097V69.0578C238.75 69.6249 239.21 70.0845 239.777 70.0845C240.344 70.0845 240.803 69.6249 240.803 69.0578V51.8097C240.803 51.2426 240.344 50.783 239.777 50.783C239.21 50.783 238.75 51.2426 238.75 51.8097Z" fill="#4D4D4D"/>
<path d="M242.732 51.7561L254.54 47.442C255.073 47.2474 255.347 46.6581 255.152 46.1254C254.958 45.5928 254.368 45.3189 253.836 45.5131L242.028 49.8272C241.495 50.0219 241.221 50.6116 241.416 51.1438C241.61 51.6765 242.2 51.9504 242.732 51.7561Z" fill="#4D4D4D"/>
<path d="M243.336 51.1144C243.336 53.0096 241.799 54.5464 239.904 54.5464C238.008 54.5464 236.473 53.0096 236.473 51.1144C236.473 49.2192 238.008 47.6829 239.904 47.6829C241.799 47.6829 243.336 49.2192 243.336 51.1144Z" fill="#998675"/>
</svg>
