<svg width="136" height="124" viewBox="0 0 136 124" fill="none" xmlns="http://www.w3.org/2000/svg">
<path d="M124.243 107.322C115.088 117.599 97.0219 118.211 81.7633 117.233H18.7757C17.0667 110.258 17.9219 94.668 10.7191 81.2603C-2.09823 57.4011 10.7193 36.4088 22.0716 25.0995C31.5928 15.6145 73.7069 -1.32927 86.1579 21.0617C98.6089 43.4527 118.018 39.4151 130.103 58.1354C142.188 76.8557 133.398 97.0442 124.243 107.322Z" fill="#0B4D29" fill-opacity="0.19"/>
<path d="M95.9007 42.2964C96.0053 42.211 96.0744 42.0838 96.0835 41.9418C96.0849 41.9245 96.0854 41.9068 96.0845 41.889C96.0797 41.7633 96.0288 41.6506 95.9496 41.5656C95.9348 41.8103 95.9189 42.0541 95.9007 42.2964ZM77.6176 14.2275C77.7476 13.9545 77.8839 13.6849 78.0254 13.4205C78.0604 13.3552 78.0791 13.2861 78.0839 13.2166C78.0964 13.0266 77.999 12.8375 77.82 12.7416C77.7447 12.7013 77.6636 12.6821 77.584 12.6821C77.405 12.6821 77.2318 12.778 77.1416 12.9469C76.9751 13.2578 76.8153 13.5759 76.6647 13.8974C76.9837 14.0025 77.3023 14.1129 77.6176 14.2275Z" fill="url(#paint0_linear)"/>
<path d="M79.0339 11.3816C79.1879 11.3816 79.3405 11.3106 79.4384 11.1767C79.5924 10.967 79.7517 10.7578 79.9129 10.5558C79.9791 10.4728 80.0146 10.3754 80.0209 10.2766C80.0314 10.1183 79.9666 9.958 79.8333 9.85149C79.7411 9.77808 79.6308 9.74209 79.5214 9.74209C79.3741 9.74209 79.2277 9.80686 79.1289 9.93113C78.9595 10.1437 78.7916 10.3634 78.6299 10.5842C78.4658 10.8073 78.5143 11.1211 78.7378 11.2847C78.8271 11.3499 78.9307 11.3816 79.0339 11.3816Z" fill="url(#paint1_linear)"/>
<path d="M111.543 32.9434C111.714 32.9434 111.88 32.857 111.974 32.7001C112.261 32.2212 112.532 31.7242 112.778 31.2228C112.807 31.1618 112.824 31.098 112.828 31.0347C112.841 30.838 112.736 30.6436 112.548 30.5515C112.477 30.517 112.402 30.5002 112.328 30.5002C112.143 30.5002 111.965 30.6033 111.878 30.7809C111.644 31.2573 111.387 31.7294 111.114 32.1843C110.971 32.4218 111.048 32.7294 111.286 32.8719C111.367 32.9203 111.456 32.9434 111.543 32.9434ZM113.334 29.0368C113.544 29.0368 113.74 28.9029 113.81 28.6922C113.984 28.1621 114.139 27.618 114.269 27.0738C114.276 27.0455 114.28 27.0172 114.282 26.9894C114.297 26.75 114.139 26.5274 113.898 26.4698C113.859 26.4602 113.82 26.4559 113.781 26.4559C113.555 26.4559 113.349 26.6104 113.294 26.8407C113.17 27.3574 113.024 27.8747 112.858 28.378C112.77 28.6404 112.914 28.9245 113.177 29.0113C113.229 29.0286 113.282 29.0368 113.334 29.0368ZM114.224 24.8317C114.479 24.8317 114.697 24.6383 114.723 24.3797C114.746 24.1484 114.765 23.9177 114.78 23.6874C114.801 23.3592 114.815 23.0271 114.82 22.7013C114.825 22.4245 114.604 22.1961 114.327 22.1918C114.324 22.1918 114.321 22.1918 114.319 22.1918C114.046 22.1918 113.823 22.4106 113.818 22.685C113.809 23.2119 113.778 23.7469 113.725 24.2804C113.697 24.5549 113.899 24.8015 114.174 24.8288C114.191 24.8307 114.208 24.8317 114.224 24.8317ZM114.179 20.535C114.2 20.535 114.22 20.5336 114.24 20.5312C114.484 20.5019 114.665 20.3028 114.68 20.0667C114.682 20.036 114.681 20.0048 114.678 19.9732C114.61 19.4195 114.519 18.861 114.405 18.3135C114.355 18.0769 114.147 17.9143 113.914 17.9143C113.88 17.9143 113.846 17.9176 113.811 17.9248C113.54 17.9815 113.367 18.2468 113.423 18.5179C113.531 19.038 113.619 19.5682 113.682 20.0941C113.713 20.3484 113.929 20.535 114.179 20.535ZM113.193 16.3554C113.249 16.3554 113.306 16.3463 113.362 16.3261C113.556 16.257 113.681 16.08 113.694 15.8866C113.698 15.8204 113.689 15.7523 113.666 15.6856C113.478 15.1607 113.266 14.6362 113.034 14.1272C112.95 13.9424 112.768 13.8335 112.578 13.8335C112.508 13.8335 112.438 13.8479 112.371 13.8786C112.119 13.9928 112.007 14.2903 112.122 14.5422C112.342 15.0258 112.544 15.5239 112.721 16.0224C112.794 16.2278 112.988 16.3554 113.193 16.3554ZM111.314 12.4929C111.406 12.4929 111.498 12.468 111.581 12.4157C111.722 12.3264 111.804 12.1786 111.814 12.0241C111.821 11.9219 111.796 11.8169 111.738 11.7243C111.44 11.2517 111.118 10.7862 110.782 10.3405C110.683 10.21 110.533 10.1414 110.381 10.1414C110.276 10.1414 110.17 10.1745 110.08 10.2426C109.858 10.4096 109.815 10.7239 109.982 10.9446C110.301 11.3678 110.607 11.8102 110.89 12.2593C110.985 12.4104 111.148 12.4929 111.314 12.4929ZM108.637 9.13137C108.765 9.13137 108.892 9.08292 108.99 8.98552C109.08 8.89579 109.129 8.78063 109.137 8.66308C109.146 8.52441 109.098 8.38287 108.992 8.27683C108.598 7.88003 108.183 7.4957 107.758 7.13441C107.664 7.05428 107.548 7.01493 107.433 7.01493C107.291 7.01493 107.151 7.07491 107.051 7.19151C106.871 7.40262 106.897 7.71881 107.108 7.89778C107.512 8.24133 107.906 8.60646 108.281 8.98359C108.379 9.08196 108.508 9.13137 108.637 9.13137ZM105.29 6.43436C105.456 6.43436 105.618 6.35232 105.713 6.20262C105.76 6.12873 105.786 6.04764 105.791 5.96607C105.802 5.7895 105.72 5.61245 105.56 5.51025C105.089 5.20941 104.599 4.92537 104.105 4.66579C104.03 4.62692 103.951 4.60821 103.872 4.60821C103.692 4.60821 103.518 4.70609 103.428 4.8769C103.299 5.12161 103.394 5.42485 103.639 5.55344C104.108 5.80006 104.573 6.06971 105.021 6.35567C105.104 6.40893 105.198 6.43436 105.29 6.43436ZM101.432 4.53768C101.638 4.53768 101.831 4.41053 101.904 4.20613C101.92 4.16055 101.93 4.11448 101.933 4.0689C101.947 3.85155 101.817 3.64187 101.602 3.56462C101.077 3.37558 100.537 3.20669 99.9977 3.06227C99.954 3.05027 99.9104 3.04499 99.8677 3.04499C99.646 3.04499 99.4435 3.19277 99.3835 3.41684C99.3125 3.68361 99.4709 3.95903 99.7381 4.03052C100.252 4.16774 100.764 4.32848 101.262 4.50793C101.319 4.52808 101.376 4.53768 101.432 4.53768ZM97.2551 3.53536C97.5041 3.53536 97.7195 3.35015 97.7517 3.09729C97.7531 3.08673 97.7541 3.07618 97.7551 3.0661C97.7718 2.80365 97.5818 2.56998 97.3179 2.53639C96.9101 2.48505 96.4956 2.44475 96.0863 2.41836C95.938 2.40876 95.7902 2.40061 95.6425 2.39389C95.6348 2.39389 95.6276 2.39341 95.6199 2.39341C95.3531 2.39341 95.1267 2.60021 95.1199 2.87322C95.1075 3.14959 95.3224 3.38374 95.5988 3.39574C95.7394 3.40197 95.88 3.40965 96.021 3.41876C96.4101 3.44419 96.8036 3.4821 97.1913 3.53104C97.2129 3.53392 97.2345 3.53536 97.2551 3.53536Z" fill="url(#paint2_linear)"/>
<path d="M109.496 35.7517C109.635 35.7517 109.774 35.6936 109.873 35.5804C110.054 35.3741 110.232 35.1625 110.402 34.9509C110.469 34.8674 110.505 34.7691 110.512 34.6697C110.522 34.5124 110.458 34.3526 110.326 34.2461C110.233 34.1717 110.122 34.1352 110.012 34.1352C109.865 34.1352 109.72 34.1995 109.621 34.3224C109.459 34.5229 109.29 34.724 109.119 34.9202C108.936 35.1284 108.958 35.4451 109.166 35.6274C109.261 35.7109 109.379 35.7517 109.496 35.7517Z" fill="url(#paint3_linear)"/>
<path d="M101.967 35.6C101.886 35.6581 101.777 35.6581 101.695 35.6L99.3741 33.9437C98.1419 34.449 96.82 34.7613 95.4526 34.8486L94.0904 37.3518C94.0424 37.4396 93.9446 37.4876 93.8457 37.4708L90.4727 36.9046C90.3738 36.8883 90.2966 36.8111 90.2802 36.7122L89.81 33.9015C88.5457 33.3727 87.3985 32.6458 86.3986 31.7663L83.6637 32.5734C83.5682 32.6017 83.4646 32.5662 83.4065 32.4846L81.422 29.6993C81.3639 29.6178 81.3639 29.5084 81.422 29.4273L83.0778 27.1055C82.5726 25.8733 82.2607 24.5519 82.1729 23.184L79.6697 21.8218C79.5819 21.7743 79.5344 21.676 79.5507 21.5776L80.1169 18.2041C80.1337 18.1057 80.211 18.0284 80.3093 18.0117L83.1201 17.5414C83.6493 16.2771 84.3757 15.1299 85.2557 14.1305L84.4482 11.3956C84.4199 11.2996 84.4558 11.1964 84.5369 11.1384L87.3227 9.15341C87.4043 9.09535 87.5132 9.09535 87.5948 9.15341L89.9161 10.8092C91.1482 10.3045 92.4701 9.99212 93.8376 9.90479L95.1997 7.40162C95.2477 7.31381 95.3456 7.26584 95.4444 7.28215L98.818 7.84833C98.9163 7.86512 98.9936 7.94237 99.0099 8.04073L99.4801 10.8519C100.744 11.3807 101.892 12.1076 102.892 12.9871L105.626 12.18C105.722 12.1517 105.826 12.1872 105.884 12.2688L107.869 15.0541C107.926 15.1357 107.926 15.2451 107.869 15.3262L106.212 17.648C106.718 18.8801 107.03 20.2015 107.117 21.5694L109.62 22.9311C109.708 22.9791 109.756 23.0775 109.739 23.1758L109.173 26.5494C109.157 26.6477 109.079 26.725 108.981 26.7418L106.17 27.212C105.641 28.4758 104.914 29.623 104.034 30.623L104.842 33.3579C104.87 33.4538 104.835 33.557 104.753 33.6151L101.967 35.6Z" fill="#318D61" fill-opacity="0.5"/>
<path d="M92.6363 20.6691C93.0921 20.1327 93.7298 19.806 94.4317 19.7489C95.8803 19.6313 97.1546 20.7143 97.2722 22.1633C97.3902 23.6123 96.3068 24.8862 94.8583 25.0042C93.4093 25.1218 92.1349 24.0384 92.0173 22.5898C92.0068 22.4584 92.0058 22.3278 92.0145 22.1988C92.0509 21.6379 92.2654 21.1053 92.6363 20.6691ZM98.0716 22.0985C97.9185 20.209 96.2564 18.7965 94.3665 18.9495C93.451 19.0239 92.6195 19.4499 92.025 20.15C91.43 20.8496 91.1436 21.7391 91.218 22.6546C91.3715 24.5441 93.0331 25.9566 94.9231 25.8036C96.6422 25.664 97.9665 24.2759 98.0759 22.6033C98.0864 22.4372 98.0855 22.2688 98.0716 22.0985Z" fill="#BDD0FB"/>
<path d="M103.036 22.8578C103.017 23.1448 102.984 23.4327 102.936 23.7205C102.92 23.8112 102.904 23.9014 102.886 23.9916C102.797 24.4355 102.672 24.8716 102.514 25.2933C102.512 25.2991 102.51 25.3049 102.508 25.3106C102.502 25.3269 102.496 25.3433 102.489 25.3596C102.477 25.3912 102.465 25.4229 102.452 25.4541C102.419 25.5371 102.337 25.586 102.253 25.5803C102.232 25.5788 102.212 25.5745 102.192 25.5664C102.089 25.5256 102.039 25.409 102.08 25.3063C102.29 24.7766 102.445 24.221 102.54 23.6543C103.013 20.8402 101.957 18.1164 99.9801 16.3339C98.8809 15.3421 97.4967 14.6421 95.931 14.3791C95.6566 14.3331 95.3821 14.3014 95.1082 14.2836C93.2643 14.1632 91.4501 14.6761 89.9253 15.7629C88.1735 17.0109 87.0123 18.8668 86.6563 20.988C85.9212 25.3692 88.8865 29.5281 93.2652 30.2632C93.5353 30.3083 93.8064 30.34 94.078 30.3577C95.254 30.4345 96.4339 30.2527 97.5322 29.8223C97.5605 29.8112 97.5897 29.8069 97.6185 29.8088C97.6934 29.8136 97.7629 29.8607 97.7922 29.9355C97.832 30.0387 97.7821 30.1553 97.6785 30.1956C96.5255 30.6475 95.2867 30.8385 94.0521 30.7579C93.7671 30.7392 93.4826 30.7061 93.199 30.6586C88.6015 29.887 85.4894 25.5179 86.261 20.9218C86.6347 18.695 87.8534 16.747 89.6925 15.4361C91.2932 14.2952 93.1976 13.7568 95.1336 13.883C95.421 13.9017 95.7094 13.9353 95.9972 13.9838C98.2245 14.3575 100.173 15.5762 101.483 17.4154C102.624 19.0165 103.163 20.9218 103.036 22.8578Z" fill="#BDD0FB"/>
<path d="M107.08 60.3103C107.097 60.3103 107.113 60.3089 107.13 60.306C107.39 60.2642 107.651 60.2139 107.908 60.1563C108.045 60.1256 108.141 60.0085 108.149 59.8746C108.151 59.8459 108.149 59.8161 108.143 59.7868C108.11 59.6424 107.982 59.5445 107.841 59.5445C107.818 59.5445 107.796 59.5469 107.773 59.5522C107.528 59.6069 107.278 59.6549 107.031 59.6947C106.862 59.7221 106.747 59.8809 106.775 60.0498C106.8 60.2024 106.931 60.3103 107.08 60.3103Z" fill="url(#paint4_linear)"/>
<path d="M105.004 60.4766C105.166 60.4766 105.328 60.4737 105.49 60.4679C105.65 60.4622 105.777 60.3355 105.788 60.1791C105.788 60.1685 105.788 60.158 105.788 60.1474C105.782 59.9804 105.645 59.849 105.479 59.849C105.475 59.849 105.471 59.849 105.467 59.849C105.314 59.8547 105.16 59.8576 105.006 59.8576C104.726 59.8576 104.446 59.8485 104.168 59.8303C104.078 59.8245 103.986 59.8173 103.895 59.8091C103.886 59.8087 103.877 59.8082 103.868 59.8082C103.71 59.8082 103.574 59.9296 103.56 60.0913C103.553 60.253 103.672 60.4113 103.842 60.4262C103.937 60.4348 104.033 60.442 104.128 60.4483C104.418 60.467 104.711 60.4766 105.004 60.4766ZM102.276 60.1911C102.419 60.1911 102.548 60.0913 102.579 59.9454C102.582 59.931 102.584 59.9161 102.585 59.9013C102.594 59.7501 102.492 59.611 102.34 59.5788C101.828 59.4704 101.318 59.3298 100.824 59.16C100.791 59.1484 100.757 59.1432 100.724 59.1432C100.595 59.1432 100.475 59.2238 100.431 59.3519C100.376 59.5131 100.461 59.6902 100.623 59.7453C101.14 59.9233 101.675 60.0711 102.212 60.1844C102.233 60.1892 102.255 60.1911 102.276 60.1911ZM99.2358 59.1446C99.35 59.1446 99.4604 59.0808 99.5141 58.9714C99.5323 58.934 99.5424 58.8941 99.5448 58.8553C99.553 58.7339 99.4882 58.6139 99.3721 58.5568C98.9033 58.327 98.4436 58.065 98.0061 57.7786C97.9538 57.744 97.8947 57.7277 97.8367 57.7277C97.7359 57.7277 97.6371 57.7771 97.5776 57.8678C97.4835 58.0113 97.5234 58.2027 97.6668 58.2963C98.1255 58.5971 98.6077 58.8716 99.0995 59.1129C99.1432 59.1345 99.1897 59.1446 99.2358 59.1446ZM96.546 57.3827C96.6338 57.3827 96.7211 57.3458 96.7825 57.2734C96.8267 57.2206 96.8512 57.1577 96.855 57.0939C96.8612 56.9994 96.8243 56.9029 96.7466 56.8372C96.3474 56.4985 95.9659 56.1319 95.6128 55.748C95.5513 55.6818 95.4683 55.6482 95.3849 55.6482C95.3095 55.6482 95.2347 55.6751 95.1752 55.7303C95.0495 55.8454 95.0413 56.0417 95.1569 56.1674C95.5274 56.57 95.9275 56.9543 96.3459 57.3093C96.404 57.3588 96.4755 57.3827 96.546 57.3827ZM94.3686 55.0183C94.431 55.0183 94.4939 54.9995 94.5485 54.9607C94.6272 54.9041 94.6714 54.8182 94.6771 54.7289C94.6819 54.6598 94.6637 54.5888 94.62 54.5284C94.3355 54.1311 94.0716 53.7141 93.8346 53.2871C93.7525 53.5553 93.6686 53.8211 93.5832 54.0845C93.7516 54.3595 93.9301 54.6282 94.1167 54.8892C94.1772 54.9736 94.2722 55.0183 94.3686 55.0183Z" fill="url(#paint5_linear)"/>
<path d="M116.216 54.0945C116.322 54.0945 116.424 54.0407 116.482 53.9433C116.758 53.4803 117.008 52.9952 117.226 52.5015C117.241 52.4674 117.249 52.4324 117.252 52.3969C117.26 52.2712 117.19 52.1474 117.067 52.0937C117.027 52.0754 116.985 52.0673 116.943 52.0673C116.824 52.0673 116.71 52.1359 116.659 52.252C116.452 52.7227 116.213 53.1852 115.95 53.6267C115.863 53.7735 115.911 53.9635 116.058 54.0508C116.107 54.0806 116.162 54.0945 116.216 54.0945ZM117.492 51.2003C117.625 51.2003 117.748 51.1139 117.788 50.98C117.943 50.4642 118.069 49.9331 118.161 49.4019C118.163 49.3909 118.165 49.3799 118.165 49.3688C118.176 49.2129 118.067 49.0714 117.909 49.044C117.891 49.0407 117.874 49.0392 117.856 49.0392C117.708 49.0392 117.578 49.1452 117.551 49.2959C117.463 49.8026 117.343 50.3093 117.195 50.8016C117.147 50.9642 117.239 51.1379 117.403 51.1868C117.432 51.196 117.462 51.2003 117.492 51.2003ZM118.034 48.0839C118.197 48.0839 118.333 47.9582 118.343 47.7946L118.344 47.7908C118.372 47.2514 118.367 46.7064 118.33 46.17C118.319 46.0063 118.183 45.8816 118.022 45.8816C118.015 45.8816 118.007 45.8816 118 45.8821C117.829 45.8941 117.702 46.0428 117.713 46.2122C117.748 46.7241 117.752 47.2442 117.725 47.7581C117.716 47.9289 117.847 48.0748 118.018 48.0834C118.024 48.0839 118.029 48.0839 118.034 48.0839ZM117.816 44.9301C117.836 44.9301 117.855 44.9282 117.875 44.9244C118.017 44.897 118.116 44.778 118.125 44.6408C118.127 44.6149 118.126 44.5885 118.12 44.5616C118.017 44.0314 117.881 43.5032 117.716 42.9912C117.673 42.8602 117.552 42.7772 117.421 42.7772C117.39 42.7772 117.357 42.782 117.326 42.7921C117.163 42.8449 117.074 43.0186 117.126 43.1822C117.284 43.6701 117.414 44.1739 117.513 44.6797C117.541 44.8274 117.671 44.9301 117.816 44.9301ZM116.843 41.9232C116.886 41.9232 116.931 41.914 116.973 41.8944C117.079 41.845 117.145 41.7427 117.152 41.6334C117.155 41.5835 117.146 41.5316 117.124 41.4832C116.897 40.9947 116.638 40.5149 116.353 40.0567C116.295 39.9622 116.194 39.9104 116.09 39.9104C116.034 39.9104 115.978 39.9252 115.927 39.9569C115.782 40.0471 115.737 40.2381 115.827 40.3834C116.099 40.8201 116.346 41.2778 116.562 41.7437C116.614 41.8569 116.726 41.9232 116.843 41.9232ZM115.176 39.2367C115.244 39.2367 115.313 39.2146 115.37 39.1686C115.44 39.112 115.479 39.0309 115.485 38.9474C115.49 38.8725 115.468 38.7962 115.417 38.7334C115.079 38.3126 114.713 37.9081 114.328 37.5324C114.268 37.4734 114.19 37.4441 114.112 37.4441C114.031 37.4441 113.951 37.4753 113.891 37.5372C113.771 37.6591 113.773 37.8553 113.896 37.9753C114.262 38.3337 114.612 38.7195 114.934 39.1211C114.996 39.1974 115.085 39.2367 115.176 39.2367ZM112.913 37.0267C113.006 37.0267 113.098 36.985 113.159 36.9053C113.198 36.8549 113.218 36.7964 113.222 36.7374C113.229 36.6376 113.187 36.5363 113.102 36.4711C112.672 36.1429 112.219 35.8387 111.755 35.5662C111.706 35.5369 111.652 35.5235 111.599 35.5235C111.493 35.5235 111.389 35.5782 111.332 35.6765C111.245 35.8238 111.295 36.0133 111.442 36.1002C111.884 36.3598 112.316 36.65 112.725 36.9629C112.781 37.0061 112.847 37.0267 112.913 37.0267Z" fill="url(#paint6_linear)"/>
<path d="M114.823 56.0115C114.909 56.0115 114.995 55.976 115.056 55.9059C115.228 55.7102 115.397 55.5048 115.56 55.2951C115.599 55.2443 115.62 55.1852 115.624 55.1257C115.631 55.0269 115.59 54.9261 115.505 54.8609C115.449 54.8167 115.382 54.7956 115.316 54.7956C115.223 54.7956 115.132 54.8369 115.071 54.9156C114.916 55.1152 114.754 55.311 114.59 55.4981C114.478 55.6267 114.491 55.8224 114.619 55.9352C114.678 55.9865 114.751 56.0115 114.823 56.0115Z" fill="url(#paint7_linear)"/>
<path d="M109.786 55.9362C109.732 55.9751 109.659 55.9751 109.604 55.9362L108.051 54.8278C107.226 55.1661 106.342 55.3748 105.426 55.4334L104.515 57.1084C104.483 57.1669 104.417 57.1991 104.351 57.188L102.094 56.809C102.028 56.7979 101.977 56.7466 101.966 56.6804L101.651 54.7995C100.805 54.4454 100.037 53.9594 99.3684 53.3707L97.5379 53.9109C97.4741 53.9296 97.405 53.9061 97.3661 53.8514L96.0375 51.9874C95.9991 51.9332 95.9991 51.8597 96.038 51.8055L97.1459 50.2519C96.8081 49.4276 96.5989 48.5433 96.5404 47.6278L94.8654 46.7167C94.8068 46.6845 94.7747 46.6188 94.7857 46.5531L95.1648 44.2956C95.1758 44.2293 95.2276 44.178 95.2933 44.167L97.1742 43.8522C97.5283 43.0063 98.0143 42.2386 98.6031 41.5698L98.0628 39.7393C98.0441 39.6755 98.0681 39.6064 98.1223 39.5675L99.9864 38.2394C100.041 38.2005 100.114 38.2005 100.168 38.2394L101.722 39.3473C102.546 39.0095 103.431 38.8003 104.346 38.7418L105.258 37.0667C105.289 37.0082 105.355 36.9761 105.421 36.9871L107.678 37.3661C107.744 37.3772 107.796 37.429 107.807 37.4947L108.122 39.3756C108.968 39.7297 109.735 40.2162 110.404 40.8045L112.234 40.2642C112.299 40.2455 112.368 40.2695 112.406 40.3237L113.735 42.1877C113.773 42.2424 113.773 42.3154 113.735 42.3701L112.627 43.9232C112.965 44.748 113.173 45.6323 113.232 46.5473L114.907 47.4589C114.966 47.4906 114.998 47.5563 114.987 47.6226L114.608 49.8796C114.597 49.9458 114.545 49.9976 114.479 50.0086L112.598 50.3229C112.244 51.1693 111.758 51.937 111.169 52.6059L111.709 54.4358C111.728 54.5001 111.705 54.5692 111.65 54.6081L109.786 55.9362Z" fill="#318D61" fill-opacity="0.5"/>
<path d="M104.746 45.3704C105.206 45.3334 105.651 45.4769 106.002 45.7749C106.352 46.0728 106.566 46.4898 106.603 46.9485C106.64 47.4072 106.497 47.8524 106.199 48.2037C105.901 48.5539 105.484 48.7674 105.026 48.8049C104.078 48.8816 103.246 48.1739 103.169 47.2273C103.162 47.1418 103.162 47.0574 103.167 46.9744C103.221 46.1362 103.885 45.4404 104.746 45.3704ZM107.22 46.8986C107.17 46.2748 106.88 45.7082 106.403 45.3032C105.926 44.8978 105.32 44.703 104.696 44.7534C103.41 44.858 102.449 45.9884 102.552 47.2772C102.656 48.5645 103.789 49.5265 105.075 49.4219C105.699 49.3715 106.265 49.0812 106.67 48.6043C107 48.2171 107.19 47.744 107.223 47.2455C107.23 47.1308 107.23 47.0152 107.22 46.8986Z" fill="#BDD0FB"/>
<path d="M110.675 47.4269C110.662 47.6226 110.639 47.8189 110.606 48.0161C110.54 48.4076 110.435 48.7929 110.292 49.1624C110.285 49.1787 110.279 49.1955 110.272 49.2118C110.222 49.3399 110.095 49.4147 109.965 49.4066C109.933 49.4047 109.901 49.3975 109.87 49.385C109.711 49.3221 109.635 49.1417 109.697 48.9829C109.834 48.6394 109.934 48.28 109.995 47.9139V47.9134C109.999 47.8937 110.002 47.8731 110.005 47.8534C110.142 46.9859 110.058 46.117 109.771 45.3109C109.615 44.8733 109.4 44.454 109.127 44.0639L109.12 44.0543C109.113 44.0447 109.107 44.0346 109.1 44.0255C108.292 42.8912 107.09 42.1399 105.717 41.9091C105.539 41.8793 105.361 41.8587 105.184 41.8472C103.991 41.769 102.816 42.1015 101.829 42.8049C100.695 43.6129 99.9434 44.8143 99.7131 46.1875C99.4832 47.5603 99.8004 48.9416 100.608 50.0759C101.416 51.2097 102.618 51.9616 103.991 52.1919C104.166 52.2216 104.341 52.2418 104.517 52.2533C105.279 52.3027 106.042 52.1856 106.753 51.9064C106.797 51.8896 106.843 51.8829 106.886 51.8858C107.002 51.8934 107.109 51.9664 107.154 52.0815C107.216 52.2408 107.139 52.4207 106.979 52.4831C106.184 52.795 105.329 52.9265 104.477 52.8713C104.28 52.8583 104.084 52.8358 103.889 52.8027C102.352 52.545 101.008 51.7039 100.104 50.4353C99.2001 49.1662 98.8432 47.6222 99.1018 46.0853C99.3599 44.5485 100.201 43.2046 101.47 42.3006C102.574 41.5137 103.888 41.1419 105.223 41.2292C105.421 41.2421 105.62 41.2652 105.819 41.2983C108.794 41.7978 110.867 44.4794 110.675 47.4269Z" fill="#BDD0FB"/>
<path d="M51.5969 94.4416C51.6401 93.9071 52.1857 93.445 53.1093 93.0741C52.1055 92.5209 51.5499 91.9274 51.5969 91.3454C51.739 89.5845 57.3153 88.5975 64.0523 89.1406C70.7893 89.6838 76.1358 91.5517 75.9938 93.3126C75.9511 93.8466 75.4051 94.3087 74.4815 94.6796C75.4857 95.2333 76.0408 95.8263 75.9938 96.4083C75.9511 96.9423 75.4051 97.4049 74.4815 97.7753C75.4857 98.329 76.0408 98.9225 75.9938 99.5045C75.9511 100.039 75.4051 100.501 74.4815 100.872C75.4857 101.425 76.0408 102.018 75.9938 102.6C75.931 103.379 74.8039 104.006 72.9849 104.417C73.0084 104.992 72.9955 105.623 72.9389 106.32C72.6755 109.564 69.0256 112.109 64.1982 112.109C59.3708 112.109 55.1926 108.64 55.1451 105.385C55.1336 104.587 55.1672 103.885 55.2397 103.26C52.9299 102.489 51.5231 101.547 51.5969 100.633C51.6401 100.099 52.1857 99.637 53.1093 99.2661C52.1055 98.7124 51.5499 98.1193 51.5969 97.5373C51.6401 97.0033 52.1857 96.5407 53.1093 96.1703C52.1055 95.6166 51.5499 95.0231 51.5969 94.4416Z" fill="#318D61" fill-opacity="0.5"/>
<path d="M67.1694 105.118C69.1702 105.118 71.0012 104.97 72.514 104.681C72.6018 104.664 72.6594 104.579 72.6426 104.491C72.6258 104.404 72.5414 104.346 72.4531 104.363C70.0862 104.816 66.9247 104.916 63.5512 104.644C60.7908 104.421 58.209 103.976 56.0853 103.356C55.9994 103.331 55.9097 103.38 55.8848 103.466C55.8598 103.552 55.9092 103.642 55.9946 103.667C58.1394 104.293 60.7433 104.742 63.5253 104.967C64.778 105.067 66.003 105.118 67.1694 105.118Z" fill="url(#paint8_linear)"/>
<path d="M67.1357 102.019C69.7358 102.019 72.0585 101.775 73.6976 101.308C73.7835 101.283 73.8329 101.194 73.8089 101.108C73.7839 101.022 73.6952 100.972 73.6088 100.996C71.2736 101.661 67.5138 101.868 63.551 101.548C59.631 101.232 55.9753 100.436 53.7716 99.4201C53.6905 99.3827 53.5945 99.4182 53.5566 99.4993C53.5197 99.5804 53.5547 99.6768 53.6358 99.7143C55.8722 100.745 59.5691 101.551 63.5251 101.871C64.7592 101.97 65.9755 102.019 67.1357 102.019Z" fill="#91B3FA"/>
<path d="M67.1693 98.9248C69.9762 98.9248 72.4323 98.6379 74.0858 98.0928C74.1707 98.065 74.2167 97.9733 74.1884 97.8884C74.1606 97.8035 74.0694 97.7574 73.984 97.7853C71.6838 98.5438 67.7835 98.7929 63.5511 98.4522C59.6315 98.136 55.9753 97.3405 53.7716 96.3242C53.6905 96.2868 53.5945 96.3223 53.5566 96.4034C53.5197 96.4845 53.5547 96.5805 53.6358 96.6179C55.8727 97.6495 59.5696 98.4556 63.5251 98.7746C64.7784 98.8759 66.0043 98.9248 67.1693 98.9248Z" fill="#91B3FA"/>
<path d="M67.1481 95.8276C69.3744 95.8276 71.3997 95.6477 72.9739 95.2979C73.0612 95.2783 73.1159 95.1919 73.0968 95.105C73.0776 95.0177 72.9907 94.9625 72.9039 94.9817C70.5365 95.5081 67.1274 95.6444 63.5514 95.356C59.6664 95.0427 56.0294 94.2558 53.8218 93.2511C53.7408 93.2136 53.6448 93.2501 53.6078 93.3312C53.5704 93.4128 53.6064 93.5087 53.688 93.5457C55.9277 94.5653 59.605 95.3622 63.5255 95.6784C64.7639 95.7782 65.9836 95.8276 67.1481 95.8276Z" fill="#91B3FA"/>
<path d="M64.474 94.3123C74.5942 94.3123 78.8558 84.6926 80.5155 78.8134C81.334 75.9154 82.7236 73.2069 84.5958 70.8477C87.2837 67.4597 91.1102 61.7236 93.5831 54.0845C93.6685 53.8211 93.7525 53.5553 93.8345 53.2871C94.8527 49.9582 95.6069 46.2833 95.9011 42.2961C95.9193 42.0538 95.9351 41.8101 95.95 41.5654C95.9514 41.538 95.9529 41.5107 95.9548 41.4833C96.7652 27.3635 88.3503 18.1219 77.6179 14.2273C77.3027 14.1126 76.9841 14.0022 76.665 13.8971C73.089 12.7187 69.2841 12.1209 65.496 12.1209C64.4985 12.1209 63.5024 12.1626 62.5116 12.2456C45.9956 13.6328 29.6993 25.9298 31.4833 44.9149C32.5811 56.5964 39.1194 65.457 43.9876 70.5459C47.0785 73.7769 49.2837 77.7348 50.4775 82.044C51.938 87.319 55.4152 93.8924 63.679 94.2931C63.9477 94.306 64.213 94.3123 64.474 94.3123ZM67.9066 47.2377L64.974 53.7717L64.9716 53.7765C64.9246 53.8811 64.8363 53.9723 64.7134 54.0299C64.6276 54.0702 64.5354 54.0889 64.4447 54.0889C64.2432 54.0889 64.0484 53.9958 63.9457 53.8312L61.1158 49.2898L60.0507 51.5867L60.0411 51.6073C60.0334 51.6236 60.0247 51.6399 60.0147 51.6558C59.9134 51.8184 59.7205 51.911 59.5214 51.911C59.4322 51.911 59.341 51.8923 59.2566 51.853L55.4373 50.0681C55.1648 49.9409 55.063 49.6463 55.2099 49.4107C55.3111 49.2476 55.504 49.1555 55.7036 49.1555C55.7928 49.1555 55.884 49.1742 55.9684 49.2135L59.186 50.7173L60.303 47.5347C60.362 47.3687 60.4993 47.2214 60.6946 47.1407C60.7972 47.0985 60.9057 47.0784 61.0127 47.0784C61.29 47.0784 61.5563 47.2137 61.6834 47.4454L61.6887 47.456L64.3354 52.281L66.7905 45.4125L66.7949 45.401C66.8548 45.233 66.9815 45.0828 67.1667 44.9816C67.3121 44.9024 67.4747 44.8641 67.635 44.8641C67.9277 44.8641 68.2141 44.9907 68.3816 45.221L72.0809 50.3142C72.2316 50.5229 72.1798 50.8022 71.9509 50.9567C71.8482 51.0258 71.7273 51.0589 71.6069 51.0589C71.4399 51.0589 71.2744 50.9946 71.164 50.8713L67.9066 47.2377Z" fill="url(#paint9_linear)"/>
<path d="M60.9472 90.2233L55.1684 52.6374C55.0489 51.8611 54.6665 51.3395 54.3148 51.4729C53.9626 51.6063 53.7741 52.3437 53.8935 53.1201C53.8969 53.1407 53.9007 53.1661 53.9046 53.1868L60.4871 90.4233C60.5365 90.7031 60.6785 90.8801 60.8047 90.8182C60.9266 90.7583 60.9885 90.4944 60.9472 90.2233Z" fill="white"/>
<path d="M66.9456 90.5218L72.7244 52.936C72.8434 52.1596 73.2258 51.6381 73.5775 51.7715C73.9297 51.9049 74.1183 52.6423 73.9988 53.4187C73.9959 53.4393 73.9916 53.4647 73.9877 53.4854L67.4052 90.7219C67.3558 91.0017 67.2138 91.1787 67.0876 91.1168C66.9657 91.0568 66.9038 90.7929 66.9456 90.5218Z" fill="white"/>
<path d="M64.4454 54.0891C64.5361 54.0891 64.6282 54.0704 64.7141 54.0301C64.8369 53.9725 64.9252 53.8814 64.9722 53.7768L64.9746 53.772L67.9072 47.2379L71.1646 50.8715C71.275 50.9948 71.4405 51.0591 71.6075 51.0591C71.7279 51.0591 71.8489 51.026 71.9515 50.9569C72.1804 50.8024 72.2322 50.5232 72.0816 50.3145L68.3822 45.2213C68.2148 44.991 67.9283 44.8643 67.6356 44.8643C67.4754 44.8643 67.3127 44.9027 67.1674 44.9818C66.9821 45.0831 66.8555 45.2333 66.7955 45.4012L66.7912 45.4127L64.336 52.2812L61.6894 47.4562L61.6841 47.4457C61.5569 47.2139 61.2906 47.0786 61.0133 47.0786C60.9063 47.0786 60.7979 47.0988 60.6952 47.141C60.4999 47.2216 60.3627 47.3689 60.3037 47.5349L59.1867 50.7175L55.9691 49.2138C55.8846 49.1744 55.7935 49.1557 55.7042 49.1557C55.5046 49.1557 55.3117 49.2478 55.2105 49.411C55.0637 49.6466 55.1654 49.9412 55.4379 50.0683L59.2572 51.8532C59.3417 51.8925 59.4328 51.9113 59.5221 51.9113C59.7212 51.9113 59.9141 51.8187 60.0153 51.656C60.0254 51.6402 60.034 51.6239 60.0417 51.6075L60.0513 51.5869L61.1165 49.2901L63.9464 53.8315C64.0491 53.996 64.2439 54.0891 64.4454 54.0891Z" fill="white"/>
<path d="M2.08947 120.657L70.6235 120.657V106.94H2.08947C3.55625 106.94 3.55625 120.657 2.08947 120.657Z" fill="#318D61" fill-opacity="0.5"/>
<path d="M70.6239 117.225V110.947C70.6239 108.734 69.2694 106.94 67.5988 106.94H0.161057C0.0722885 106.94 -0.000160217 106.868 -0.000160217 106.779V104C-0.000160217 103.911 0.0722885 103.839 0.161057 103.839H72.0034C73.6381 103.839 76.2334 106.408 76.2334 109.579V118.346C76.2334 121.335 73.7134 123.759 72.1723 123.759H0.161057C0.0722885 123.759 -0.000160217 123.686 -0.000160217 123.598V120.819C-0.000160217 120.73 0.0722885 120.657 0.161057 120.657H68.0325C69.4638 120.657 70.6239 119.12 70.6239 117.225Z" fill="#1E653E"/>
<path d="M4.46266 109.916H68.7231C68.8118 109.916 68.8843 109.844 68.8843 109.755C68.8843 109.665 68.8118 109.593 68.7231 109.593H4.46266C4.37341 109.593 4.30145 109.665 4.30145 109.755C4.30145 109.844 4.37341 109.916 4.46266 109.916Z" fill="url(#paint10_linear)"/>
<path d="M4.46266 111.951H68.7231C68.8118 111.951 68.8843 111.879 68.8843 111.79C68.8843 111.701 68.8118 111.629 68.7231 111.629H4.46266C4.37341 111.629 4.30145 111.701 4.30145 111.79C4.30145 111.879 4.37341 111.951 4.46266 111.951Z" fill="url(#paint11_linear)"/>
<path d="M62.8633 103.932H0.915051C0.548958 103.932 0.252438 103.635 0.252438 103.27V91.2311C0.252438 90.8655 0.548958 90.5689 0.915051 90.5689H62.8633C63.2289 90.5689 63.5254 90.8655 63.5254 91.2311V103.27C63.5254 103.635 63.2289 103.932 62.8633 103.932Z" fill="#1E653E"/>
<path d="M13.0122 102.396H6.50839V92.1046H13.0122V102.396Z" fill="#7D97F4"/>
<path d="M16.4087 102.396H13.9684V92.1046H16.4087V102.396Z" fill="#7D97F4"/>
<path d="M99.0292 73.1208C99.0292 73.1208 98.7577 71.2342 99.7202 71.3906C100.683 71.5475 100.125 73.4629 99.5383 73.7839L99.0292 73.1208Z" fill="url(#paint12_linear)"/>
<path d="M45.436 104.604C45.4149 104.596 33.9739 84.56 32.4279 82.6744C32.1679 82.3572 31.7653 82.1955 31.3579 82.244L28.1643 82.6245L24.4132 90.7409L30.6627 87.1006C30.0447 91.3781 38.0733 97.7342 40.827 100.054C41.1067 100.289 41.1292 100.711 40.8769 100.975L39.7776 102.126C41.5827 103.955 43.665 105.13 46.0156 105.673L45.436 104.604Z" fill="url(#paint13_linear)"/>
<path d="M40.4131 101.505C40.4131 101.505 39.7116 101.732 39.4741 102.356C39.3604 102.655 39.4832 102.994 39.7428 103.18C40.8982 104.008 44.7093 106.68 46.4678 107.203C46.6117 107.246 46.749 107.116 46.7163 106.969C46.6261 106.56 46.3344 105.745 45.394 104.55L45.4784 104.721C45.5849 104.937 45.3498 105.162 45.1402 105.044C43.9637 104.38 41.568 102.926 40.4131 101.505Z" fill="#020D27"/>
<path d="M40.9798 109.522C40.9606 109.509 39.2439 105.374 39.2247 105.361C37.6509 95.7791 33.811 87.5724 32.6786 85.4133C32.4882 85.05 32.1264 84.8101 31.7176 84.7756L28.5134 84.5016L23.1971 91.6906L30.0541 89.3909C28.583 93.4544 35.1593 101.304 37.3865 104.133C37.6125 104.42 37.5497 104.837 37.2493 105.045L35.9399 105.95C37.3371 108.106 39.1388 109.678 41.3306 110.686L40.9798 109.522Z" fill="url(#paint14_linear)"/>
<path d="M36.6881 105.47C36.6881 105.47 35.9549 105.55 35.596 106.114C35.4243 106.383 35.4756 106.74 35.6925 106.975C36.6564 108.02 39.8476 111.408 41.4636 112.276C41.596 112.347 41.7568 112.247 41.7549 112.097C41.7491 111.679 41.6282 110.821 40.9488 109.46L40.9972 109.645C41.0582 109.878 40.7823 110.051 40.6004 109.892C39.5832 109.004 37.5311 107.096 36.6881 105.47Z" fill="#020D27"/>
<path d="M13.5144 82.9879C13.5144 82.9879 10.6154 87.2995 10.3774 89.2662C10.1399 91.233 11.1791 91.9129 14.213 92.1638C23.2415 92.9099 27.6927 90.2043 27.6927 90.2043C28.3103 86.266 28.7498 85.2646 33.9077 83.1232C33.9077 83.1232 27.3837 83.6414 26.0705 83.1319C24.7573 82.6223 13.5144 82.9879 13.5144 82.9879Z" fill="#020D27"/>
<path d="M25.0737 58.8325C25.0737 58.8325 23.0547 56.4435 20.908 59.3742C20.5194 59.9053 19.0262 59.4672 18.4792 60.578C18.1966 61.1519 17.5858 61.4776 16.9573 61.362C15.3907 61.0727 12.8309 61.0487 11.5666 63.5029C10.6017 65.3766 11.3469 66.4729 12.3113 67.0981C13.0195 67.5568 13.2723 68.4891 12.8439 69.2165C12.4331 69.9141 12.3559 70.8589 13.4168 71.996C15.7942 74.5438 20.5002 70.3791 20.5002 70.3791L24.2365 61.5496L25.0737 58.8325Z" fill="url(#paint15_linear)"/>
<path d="M21.3536 82.417C21.3536 82.417 24.729 79.2028 26.3906 77.0738C27.2888 75.9233 27.571 74.408 27.1554 73.0089C26.3969 70.4529 25.0486 67.8058 24.9258 67.3937C24.7372 66.7622 20.9525 66.7886 20.9525 66.7886C20.9525 66.7886 13.5044 71.6222 10.5785 79.8107L13.8647 80.8336C13.8647 80.8336 15.8094 77.5709 17.731 75.4967C17.731 75.4967 14.4059 79.8889 14.2889 81.6872L21.3536 82.417Z" fill="url(#paint16_linear)"/>
<path d="M27.7847 83.6857L25.2484 80.9259L22.3192 81.7147C22.3192 81.7147 18.9039 82.2439 16.9496 81.7147C14.9949 81.1859 14.9949 81.1859 14.9949 81.1859L10.5782 79.8108L9.88442 81.7713C9.70833 82.2688 9.8849 82.8216 10.3153 83.1272C10.6977 83.3988 11.1454 83.6972 11.4308 83.822C12.0129 84.0768 24.8305 83.9026 24.8305 83.9026L27.7847 83.6857Z" fill="url(#paint17_linear)"/>
<path d="M23.5538 62.2374L21.0098 66.9678C21.1778 68.0003 23.7783 68.0296 24.1804 67.4131C24.2212 67.3502 24.2447 67.2777 24.2601 67.2043L25.7815 64.0438C25.8473 63.7353 25.0023 62.697 24.724 62.5488L23.7131 62.0109C23.3235 61.8036 24.9481 61.7873 23.5538 62.2374Z" fill="url(#paint18_linear)"/>
<path d="M28.7017 61.1277C28.7017 61.1277 28.9891 62.7255 27.7329 64.758C26.4768 66.7895 25.2259 66.6979 24.5906 65.9733C23.9549 65.2488 23.1939 64.0416 23.5399 62.0149C23.8863 59.9882 28.2679 59.0895 28.7017 61.1277Z" fill="url(#paint19_linear)"/>
<path d="M25.0612 62.2352C25.0612 62.2352 27.0951 59.5636 28.6564 61.8926L28.6305 62.6973C28.6305 62.6973 30.6611 62.6023 30.4408 60.7305C30.2206 58.8588 28.5628 57.5806 26.2641 58.2197C23.9658 58.8593 22.6233 59.5876 22.3637 61.1835C22.1041 62.7788 23.4068 62.5183 23.4068 62.5183C23.4068 62.5183 23.9049 61.4171 24.5056 61.3418C25.1068 61.267 24.8894 62.1378 24.8894 62.1378L25.0612 62.2352Z" fill="url(#paint20_linear)"/>
<path d="M24.5947 62.1643C24.5947 62.1643 25.6483 60.7969 24.6892 60.5133C23.7301 60.2293 23.766 61.853 23.8284 62.457L24.5947 62.1643Z" fill="url(#paint21_linear)"/>
<path d="M19.389 84.7774C19.3981 84.7779 19.4068 84.7784 19.4159 84.7779L31.0825 84.7654C31.3708 84.7649 31.604 84.5313 31.604 84.2429C31.6035 83.954 31.3689 83.7161 31.081 83.7209L19.4144 83.7338C19.1266 83.7343 18.8929 83.968 18.8929 84.2563C18.8934 84.5361 19.1131 84.764 19.389 84.7774Z" fill="url(#paint22_linear)"/>
<path d="M41.5699 74.185H31.8542C31.1374 74.185 30.4853 74.5986 30.1792 75.2468L25.6877 84.771H37.7621C38.2237 84.771 38.6387 84.4889 38.8085 84.0594L42.2915 75.2458C42.493 74.7367 42.1178 74.185 41.5699 74.185Z" fill="#020D27"/>
<path d="M34.7253 79.0687C34.5147 79.7227 34.6701 80.358 35.0727 80.4875C35.4748 80.6171 35.9719 80.1919 36.1825 79.5375C36.3931 78.8835 36.2372 78.2482 35.8351 78.1187C35.4326 77.9891 34.9355 78.4142 34.7253 79.0687Z" fill="url(#paint23_linear)"/>
<path d="M54.5543 6.74967L58.5435 13.0726C58.5435 13.0726 58.2623 24.5448 46.7924 30.5012C35.3231 36.4575 29.2343 31.4623 29.2343 31.4623L24.1267 22.0417L54.5543 6.74967Z" fill="#318D61" fill-opacity="0.5"/>
<path d="M33.6808 0.00269699L59.4639 1.43925C60.7915 1.51314 61.5002 3.03749 60.6998 4.09931C56.7966 9.27934 47.9767 21.2842 45.0643 27.7678C44.7529 28.4616 44.0087 28.8527 43.2602 28.7203L16.4456 23.9797C15.2326 23.7653 14.665 22.3532 15.3938 21.3595C19.2352 16.1219 29.0497 2.96408 32.6017 0.324169C32.9122 0.09338 33.2946 -0.0188942 33.6808 0.00269699Z" fill="#1E653E"/>
<path d="M36.9779 12.4295C36.9779 12.4295 25.8377 23.455 25.2633 25.5384C24.6895 27.6217 28.5486 35.6628 28.5486 35.6628C28.0971 43.2904 29.5173 51.1506 33.8606 54.4675C33.8606 54.4675 36.0188 44.0916 33.244 40.5324C30.4688 36.9737 29.3782 35.504 29.3782 35.504C29.3782 35.504 25.722 26.831 25.961 25.4227C25.961 25.4227 38.1908 12.704 36.9779 12.4295Z" fill="#7D97F4"/>
<path d="M56.6448 4.38015C56.6448 4.38015 51.7925 11.8863 46.9397 19.3919C46.3332 20.3304 45.7267 21.2685 45.1298 22.1921C44.8314 22.6542 44.5353 23.1119 44.2426 23.5649C44.0963 23.7908 43.9504 24.0159 43.806 24.2395C43.7355 24.3479 43.6597 24.4693 43.593 24.5657C43.5133 24.6823 43.4524 24.7605 43.3665 24.8512C43.0402 25.2048 42.6075 25.4457 42.1536 25.5417C41.9271 25.5911 41.6953 25.606 41.4693 25.5877C41.2333 25.5671 40.9847 25.5378 40.7482 25.5138C39.7934 25.4131 38.8904 25.3181 38.0574 25.2303C34.7242 24.8795 32.5017 24.6454 32.5017 24.6454C32.4158 24.6363 32.3386 24.6986 32.3295 24.7845C32.3208 24.8704 32.3822 24.9467 32.4676 24.9568C32.4676 24.9568 34.6872 25.2116 38.0176 25.5935C38.8496 25.6885 39.7516 25.7921 40.7055 25.9015C40.9464 25.9279 41.181 25.9581 41.4353 25.9831C41.6997 26.0071 41.9712 25.9922 42.2375 25.9365C42.7706 25.8286 43.2825 25.5513 43.6712 25.1377C43.7676 25.0398 43.8684 24.9098 43.938 24.809C44.0219 24.6886 44.0867 24.5854 44.1625 24.4722C44.3089 24.25 44.4566 24.0264 44.6049 23.8014C44.9019 23.3518 45.2023 22.896 45.505 22.4373C46.1105 21.5194 46.7257 20.5867 47.3408 19.6544C52.2631 12.1934 57.185 4.73329 57.185 4.73329C57.2829 4.58455 57.2421 4.38447 57.0934 4.28611C56.9446 4.18823 56.7446 4.22901 56.6467 4.37775L56.6448 4.38015Z" fill="#91B3FA"/>
<path d="M30.4192 39.8591C30.4192 39.8591 30.4672 39.8898 30.5248 39.9358C30.555 39.957 30.5963 39.9925 30.6452 40.0356C30.6937 40.0779 30.7508 40.1239 30.8098 40.1858C30.8688 40.2463 30.9384 40.3091 31.007 40.3854C31.0751 40.4632 31.149 40.5471 31.2272 40.6368C31.3049 40.7275 31.3779 40.8341 31.4604 40.9406C31.5002 40.9953 31.5444 41.0485 31.5842 41.1075C31.6226 41.168 31.6619 41.2294 31.7017 41.2923C31.7795 41.4199 31.873 41.5442 31.9469 41.6886C32.0232 41.8311 32.1024 41.9784 32.1839 42.1295C32.2674 42.2802 32.3293 42.4476 32.4061 42.6117C32.4781 42.7782 32.5616 42.9442 32.6187 43.1251C32.6825 43.3036 32.7468 43.485 32.8125 43.6683L32.8614 43.8065L32.9008 43.949C32.9272 44.0445 32.9536 44.1399 32.98 44.2364C33.0323 44.4288 33.0855 44.6231 33.1388 44.8179C33.1781 45.0165 33.2179 45.2157 33.2578 45.4153C33.2952 45.6149 33.3441 45.813 33.3715 46.0141C33.3974 46.2156 33.4233 46.4161 33.4492 46.6153C33.4746 46.8144 33.5001 47.0121 33.525 47.2078C33.538 47.4041 33.5504 47.5989 33.5629 47.7898C33.5749 47.9813 33.5869 48.1694 33.5989 48.3536C33.6047 48.4457 33.6104 48.5369 33.6157 48.6271C33.6162 48.7173 33.6162 48.8066 33.6167 48.8944C33.6176 49.2465 33.6186 49.5795 33.6195 49.8871C33.6282 50.1946 33.6037 50.4763 33.5917 50.7258C33.5783 50.9758 33.5663 51.1936 33.5567 51.3731C33.537 51.732 33.526 51.9368 33.526 51.9368L33.5255 51.9426C33.5221 52.0045 33.5696 52.0573 33.6315 52.0611C33.692 52.0645 33.7443 52.0184 33.7491 51.9584C33.7491 51.9584 33.7673 51.7526 33.7985 51.3923C33.8139 51.2114 33.833 50.9926 33.8546 50.7412C33.8743 50.4897 33.9079 50.2066 33.9098 49.8957C33.9185 49.5848 33.9285 49.2485 33.9386 48.892C33.941 48.8032 33.9439 48.713 33.9463 48.6214C33.9439 48.5297 33.941 48.4371 33.9381 48.3435C33.9324 48.1564 33.9261 47.965 33.9199 47.7707C33.9132 47.5759 33.9069 47.3777 33.9002 47.1776C33.8815 46.9775 33.8618 46.7755 33.8426 46.5716C33.8225 46.3677 33.8023 46.1618 33.7822 45.9555C33.7611 45.7487 33.7174 45.5443 33.6857 45.338C33.6512 45.1317 33.6167 44.9259 33.5826 44.7205C33.5341 44.5175 33.4861 44.3155 33.4382 44.115C33.4142 44.0152 33.3897 43.9149 33.3657 43.8156L33.3297 43.6668L33.2832 43.5219C33.2213 43.3286 33.1604 43.1376 33.0999 42.95C33.0457 42.7605 32.9646 42.5829 32.8945 42.4059C32.8197 42.2303 32.7597 42.0532 32.6772 41.8911C32.5956 41.7279 32.5169 41.5691 32.4402 41.4156C32.3668 41.2606 32.2713 41.1229 32.1921 40.9838C32.1513 40.9151 32.111 40.8475 32.0717 40.7822C32.0309 40.717 31.9853 40.657 31.944 40.5965C31.8582 40.4775 31.7828 40.3605 31.7003 40.2578C31.6168 40.1556 31.5386 40.0606 31.4662 39.9723C31.3923 39.885 31.316 39.8106 31.2512 39.7401C31.1874 39.6695 31.1212 39.6115 31.066 39.5602C31.0108 39.5088 30.9633 39.4651 30.9158 39.4287C30.8232 39.3534 30.7848 39.3274 30.7848 39.3274L30.7747 39.3202C30.6265 39.2214 30.4264 39.2612 30.3271 39.409C30.2282 39.5568 30.2676 39.7574 30.4158 39.8567L30.4192 39.8591Z" fill="#91B3FA"/>
<path d="M30.7344 43.2339C30.7344 43.2339 30.744 43.2689 30.7622 43.3346C30.7804 43.4008 30.7943 43.4795 30.8203 43.5889C30.8735 43.8365 30.9503 44.1901 31.0419 44.6143C31.2195 45.4731 31.4565 46.6179 31.694 47.7633C32.1589 50.0558 32.6243 52.3488 32.6243 52.3488C32.6435 52.4438 32.7357 52.5057 32.8307 52.4865C32.9237 52.4678 32.9847 52.3781 32.9693 52.285C32.9693 52.285 32.5759 49.9781 32.1829 47.6711C31.9819 46.5177 31.7804 45.3647 31.6297 44.4996C31.5496 44.0634 31.4829 43.7002 31.4363 43.4455C31.4075 43.3054 31.3836 43.1864 31.3672 43.1197C31.3504 43.053 31.3418 43.0175 31.3418 43.0175C31.2996 42.8447 31.1254 42.7392 30.9527 42.7814C30.7799 42.8236 30.6744 42.9978 30.7166 43.1705L30.719 43.1792L30.7344 43.2339Z" fill="#91B3FA"/>
<defs>
<linearGradient id="paint0_linear" x1="-7.3855" y1="123.382" x2="90.1713" y2="38.0199" gradientUnits="userSpaceOnUse">
<stop stop-color="#C4D5FD"/>
<stop offset="1" stop-color="#CEDDFC"/>
</linearGradient>
<linearGradient id="paint1_linear" x1="-7.3847" y1="123.381" x2="90.1719" y2="38.0193" gradientUnits="userSpaceOnUse">
<stop stop-color="#C4D5FD"/>
<stop offset="1" stop-color="#CEDDFC"/>
</linearGradient>
<linearGradient id="paint2_linear" x1="-7.3851" y1="123.382" x2="90.1717" y2="38.0198" gradientUnits="userSpaceOnUse">
<stop stop-color="#C4D5FD"/>
<stop offset="1" stop-color="#CEDDFC"/>
</linearGradient>
<linearGradient id="paint3_linear" x1="-7.38505" y1="123.382" x2="90.1718" y2="38.0198" gradientUnits="userSpaceOnUse">
<stop stop-color="#C4D5FD"/>
<stop offset="1" stop-color="#CEDDFC"/>
</linearGradient>
<linearGradient id="paint4_linear" x1="-7.38553" y1="123.382" x2="90.171" y2="38.0196" gradientUnits="userSpaceOnUse">
<stop stop-color="#C4D5FD"/>
<stop offset="1" stop-color="#CEDDFC"/>
</linearGradient>
<linearGradient id="paint5_linear" x1="-7.38507" y1="123.382" x2="90.1717" y2="38.0196" gradientUnits="userSpaceOnUse">
<stop stop-color="#C4D5FD"/>
<stop offset="1" stop-color="#CEDDFC"/>
</linearGradient>
<linearGradient id="paint6_linear" x1="-7.38518" y1="123.382" x2="90.1716" y2="38.0199" gradientUnits="userSpaceOnUse">
<stop stop-color="#C4D5FD"/>
<stop offset="1" stop-color="#CEDDFC"/>
</linearGradient>
<linearGradient id="paint7_linear" x1="-7.38475" y1="123.382" x2="90.1721" y2="38.02" gradientUnits="userSpaceOnUse">
<stop stop-color="#C4D5FD"/>
<stop offset="1" stop-color="#CEDDFC"/>
</linearGradient>
<linearGradient id="paint8_linear" x1="64.9887" y1="106.665" x2="75.5598" y2="145.174" gradientUnits="userSpaceOnUse">
<stop stop-color="#4F52FF"/>
<stop offset="1" stop-color="#4042E2"/>
</linearGradient>
<linearGradient id="paint9_linear" x1="63.6789" y1="94.3123" x2="63.6789" y2="12.1209" gradientUnits="userSpaceOnUse">
<stop stop-color="#FBC343" stop-opacity="0.21"/>
<stop offset="1" stop-color="#FFF176" stop-opacity="0.8"/>
</linearGradient>
<linearGradient id="paint10_linear" x1="68.8843" y1="109.755" x2="4.30145" y2="109.755" gradientUnits="userSpaceOnUse">
<stop stop-color="#DAE3FE"/>
<stop offset="1" stop-color="#E9EFFD"/>
</linearGradient>
<linearGradient id="paint11_linear" x1="68.8843" y1="111.79" x2="4.30145" y2="111.79" gradientUnits="userSpaceOnUse">
<stop stop-color="#DAE3FE"/>
<stop offset="1" stop-color="#E9EFFD"/>
</linearGradient>
<linearGradient id="paint12_linear" x1="95.3558" y1="71.4689" x2="104.111" y2="73.757" gradientUnits="userSpaceOnUse">
<stop stop-color="#FEBBBA"/>
<stop offset="1" stop-color="#FF928E"/>
</linearGradient>
<linearGradient id="paint13_linear" x1="48.1786" y1="87.8199" x2="30.141" y2="98.1155" gradientUnits="userSpaceOnUse">
<stop stop-color="#FEBBBA"/>
<stop offset="1" stop-color="#FF928E"/>
</linearGradient>
<linearGradient id="paint14_linear" x1="46.4333" y1="90.3875" x2="108.149" y2="51.7524" gradientUnits="userSpaceOnUse">
<stop stop-color="#FEBBBA"/>
<stop offset="1" stop-color="#FF928E"/>
</linearGradient>
<linearGradient id="paint15_linear" x1="28.1647" y1="52.8372" x2="20.3221" y2="61.891" gradientUnits="userSpaceOnUse">
<stop stop-color="#09005D"/>
<stop offset="1" stop-color="#1A0F91"/>
</linearGradient>
<linearGradient id="paint16_linear" x1="18.9609" y1="82.417" x2="18.9609" y2="66.7885" gradientUnits="userSpaceOnUse">
<stop stop-color="#FBC343"/>
<stop offset="1" stop-color="#FFF176"/>
</linearGradient>
<linearGradient id="paint17_linear" x1="16.5859" y1="81.8855" x2="-1.38218" y2="81.8855" gradientUnits="userSpaceOnUse">
<stop stop-color="#FEBBBA"/>
<stop offset="1" stop-color="#FF928E"/>
</linearGradient>
<linearGradient id="paint18_linear" x1="23.8988" y1="73.2974" x2="23.4834" y2="66.8253" gradientUnits="userSpaceOnUse">
<stop stop-color="#FEBBBA"/>
<stop offset="1" stop-color="#FF928E"/>
</linearGradient>
<linearGradient id="paint19_linear" x1="23.2875" y1="67.8216" x2="31.106" y2="52.8587" gradientUnits="userSpaceOnUse">
<stop stop-color="#FEBBBA"/>
<stop offset="1" stop-color="#FF928E"/>
</linearGradient>
<linearGradient id="paint20_linear" x1="33.0567" y1="59.3357" x2="22.1085" y2="61.5324" gradientUnits="userSpaceOnUse">
<stop stop-color="#09005D"/>
<stop offset="1" stop-color="#1A0F91"/>
</linearGradient>
<linearGradient id="paint21_linear" x1="21.4985" y1="66.8866" x2="29.3169" y2="51.9239" gradientUnits="userSpaceOnUse">
<stop stop-color="#FEBBBA"/>
<stop offset="1" stop-color="#FF928E"/>
</linearGradient>
<linearGradient id="paint22_linear" x1="17.4098" y1="81.6778" x2="26.6709" y2="84.7153" gradientUnits="userSpaceOnUse">
<stop stop-color="#4F52FF"/>
<stop offset="1" stop-color="#4042E2"/>
</linearGradient>
<linearGradient id="paint23_linear" x1="34.1639" y1="77.3606" x2="37.1901" y2="81.9177" gradientUnits="userSpaceOnUse">
<stop stop-color="#4F52FF"/>
<stop offset="1" stop-color="#4042E2"/>
</linearGradient>
</defs>
</svg>
