<svg width="425" height="314" viewBox="0 0 425 314" fill="none" xmlns="http://www.w3.org/2000/svg">
<path d="M29.9011 270.932C30.1324 270.932 30.3615 270.914 30.5837 270.889L30.1619 263.569C30.0757 263.564 29.9895 263.557 29.9011 263.557C27.2227 263.557 25.0456 265.213 25.0456 267.245C25.0456 269.277 27.2227 270.932 29.9011 270.932ZM29.9011 260.952C29.9374 260.952 29.9737 260.954 30.0099 260.956L29.6902 255.413H57.8774L56.519 278.922C56.265 283.326 52.6183 286.769 48.205 286.769H39.3649C34.9516 286.769 31.3026 283.326 31.0486 278.922L30.7357 273.497C30.4612 273.522 30.1823 273.538 29.9011 273.538C25.7849 273.538 22.4375 270.715 22.4375 267.245C22.4375 263.775 25.7849 260.952 29.9011 260.952Z" fill="#607866"/>
<path d="M40.9297 253.284C43.6942 252.925 46.3023 251.322 48.0803 249.036C48.9648 247.889 49.6723 246.566 50.0669 245.129C50.1803 244.775 50.2438 244.41 50.3255 244.047C50.3731 243.679 50.4457 243.314 50.4638 242.947C50.5432 242.21 50.5114 241.468 50.4525 240.733C50.3073 239.268 49.9059 237.828 49.2505 236.506C48.9262 235.846 48.5407 235.213 48.0916 234.626C47.6517 234.039 47.1255 233.481 46.6266 233.025C46.1299 232.562 45.6514 232.165 45.2432 231.764C45.0345 231.567 44.844 231.372 44.6762 231.17C44.5061 230.964 44.3587 230.762 44.2544 230.571C44.0163 230.174 43.8711 229.68 43.8598 229.217C43.8439 228.75 43.9505 228.324 44.2521 227.974L43.5423 226.938C43.1613 227.131 42.8256 227.439 42.5716 227.793C42.3244 228.154 42.1589 228.557 42.0591 228.963C41.8686 229.784 41.9253 230.614 42.1725 231.413C42.7327 233.014 43.8008 234.061 44.5991 234.996C45.0005 235.467 45.3339 235.885 45.6287 236.363C45.7874 236.592 45.9145 236.842 46.0551 237.08C46.173 237.334 46.3091 237.574 46.4134 237.835C46.8647 238.856 47.1414 239.949 47.2661 241.056C47.502 243.283 47.0189 245.507 45.8351 247.464C44.6377 249.41 42.8302 251.043 40.5986 252.073L40.9297 253.284Z" fill="#E5ECFF"/>
<path d="M40.0859 246.687C38.952 245.682 38.0335 244.598 37.335 243.41C36.632 242.228 36.1512 240.96 35.9312 239.67C35.7135 238.38 35.7475 237.032 35.9924 235.685C36.2442 234.336 36.7182 233.009 37.4099 231.651L36.4959 230.789C35.0309 231.723 33.9264 233.216 33.2824 234.88C32.6315 236.547 32.4432 238.423 32.7766 240.23C33.11 242.04 33.9468 243.72 35.1261 245.058C36.3099 246.387 37.843 247.406 39.5235 247.809L40.0859 246.687Z" fill="#E5ECFF"/>
<path d="M262.592 292.366L262.509 291.939C280.447 288.465 295.731 281.51 308 271.384C320.269 261.258 329.529 247.963 335.407 231.784C339.994 219.157 342.253 205.049 342.252 190.702C342.253 168.64 336.912 146.023 326.521 127.365C316.13 108.708 300.706 94.0209 280.528 87.7435C275.921 86.3125 271.075 85.75 266.079 85.75C257.227 85.75 247.913 87.5167 238.677 89.2902C229.441 91.0636 220.284 92.8439 211.721 92.8462C211.572 92.8462 211.422 92.8462 211.273 92.8439C196.734 92.735 182.923 88.4919 169.213 84.2918C155.504 80.0917 141.899 75.937 127.777 75.9393C125.979 75.9393 124.169 76.0073 122.35 76.1502C102.59 77.7059 85.4793 87.5847 72.3643 101.72C59.2515 115.856 50.1506 134.244 46.4381 152.754C45.0094 159.871 44.2882 167.125 44.2882 174.378C44.2882 180.082 44.735 185.781 45.633 191.412C47.8533 205.325 52.3731 218.953 59.2289 230.995C62.1635 236.155 67.053 242.185 72.6478 247.254C75.4441 249.787 78.4172 252.082 81.4086 253.912C84.3976 255.74 87.4048 257.103 90.2623 257.783L90.1625 258.205L90.2464 257.781L262.676 291.939L262.592 292.366L262.509 291.939L262.592 292.366L262.508 292.79L90.0695 258.629L90.0605 258.627C87.085 257.917 84.003 256.513 80.9572 254.649C76.3852 251.853 71.8926 248.018 67.976 243.897C64.0594 239.774 60.7234 235.372 58.4759 231.424C51.5635 219.279 47.0119 205.554 44.778 191.548C43.8731 185.872 43.4241 180.125 43.4241 174.378C43.4241 167.069 44.1499 159.755 45.5877 152.584C49.3342 133.917 58.4986 115.396 71.7293 101.133C84.9577 86.8704 102.271 76.8623 122.282 75.2861C124.126 75.141 125.956 75.073 127.777 75.073C142.072 75.073 155.758 79.2662 169.467 83.4641C183.177 87.6641 196.908 91.8733 211.279 91.9776C211.426 91.9798 211.574 91.9799 211.721 91.9799C220.164 91.9799 229.277 90.2132 238.514 88.4397C247.751 86.6662 257.113 84.8837 266.079 84.8837C271.139 84.8837 276.075 85.453 280.785 86.918C301.217 93.2725 316.808 108.141 327.278 126.946C337.75 145.751 343.118 168.502 343.119 190.702C343.118 205.139 340.847 219.343 336.221 232.079C330.297 248.39 320.944 261.827 308.551 272.053C296.159 282.278 280.732 289.293 262.674 292.79L262.591 292.806L262.508 292.79L262.592 292.366Z" fill="#FBC343"/>
<path d="M166.241 286.594L166.139 287.007C130.42 278.185 103.128 251.563 93.7054 221.055C90.8978 211.963 89.5348 202.184 89.5348 192.217C89.5348 170.609 95.9438 148.119 107.993 129.831C120.038 111.545 137.745 97.4568 160.317 92.7306C165.846 91.5717 171.513 91.125 177.197 91.125C183.123 91.125 189.064 91.6103 194.886 92.2838C211.703 94.2274 228.891 96.6177 245.845 96.6177C247.646 96.6177 249.444 96.5905 251.239 96.5338C268.717 95.9805 285.761 90.9889 303.481 90.9843C304.163 90.9843 304.847 90.9911 305.531 91.007C331.634 91.5921 353.277 102.609 368.376 119.197C383.477 135.784 392.046 157.941 392.047 180.828C392.047 188.521 391.079 196.295 389.065 203.969C385.759 216.563 380.151 228.746 372.294 239.325C368.887 243.911 363.478 249.104 357.411 253.388C351.343 257.665 344.626 261.035 338.563 261.922L166.22 287.027L166.139 287.007L166.241 286.594L166.179 286.175L338.441 261.081C344.288 260.233 350.926 256.926 356.921 252.692C362.917 248.462 368.278 243.31 371.611 238.819C379.398 228.333 384.963 216.25 388.242 203.754C390.237 196.152 391.196 188.45 391.196 180.828C391.197 158.152 382.703 136.196 367.747 119.768C352.79 103.342 331.383 92.4403 305.512 91.8575C304.834 91.8416 304.157 91.8348 303.481 91.8348C285.923 91.8302 268.888 96.815 251.266 97.382C249.461 97.4409 247.654 97.4682 245.845 97.4682C228.812 97.4682 211.592 95.0687 194.788 93.1275C188.985 92.4584 183.075 91.9754 177.197 91.9754C171.557 91.9754 165.948 92.4176 160.492 93.5629C138.169 98.237 120.654 112.162 108.703 130.298C96.7511 148.434 90.3852 170.777 90.3852 192.217C90.3852 202.107 91.7391 211.802 94.5195 220.806C103.84 251.005 130.914 277.437 166.343 286.181L166.241 286.594L166.179 286.175L166.241 286.594Z" fill="#FBC343"/>
<path d="M76.9634 228.671C86.5043 256.282 97.9003 283.549 137.538 294.076L308.857 292.257C347.462 274.023 368.559 238.021 372.068 199.177C373.231 186.341 372.471 173.19 369.778 160.274C369.075 156.873 368.236 153.487 367.26 150.13C358.41 119.616 339.677 90.8483 311.811 74.6217C293.907 64.1941 270.956 67.6367 251.94 72.9889C234.795 77.8126 218.047 84.5709 200.346 86.6074C191.812 87.5848 183.19 87.4465 174.577 87.3059C168.957 87.2152 163.339 87.1245 157.756 87.3445C152.692 87.5418 147.664 87.9953 142.675 88.9319C121.305 92.9461 102.363 106.048 89.3618 123.567C84.8827 129.588 81.1135 136.131 78.1812 143.002C66.7353 169.883 67.4202 201.06 76.9634 228.671Z" fill="#0F1A12"/>
<path d="M402.856 270.481C403.637 260.997 398.326 250.769 388.996 243.791C380.498 237.434 370.014 234.193 359.95 231.639C304.029 217.445 244.961 219.139 187.839 220.776C136.792 222.241 84.003 223.754 33.4682 213.966C26.2745 212.573 18.7112 210.877 12.275 206.886C5.36258 202.597 0.985626 195.88 0.854095 189.353C0.604614 177.115 13.8625 168.729 21.7864 164.819C51.8787 149.969 88.9061 144.383 138.309 147.234C175.489 149.384 212.782 155.369 249.155 165.03C257.329 167.2 265.632 169.602 273.662 171.922C302.409 180.232 332.133 188.824 362.45 188.824C362.603 188.824 362.753 188.824 362.906 188.824C371.135 188.802 381.701 187.135 385.302 179.327C387.843 173.816 385.706 167.538 383.465 163.243C375.977 148.885 361.81 140.517 351.244 136.024C339.375 130.98 326.477 128.236 314.004 125.585C312.523 125.27 311.043 124.955 309.565 124.637C281.699 118.634 253.847 111.125 226.784 102.319C213.941 98.1417 207.35 92.7079 206.633 85.7093C205.998 79.4999 210.554 74.0638 215.352 71.4308C221.1 68.274 227.891 67.8635 233.165 67.8613C233.19 67.8613 233.216 67.8613 233.24 67.8613C249.157 67.8613 264.952 71.7665 278.926 79.1597C284.117 81.9038 289.126 85.1718 293.97 88.331C300.383 92.5129 307.014 96.8377 314.162 100.02C327.984 106.17 344.347 108.436 362.798 106.753C377.044 105.453 387.902 101.956 395.995 96.0598C400.877 92.5016 404.953 87.9137 408.894 83.4732C413.684 78.0802 418.636 72.5036 425 68.8818L424.579 68.1425C418.093 71.8345 413.093 77.4656 408.258 82.9108C404.347 87.315 400.302 91.8688 395.494 95.3727C387.529 101.176 376.809 104.621 362.721 105.905C344.419 107.574 328.196 105.331 314.507 99.2416C307.421 96.0893 300.819 91.7826 294.434 87.6189C289.575 84.4484 284.549 81.1713 279.324 78.4068C265.229 70.9501 249.294 67.0108 233.24 67.0108C233.214 67.0108 233.19 67.0108 233.165 67.0108C227.789 67.0131 220.86 67.4349 214.943 70.6847C209.899 73.4538 205.114 79.2006 205.787 85.7955C206.542 93.1638 213.323 98.8334 226.521 103.129C253.612 111.944 281.491 119.46 309.386 125.467C310.865 125.787 312.346 126.102 313.827 126.417C326.261 129.06 339.118 131.795 350.911 136.807C361.35 141.245 375.34 149.502 382.711 163.635C384.864 167.763 386.926 173.775 384.53 178.971C381.117 186.373 370.885 187.951 362.903 187.974C362.753 187.974 362.6 187.974 362.45 187.974C332.252 187.974 302.59 179.399 273.898 171.106C265.864 168.783 257.556 166.382 249.373 164.209C212.945 154.532 175.595 148.538 138.359 146.386C88.8018 143.524 51.6406 149.139 21.41 164.055C13.3047 168.055 -0.254883 176.662 0.00363159 189.371C0.141968 196.181 4.67319 203.169 11.8283 207.609C18.3847 211.678 26.0342 213.392 33.3049 214.801C83.9327 224.607 136.769 223.092 187.864 221.627C244.927 219.992 303.934 218.3 359.74 232.465C369.719 234.998 380.108 238.205 388.486 244.471C397.584 251.277 402.765 261.217 402.008 270.413L402.856 270.481Z" fill="white"/>
<path d="M155.649 270.814C144.081 273.779 128.19 276.439 133.254 286.327L162.072 286.299L155.649 270.814Z" fill="#E28B6D"/>
<path d="M265 286L317 286C326.518 286 320.397 286.363 320.397 276.845V219.917C320.397 210.399 312.681 202.683 303.163 202.683H275.289C265.771 202.683 258.055 210.399 258.055 219.917V276.845C258.055 286.363 255.482 286 265 286Z" fill="#FBC343"/>
<path d="M310.1 249.331C310.64 245.163 311.041 240.976 311.287 236.776C311.518 232.238 311.632 227.682 311.302 223.133C311.128 220.86 310.869 218.586 310.324 216.354C310.036 215.245 309.691 214.138 309.145 213.109C308.87 212.596 308.547 212.102 308.128 211.678C307.713 211.256 307.183 210.916 306.589 210.786L306.515 211.108C307.562 211.383 308.268 212.34 308.74 213.315C309.224 214.308 309.523 215.397 309.765 216.488C310.239 218.679 310.462 220.928 310.586 223.178C310.814 227.686 310.721 232.213 310.446 236.728C310.211 240.854 309.845 244.972 309.368 249.079C309.615 249.156 309.859 249.24 310.1 249.331Z" fill="#CFD2DA"/>
<path d="M295.851 217.132C295.851 217.132 295.783 246.648 284.679 286H254.339L295.851 217.132Z" fill="#1F2C22"/>
<path d="M281.932 198.871C289.556 194.723 291.647 184.445 286.079 177.773C285.543 177.129 284.948 176.48 284.289 175.823C275.783 167.35 281.083 158.873 282.272 139.378C283.46 119.902 261.763 114.584 261.721 114.572C260.698 114.323 258.718 111.402 257.881 110.676C248.087 102.183 234.04 102.809 223.305 109.275C218.198 112.35 213.058 117.085 210.293 122.519C205.91 131.137 205.118 142.49 197.734 149.2C187.209 158.766 175.536 166.887 176.008 182.316C176.173 187.797 177.545 193.587 180.886 197.98C183.798 201.808 188.232 204.377 192.232 206.854C198.739 210.879 205.606 214.44 212.868 216.83C219.899 219.146 227.009 221.225 234.139 223.21C234.812 223.398 235.487 223.584 236.161 223.77L281.932 198.871Z" fill="#6F3428"/>
<path d="M232.316 190.446C206.833 181.697 192.992 210.219 173.96 265.873L155.649 270.814L157 285.5H221.5L232.316 190.446Z" fill="#314636"/>
<path d="M268.216 186.3L211.228 200.563L187.286 272.307L267.27 274.745L272.562 221.697L268.216 186.3Z" fill="#314636"/>
<path d="M198.038 273.577C200.505 273.577 203.533 272.803 203.533 272.803L195.035 272.543C195.416 273.327 196.636 273.577 198.038 273.577Z" fill="#1F2C22"/>
<path d="M203.533 272.803L214.256 271.726C213.447 268.801 211.445 266.58 207.551 266.58C207.393 266.58 207.232 266.585 207.068 266.592L250.17 260.586C251.85 260.353 253.35 259.414 254.285 257.999C254.908 257.058 255.633 255.865 256.002 254.513L266.207 217.132C252.205 231.227 255.302 251.882 243.34 253.932C235.422 255.289 212.918 258.504 202.183 262.979C200.011 263.884 194.017 268.34 194.947 272.295C194.967 272.384 194.997 272.465 195.035 272.543L203.535 272.801" fill="#1F2C22"/>
<path d="M217.018 268.801C216.61 268.159 208.037 266.458 207.068 266.592C203.88 267.027 202.138 269.524 201.369 271.436L214.055 278.126L217.018 268.801Z" fill="#102048"/>
<path d="M207.527 217.068L206.055 220.423C205.569 221.545 205.118 222.679 204.646 223.806C203.744 226.074 202.871 228.358 202.054 230.66C200.396 235.254 198.929 239.917 197.553 244.605C196.201 249.297 194.985 254.03 193.91 258.797C193.391 261.183 192.89 263.575 192.445 265.977C192.01 268.381 191.636 270.796 191.318 273.218L191.633 273.264C192.033 270.86 192.491 268.467 193.003 266.086C193.493 263.7 194.04 261.326 194.602 258.956C195.731 254.218 196.972 249.506 198.328 244.827C199.659 240.142 201.14 235.499 202.703 230.887C203.474 228.576 204.313 226.287 205.159 224.006C205.592 222.867 206.009 221.722 206.456 220.588L207.817 217.195L207.527 217.068Z" fill="#102048"/>
<path d="M161.974 280.906C161.974 280.906 164.371 283.741 171.941 280.981C175.507 281.394 182.14 281.077 194.756 279.017C194.756 279.017 190.175 282.222 179.815 282.773C179.815 282.773 180.258 285.821 185.719 285.687C192.289 285.522 193.048 285.125 199.036 285.374C200.26 285.424 202.925 285.367 205.812 285.279C210.847 285.113 216.567 284.846 216.567 284.846L221.556 275.929L211.6 271.161C208.545 269.964 207.018 269.549 205.533 269.34C199.104 268.429 195.044 267.703 190.436 268.497C185.315 269.374 169.674 274.563 161.974 280.906Z" fill="#F9B384"/>
<path d="M205.533 285.125L205.812 285.279C210.847 285.113 216.567 284.846 216.567 284.846L221.556 275.929L211.6 271.161C208.545 269.964 207.018 269.549 205.533 269.34C209.193 270.833 212.19 274.745 205.533 285.125Z" fill="#E28B6D"/>
<path d="M244.727 190.348C257.68 187.695 289.246 185.486 298.067 201.828C305.329 215.284 287.126 260.339 279.241 276.185C275.996 282.707 266.572 285.934 262.908 285.959L210.863 285.66C214.364 284.848 218.852 266.059 207.069 266.592L250.171 260.586C251.85 260.353 253.351 259.414 254.286 257.999C254.908 257.058 255.633 255.865 256.002 254.513L268.236 209.7L244.727 190.348Z" fill="#314636"/>
<path d="M129.569 285.959L180.346 285.927V281.138H129.274L129.569 285.959Z" fill="white"/>
<path d="M86.6672 285.959L147.92 285.941L125.577 220.609L64.3243 220.627L86.6672 285.959Z" fill="#8B9F90"/>
<path d="M101.189 256.772C103.067 259.77 106.575 261.001 109.251 259.684C109.41 259.611 109.564 259.527 109.716 259.43C112.444 257.729 113.038 253.771 111.054 250.601C109.07 247.426 105.255 246.235 102.527 247.943C101.706 248.458 101.082 249.175 100.656 250.014C99.6807 251.957 99.8055 254.561 101.189 256.772Z" fill="white"/>
<path d="M101.189 256.772C103.067 259.77 107.68 261.949 110.914 258.384C103.899 259.019 101.538 254.425 101.67 248.619C99.2704 251.272 99.8056 254.561 101.189 256.772Z" fill="#314636"/>
<path d="M190.409 268.331C187.805 268.714 185.286 269.442 182.786 270.218C180.289 271 177.836 271.914 175.423 272.928C173.001 273.917 170.635 275.058 168.34 276.321C166.056 277.604 163.832 279.031 161.868 280.779L162.079 281.036C163.119 280.262 164.192 279.539 165.303 278.874C166.406 278.194 167.542 277.568 168.692 276.974C170.991 275.779 173.343 274.679 175.749 273.706C178.126 272.658 180.566 271.769 183.013 270.898C184.238 270.467 185.471 270.061 186.714 269.683C187.953 269.295 189.202 268.939 190.465 268.66L190.409 268.331Z" fill="#6F3428"/>
<path d="M191.418 280.421L188.678 281.203C187.767 281.448 186.848 281.659 185.925 281.848C185.005 282.038 184.075 282.183 183.14 282.315C182.208 282.437 181.269 282.53 180.328 282.625L180.015 282.655L179.99 282.927C179.956 283.294 179.995 283.607 180.092 283.939C180.192 284.261 180.376 284.576 180.641 284.803C180.906 285.025 181.219 285.168 181.532 285.236C181.689 285.274 181.845 285.281 182 285.302L182.46 285.29V284.957L182.049 284.896C181.92 284.857 181.784 284.837 181.664 284.787C181.414 284.698 181.204 284.558 181.045 284.385C180.884 284.213 180.775 284 180.723 283.762C180.671 283.533 180.666 283.254 180.705 283.045L180.367 283.347C182.29 283.31 184.218 283.081 186.1 282.646C187.041 282.43 187.966 282.151 188.873 281.829C189.785 281.516 190.665 281.131 191.534 280.732L191.418 280.421Z" fill="#6F3428"/>
<path d="M193.738 273.819C191.536 274.101 189.32 274.316 187.104 274.543C184.891 274.788 182.673 275.001 180.457 275.352C178.253 275.704 176.062 276.105 173.869 276.502C171.678 276.904 169.488 277.305 167.304 277.747L166.787 277.852L167.007 278.332C167.152 278.645 167.29 279.117 167.571 279.509C167.689 279.72 167.882 279.879 168.041 280.058C168.231 280.197 168.415 280.353 168.615 280.464C169.42 280.934 170.279 281.092 171.118 281.256C172.81 281.532 174.493 281.521 176.164 281.467C177.001 281.435 177.836 281.399 178.668 281.324C179.5 281.265 180.333 281.203 181.16 281.097C182.818 280.925 184.467 280.689 186.113 280.451L186.073 280.119C184.415 280.256 182.766 280.441 181.11 280.539C180.283 280.602 179.457 280.652 178.629 280.689C177.802 280.743 176.976 280.757 176.151 280.766C174.502 280.773 172.844 280.743 171.25 280.48C170.47 280.321 169.665 280.153 169.027 279.766C168.866 279.675 168.735 279.555 168.585 279.453C168.476 279.317 168.333 279.21 168.252 279.054C168.045 278.763 167.952 278.423 167.76 277.979L167.462 278.564C171.835 277.738 176.203 276.858 180.582 276.099C182.759 275.702 184.97 275.436 187.177 275.139C189.381 274.833 191.592 274.552 193.79 274.148L193.738 273.819Z" fill="#6F3428"/>
<path d="M402.692 286.254H15.1965V285.12H402.692V286.254Z" fill="#102048"/>
<path d="M251.1 207.328C249.218 208.609 247.122 209.544 244.932 210.058C242.743 210.564 240.462 210.698 238.256 210.315C236.05 209.965 233.922 209.115 232.132 207.777C230.328 206.459 228.896 204.654 227.888 202.618L227.583 202.749C227.819 203.278 228.062 203.808 228.312 204.337C228.596 204.845 228.93 205.328 229.242 205.827C229.587 206.301 229.998 206.722 230.376 207.176C230.783 207.6 231.247 207.967 231.682 208.367C233.538 209.834 235.793 210.771 238.119 211.147C240.449 211.505 242.849 211.381 245.109 210.755C247.37 210.14 249.502 209.067 251.299 207.593L251.1 207.328Z" fill="#102048"/>
<path d="M266.054 217.089L263.211 226.748L260.415 236.42L257.647 246.099L256.272 250.941L255.584 253.363C255.347 254.171 255.153 254.996 254.835 255.699C254.211 257.162 252.949 258.244 251.523 258.99C250.078 259.729 248.477 260.187 246.861 260.543C245.235 260.893 243.591 261.128 241.922 261.344L236.934 262.02L226.962 263.399L216.997 264.834L217.038 265.149L227.037 263.963L237.029 262.723L242.023 262.09C243.683 261.884 245.365 261.65 247.023 261.301C248.678 260.943 250.338 260.482 251.89 259.7C253.418 258.915 254.875 257.695 255.57 256.03C255.673 255.833 255.744 255.622 255.813 255.411C255.882 255.203 255.961 254.989 256.011 254.79L256.35 253.579L257.027 251.154L258.382 246.306L261.076 236.606L263.741 226.897L266.36 217.175L266.054 217.089Z" fill="#102048"/>
<path d="M233.685 170.087L231.133 192.056C230.374 198.597 237.266 204.076 244.252 202.264C248.246 201.227 252.409 198.463 256.716 194.308C257.602 193.453 258.14 192.349 258.261 191.169L260.981 164.692L233.685 170.087Z" fill="#F9B384"/>
<path d="M233.338 173.074L231.949 185.037C237.594 185.924 245.552 182.749 253.626 172.033L233.338 173.074Z" fill="#3C1C16"/>
<path d="M219.415 154.269C219.74 158.254 220.37 162.415 221.488 166.155C223.377 172.439 226.671 177.51 232.316 178.449C248.934 181.211 260.977 164.69 260.977 164.69L262.91 142.209L252.88 124.857L230.421 124.206L219.469 137.163C219.469 137.163 218.676 145.243 219.415 154.269Z" fill="#F9B384"/>
<path d="M263.448 150.752C254.528 150.085 252.473 142.546 251.864 132.774C251.864 132.774 227.701 126.789 219.122 143.966L212.617 144.671L232.317 118.518L262.933 122.172L268.923 142.045L263.448 150.752Z" fill="#6F3428"/>
<path d="M258.729 147.822C259.779 146.665 261.346 146.075 262.897 146.264C268.823 146.982 269.853 154.829 268.498 158.17C266.47 163.166 260.979 164.688 260.979 164.688L256.261 159.698C255.884 154.503 256.475 150.305 258.729 147.822Z" fill="#F9B384"/>
<path d="M262.907 205.484H252.753V197.367H262.907V205.484Z" fill="#1F2C22"/>
<path d="M287.744 192.727C286.525 192.14 285.157 191.607 283.623 191.133C285.053 191.593 286.433 192.122 287.744 192.727ZM283.575 191.12L260.228 172.022L258.52 188.652C258.648 188.645 258.774 188.638 258.903 188.632L268.216 186.3L268.5 188.614C273.674 188.877 278.897 189.625 283.575 191.12Z" fill="#673025"/>
<path d="M258.902 188.632C260.548 188.548 262.244 188.5 263.963 188.5C265.462 188.5 266.978 188.536 268.5 188.613L268.216 186.3L258.902 188.632Z" fill="#1F2C22"/>
<path d="M262.907 205.314C269.644 203.806 275.868 192.38 284.966 192.38C285.875 192.38 286.811 192.496 287.78 192.743C287.768 192.739 287.756 192.732 287.744 192.727C286.433 192.122 285.053 191.593 283.623 191.133C283.607 191.128 283.592 191.124 283.576 191.119H283.575C278.897 189.625 273.674 188.877 268.5 188.613C266.978 188.536 265.462 188.5 263.963 188.5C262.244 188.5 260.548 188.548 258.903 188.632C258.774 188.638 258.648 188.645 258.52 188.652L258.261 191.169C258.14 192.349 257.602 193.453 256.716 194.308C255.551 195.431 254.396 196.453 253.253 197.367L262.907 205.314Z" fill="#1F2C22"/>
<path d="M252.753 197.76C252.92 197.631 253.086 197.501 253.253 197.368C254.396 196.454 255.551 195.431 256.716 194.308C257.602 193.453 258.14 192.349 258.261 191.169L258.52 188.652L260.228 172.022L258.631 170.718C256.55 176.635 251.708 189.45 252.753 197.76Z" fill="#DD9C74"/>
<path d="M260.979 164.688C257.823 170.684 248.992 200.347 264.034 198.635C271.284 197.807 273.064 189.076 283.576 191.119L260.979 164.688Z" fill="#6F3428"/>
<path d="M260.463 153.255C260.44 152.559 260.659 151.922 261.003 151.382C261.355 150.847 261.843 150.402 262.396 150.155C262.948 149.906 263.547 149.86 264.113 150.064C264.686 150.266 265.197 150.718 265.698 151.239L266.062 151.021C265.776 150.309 265.284 149.599 264.501 149.194C264.305 149.096 264.107 148.994 263.884 148.962C263.667 148.91 263.447 148.865 263.223 148.883L262.888 148.894L262.564 148.962C262.343 148.998 262.142 149.08 261.945 149.175C261.159 149.545 260.542 150.185 260.189 150.94C259.827 151.69 259.754 152.591 260.048 153.346L260.463 153.255Z" fill="#3C1C16"/>
<path d="M228.667 149.906C228.613 151.434 227.723 152.643 226.679 152.607C225.634 152.57 224.831 151.303 224.884 149.774C224.938 148.246 225.828 147.037 226.873 147.073C227.917 147.109 228.72 148.379 228.667 149.906Z" fill="#3C1C16"/>
<path d="M245.143 150.484C245.09 152.012 244.2 153.221 243.155 153.183C242.111 153.146 241.308 151.879 241.361 150.35C241.414 148.824 242.305 147.615 243.349 147.651C244.394 147.688 245.197 148.955 245.143 150.484Z" fill="#3C1C16"/>
<path d="M228.876 165.461C229.595 166.366 230.463 167.214 231.592 167.774C232.729 168.323 234.124 168.393 235.322 168.04C236.531 167.695 237.562 167.039 238.485 166.311C239.419 165.59 240.217 164.735 240.941 163.835L240.598 163.479C239.658 164.13 238.775 164.826 237.84 165.411C236.916 166.001 235.965 166.547 234.974 166.833C233.985 167.128 232.982 167.112 232.01 166.781C231.043 166.423 230.133 165.781 229.22 165.107L228.876 165.461Z" fill="#3C1C16"/>
<path d="M223.089 145.186C223.826 144.678 224.51 144.198 225.208 143.887C225.91 143.585 226.582 143.429 227.277 143.508C227.97 143.574 228.684 143.819 229.42 144.141C230.16 144.463 230.885 144.896 231.718 145.263L231.944 145.025C231.492 144.227 230.897 143.513 230.139 142.943C229.385 142.379 228.451 141.943 227.404 141.864C226.358 141.762 225.278 142.138 224.508 142.748C223.722 143.349 223.168 144.129 222.83 144.984L223.089 145.186Z" fill="#3C1C16"/>
<path d="M239.597 145.764C240.389 145.202 241.17 144.771 241.978 144.515C242.786 144.268 243.601 144.172 244.421 144.268C245.239 144.356 246.057 144.587 246.878 144.925C247.699 145.266 248.505 145.708 249.402 146.134L249.629 145.896C249.118 145.027 248.411 144.277 247.556 143.685C246.702 143.095 245.667 142.698 244.577 142.601C243.49 142.494 242.351 142.732 241.419 143.281C240.481 143.816 239.736 144.626 239.338 145.563L239.597 145.764Z" fill="#3C1C16"/>
<path d="M249.52 166.881C252.759 166.881 255.44 164.313 255.554 161.05C255.671 157.716 253.062 154.918 249.727 154.8C249.655 154.797 249.583 154.797 249.511 154.797C246.272 154.797 243.591 157.365 243.477 160.628C243.36 163.962 245.969 166.76 249.304 166.878C249.376 166.881 249.448 166.881 249.52 166.881Z" fill="#FB9D7E"/>
<path d="M221.489 166.155C224.039 165.52 225.966 163.252 226.064 160.499C226.183 157.163 223.573 154.366 220.24 154.246C220.166 154.244 220.092 154.244 220.018 154.244C219.816 154.244 219.614 154.253 219.415 154.269C219.741 158.254 220.37 162.415 221.489 166.155Z" fill="#FB9D7E"/>
<path d="M234.107 160.286C234.642 160.286 235.142 159.914 235.252 159.342C235.88 156.07 235.844 152.471 235.487 148.713C235.472 148.559 235.352 148.477 235.231 148.477C235.126 148.477 235.021 148.538 234.982 148.665C233.631 153.074 229.242 156.294 229.944 157.589C230.439 158.499 232.295 159.53 233.597 160.168C233.763 160.249 233.937 160.286 234.107 160.286Z" fill="#FB9D7E"/>
<path d="M234.547 148.266C234.245 149.556 233.655 150.729 232.94 151.831C232.222 152.933 231.38 153.958 230.529 155.036C230.314 155.305 230.107 155.587 229.904 155.886C229.702 156.188 229.498 156.496 229.341 156.92C229.268 157.131 229.196 157.394 229.261 157.739C229.356 158.129 229.519 158.26 229.647 158.442C229.928 158.757 230.223 158.988 230.527 159.195C231.738 160.004 233.023 160.501 234.352 160.912L234.54 160.456C233.96 160.111 233.366 159.787 232.806 159.419C232.24 159.068 231.678 158.705 231.188 158.306C230.948 158.104 230.717 157.898 230.555 157.694C230.49 157.601 230.414 157.464 230.447 157.517C230.444 157.523 230.457 157.442 230.5 157.335C230.676 156.884 231.131 156.328 231.523 155.804C232.344 154.736 233.207 153.625 233.868 152.378C234.543 151.144 235.012 149.742 235.037 148.323L234.547 148.266Z" fill="#3C1C16"/>
<path d="M266.259 166.334C266.642 167.178 266.767 168.112 266.71 169.033C266.647 169.956 266.404 170.865 266.062 171.732C265.331 173.453 264.357 175.138 263.502 176.877C262.63 178.608 261.865 180.452 261.515 182.429C261.348 183.418 261.294 184.432 261.371 185.441C261.439 185.942 261.487 186.443 261.619 186.954C261.763 187.45 261.928 187.949 262.178 188.409C262.648 189.339 263.364 190.172 264.275 190.739C265.179 191.321 266.301 191.569 267.369 191.464C268.45 191.328 269.357 190.936 270.263 190.573C271.163 190.199 272.043 189.804 272.918 189.412C274.667 188.641 276.436 187.892 278.271 187.552C279.183 187.382 280.118 187.325 280.988 187.554C281.418 187.677 281.822 187.87 282.181 188.137C282.541 188.403 282.833 188.756 283.092 189.135L283.459 188.922C283.207 188.487 282.908 188.065 282.514 187.727C282.116 187.393 281.654 187.142 281.163 186.974C280.173 186.659 279.135 186.668 278.151 186.802C276.177 187.105 274.341 187.82 272.547 188.539L269.884 189.645C269.005 189.992 268.107 190.344 267.266 190.435C266.415 190.505 265.56 190.31 264.844 189.838C264.123 189.38 263.542 188.688 263.132 187.913C262.915 187.527 262.774 187.103 262.645 186.681C262.53 186.257 262.481 185.797 262.413 185.346C262.336 184.432 262.375 183.511 262.519 182.597C262.824 180.769 263.536 179.005 264.329 177.272C265.119 175.526 266.044 173.843 266.751 171.988C267.07 171.047 267.283 170.06 267.303 169.056C267.322 168.055 267.119 167.03 266.638 166.144L266.259 166.334Z" fill="#3C1C16"/>
<path d="M265.955 115.829C264.327 115.094 262.622 114.568 260.905 114.119C259.187 113.658 257.442 113.318 255.687 113.044C253.93 112.781 252.159 112.595 250.378 112.543C249.487 112.52 248.595 112.522 247.702 112.568C246.811 112.624 245.917 112.726 245.041 112.91L245.1 113.33C245.973 113.302 246.839 113.273 247.712 113.325C248.582 113.346 249.453 113.404 250.322 113.488C252.06 113.647 253.796 113.858 255.527 114.112C257.258 114.366 258.98 114.679 260.699 115.01C261.558 115.176 262.412 115.368 263.263 115.573C264.12 115.756 264.959 115.997 265.806 116.226L265.955 115.829Z" fill="#3C1C16"/>
<path d="M251.959 132.584C251.235 132.2 250.469 131.969 249.7 131.781C248.929 131.602 248.152 131.445 247.37 131.343C245.805 131.13 244.227 131.044 242.65 131.044C239.494 131.044 236.337 131.486 233.278 132.314C230.23 133.167 227.278 134.509 224.743 136.45C223.486 137.43 222.321 138.537 221.343 139.793C220.376 141.057 219.553 142.424 218.93 143.875L219.313 144.057C220.787 141.347 222.809 138.966 225.31 137.212C226.552 136.328 227.868 135.548 229.257 134.908C230.644 134.267 232.098 133.774 233.569 133.348C236.516 132.493 239.59 132.085 242.668 131.96C244.208 131.899 245.753 131.937 247.287 132.073C248.812 132.21 250.377 132.407 251.767 132.963L251.959 132.584Z" fill="#3C1C16"/>
<path d="M358.744 217.189L352.915 219.078C352.412 219.241 352.066 219.685 352.032 220.214C351.997 220.74 352.283 221.228 352.761 221.454L359.127 224.473L359.116 224.559L350.21 226.335C349.877 226.401 349.659 226.725 349.726 227.061C349.792 227.394 350.117 227.612 350.452 227.546L359.357 225.77C359.908 225.659 360.309 225.23 360.378 224.673C360.448 224.115 360.164 223.598 359.656 223.357L353.29 220.339L353.296 220.252L359.125 218.363C359.449 218.259 359.627 217.91 359.522 217.585C359.417 217.261 359.068 217.084 358.744 217.189Z" fill="#3C1C16"/>
<path d="M373.796 209.158L368.619 210.836C368.173 210.979 367.865 211.376 367.835 211.843C367.804 212.313 368.058 212.746 368.482 212.945L374.136 215.628L374.127 215.703L366.218 217.279C365.922 217.338 365.728 217.628 365.787 217.926C365.846 218.223 366.135 218.415 366.432 218.356L374.341 216.78C374.83 216.681 375.186 216.3 375.248 215.805C375.309 215.308 375.058 214.85 374.606 214.635L368.953 211.954L368.958 211.879L374.134 210.201C374.423 210.108 374.58 209.798 374.487 209.51C374.394 209.222 374.084 209.065 373.796 209.158Z" fill="#3C1C16"/>
<path d="M342.55 229.492L338.446 230.823C338.092 230.936 337.848 231.252 337.824 231.621C337.8 231.993 338.001 232.336 338.337 232.497L342.82 234.622L342.812 234.683L336.542 235.932C336.307 235.978 336.153 236.207 336.2 236.443C336.247 236.679 336.476 236.833 336.711 236.785L342.982 235.536C343.37 235.456 343.652 235.155 343.701 234.762C343.75 234.368 343.55 234.005 343.193 233.835L338.71 231.71L338.714 231.651L342.819 230.32C343.047 230.245 343.172 230 343.098 229.771C343.024 229.544 342.779 229.417 342.55 229.492Z" fill="#3C1C16"/>
<path d="M87.4771 195H102.525C104.984 195 107 193.029 107 190.623V177.375C107 174.969 104.984 173 102.525 173H87.4771C85.0156 173 83 174.969 83 177.375V190.623C83 193.029 85.0156 195 87.4771 195Z" fill="white"/>
<path d="M85.9788 197.288V196.862H104.197C105.569 196.862 106.814 196.302 107.721 195.394C108.628 194.487 109.188 193.242 109.188 191.868V175.464C109.188 174.092 108.628 172.845 107.721 171.94C106.814 171.033 105.569 170.473 104.197 170.473H85.9788C84.6045 170.473 83.3595 171.033 82.4523 171.94C81.5452 172.845 80.985 174.092 80.985 175.464V191.868C80.985 193.242 81.5452 194.487 82.4523 195.394C83.3595 196.302 84.6045 196.862 85.9788 196.862V197.288V197.712C82.7607 197.71 80.1368 195.086 80.1346 191.868V175.464C80.1368 172.249 82.7607 169.622 85.9788 169.622H104.197C107.412 169.622 110.036 172.249 110.039 175.464V191.868C110.036 195.086 107.412 197.71 104.197 197.712H85.9788V197.288Z" fill="white"/>
<path d="M95.0858 202.67L100.368 197.288H89.8062L95.0858 202.67Z" fill="white"/>
<path d="M364.542 256.858C372.632 258.774 381.605 261.43 385.442 269.585C389.067 277.289 385.294 284.773 378.012 288.415C373.084 290.883 354.307 295.035 362.105 304.147C367.142 310.035 375.89 308.214 381.643 304.739C384.64 302.927 387.371 307.62 384.382 309.425C377.841 313.378 370.311 314.827 363.196 311.559C355.473 308.012 352.434 298.92 358.326 292.271C361.347 288.86 365.614 287.256 369.808 285.814C373.774 284.449 378.968 282.923 380.893 278.741C382.705 274.806 380.327 270.309 377.308 267.717C373.401 264.367 367.968 263.244 363.099 262.092C359.701 261.287 361.14 256.053 364.542 256.858Z" fill="#607866"/>
<path d="M290.183 266.782C280.986 267.32 280.325 255.341 280.325 255.341C280.325 255.341 286.617 252.148 292.513 256.107L290.183 266.782Z" fill="#607866"/>
<path d="M289.663 263.154C286.001 263.097 284.199 258.493 284.199 258.493C284.199 258.493 286.899 256.842 290.299 258.532L289.663 263.154Z" fill="#3C1C16"/>
<path d="M316.158 255.697C322.535 249.047 313.851 240.772 313.851 240.772C313.851 240.772 307.338 243.484 306.524 250.54L316.158 255.697Z" fill="#607866"/>
<path d="M313.89 252.914C316.116 250.22 313.89 246.063 313.89 246.063C313.89 246.063 311.021 247 310.142 250.515L313.89 252.914Z" fill="#3C1C16"/>
<path d="M302.995 285.109C303.307 285.834 303.987 286.327 304.77 286.444C310.989 287.404 312.509 285.687 312.509 285.687C312.509 285.687 317.458 288.442 329.092 285.163C329.381 285.703 329.966 286.138 330.634 286.356C332.415 286.939 339.326 286.338 343.828 285.866C346.549 285.578 354.521 286.218 354.521 286.218C361.784 286.218 370.033 284.279 373.225 276.994C377.267 267.775 373.015 256.724 366.161 250.125C358.847 243.072 349.089 242.437 340.216 247.059C318.694 258.273 317.067 254.615 311.545 249.966L307.82 278.23C306.601 278.657 305.529 279.239 304.758 280.051C304.231 280.605 303.829 281.122 303.533 281.605C302.57 283.156 302.661 284.324 302.995 285.109Z" fill="#607866"/>
<path d="M314.562 277.518C326.576 273.724 325.569 260.26 317.804 255.697C319.508 258.403 320.498 261.7 320.498 265.315C320.498 270.375 318.107 274.627 314.562 277.518Z" fill="#1F2C22"/>
<path d="M287.92 267.639C289.671 273.797 292.563 277.323 295.528 279.285C298.289 281.129 301.102 281.609 303.131 281.609C304.957 281.609 306.771 281.321 308.506 280.77C315.106 278.695 320.498 272.912 320.498 265.315C320.498 255.722 313.53 248.369 304.759 248.369C294.718 248.369 284.801 256.658 287.92 267.639Z" fill="#607866"/>
<path d="M303.131 281.609C303.243 281.609 303.352 281.609 303.462 281.607C303.352 281.609 303.242 281.609 303.131 281.609C301.102 281.609 298.289 281.129 295.528 279.285C298.289 281.129 301.102 281.609 303.131 281.609Z" fill="#1D1F39"/>
<path d="M303.131 281.609C303.242 281.609 303.352 281.609 303.463 281.607C303.486 281.605 303.51 281.605 303.534 281.605C303.829 281.122 304.231 280.605 304.759 280.051C305.53 279.24 306.601 278.657 307.82 278.23C307.076 278.078 306.418 278.024 305.856 278.024C304.384 278.024 303.568 278.4 303.568 278.4C303.568 278.4 301.804 277.523 299.729 277.523C298.325 277.523 296.778 277.924 295.54 279.274L295.528 279.285C298.289 281.129 301.102 281.609 303.131 281.609Z" fill="#1F2C22"/>
<path d="M304.893 282.031C305.766 283.288 305.61 285.039 304.394 285.968C304.112 286.184 303.813 286.327 303.518 286.327H294.868C294.455 286.327 294.234 285.884 294.122 285.308C293.786 283.578 294.512 281.823 295.861 280.686C298.652 278.342 302.37 278.398 304.893 282.031Z" fill="#607866"/>
<path d="M320.5 277.382C318.748 277.305 317 277.378 315.254 277.534C313.508 277.691 311.772 277.979 310.058 278.401C309.201 278.614 308.357 278.886 307.531 279.222C306.71 279.559 305.894 279.943 305.152 280.467C304.415 280.986 303.736 281.639 303.279 282.451C302.832 283.27 302.682 284.238 302.839 285.125L303.155 285.091C303.123 284.249 303.312 283.419 303.77 282.741C304.207 282.054 304.842 281.498 305.549 281.056C306.968 280.165 308.602 279.605 310.259 279.181C311.915 278.729 313.623 278.464 315.332 278.219C317.044 277.988 318.773 277.82 320.5 277.702V277.382Z" fill="#3C1C16"/>
<path d="M349.37 260.305C347.64 260.586 345.917 261.194 344.476 262.287C343.777 262.85 343.132 263.516 342.687 264.312C342.23 265.097 341.903 265.957 341.722 266.841C341.552 267.728 341.485 268.628 341.517 269.522C341.56 270.415 341.679 271.297 341.849 272.168C342.208 273.908 342.763 275.591 343.453 277.212C343.794 278.026 344.179 278.82 344.599 279.598L344.76 279.888L344.845 280.038L344.85 280.047C344.812 280.174 345.213 278.972 345.038 279.482L345.02 279.491L344.982 279.505L344.908 279.534L344.308 279.77C343.908 279.924 343.502 280.065 343.094 280.201C341.463 280.741 339.781 281.122 338.081 281.389C336.388 281.63 334.61 281.82 332.908 282.249C332.054 282.464 331.204 282.721 330.392 283.104C329.986 283.29 329.591 283.528 329.246 283.855C329.082 284.022 328.917 284.222 328.855 284.481C328.763 284.735 328.844 285.016 328.951 285.238L329.231 285.086C329.061 284.746 329.218 284.397 329.52 284.14C329.82 283.884 330.188 283.675 330.58 283.519C331.358 283.19 332.196 282.979 333.035 282.802C334.725 282.428 336.424 282.294 338.182 282.093C339.928 281.868 341.652 281.469 343.333 280.938C343.753 280.802 344.171 280.661 344.584 280.507L345.202 280.271L345.279 280.242L345.318 280.226L345.337 280.219C345.167 280.725 345.581 279.525 345.535 279.645L345.531 279.636L345.455 279.5L345.303 279.219C344.902 278.464 344.538 277.682 344.194 276.895C343.509 275.321 342.956 273.686 342.597 272.016C342.427 271.18 342.306 270.336 342.258 269.49C342.228 268.644 342.255 267.798 342.397 266.97C342.689 265.324 343.512 263.777 344.823 262.716C346.118 261.639 347.754 260.995 349.431 260.618L349.37 260.305Z" fill="#3C1C16"/>
<path d="M300.113 262.639C299.507 263.755 298.686 264.752 297.589 265.095C297.046 265.265 296.456 265.31 295.846 265.242C295.542 265.213 295.237 265.131 294.923 265.086C294.617 264.995 294.308 264.904 293.984 264.832L293.828 265.149C294.112 265.335 294.411 265.505 294.714 265.673C295.039 265.791 295.359 265.945 295.707 266.018C296.397 266.195 297.161 266.188 297.88 265.968C298.601 265.741 299.227 265.26 299.653 264.678C300.081 264.093 300.362 263.435 300.453 262.73L300.113 262.639Z" fill="#3C1C16"/>
<path d="M309.981 258.378C309.463 259.536 308.722 260.596 307.656 261.022C307.128 261.235 306.543 261.323 305.929 261.303C305.624 261.299 305.313 261.24 304.996 261.219C304.685 261.153 304.37 261.088 304.041 261.04L303.91 261.369C304.207 261.532 304.519 261.677 304.834 261.822C305.167 261.915 305.498 262.042 305.851 262.09C306.552 262.212 307.313 262.144 308.013 261.87C308.715 261.589 309.301 261.06 309.681 260.446C310.063 259.829 310.291 259.153 310.328 258.443L309.981 258.378Z" fill="#3C1C16"/>
<path d="M100.431 125.769H90.8518L98.5013 76.2387H108.083L100.431 125.769Z" fill="#1E8785"/>
<path d="M90.8429 125.769H81.2634L88.9129 76.2387H98.4946L90.8429 125.769Z" fill="#64AEAC"/>
<path d="M42.3014 125.762H77.6597V103.015H42.3014V125.762Z" fill="#1E8785"/>
<path d="M52.505 114.389H67.457V110.406H52.505V114.389Z" fill="white"/>
<path d="M108.083 125.762H124.723V61.2685H108.083V125.762Z" fill="#64AEAC"/>
<path d="M34.1052 132.924H133.68V125.762H34.1052V132.924Z" fill="#1E8785"/>
<path d="M175.663 32.5778C175.663 50.2558 189.994 64.5864 207.672 64.5864C225.351 64.5864 239.682 50.2558 239.682 32.5778C239.682 14.8998 225.351 0.566948 207.672 0.566948C189.994 0.566948 175.663 14.8998 175.663 32.5778Z" fill="white"/>
<path d="M175.663 32.5779H176.23C176.23 41.2615 179.748 49.1197 185.438 54.812C191.13 60.5021 198.988 64.0195 207.672 64.0195C216.356 64.0195 224.214 60.5021 229.905 54.812C235.596 49.1197 239.114 41.2615 239.115 32.5779C239.114 23.8942 235.596 16.0361 229.905 10.3438C224.214 4.65371 216.356 1.13624 207.672 1.13397C198.988 1.13624 191.13 4.65371 185.438 10.3438C179.748 16.0361 176.23 23.8942 176.23 32.5779H175.663H175.096C175.096 14.5869 189.681 0.00230408 207.672 3.8147e-05C225.664 0.00230408 240.248 14.5869 240.249 32.5779C240.248 50.5688 225.664 65.1534 207.672 65.1534C189.681 65.1534 175.096 50.5688 175.096 32.5779H175.663Z" fill="#314636"/>
<path d="M195.013 39.225L208.692 32.7208L193.747 19.5581L192.997 20.4085L206.651 32.435L194.525 38.1999L195.013 39.225Z" fill="#102048"/>
<path d="M309.402 92.0979H359.269C363.134 92.0979 366.268 88.966 366.268 85.0993V57.064C366.268 53.1973 363.134 50.0654 359.269 50.0654H309.402C305.536 50.0654 302.403 53.1973 302.403 57.064V85.0993C302.403 88.966 305.536 92.0979 309.402 92.0979Z" fill="#64AEAC"/>
<path d="M310.483 64.5864H358.187V60.6131H310.483V64.5864Z" fill="#1E8785"/>
<path d="M358.187 73.0682H310.482V69.0954H358.187V73.0682Z" fill="#F4FBFB"/>
<path d="M358.187 81.5477H310.482V77.5746H358.187V81.5477Z" fill="#F4FBFB"/>
<path d="M350.126 134.634L359.193 127.545H341.059L350.126 134.634Z" fill="#FBC343"/>
<path d="M338.615 127.549H388.481C392.347 127.549 395.48 124.415 395.48 120.55V92.5152C395.48 88.6484 392.347 85.5165 388.481 85.5165H338.615C334.749 85.5165 331.615 88.6484 331.615 92.5152V120.55C331.615 124.415 334.749 127.549 338.615 127.549Z" fill="#FBC343"/>
<path d="M381.971 117.144H375.789V109.503H381.971V117.144Z" fill="#FEF3D9"/>
<path d="M372.044 117.144H365.862V100.996H372.044V117.144Z" fill="#FEF3D9"/>
<path d="M361.675 117.144H355.493V104.663H361.675V117.144Z" fill="#FEF3D9"/>
<path d="M351.307 117.144H345.124V95.9216H351.307V117.144Z" fill="#FEF3D9"/>
</svg>
