<svg width="307" height="307" viewBox="0 0 307 307" fill="none" xmlns="http://www.w3.org/2000/svg">
<path d="M268.331 209.587H0.62207V0.184371H268.331V209.587Z" fill="#FAFAF9"/>
<path d="M268.331 209.588C268.33 208.317 268.271 126.559 268.179 0.184476L268.331 0.33763C192.058 0.346847 99.8871 0.357461 0.644598 0.369514H0.62191L0.806674 0.184476C0.799725 75.6924 0.793345 147.098 0.787814 209.588L0.62191 209.422C159.582 209.52 266.877 209.587 268.331 209.588C266.877 209.589 159.582 209.656 0.62191 209.753H0.456289V209.588C0.450475 147.098 0.444377 75.6924 0.4375 0.184476V0.000130517H0.62191H0.644598C99.8871 0.0114744 192.058 0.0228322 268.331 0.0320491H268.484V0.184476C268.392 126.559 268.332 208.318 268.331 209.588" fill="#DADBD8"/>
<path d="M39.649 51.4502H23.8656C22.775 51.4502 21.8906 50.5661 21.8909 49.4756L21.8906 27.6294C21.8906 26.539 22.775 25.6541 23.8656 25.6541H33.8755L41.6243 33.641V49.4756C41.6243 50.5661 40.74 51.4502 39.649 51.4502Z" fill="#E7E8E5"/>
<path d="M33.874 25.6543L33.8742 31.8027C33.874 32.8173 34.6962 33.6397 35.7107 33.6397L41.6228 33.6411L33.874 25.6543Z" fill="#F3F2F1"/>
<path d="M33.9566 32.3428C33.9566 32.3428 33.8788 33.8338 35.5765 34.3237C35.6402 34.3422 35.7056 34.3556 35.7706 34.3677C36.5428 34.5052 41.6246 35.4092 41.6246 35.2929C41.6246 35.166 41.6246 33.641 41.6246 33.641H35.7125C35.7125 33.641 34.2363 33.5899 33.9566 32.3428Z" fill="#DADBD8"/>
<path d="M39.6487 51.4502C39.6481 51.441 39.7672 51.4531 39.9899 51.4098C40.21 51.3694 40.5438 51.2701 40.885 50.9922C41.216 50.7185 41.5588 50.24 41.5914 49.5997C41.6017 48.9631 41.5898 48.2243 41.5901 47.399C41.5843 44.0909 41.576 39.3583 41.5657 33.641L41.5818 33.6814C39.236 31.2666 36.6196 28.5745 33.8272 25.701L33.8751 25.7208C32.0195 25.7215 30.0869 25.7222 28.0993 25.7229C27.105 25.7236 26.0971 25.7236 25.0778 25.7236C24.8229 25.7236 24.5673 25.7236 24.3108 25.7236C24.0544 25.7279 23.7955 25.7109 23.5534 25.752C23.0626 25.83 22.6065 26.1136 22.3157 26.5234C22.113 26.807 21.988 27.1473 21.9668 27.4933C21.9529 27.8435 21.9631 28.2094 21.9598 28.5646C21.9598 29.28 21.9598 29.9904 21.9595 30.6958C21.9592 32.106 21.959 33.4963 21.9584 34.8619C21.957 37.5936 21.9556 40.2275 21.9548 42.7374C21.9537 43.9923 21.9526 45.216 21.9515 46.405C21.9512 46.9999 21.9507 47.5855 21.9498 48.1626C21.9495 48.4505 21.9495 48.7369 21.9493 49.0205C21.9537 49.3055 21.9307 49.587 21.9855 49.8507C22.0881 50.3846 22.4301 50.8511 22.8785 51.1198C23.1022 51.2545 23.3515 51.3417 23.606 51.3765C23.858 51.4077 24.1247 51.3928 24.3826 51.397C25.4184 51.3985 26.4127 51.3999 27.3617 51.4013C31.1554 51.4105 34.2257 51.4183 36.3524 51.4233C37.4109 51.429 38.2334 51.4339 38.7968 51.4368C39.0735 51.4396 39.285 51.4417 39.4323 51.4438C39.5753 51.4453 39.6487 51.4502 39.6487 51.4502C39.6487 51.4502 39.5753 51.4552 39.4323 51.458C39.285 51.4594 39.0735 51.4616 38.7968 51.4644C38.2334 51.4679 37.4109 51.4722 36.3524 51.4772C34.2257 51.4828 31.1554 51.4906 27.3617 51.4998C26.4127 51.5013 25.4184 51.5027 24.3826 51.5041C24.1234 51.5006 23.8644 51.5176 23.5916 51.4843C23.3224 51.4488 23.0579 51.3573 22.8208 51.2148C22.3459 50.9319 21.9825 50.4392 21.8723 49.8734C21.8138 49.5877 21.8374 49.3013 21.8318 49.0205C21.8316 48.7369 21.8315 48.4505 21.8311 48.1626C21.8305 47.5855 21.8302 46.9999 21.8294 46.405C21.8282 45.216 21.8274 43.9923 21.8263 42.7374C21.8252 40.2275 21.8238 37.5936 21.8224 34.8619C21.8222 33.4963 21.8219 32.106 21.8213 30.6958C21.8211 29.9904 21.8211 29.28 21.8211 28.5646C21.8241 28.2051 21.8138 27.8535 21.8282 27.4841C21.8513 27.1118 21.9853 26.7467 22.2027 26.4426C22.5145 26.0037 23.0037 25.6988 23.5307 25.6145C23.7979 25.5705 24.0563 25.5889 24.3108 25.5847C24.5673 25.5847 24.8229 25.5847 25.0778 25.5847C26.0971 25.5854 27.105 25.5854 28.0993 25.5854C30.0869 25.5861 32.0195 25.5875 33.8751 25.5875H33.9033L33.9232 25.6081C36.7111 28.4859 39.323 31.1822 41.6654 33.5999L41.6821 33.6176V33.641C41.6715 39.3583 41.6632 44.0909 41.6571 47.399C41.6519 48.2257 41.6588 48.9602 41.6433 49.6033C41.6034 50.2598 41.2475 50.7455 40.9071 51.0199C40.5562 51.2978 40.2159 51.3921 39.993 51.4275C39.8805 51.4467 39.7938 51.4509 39.7359 51.4509L39.6487 51.4502Z" fill="#DADBD8"/>
<path d="M41.623 33.6411C41.623 33.6453 41.5706 33.6503 41.4709 33.6545C41.356 33.6581 41.212 33.6623 41.0353 33.6673C40.6379 33.6729 40.0958 33.6808 39.4342 33.69C38.7518 33.6942 37.9484 33.6985 37.0591 33.7041C36.6107 33.7049 36.1413 33.7049 35.6547 33.7056C35.1506 33.6956 34.6335 33.4645 34.2805 33.0604C34.1038 32.8597 33.9711 32.6243 33.8927 32.3755C33.8102 32.1295 33.7997 31.8594 33.8063 31.6211C33.8077 31.1348 33.8091 30.6654 33.8102 30.218C33.816 29.3282 33.8207 28.5249 33.8248 27.8429C33.8343 27.1814 33.8415 26.639 33.847 26.242C33.8526 26.0654 33.8567 25.9215 33.8603 25.8067C33.8648 25.7067 33.8697 25.6542 33.8744 25.6542C33.8789 25.6542 33.8838 25.7067 33.8883 25.8067C33.8919 25.9215 33.896 26.0654 33.9016 26.242C33.9066 26.639 33.9143 27.1814 33.9238 27.8429C33.9279 28.5249 33.9326 29.3282 33.9384 30.218C33.9395 30.6654 33.9409 31.1348 33.9423 31.6211C33.9113 32.1011 34.0492 32.5939 34.3852 32.9682C34.7125 33.3433 35.1902 33.5581 35.6588 33.5687C36.1438 33.5709 36.6121 33.5737 37.0591 33.5758C37.9484 33.5815 38.7518 33.5872 39.4342 33.5914C40.0958 33.5999 40.6384 33.6077 41.0353 33.6134C41.212 33.6191 41.356 33.6233 41.4709 33.6269C41.5706 33.6311 41.623 33.6361 41.623 33.6411Z" fill="#DADBD8"/>
<path d="M33.5767 31.1415C33.5767 31.1797 31.7123 31.2109 29.4133 31.2109C27.1132 31.2109 25.249 31.1797 25.249 31.1415C25.249 31.1032 27.1132 31.072 29.4133 31.072C31.7123 31.072 33.5767 31.1032 33.5767 31.1415Z" fill="#DADBD8"/>
<path d="M37.5277 34.2079C37.5277 34.2461 34.7789 34.2773 31.3888 34.2773C27.9975 34.2773 25.249 34.2461 25.249 34.2079C25.249 34.1696 27.9975 34.1384 31.3888 34.1384C34.7789 34.1384 37.5277 34.1696 37.5277 34.2079Z" fill="#DADBD8"/>
<path d="M37.5277 37.2752C37.5277 37.3135 34.7789 37.3447 31.3888 37.3447C27.9975 37.3447 25.249 37.3135 25.249 37.2752C25.249 37.2363 27.9975 37.2058 31.3888 37.2058C34.7789 37.2058 37.5277 37.2363 37.5277 37.2752Z" fill="#DADBD8"/>
<path d="M37.5284 40.3426C37.5284 40.3809 34.7796 40.4121 31.3895 40.4121C27.9982 40.4121 25.25 40.3809 25.25 40.3426C25.25 40.3043 27.9982 40.2731 31.3895 40.2731C34.7796 40.2731 37.5284 40.3043 37.5284 40.3426Z" fill="#DADBD8"/>
<path d="M37.5284 43.4095C37.5284 43.4478 34.7796 43.479 31.3895 43.479C27.9982 43.479 25.25 43.4478 25.25 43.4095C25.25 43.3712 27.9982 43.34 31.3895 43.34C34.7796 43.34 37.5284 43.3712 37.5284 43.4095Z" fill="#DADBD8"/>
<path d="M37.5284 47.1927C37.5284 47.2303 34.7796 47.2622 31.3895 47.2622C27.9982 47.2622 25.25 47.2303 25.25 47.1927C25.25 47.1537 27.9982 47.1232 31.3895 47.1232C34.7796 47.1232 37.5284 47.1537 37.5284 47.1927Z" fill="#DADBD8"/>
<path d="M41.5285 57.9978C41.5285 58.0992 37.1507 58.1821 31.751 58.1821C26.3499 58.1821 21.9727 58.0992 21.9727 57.9978C21.9727 57.8957 26.3499 57.8135 31.751 57.8135C37.1507 57.8135 41.5285 57.8957 41.5285 57.9978Z" fill="#DADBD8"/>
<path d="M38.0451 60.5571C38.0451 60.6592 35.2262 60.7422 31.7505 60.7422C28.2731 60.7422 25.4551 60.6592 25.4551 60.5571C25.4551 60.455 28.2731 60.3721 31.7505 60.3721C35.2262 60.3721 38.0451 60.455 38.0451 60.5571Z" fill="#DADBD8"/>
<path d="M39.649 107.298H23.8656C22.775 107.298 21.8906 106.414 21.8909 105.323L21.8906 83.477C21.8906 82.3859 22.775 81.5018 23.8656 81.5018H33.8755L41.6243 89.4879V105.323C41.6243 106.414 40.74 107.298 39.649 107.298Z" fill="#E7E8E5"/>
<path d="M33.874 81.5017L33.8742 87.6508C33.874 88.6647 34.6962 89.4871 35.7107 89.4871L41.6228 89.4878L33.874 81.5017Z" fill="#F3F2F1"/>
<path d="M33.9566 88.1892C33.9566 88.1892 33.8788 89.681 35.5765 90.1709C35.6402 90.1893 35.7056 90.2035 35.7706 90.2148C36.5428 90.3531 41.6246 91.2564 41.6246 91.1401C41.6246 91.0139 41.6246 89.4874 41.6246 89.4874H35.7125C35.7125 89.4874 34.2363 89.4378 33.9566 88.1892Z" fill="#DADBD8"/>
<path d="M39.6487 107.298C39.6481 107.288 39.7672 107.3 39.9899 107.257C40.21 107.217 40.5438 107.118 40.885 106.84C41.216 106.566 41.5588 106.087 41.5914 105.447C41.6017 104.81 41.5898 104.071 41.5901 103.246C41.5843 99.9382 41.576 95.2057 41.5657 89.4876L41.5818 89.5281C39.236 87.1139 36.6196 84.4219 33.8272 81.5483L33.8751 81.5682C32.0195 81.5689 30.0869 81.5696 28.0993 81.5703C27.105 81.5703 26.0971 81.571 25.0778 81.571C24.8229 81.571 24.5673 81.571 24.3108 81.571C24.0544 81.5746 23.7955 81.5575 23.5534 81.5987C23.0626 81.6773 22.6065 81.9617 22.3157 82.3708C22.113 82.6544 21.988 82.9947 21.9668 83.3407C21.9529 83.6909 21.9631 84.0567 21.9598 84.4119C21.9598 85.1273 21.9598 85.8377 21.9595 86.5425C21.9592 87.9534 21.959 89.3437 21.9584 90.7092C21.957 93.4403 21.9556 96.0749 21.9548 98.5848C21.9537 99.8397 21.9526 101.063 21.9515 102.252C21.9512 102.847 21.9507 103.433 21.9498 104.009C21.9495 104.298 21.9495 104.584 21.9493 104.868C21.9537 105.153 21.9307 105.434 21.9855 105.698C22.0881 106.232 22.4301 106.698 22.8785 106.966C23.1022 107.102 23.3515 107.189 23.606 107.224C23.858 107.255 24.1247 107.239 24.3826 107.244C25.4184 107.246 26.4127 107.247 27.3617 107.249C31.1554 107.258 34.2257 107.266 36.3524 107.271C37.4109 107.276 38.2334 107.281 38.7968 107.283C39.0735 107.287 39.285 107.289 39.4323 107.291C39.5753 107.293 39.6487 107.298 39.6487 107.298C39.6487 107.298 39.5753 107.303 39.4323 107.305C39.285 107.307 39.0735 107.309 38.7968 107.312C38.2334 107.315 37.4109 107.32 36.3524 107.325C34.2257 107.33 31.1554 107.338 27.3617 107.347C26.4127 107.349 25.4184 107.35 24.3826 107.351C24.1234 107.347 23.8644 107.365 23.5916 107.332C23.3224 107.296 23.0579 107.205 22.8208 107.062C22.3459 106.779 21.9825 106.287 21.8723 105.721C21.8138 105.435 21.8374 105.149 21.8318 104.868C21.8316 104.584 21.8315 104.298 21.8311 104.009C21.8305 103.433 21.8302 102.847 21.8294 102.252C21.8282 101.063 21.8274 99.8397 21.8263 98.5848C21.8252 96.0749 21.8238 93.4403 21.8224 90.7092C21.8222 89.3437 21.8219 87.9534 21.8213 86.5425C21.8211 85.8377 21.8211 85.1273 21.8211 84.4119C21.8241 84.0525 21.8138 83.7001 21.8282 83.3307C21.8513 82.9592 21.9853 82.5941 22.2027 82.2899C22.5145 81.8511 23.0037 81.5462 23.5307 81.4618C23.7979 81.4179 24.0563 81.4363 24.3108 81.432C24.5673 81.432 24.8229 81.432 25.0778 81.432C26.0971 81.432 27.105 81.4328 28.0993 81.4328C30.0869 81.4335 32.0195 81.4342 33.8751 81.4349H33.9033L33.9232 81.4554C36.7111 84.3332 39.323 87.0295 41.6654 89.4472L41.6821 89.4649V89.4876C41.6715 95.2057 41.6632 99.9382 41.6571 103.246C41.6519 104.073 41.6588 104.807 41.6433 105.45C41.6034 106.107 41.2475 106.593 40.9071 106.867C40.5562 107.145 40.2159 107.239 39.993 107.275C39.8805 107.294 39.7938 107.298 39.7359 107.298H39.6487Z" fill="#DADBD8"/>
<path d="M41.623 89.4877C41.623 89.4927 41.5706 89.4977 41.4709 89.5019C41.356 89.5055 41.212 89.5097 41.0353 89.5147C40.6379 89.5204 40.0958 89.5274 39.4342 89.5367C38.7518 89.5409 37.9484 89.5459 37.0591 89.5515C36.6107 89.5515 36.1413 89.5522 35.6547 89.5522C35.1506 89.543 34.6335 89.3119 34.2805 88.9078C34.1038 88.7071 33.9711 88.4717 33.8927 88.2229C33.8102 87.9762 33.7997 87.7067 33.8063 87.4685C33.8077 86.9821 33.8091 86.5135 33.8102 86.0654C33.816 85.1763 33.8207 84.3723 33.8248 83.6903C33.8343 83.0288 33.8415 82.4864 33.847 82.0887C33.8526 81.9128 33.8567 81.7689 33.8603 81.6541C33.8648 81.5541 33.8697 81.5016 33.8744 81.5016C33.8789 81.5016 33.8838 81.5541 33.8883 81.6541C33.8919 81.7689 33.896 81.9128 33.9016 82.0887C33.9066 82.4864 33.9143 83.0281 33.9238 83.6903C33.9279 84.3723 33.9326 85.1763 33.9384 86.0654C33.9395 86.5135 33.9409 86.9821 33.9423 87.4685C33.9113 87.9485 34.0492 88.4413 34.3852 88.8163C34.7125 89.1907 35.1902 89.4055 35.6588 89.4161C36.1438 89.419 36.6121 89.4211 37.0591 89.4232C37.9484 89.4289 38.7518 89.4346 39.4342 89.4381C40.0958 89.448 40.6384 89.4551 41.0353 89.4608C41.212 89.4665 41.356 89.4707 41.4709 89.4743C41.5706 89.4785 41.623 89.4828 41.623 89.4877Z" fill="#DADBD8"/>
<path d="M33.5767 86.9886C33.5767 87.0269 31.7123 87.0581 29.4133 87.0581C27.1132 87.0581 25.249 87.0269 25.249 86.9886C25.249 86.9503 27.1132 86.9191 29.4133 86.9191C31.7123 86.9191 33.5767 86.9503 33.5767 86.9886Z" fill="#DADBD8"/>
<path d="M37.5277 90.0555C37.5277 90.0938 34.7789 90.125 31.3888 90.125C27.9975 90.125 25.249 90.0938 25.249 90.0555C25.249 90.0165 27.9975 89.9853 31.3888 89.9853C34.7789 89.9853 37.5277 90.0165 37.5277 90.0555Z" fill="#DADBD8"/>
<path d="M37.5277 93.1229C37.5277 93.1612 34.7789 93.1924 31.3888 93.1924C27.9975 93.1924 25.249 93.1612 25.249 93.1229C25.249 93.0846 27.9975 93.0534 31.3888 93.0534C34.7789 93.0534 37.5277 93.0846 37.5277 93.1229Z" fill="#DADBD8"/>
<path d="M37.5284 96.1898C37.5284 96.2281 34.7796 96.2593 31.3895 96.2593C27.9982 96.2593 25.25 96.2281 25.25 96.1898C25.25 96.1515 27.9982 96.1203 31.3895 96.1203C34.7796 96.1203 37.5284 96.1515 37.5284 96.1898Z" fill="#DADBD8"/>
<path d="M37.5284 99.2572C37.5284 99.2955 34.7796 99.3267 31.3895 99.3267C27.9982 99.3267 25.25 99.2955 25.25 99.2572C25.25 99.2189 27.9982 99.1877 31.3895 99.1877C34.7796 99.1877 37.5284 99.2189 37.5284 99.2572Z" fill="#DADBD8"/>
<path d="M37.5284 103.039C37.5284 103.078 34.7796 103.109 31.3895 103.109C27.9982 103.109 25.25 103.078 25.25 103.04C25.25 103.001 27.9982 102.97 31.3895 102.97C34.7796 102.97 37.5284 103.001 37.5284 103.039Z" fill="#DADBD8"/>
<path d="M41.5285 113.845C41.5285 113.947 37.1507 114.03 31.751 114.03C26.3499 114.03 21.9727 113.947 21.9727 113.845C21.9727 113.743 26.3499 113.66 31.751 113.66C37.1507 113.66 41.5285 113.743 41.5285 113.845Z" fill="#DADBD8"/>
<path d="M38.0451 116.405C38.0451 116.507 35.2262 116.589 31.7505 116.589C28.2731 116.589 25.4551 116.507 25.4551 116.405C25.4551 116.303 28.2731 116.22 31.7505 116.22C35.2262 116.22 38.0451 116.303 38.0451 116.405Z" fill="#DADBD8"/>
<path d="M38.564 175.807H22.7806C21.6899 175.807 20.8057 174.923 20.8057 173.832V151.986C20.8057 150.895 21.6899 150.011 22.7806 150.011H32.7904L40.5393 157.997V173.832C40.5393 174.923 39.6549 175.807 38.564 175.807Z" fill="#E7E8E5"/>
<path d="M32.791 150.011V156.159C32.791 157.174 33.6132 157.996 34.6275 157.996L40.5398 157.997L32.791 150.011Z" fill="#F3F2F1"/>
<path d="M32.8707 156.699C32.8707 156.699 32.7932 158.191 34.4909 158.681C34.5545 158.698 34.6199 158.713 34.685 158.725C35.4571 158.862 40.5389 159.766 40.5389 159.649C40.5389 159.524 40.5389 157.997 40.5389 157.997H34.6266C34.6266 157.997 33.1507 157.947 32.8707 156.699Z" fill="#DADBD8"/>
<path d="M38.5647 175.807C38.5641 175.798 38.6832 175.809 38.9059 175.767C39.126 175.726 39.4598 175.626 39.801 175.349C40.132 175.076 40.4743 174.596 40.5075 173.957C40.5177 173.32 40.5058 172.581 40.5061 171.755C40.5003 168.447 40.492 163.715 40.4817 157.997L40.4978 158.038C38.1517 155.624 35.5357 152.931 32.7432 150.057L32.7911 150.078C30.9355 150.078 29.0029 150.079 27.0153 150.08C26.021 150.08 25.0131 150.08 23.9938 150.081C23.7389 150.081 23.483 150.081 23.2268 150.081C22.9701 150.084 22.7115 150.067 22.4694 150.108C21.9787 150.187 21.5222 150.471 21.2317 150.88C21.029 151.164 20.904 151.504 20.8828 151.85C20.8689 152.2 20.8791 152.566 20.8758 152.922C20.8758 153.636 20.8755 154.347 20.8755 155.052C20.8752 156.463 20.875 157.853 20.8744 159.219C20.873 161.949 20.8716 164.585 20.8703 167.094C20.8694 168.349 20.8686 169.572 20.8675 170.762C20.8669 171.356 20.8667 171.942 20.8658 172.519C20.8655 172.807 20.8653 173.093 20.8653 173.377C20.8697 173.662 20.8467 173.943 20.9013 174.207C21.0041 174.741 21.3461 175.208 21.7945 175.476C22.0179 175.612 22.2675 175.699 22.522 175.733C22.774 175.765 23.0407 175.749 23.2986 175.753C24.3344 175.755 25.3287 175.757 26.2777 175.758C30.0711 175.767 33.1417 175.775 35.2684 175.78C36.3269 175.786 37.1494 175.79 37.7125 175.793C37.9892 175.797 38.201 175.799 38.3483 175.8C38.4913 175.802 38.5647 175.807 38.5647 175.807C38.5647 175.807 38.4913 175.812 38.3483 175.814C38.201 175.816 37.9892 175.819 37.7125 175.821C37.1494 175.824 36.3269 175.829 35.2684 175.834C33.1417 175.839 30.0711 175.847 26.2777 175.857C25.3287 175.858 24.3344 175.86 23.2986 175.861C23.0394 175.857 22.7804 175.874 22.5076 175.841C22.2384 175.806 21.9739 175.714 21.7369 175.571C21.2619 175.289 20.8985 174.796 20.7883 174.23C20.7298 173.944 20.7534 173.658 20.7478 173.377C20.7476 173.093 20.7476 172.807 20.7471 172.519C20.7465 171.942 20.7462 171.356 20.7454 170.762C20.7443 169.572 20.7434 168.349 20.7423 167.094C20.7412 164.585 20.7398 161.949 20.7384 159.219C20.7382 157.853 20.7379 156.463 20.7373 155.052C20.7371 154.347 20.7371 153.636 20.7371 152.922C20.7401 152.561 20.7298 152.21 20.7443 151.84C20.7673 151.469 20.9013 151.104 21.1187 150.799C21.4302 150.36 21.9197 150.056 22.4467 149.971C22.714 149.927 22.9723 149.946 23.2268 149.942C23.483 149.942 23.7389 149.942 23.9938 149.942C25.0131 149.942 26.021 149.942 27.0153 149.942C29.0029 149.943 30.9355 149.944 32.7911 149.944H32.8193L32.8392 149.965C35.6268 152.842 38.2389 155.538 40.5814 157.957L40.5981 157.974L40.5975 157.997C40.5875 163.715 40.5789 168.447 40.5731 171.755C40.5679 172.582 40.5745 173.317 40.5593 173.96C40.5194 174.617 40.1635 175.102 39.8231 175.376C39.4722 175.655 39.1319 175.748 38.909 175.785C38.7959 175.803 38.7098 175.808 38.6519 175.807H38.5647Z" fill="#DADBD8"/>
<path d="M40.5391 157.997C40.5391 158.002 40.4867 158.007 40.387 158.011C40.2721 158.015 40.1281 158.018 39.9513 158.024C39.5539 158.03 39.0119 158.037 38.35 158.046C37.6678 158.049 36.8644 158.054 35.9751 158.06C35.5268 158.061 35.057 158.061 34.5707 158.062C34.0667 158.052 33.5496 157.82 33.1965 157.417C33.0198 157.216 32.8872 156.981 32.8087 156.731C32.7257 156.485 32.7157 156.215 32.7224 155.978C32.7237 155.491 32.7252 155.022 32.7262 154.575C32.7318 153.685 32.7368 152.881 32.7409 152.199C32.7503 151.537 32.7576 150.996 32.7631 150.598C32.7686 150.421 32.7727 150.277 32.7764 150.163C32.7808 150.063 32.7852 150.011 32.7902 150.011C32.7949 150.011 32.7999 150.063 32.8044 150.163C32.808 150.277 32.8121 150.421 32.8176 150.598C32.8226 150.996 32.8304 151.537 32.8392 152.199C32.8439 152.881 32.8487 153.685 32.8542 154.575C32.8555 155.022 32.857 155.491 32.8584 155.978C32.8273 156.457 32.9649 156.951 33.3012 157.325C33.6286 157.699 34.1063 157.915 34.5744 157.925C35.0598 157.928 35.5282 157.93 35.9751 157.932C36.8644 157.938 37.6678 157.943 38.35 157.947C39.0119 157.957 39.5539 157.964 39.9513 157.97C40.1281 157.975 40.2721 157.98 40.387 157.984C40.4867 157.988 40.5391 157.992 40.5391 157.997Z" fill="#DADBD8"/>
<path d="M32.4917 155.497C32.4917 155.536 30.6273 155.567 28.3281 155.567C26.0279 155.567 24.1641 155.536 24.1641 155.497C24.1641 155.459 26.0279 155.428 28.3281 155.428C30.6273 155.428 32.4917 155.459 32.4917 155.497Z" fill="#DADBD8"/>
<path d="M36.4427 158.565C36.4427 158.604 33.6937 158.635 30.3038 158.635C26.9126 158.635 24.1641 158.604 24.1641 158.565C24.1641 158.526 26.9126 158.495 30.3038 158.495C33.6937 158.495 36.4427 158.526 36.4427 158.565Z" fill="#DADBD8"/>
<path d="M36.4427 161.631C36.4427 161.67 33.6937 161.702 30.3038 161.702C26.9126 161.702 24.1641 161.67 24.1641 161.631C24.1641 161.593 26.9126 161.563 30.3038 161.563C33.6937 161.563 36.4427 161.593 36.4427 161.631Z" fill="#DADBD8"/>
<path d="M36.4427 164.699C36.4427 164.737 33.6937 164.768 30.3038 164.768C26.9126 164.768 24.1641 164.738 24.1641 164.699C24.1641 164.661 26.9126 164.63 30.3038 164.63C33.6937 164.63 36.4427 164.661 36.4427 164.699Z" fill="#DADBD8"/>
<path d="M36.4427 167.766C36.4427 167.804 33.6939 167.835 30.3038 167.835C26.9126 167.835 24.1641 167.804 24.1641 167.766C24.1641 167.727 26.9126 167.697 30.3038 167.696C33.6939 167.696 36.4427 167.727 36.4427 167.766Z" fill="#DADBD8"/>
<path d="M36.4427 171.548C36.4427 171.587 33.6939 171.619 30.3038 171.619C26.9126 171.619 24.1641 171.587 24.1641 171.549C24.1641 171.511 26.9126 171.48 30.3038 171.48C33.6939 171.48 36.4427 171.511 36.4427 171.548Z" fill="#DADBD8"/>
<path d="M40.4445 182.354C40.4445 182.456 36.0668 182.539 30.667 182.539C25.2659 182.539 20.8887 182.456 20.8887 182.354C20.8887 182.252 25.2659 182.17 30.667 182.17C36.0668 182.17 40.4445 182.252 40.4445 182.354Z" fill="#DADBD8"/>
<path d="M36.962 184.914C36.962 185.016 34.1432 185.099 30.6672 185.099C27.1901 185.099 24.3721 185.016 24.3721 184.914C24.3721 184.812 27.1901 184.729 30.6672 184.729C34.1432 184.729 36.962 184.812 36.962 184.914Z" fill="#DADBD8"/>
<path d="M142.373 174.247H126.59C125.499 174.247 124.615 173.362 124.615 172.271V150.425C124.615 149.334 125.499 148.45 126.59 148.45H136.6L144.348 156.437L144.349 172.271C144.349 173.362 143.465 174.247 142.373 174.247Z" fill="#E7E8E5"/>
<path d="M136.601 148.45V154.598C136.601 155.613 137.422 156.435 138.437 156.435L144.348 156.437L136.601 148.45Z" fill="#F3F2F1"/>
<path d="M136.68 155.139C136.68 155.139 136.603 156.63 138.3 157.119C138.364 157.138 138.43 157.152 138.495 157.163C139.267 157.302 144.348 158.206 144.348 158.089C144.348 157.963 144.348 156.437 144.348 156.437H138.436C138.436 156.437 136.96 156.386 136.68 155.139Z" fill="#DADBD8"/>
<path d="M142.374 174.247C142.374 174.237 142.493 174.249 142.715 174.206C142.936 174.165 143.269 174.066 143.611 173.789C143.942 173.514 144.284 173.036 144.317 172.396C144.328 171.759 144.316 171.019 144.316 170.194C144.31 166.886 144.301 162.154 144.292 156.437L144.308 156.477C141.962 154.062 139.346 151.37 136.553 148.497L136.601 148.517C134.745 148.518 132.813 148.519 130.825 148.519C129.831 148.519 128.823 148.519 127.803 148.52C127.549 148.52 127.293 148.52 127.037 148.52C126.78 148.524 126.521 148.506 126.279 148.548C125.788 148.626 125.332 148.91 125.042 149.319C124.839 149.603 124.713 149.943 124.693 150.29C124.679 150.639 124.689 151.005 124.686 151.36C124.685 152.076 124.685 152.786 124.685 153.491C124.685 154.902 124.684 156.292 124.684 157.657C124.683 160.389 124.681 163.023 124.68 165.533C124.679 166.789 124.679 168.012 124.677 169.201C124.676 169.795 124.676 170.381 124.676 170.958C124.675 171.247 124.675 171.533 124.674 171.815C124.679 172.101 124.657 172.383 124.711 172.646C124.814 173.18 125.156 173.647 125.604 173.915C125.828 174.051 126.077 174.138 126.332 174.172C126.584 174.204 126.85 174.188 127.108 174.193C128.144 174.194 129.138 174.195 130.088 174.197C133.881 174.207 136.951 174.214 139.078 174.219C140.136 174.225 140.959 174.23 141.522 174.232C141.799 174.236 142.011 174.237 142.157 174.239C142.301 174.242 142.374 174.247 142.374 174.247C142.374 174.247 142.301 174.251 142.157 174.254C142.011 174.255 141.799 174.257 141.522 174.261C140.959 174.264 140.136 174.267 139.078 174.273C136.951 174.278 133.881 174.286 130.088 174.295C129.138 174.297 128.144 174.298 127.108 174.3C126.849 174.295 126.589 174.313 126.317 174.281C126.048 174.244 125.784 174.153 125.546 174.01C125.071 173.728 124.708 173.235 124.598 172.669C124.539 172.383 124.563 172.097 124.557 171.815C124.557 171.533 124.557 171.247 124.557 170.958C124.556 170.381 124.555 169.795 124.555 169.201C124.554 168.012 124.553 166.789 124.552 165.533C124.55 163.023 124.55 160.389 124.548 157.657C124.547 156.292 124.547 154.902 124.547 153.491C124.547 152.786 124.547 152.076 124.547 151.36C124.55 151.001 124.539 150.648 124.554 150.279C124.577 149.908 124.711 149.542 124.928 149.238C125.24 148.799 125.729 148.494 126.256 148.41C126.523 148.366 126.782 148.385 127.037 148.381C127.293 148.381 127.549 148.381 127.803 148.381C128.823 148.381 129.831 148.381 130.825 148.382C132.813 148.382 134.745 148.383 136.601 148.384H136.629L136.649 148.404C139.436 151.281 142.049 153.978 144.391 156.395L144.407 156.413V156.437C144.397 162.154 144.389 166.886 144.383 170.194C144.377 171.021 144.384 171.755 144.369 172.399C144.329 173.055 143.973 173.541 143.633 173.815C143.282 174.093 142.942 174.188 142.718 174.223C142.606 174.242 142.52 174.247 142.462 174.247H142.374Z" fill="#DADBD8"/>
<path d="M144.348 156.436C144.348 156.441 144.297 156.446 144.197 156.451C144.082 156.453 143.938 156.458 143.761 156.463C143.364 156.468 142.821 156.476 142.16 156.485C141.478 156.489 140.674 156.494 139.785 156.5C139.336 156.5 138.867 156.5 138.381 156.501C137.876 156.491 137.359 156.26 137.007 155.856C136.829 155.655 136.697 155.419 136.619 155.171C136.536 154.925 136.526 154.654 136.532 154.417C136.534 153.931 136.534 153.462 136.536 153.013C136.542 152.124 136.546 151.32 136.551 150.638C136.56 149.977 136.568 149.434 136.573 149.037C136.578 148.861 136.583 148.717 136.586 148.602C136.59 148.502 136.595 148.45 136.6 148.45C136.605 148.45 136.61 148.502 136.615 148.602C136.617 148.717 136.622 148.861 136.627 149.037C136.632 149.434 136.64 149.977 136.649 150.638C136.654 151.32 136.658 152.124 136.664 153.013C136.666 153.462 136.667 153.931 136.668 154.417C136.637 154.897 136.775 155.389 137.111 155.764C137.438 156.139 137.916 156.354 138.384 156.364C138.87 156.367 139.338 156.369 139.785 156.371C140.674 156.377 141.478 156.383 142.16 156.387C142.822 156.396 143.364 156.403 143.761 156.409C143.938 156.414 144.082 156.419 144.197 156.422C144.297 156.427 144.348 156.432 144.348 156.436Z" fill="#DADBD8"/>
<path d="M136.302 153.937C136.302 153.975 134.438 154.006 132.139 154.006C129.838 154.006 127.975 153.975 127.975 153.937C127.975 153.899 129.838 153.867 132.139 153.867C134.438 153.867 136.302 153.899 136.302 153.937Z" fill="#DADBD8"/>
<path d="M140.253 157.004C140.253 157.043 137.503 157.074 134.114 157.074C130.723 157.074 127.975 157.043 127.975 157.004C127.975 156.966 130.723 156.935 134.114 156.935C137.503 156.935 140.253 156.966 140.253 157.004Z" fill="#DADBD8"/>
<path d="M140.253 160.071C140.253 160.109 137.503 160.141 134.114 160.141C130.723 160.141 127.975 160.109 127.975 160.071C127.975 160.033 130.723 160.002 134.114 160.002C137.503 160.002 140.253 160.032 140.253 160.071Z" fill="#DADBD8"/>
<path d="M140.253 163.138C140.253 163.176 137.503 163.208 134.114 163.208C130.723 163.208 127.975 163.176 127.975 163.138C127.975 163.1 130.723 163.069 134.114 163.069C137.503 163.069 140.253 163.1 140.253 163.138Z" fill="#DADBD8"/>
<path d="M140.253 166.205C140.253 166.244 137.503 166.275 134.114 166.275C130.723 166.275 127.975 166.244 127.975 166.205C127.975 166.167 130.723 166.136 134.114 166.136C137.503 166.136 140.253 166.167 140.253 166.205Z" fill="#DADBD8"/>
<path d="M140.253 169.988C140.253 170.027 137.503 170.058 134.114 170.058C130.723 170.058 127.975 170.027 127.975 169.988C127.975 169.95 130.723 169.919 134.114 169.919C137.503 169.919 140.253 169.95 140.253 169.988Z" fill="#DADBD8"/>
<path d="M144.254 180.794C144.254 180.896 139.876 180.978 134.477 180.978C129.076 180.978 124.698 180.896 124.698 180.794C124.698 180.692 129.076 180.609 134.477 180.609C139.876 180.609 144.254 180.692 144.254 180.794Z" fill="#DADBD8"/>
<path d="M140.771 183.353C140.771 183.455 137.953 183.538 134.477 183.538C131 183.538 128.182 183.455 128.182 183.353C128.182 183.251 131 183.169 134.477 183.169C137.953 183.169 140.771 183.251 140.771 183.353Z" fill="#DADBD8"/>
<path d="M79.7467 16.0133L80.4933 30.1365C80.5195 30.6399 80.8776 31.0312 81.3093 31.0312H103.094C103.546 31.0312 103.911 30.6044 103.911 30.0784V19.079C103.911 18.5501 103.543 18.1212 103.089 18.1254L89.6911 18.2261C89.4748 18.2275 89.2664 18.129 89.1125 17.951L86.7842 15.2746C86.631 15.0987 86.4254 15.0002 86.2106 15.0002H80.562C80.0913 15.0002 79.7176 15.4638 79.7467 16.0133Z" fill="#E7E8E5"/>
<path d="M103.912 33.0566H80.1094V16.4555H103.912V33.0566Z" fill="#F3F2F1"/>
<path d="M78.2159 17.945L80.033 35.2573C80.0656 35.5643 80.2897 35.7954 80.5549 35.7954H103.752C104.027 35.7954 104.255 35.5494 104.276 35.2303L105.444 17.9188C105.468 17.5622 105.226 17.2573 104.92 17.2573H78.7377C78.4215 17.2573 78.1776 17.5792 78.2159 17.945Z" fill="#E7E8E5"/>
<path d="M101.606 44.583C101.606 44.6851 97.228 44.7681 91.8283 44.7681C86.4271 44.7681 82.0498 44.6851 82.0498 44.583C82.0498 44.4816 86.4271 44.3987 91.8283 44.3987C97.228 44.3987 101.606 44.4816 101.606 44.583Z" fill="#DADBD8"/>
<path d="M98.1238 47.1433C98.1238 47.2447 95.3048 47.3276 91.8293 47.3276C88.3517 47.3276 85.5342 47.2447 85.5342 47.1433C85.5342 47.0412 88.3517 46.9583 91.8293 46.9583C95.3048 46.9583 98.1238 47.0412 98.1238 47.1433Z" fill="#DADBD8"/>
<path d="M80.5133 82.4069L81.2599 96.5308C81.2868 97.0335 81.6442 97.4263 82.0759 97.4263H103.861C104.312 97.4263 104.678 96.9987 104.678 96.472V85.4733C104.678 84.9444 104.309 84.5162 103.856 84.519L90.4584 84.6204C90.2414 84.6218 90.033 84.5226 89.8791 84.3453L87.5508 81.6681C87.3976 81.493 87.192 81.3945 86.9772 81.3945H81.3294C80.8579 81.3945 80.4842 81.8582 80.5133 82.4069Z" fill="#E7E8E5"/>
<path d="M104.677 99.4512H80.875V82.8501H104.677V99.4512Z" fill="#F3F2F1"/>
<path d="M78.9815 84.3401L80.7986 101.652C80.8313 101.959 81.0553 102.19 81.3205 102.19H104.518C104.792 102.19 105.021 101.944 105.042 101.625L106.21 84.3131C106.234 83.9572 105.992 83.6516 105.686 83.6516H79.5033C79.1878 83.6516 78.9432 83.9742 78.9815 84.3401Z" fill="#E7E8E5"/>
<path d="M102.373 110.977C102.373 111.079 97.9946 111.162 92.5949 111.162C87.1937 111.162 82.8164 111.079 82.8164 110.977C82.8164 110.875 87.1937 110.793 92.5949 110.793C97.9946 110.793 102.373 110.875 102.373 110.977Z" fill="#DADBD8"/>
<path d="M98.8894 113.537C98.8894 113.639 96.0712 113.722 92.595 113.722C89.1174 113.722 86.2998 113.639 86.2998 113.537C86.2998 113.435 89.1174 113.352 92.595 113.352C96.0712 113.352 98.8894 113.435 98.8894 113.537Z" fill="#DADBD8"/>
<path d="M68.9987 164.267L69.7459 178.391C69.7722 178.893 70.1295 179.286 70.562 179.286H92.3466C92.7982 179.286 93.164 178.859 93.164 178.332V167.332C93.164 166.804 92.7947 166.375 92.3416 166.379L78.9437 166.48C78.7275 166.481 78.519 166.382 78.3652 166.205L76.0368 163.528C75.8837 163.352 75.6774 163.254 75.4633 163.254H69.8147C69.3439 163.254 68.9696 163.718 68.9987 164.267Z" fill="#E7E8E5"/>
<path d="M93.1647 181.31H69.3623V164.709L93.1647 164.71V181.31Z" fill="#F3F2F1"/>
<path d="M67.4678 166.2L69.285 183.511C69.3176 183.819 69.5416 184.049 69.8068 184.049H93.0037C93.2788 184.049 93.5064 183.804 93.5284 183.484L94.6961 166.173C94.7202 165.817 94.4784 165.511 94.1721 165.511H67.9897C67.6734 165.511 67.4295 165.834 67.4678 166.2Z" fill="#E7E8E5"/>
<path d="M90.8582 192.837C90.8582 192.939 86.4802 193.021 81.0812 193.021C75.6801 193.021 71.3027 192.939 71.3027 192.837C71.3027 192.735 75.6801 192.652 81.0812 192.652C86.4802 192.652 90.8582 192.735 90.8582 192.837Z" fill="#DADBD8"/>
<path d="M87.3757 195.397C87.3757 195.499 84.5568 195.581 81.0806 195.581C77.6037 195.581 74.7861 195.499 74.7861 195.397C74.7861 195.295 77.6037 195.212 81.0806 195.212C84.5568 195.212 87.3757 195.295 87.3757 195.397Z" fill="#DADBD8"/>
<path d="M306.537 150.542H149V11.9999H306.537V150.542Z" fill="white"/>
<path d="M306.255 150.663C306.254 149.348 306.193 95.4808 306.099 12.12L306.255 12.276C260.949 12.2845 206.791 12.2938 148.733 12.3044H148.719L148.904 12.12C148.895 62.4707 148.888 109.882 148.882 150.663L148.719 150.5C242.718 150.597 304.844 150.662 306.255 150.663C304.845 150.664 242.718 150.729 148.719 150.826H148.555V150.663C148.549 109.882 148.542 62.4707 148.534 12.12V11.935H148.719H148.733C206.791 11.9456 260.949 11.9556 306.255 11.9641H306.411V12.12C306.317 95.4808 306.257 149.349 306.255 150.663Z" fill="#DADBD8"/>
<path d="M306.712 26.3298C306.712 26.3978 271.735 26.4531 228.598 26.4531C185.446 26.4531 150.477 26.3978 150.477 26.3298C150.477 26.2617 185.446 26.2057 228.598 26.2057C271.735 26.2057 306.712 26.2617 306.712 26.3298Z" fill="#DADBD8"/>
<path d="M159.44 19.8432C159.44 20.7366 158.716 21.4604 157.824 21.4604C156.93 21.4604 156.207 20.7366 156.207 19.8432C156.207 18.9506 156.93 18.2267 157.824 18.2267C158.716 18.2267 159.44 18.9506 159.44 19.8432Z" fill="#E7E8E5"/>
<path d="M164.748 19.8432C164.748 20.7366 164.024 21.4604 163.131 21.4604C162.238 21.4604 161.514 20.7366 161.514 19.8432C161.514 18.9506 162.238 18.2267 163.131 18.2267C164.024 18.2267 164.748 18.9506 164.748 19.8432Z" fill="#E7E8E5"/>
<path d="M170.056 19.8432C170.056 20.7366 169.332 21.4604 168.439 21.4604C167.546 21.4604 166.822 20.7366 166.822 19.8432C166.822 18.9506 167.546 18.2267 168.439 18.2267C169.332 18.2267 170.056 18.9506 170.056 19.8432Z" fill="#E7E8E5"/>
<path d="M298.926 38.5587C298.925 38.5509 299.02 38.5587 299.191 38.5062C299.352 38.4516 299.61 38.3105 299.742 37.988C299.812 37.8291 299.809 37.6363 299.803 37.4186C299.802 37.201 299.8 36.9642 299.797 36.7082C299.794 36.1935 299.79 35.6022 299.786 34.9364C299.783 34.2693 299.78 33.5284 299.776 32.718C299.773 32.5173 299.778 32.3025 299.769 32.1019C299.751 31.9062 299.661 31.7126 299.512 31.5708C299.366 31.4283 299.162 31.3404 298.95 31.3369C298.722 31.3376 298.489 31.3376 298.253 31.3383C296.359 31.3433 294.203 31.3496 291.82 31.3567C282.278 31.3659 269.111 31.3787 254.568 31.3929C254.168 31.3837 253.805 31.7219 253.784 32.1175C253.783 32.567 253.782 33.0143 253.781 33.4596C253.781 34.3586 253.78 35.2505 253.78 36.1361C253.78 36.5792 253.78 37.0202 253.78 37.4597C253.773 37.6923 253.782 37.8653 253.882 38.0369C253.974 38.2028 254.13 38.3318 254.308 38.3921C254.398 38.424 254.488 38.4367 254.589 38.4367H254.915L255.565 38.4374C255.997 38.4374 256.428 38.4382 256.857 38.4382C260.287 38.4403 263.595 38.4431 266.748 38.4453C273.05 38.4552 278.725 38.4644 283.495 38.4715C288.255 38.4885 292.11 38.5013 294.786 38.5105C296.111 38.5211 297.144 38.5289 297.856 38.5339C298.199 38.5388 298.464 38.5431 298.654 38.5466C298.834 38.5509 298.926 38.5587 298.926 38.5587C298.926 38.5587 298.834 38.5672 298.654 38.5715C298.464 38.5743 298.199 38.5785 297.856 38.5835C297.144 38.5892 296.111 38.597 294.786 38.6069C292.11 38.6161 288.255 38.6296 283.495 38.6466C278.725 38.6537 273.05 38.6629 266.748 38.6728C263.595 38.675 260.287 38.6778 256.857 38.6799C256.428 38.6806 255.997 38.6806 255.565 38.6806H254.915H254.589C254.472 38.6814 254.343 38.6643 254.228 38.6232C253.994 38.5431 253.79 38.3751 253.669 38.1574C253.537 37.9468 253.526 37.6632 253.534 37.4597C253.534 37.0202 253.534 36.5792 253.534 36.1361C253.534 35.2505 253.533 34.3586 253.533 33.4596C253.535 33.008 253.536 32.5542 253.538 32.099C253.565 31.5779 254.043 31.1334 254.568 31.1454C269.111 31.1596 282.278 31.1724 291.82 31.1816C294.203 31.1887 296.359 31.1944 298.253 31.2C298.491 31.2015 298.725 31.2022 298.954 31.2036C299.198 31.2099 299.434 31.3135 299.602 31.4787C299.771 31.6432 299.873 31.8665 299.892 32.0912C299.9 32.3131 299.892 32.5124 299.893 32.718C299.889 33.5284 299.885 34.2693 299.882 34.9364C299.878 35.6022 299.875 36.1935 299.871 36.7082C299.869 36.9642 299.867 37.201 299.866 37.4186C299.867 37.6313 299.867 37.8412 299.788 38.0071C299.64 38.3439 299.367 38.4821 299.198 38.531C299.02 38.5764 298.926 38.5587 298.926 38.5587Z" fill="#DADBD8"/>
<path d="M256.531 35.848L256.654 35.5892C256.826 35.7452 257.122 35.858 257.42 35.858C257.822 35.858 257.994 35.702 257.994 35.4992C257.994 34.932 256.587 35.2908 256.587 34.4279C256.587 34.0699 256.866 33.7643 257.477 33.7643C257.749 33.7643 258.031 33.8373 258.224 33.9699L258.114 34.2358C257.911 34.1067 257.682 34.0465 257.477 34.0465C257.081 34.0465 256.913 34.2124 256.913 34.4151C256.913 34.9816 258.319 34.6271 258.319 35.4801C258.319 35.8346 258.034 36.1401 257.42 36.1401C257.065 36.1401 256.717 36.0203 256.531 35.848Z" fill="#DADBD8"/>
<path d="M258.913 35.1121H260.041C260.008 34.8158 259.786 34.6066 259.477 34.6066C259.171 34.6066 258.946 34.8129 258.913 35.1121ZM260.34 35.3404H258.913C258.953 35.6488 259.201 35.8544 259.55 35.8544C259.756 35.8544 259.928 35.785 260.057 35.6425L260.233 35.8481C260.074 36.0338 259.832 36.1338 259.54 36.1338C258.973 36.1338 258.595 35.7587 258.595 35.2341C258.595 34.713 258.969 34.3379 259.477 34.3379C259.984 34.3379 260.347 34.703 260.347 35.2447L260.34 35.3404Z" fill="#DADBD8"/>
<path d="M261.813 35.5758V35.3305H261.321C261.006 35.3305 260.916 35.4539 260.916 35.6028C260.916 35.7779 261.062 35.8878 261.305 35.8878C261.544 35.8878 261.733 35.7779 261.813 35.5758ZM262.131 35.0519V36.1132H261.829V35.8814C261.722 36.0402 261.528 36.1338 261.252 36.1338C260.853 36.1338 260.602 35.9211 260.602 35.6155C260.602 35.334 260.784 35.1015 261.308 35.1015H261.813V35.0384C261.813 34.7697 261.657 34.6137 261.341 34.6137C261.133 34.6137 260.92 34.6867 260.784 34.803L260.651 34.5641C260.834 34.418 261.096 34.3379 261.378 34.3379C261.859 34.3379 262.131 34.5705 262.131 35.0519Z" fill="#DADBD8"/>
<path d="M263.667 34.338V34.6471L263.594 34.6435C263.253 34.6435 263.04 34.8527 263.04 35.2377V36.1133H262.722V34.355H263.027V34.6506C263.14 34.4443 263.359 34.338 263.667 34.338Z" fill="#DADBD8"/>
<path d="M263.88 35.2341C263.88 34.7101 264.268 34.3379 264.809 34.3379C265.125 34.3379 265.386 34.4676 265.525 34.713L265.284 34.8697C265.171 34.6967 264.998 34.6173 264.807 34.6173C264.461 34.6173 264.202 34.8597 264.202 35.2341C264.202 35.6155 264.461 35.8544 264.807 35.8544C264.998 35.8544 265.171 35.775 265.284 35.6028L265.525 35.7552C265.386 36.0005 265.125 36.1338 264.809 36.1338C264.268 36.1338 263.88 35.7587 263.88 35.2341Z" fill="#DADBD8"/>
<path d="M267.583 35.1015V36.1133H267.264V35.1384C267.264 34.7931 267.092 34.6244 266.79 34.6244C266.451 34.6244 266.232 34.8265 266.232 35.2079V36.1133H265.914V33.6517H266.232V34.6038C266.365 34.4344 266.584 34.338 266.853 34.338C267.281 34.338 267.583 34.584 267.583 35.1015Z" fill="#DADBD8"/>
<path d="M268.025 35.9041C268.025 35.7715 268.127 35.6786 268.251 35.6786C268.37 35.6786 268.47 35.7715 268.47 35.9041C268.47 36.0374 268.37 36.1338 268.251 36.1338C268.127 36.1338 268.025 36.0374 268.025 35.9041Z" fill="#DADBD8"/>
<path d="M268.778 35.9041C268.778 35.7715 268.882 35.6786 269.004 35.6786C269.124 35.6786 269.223 35.7715 269.223 35.9041C269.223 36.0374 269.124 36.1338 269.004 36.1338C268.882 36.1338 268.778 36.0374 268.778 35.9041Z" fill="#DADBD8"/>
<path d="M269.531 35.9041C269.531 35.7715 269.634 35.6786 269.757 35.6786C269.876 35.6786 269.976 35.7715 269.976 35.9041C269.976 36.0374 269.876 36.1338 269.757 36.1338C269.634 36.1338 269.531 36.0374 269.531 35.9041Z" fill="#DADBD8"/>
<path d="M246.313 50.3782V75.2256H276.515V50.3782C276.515 49.1956 275.556 48.237 274.373 48.237H248.455C247.271 48.237 246.313 49.1956 246.313 50.3782Z" fill="#DADBD8"/>
<path d="M247.731 61.7314L247.931 52.6095H274.361V57.8142" fill="#F3F2F1"/>
<path d="M249.651 50.1435V52.6094H272.742V50.1435H249.651Z" fill="#F3F2F1"/>
<path d="M249.652 50.1437C249.649 50.1409 249.686 50.1381 249.76 50.1352C249.849 50.1331 249.959 50.1303 250.096 50.1267C250.413 50.1225 250.849 50.1168 251.404 50.1097C252.571 50.1012 254.232 50.0884 256.287 50.0728C260.465 50.0601 266.247 50.0417 272.742 50.0204H272.865V50.1437C272.866 50.9293 272.866 51.7638 272.866 52.6075C272.618 52.8578 272.793 52.6777 272.736 52.733H272.729H272.713H272.684H272.623H272.503H272.264H271.787C271.47 52.733 271.154 52.733 270.839 52.733C270.211 52.7323 269.589 52.7316 268.975 52.7316C267.745 52.7302 266.544 52.7294 265.377 52.728C263.047 52.7224 260.857 52.7181 258.86 52.7131C254.888 52.6912 251.687 52.6734 249.653 52.6614H249.599L249.599 52.6096C249.612 51.8149 249.623 51.1973 249.629 50.7592C249.634 50.5663 249.638 50.4132 249.642 50.2933C249.645 50.1905 249.649 50.1402 249.652 50.1437C249.655 50.1466 249.658 50.204 249.662 50.3125C249.665 50.4351 249.67 50.5918 249.675 50.7896C249.682 51.2207 249.692 51.8276 249.704 52.6096L249.653 52.5572C251.687 52.5458 254.888 52.5274 258.86 52.5054C260.857 52.5012 263.047 52.4962 265.377 52.4912C266.544 52.4898 267.745 52.4884 268.975 52.487C269.589 52.487 270.211 52.4863 270.839 52.4863C271.154 52.4856 271.47 52.4856 271.787 52.4856H272.264H272.503H272.623H272.684H272.713H272.729H272.736C272.683 52.5409 272.866 52.3636 272.618 52.6075C272.618 51.7638 272.619 50.9293 272.619 50.1437L272.742 50.2671C266.281 50.2458 260.531 50.2274 256.376 50.2139C254.308 50.1983 252.64 50.1863 251.465 50.1771C250.898 50.1707 250.452 50.1643 250.128 50.1608C249.985 50.1572 249.869 50.1544 249.777 50.1522C249.697 50.1494 249.655 50.1466 249.652 50.1437Z" fill="#DADBD8"/>
<path d="M275.428 81.444C275.428 81.5121 269.657 81.5674 262.54 81.5674C255.42 81.5674 249.651 81.5121 249.651 81.444C249.651 81.3752 255.42 81.3199 262.54 81.3199C269.657 81.3199 275.428 81.3752 275.428 81.444Z" fill="#DADBD8"/>
<path d="M243.991 57.2462L246.314 75.2256H276.515V57.8141H262.8L260.139 55.4744H245.549C244.601 55.4744 243.869 56.3068 243.991 57.2462Z" fill="#E7E8E5"/>
<path d="M268.203 64.8549C268.203 64.9237 264.896 64.979 260.817 64.979C256.736 64.979 253.43 64.9237 253.43 64.8549C253.43 64.7869 256.736 64.7316 260.817 64.7316C264.896 64.7316 268.203 64.7869 268.203 64.8549Z" fill="#DADBD8"/>
<path d="M268.203 66.624C268.203 66.692 264.896 66.748 260.817 66.748C256.736 66.748 253.43 66.692 253.43 66.624C253.43 66.5559 256.736 66.5006 260.817 66.5006C264.896 66.5006 268.203 66.5559 268.203 66.624Z" fill="#DADBD8"/>
<path d="M269.097 84.8049C269.097 84.8729 265.479 84.9282 261.015 84.9282C256.551 84.9282 252.934 84.8729 252.934 84.8049C252.934 84.7361 256.551 84.6815 261.015 84.6815C265.479 84.6815 269.097 84.7361 269.097 84.8049Z" fill="#DADBD8"/>
<path d="M180.625 50.3782V75.2256H210.827V50.3782C210.827 49.1956 209.868 48.237 208.685 48.237H182.767C181.584 48.237 180.625 49.1956 180.625 50.3782Z" fill="#DADBD8"/>
<path d="M182.042 61.7314L182.243 52.6095H208.672V57.8142" fill="#F3F2F1"/>
<path d="M183.963 50.1435V52.6094H207.053V50.1435H183.963Z" fill="#F3F2F1"/>
<path d="M183.963 50.1437C183.96 50.1409 183.997 50.1381 184.072 50.1352C184.16 50.1331 184.271 50.1303 184.407 50.1267C184.724 50.1225 185.161 50.1168 185.716 50.1097C186.883 50.1012 188.543 50.0884 190.598 50.0728C194.777 50.0601 200.558 50.0417 207.054 50.0204H207.177V50.1437C207.177 50.9293 207.177 51.7638 207.177 52.6075C206.931 52.8578 207.104 52.6777 207.048 52.733H207.04H207.025H206.995H206.935H206.815H206.576H206.099C205.781 52.733 205.465 52.733 205.151 52.733C204.523 52.7323 203.9 52.7316 203.286 52.7316C202.056 52.7302 200.854 52.7294 199.689 52.728C197.358 52.7224 195.169 52.7181 193.172 52.7131C189.2 52.6912 185.998 52.6734 183.963 52.6614H183.91L183.911 52.6096C183.924 51.8149 183.934 51.1973 183.941 50.7592C183.946 50.5663 183.95 50.4132 183.953 50.2933C183.957 50.1905 183.96 50.1402 183.963 50.1437C183.967 50.1466 183.97 50.204 183.974 50.3125C183.977 50.4351 183.981 50.5918 183.986 50.7896C183.993 51.2207 184.003 51.8276 184.016 52.6096L183.963 52.5572C185.998 52.5458 189.2 52.5274 193.172 52.5054C195.169 52.5012 197.358 52.4962 199.689 52.4912C200.854 52.4898 202.056 52.4884 203.286 52.487C203.9 52.487 204.523 52.4863 205.151 52.4863C205.465 52.4856 205.781 52.4856 206.099 52.4856H206.576H206.815H206.935H206.995H207.025H207.04H207.048C206.994 52.5409 207.177 52.3636 206.93 52.6075C206.931 51.7638 206.931 50.9293 206.931 50.1437L207.054 50.2671C200.593 50.2458 194.844 50.2274 190.687 50.2139C188.621 50.1983 186.95 50.1863 185.777 50.1771C185.21 50.1707 184.763 50.1643 184.44 50.1608C184.297 50.1572 184.182 50.1544 184.089 50.1522C184.009 50.1494 183.966 50.1466 183.963 50.1437Z" fill="#DADBD8"/>
<path d="M209.74 81.444C209.74 81.5121 203.969 81.5674 196.852 81.5674C189.733 81.5674 183.963 81.5121 183.963 81.444C183.963 81.3752 189.733 81.3199 196.852 81.3199C203.969 81.3199 209.74 81.3752 209.74 81.444Z" fill="#DADBD8"/>
<path d="M178.302 57.2462L180.625 75.2256H210.827V57.8141H197.111L194.45 55.4744H179.86C178.913 55.4744 178.181 56.3068 178.302 57.2462Z" fill="#E7E8E5"/>
<path d="M202.515 64.8549C202.515 64.9237 199.208 64.979 195.129 64.979C191.048 64.979 187.741 64.9237 187.741 64.8549C187.741 64.7869 191.048 64.7316 195.129 64.7316C199.208 64.7316 202.515 64.7869 202.515 64.8549Z" fill="#DADBD8"/>
<path d="M202.515 66.624C202.515 66.692 199.208 66.748 195.129 66.748C191.048 66.748 187.741 66.692 187.741 66.624C187.741 66.5559 191.048 66.5006 195.129 66.5006C199.208 66.5006 202.515 66.5559 202.515 66.624Z" fill="#DADBD8"/>
<path d="M203.409 84.8049C203.409 84.8729 199.791 84.9282 195.328 84.9282C190.864 84.9282 187.245 84.8729 187.245 84.8049C187.245 84.7361 190.864 84.6815 195.328 84.6815C199.791 84.6815 203.409 84.7361 203.409 84.8049Z" fill="#DADBD8"/>
<path d="M179.676 103.157V128.004H209.878V103.157C209.878 101.974 208.92 101.015 207.736 101.015H181.818C180.635 101.015 179.676 101.974 179.676 103.157Z" fill="#DADBD8"/>
<path d="M181.093 114.51L181.293 105.388H207.722V110.593" fill="#F3F2F1"/>
<path d="M183.014 102.922V105.388H206.104V102.922H183.014Z" fill="#F3F2F1"/>
<path d="M183.015 102.922C183.012 102.919 183.049 102.916 183.124 102.913C183.212 102.911 183.323 102.909 183.458 102.906C183.776 102.901 184.213 102.895 184.768 102.889C185.935 102.879 187.594 102.867 189.65 102.852C193.829 102.838 199.61 102.82 206.106 102.799L206.229 102.799V102.922C206.229 103.708 206.229 104.543 206.229 105.386C205.982 105.636 206.156 105.456 206.099 105.511H206.091H206.077H206.047H205.987H205.867H205.628H205.151C204.833 105.511 204.517 105.511 204.203 105.511C203.575 105.51 202.953 105.51 202.337 105.51C201.108 105.508 199.907 105.508 198.741 105.506C196.41 105.501 194.221 105.496 192.224 105.492C188.252 105.469 185.051 105.452 183.015 105.44L182.962 105.44L182.963 105.388C182.976 104.593 182.985 103.976 182.992 103.538C182.998 103.345 183.002 103.191 183.005 103.072C183.009 102.969 183.012 102.919 183.015 102.922C183.019 102.925 183.021 102.983 183.026 103.091C183.029 103.213 183.033 103.37 183.038 103.569C183.045 104 183.055 104.607 183.068 105.388L183.015 105.335C185.051 105.324 188.252 105.306 192.224 105.284C194.221 105.279 196.41 105.274 198.741 105.269C199.907 105.268 201.108 105.267 202.337 105.266C202.953 105.265 203.575 105.265 204.203 105.264C204.517 105.264 204.833 105.264 205.151 105.264H205.628H205.867H205.987H206.047H206.077H206.091H206.099C206.046 105.318 206.229 105.142 205.982 105.386C205.982 104.543 205.982 103.708 205.982 102.922L206.106 103.045C199.645 103.025 193.895 103.006 189.739 102.993C187.672 102.977 186.002 102.965 184.829 102.956C184.261 102.949 183.815 102.943 183.492 102.939C183.348 102.935 183.233 102.933 183.141 102.93C183.06 102.928 183.018 102.925 183.015 102.922Z" fill="#DADBD8"/>
<path d="M208.791 134.222C208.791 134.29 203.019 134.346 195.902 134.346C188.783 134.346 183.014 134.29 183.014 134.222C183.014 134.154 188.783 134.099 195.902 134.099C203.019 134.099 208.791 134.154 208.791 134.222Z" fill="#DADBD8"/>
<path d="M177.353 110.025L179.676 128.004H209.878V110.592H196.162L193.5 108.253H178.911C177.963 108.253 177.232 109.085 177.353 110.025Z" fill="#E7E8E5"/>
<path d="M201.565 117.634C201.565 117.702 198.258 117.757 194.179 117.757C190.099 117.757 186.792 117.702 186.792 117.634C186.792 117.566 190.099 117.511 194.179 117.511C198.258 117.511 201.565 117.566 201.565 117.634Z" fill="#DADBD8"/>
<path d="M201.565 119.403C201.565 119.471 198.258 119.526 194.179 119.526C190.099 119.526 186.792 119.471 186.792 119.403C186.792 119.334 190.099 119.279 194.179 119.279C198.258 119.279 201.565 119.334 201.565 119.403Z" fill="#DADBD8"/>
<path d="M202.459 137.583C202.459 137.651 198.841 137.707 194.378 137.707C189.914 137.707 186.295 137.651 186.295 137.583C186.295 137.515 189.914 137.459 194.378 137.459C198.841 137.459 202.459 137.515 202.459 137.583Z" fill="#DADBD8"/>
<path d="M246.083 103.157V128.004H276.285V103.157C276.285 101.974 275.326 101.015 274.144 101.015H248.224C247.042 101.015 246.083 101.974 246.083 103.157Z" fill="#DADBD8"/>
<path d="M247.501 114.51L247.701 105.388H274.129V110.593" fill="#F3F2F1"/>
<path d="M249.42 102.922V105.388H272.51V102.922H249.42Z" fill="#F3F2F1"/>
<path d="M249.42 102.922C249.418 102.919 249.454 102.916 249.53 102.913C249.618 102.911 249.728 102.909 249.864 102.906C250.181 102.901 250.619 102.895 251.174 102.889C252.341 102.879 254 102.867 256.055 102.852C260.234 102.838 266.015 102.82 272.511 102.799L272.634 102.799V102.922C272.634 103.708 272.634 104.543 272.635 105.386C272.388 105.636 272.562 105.456 272.505 105.511H272.497H272.483H272.452H272.393H272.273H272.033H271.556C271.239 105.511 270.923 105.511 270.609 105.511C269.981 105.51 269.359 105.51 268.743 105.51C267.513 105.508 266.312 105.508 265.146 105.506C262.816 105.501 260.626 105.496 258.629 105.492C254.658 105.469 251.457 105.452 249.42 105.44L249.367 105.44L249.369 105.388C249.381 104.593 249.391 103.976 249.398 103.538C249.403 103.345 249.408 103.191 249.41 103.072C249.415 102.969 249.418 102.919 249.42 102.922C249.424 102.925 249.427 102.983 249.431 103.091C249.435 103.213 249.438 103.37 249.444 103.569C249.45 104 249.46 104.607 249.474 105.388L249.42 105.335C251.457 105.324 254.658 105.306 258.629 105.284C260.626 105.279 262.816 105.274 265.146 105.269C266.312 105.268 267.513 105.267 268.743 105.266C269.359 105.265 269.981 105.265 270.609 105.264C270.923 105.264 271.239 105.264 271.556 105.264H272.033H272.273H272.393H272.452H272.483H272.497H272.505C272.451 105.318 272.634 105.142 272.388 105.386C272.388 104.543 272.388 103.708 272.388 102.922L272.511 103.045C266.051 103.025 260.301 103.006 256.144 102.993C254.078 102.977 252.407 102.965 251.234 102.956C250.667 102.949 250.22 102.943 249.897 102.939C249.754 102.935 249.639 102.933 249.546 102.93C249.466 102.928 249.423 102.925 249.42 102.922Z" fill="#DADBD8"/>
<path d="M275.198 134.222C275.198 134.29 269.426 134.346 262.309 134.346C255.19 134.346 249.42 134.29 249.42 134.222C249.42 134.154 255.19 134.099 262.309 134.099C269.426 134.099 275.198 134.154 275.198 134.222Z" fill="#DADBD8"/>
<path d="M243.76 110.025L246.084 128.004H276.285V110.592H262.569L259.909 108.253H245.318C244.371 108.253 243.639 109.085 243.76 110.025Z" fill="#E7E8E5"/>
<path d="M267.974 117.634C267.974 117.702 264.665 117.757 260.587 117.757C256.507 117.757 253.2 117.702 253.2 117.634C253.2 117.566 256.507 117.511 260.587 117.511C264.665 117.511 267.974 117.566 267.974 117.634Z" fill="#DADBD8"/>
<path d="M267.974 119.403C267.974 119.471 264.665 119.526 260.587 119.526C256.507 119.526 253.2 119.471 253.2 119.403C253.2 119.334 256.507 119.279 260.587 119.279C264.665 119.279 267.974 119.334 267.974 119.403Z" fill="#DADBD8"/>
<path d="M268.867 137.583C268.867 137.651 265.249 137.707 260.785 137.707C256.321 137.707 252.702 137.651 252.702 137.583C252.702 137.515 256.321 137.459 260.785 137.459C265.249 137.459 268.867 137.515 268.867 137.583Z" fill="#DADBD8"/>
<path d="M186.397 160.796H131.282L120.754 176.421L110.483 160.796H56.3429C52.8804 160.796 50.0732 157.989 50.0732 154.527V47.1456C50.0732 43.6829 52.8804 40.876 56.3429 40.876H186.397C189.86 40.876 192.667 43.6829 192.667 47.1456V154.527C192.667 157.989 189.86 160.796 186.397 160.796Z" fill="#FAFAF9"/>
<path d="M186.398 160.796C186.398 160.796 186.514 160.784 186.743 160.769C186.972 160.764 187.312 160.717 187.754 160.626C188.617 160.424 189.96 159.934 191.12 158.587C191.698 157.926 192.189 157.043 192.442 155.988C192.523 155.728 192.536 155.448 192.586 155.17C192.596 154.887 192.625 154.6 192.617 154.3C192.615 153.704 192.614 153.082 192.613 152.435C192.608 149.849 192.603 146.866 192.596 143.507C192.582 130.068 192.562 110.629 192.537 86.6085C192.53 74.5967 192.523 61.4406 192.515 47.3167C192.559 45.5839 191.848 43.8412 190.543 42.66C189.899 42.0666 189.127 41.6093 188.288 41.3342C187.444 41.0393 186.563 41.0159 185.642 41.0343C181.994 41.0358 178.287 41.0372 174.525 41.0386C167.002 41.0414 159.259 41.0443 151.319 41.0464C135.438 41.0499 118.768 41.0535 101.487 41.0577C92.8464 41.0584 84.0527 41.0591 75.1286 41.0606C70.6669 41.0606 66.1719 41.0606 61.6476 41.0613C60.5163 41.0613 59.3836 41.0613 58.2486 41.0613H56.5451C56.2573 41.0556 55.9906 41.0832 55.7123 41.0939C55.4409 41.1435 55.1626 41.1591 54.8981 41.2413C53.8199 41.4938 52.8309 42.0702 52.0391 42.8451C51.2645 43.6378 50.6873 44.6304 50.4353 45.7151C50.1761 46.6829 50.2813 47.7202 50.2586 48.756C50.2586 49.7876 50.2586 50.8178 50.2586 51.8465C50.2586 53.904 50.2586 55.9565 50.2586 58.002C50.2583 62.0929 50.2583 66.1597 50.258 70.201C50.2572 78.2821 50.2566 86.2576 50.2558 94.1104C50.2528 109.816 50.2497 125.031 50.247 139.618C50.2458 143.264 50.2447 146.872 50.2439 150.439C50.2439 151.33 50.2434 152.219 50.2431 153.105C50.258 153.995 50.1871 154.88 50.3602 155.716C50.6832 157.405 51.7715 158.905 53.2283 159.768C53.955 160.203 54.7707 160.482 55.6065 160.582C56.4343 160.668 57.3172 160.618 58.1708 160.632C59.8893 160.633 61.5969 160.633 63.293 160.634C66.6852 160.635 70.0316 160.637 73.3299 160.638C86.525 160.645 98.9544 160.65 110.483 160.657H110.559L110.6 160.72C114.186 166.182 117.61 171.397 120.862 176.35L120.65 176.35C124.402 170.792 127.917 165.583 131.19 160.735L131.224 160.684H131.283C148.716 160.707 162.494 160.725 171.918 160.736C176.625 160.749 180.243 160.759 182.69 160.766C183.908 160.772 184.834 160.777 185.46 160.781C186.082 160.786 186.398 160.796 186.398 160.796C186.398 160.796 186.082 160.807 185.46 160.812C184.834 160.815 183.908 160.821 182.69 160.827C180.243 160.834 176.625 160.844 171.918 160.857C162.494 160.869 148.716 160.886 131.283 160.908L131.375 160.859C128.11 165.714 124.604 170.928 120.861 176.491L120.754 176.651L120.649 176.49C117.39 171.542 113.96 166.331 110.367 160.874L110.483 160.937C98.9544 160.942 86.525 160.948 73.3299 160.955C70.0316 160.957 66.6852 160.958 63.293 160.959C61.5969 160.96 59.8893 160.96 58.1708 160.961C57.3075 160.946 56.4609 161.001 55.5669 160.911C54.6856 160.805 53.8249 160.511 53.058 160.054C51.5212 159.144 50.373 157.565 50.0307 155.781C49.847 154.883 49.9218 153.984 49.9052 153.105C49.9052 152.219 49.9049 151.33 49.9046 150.439C49.9035 146.872 49.9024 143.264 49.9013 139.618C49.8985 125.031 49.8957 109.816 49.8927 94.1104C49.8922 86.2576 49.8913 78.2821 49.8902 70.201C49.8902 66.1597 49.8899 62.0929 49.8899 58.002C49.8896 55.9565 49.8896 53.904 49.8896 51.8465C49.8896 50.8178 49.8896 49.7876 49.8896 48.756V47.2075C49.8996 46.6801 49.9423 46.1441 50.0763 45.6286C50.3445 44.4772 50.9562 43.4236 51.7782 42.5842C52.6168 41.7625 53.6665 41.1513 54.8103 40.8826C55.0914 40.7961 55.3863 40.7784 55.6741 40.7266C55.9637 40.7139 56.2643 40.6862 56.5451 40.6919H58.2486C59.3836 40.6919 60.5163 40.6919 61.6476 40.6926C66.1719 40.6926 70.6669 40.6926 75.1286 40.6926C84.0527 40.694 92.8464 40.6947 101.487 40.6954C118.768 40.6997 135.438 40.7032 151.319 40.7068C159.259 40.7089 167.002 40.7117 174.525 40.7139C178.287 40.716 181.994 40.7174 185.642 40.7188C186.541 40.6997 187.509 40.7252 188.386 41.0365C189.267 41.3257 190.079 41.8078 190.754 42.4318C191.429 43.055 191.97 43.82 192.323 44.6615C192.677 45.5024 192.83 46.4213 192.82 47.3167C192.813 61.4406 192.805 74.5967 192.798 86.6085C192.774 110.629 192.754 130.068 192.739 143.507C192.733 146.866 192.728 149.849 192.723 152.435C192.721 153.082 192.72 153.704 192.718 154.3C192.725 154.597 192.695 154.893 192.682 155.18C192.63 155.463 192.614 155.746 192.532 156.01C192.269 157.078 191.765 157.97 191.177 158.636C189.993 159.99 188.632 160.472 187.762 160.663C187.316 160.749 186.974 160.789 186.743 160.789C186.514 160.797 186.398 160.796 186.398 160.796Z" fill="#17282F"/>
<path d="M140.917 78.7684C140.917 89.1396 132.509 97.5469 122.139 97.5469C111.768 97.5469 103.36 89.1396 103.36 78.7684C103.36 68.3973 111.768 59.99 122.139 59.99C132.509 59.99 140.917 68.3973 140.917 78.7684Z" fill="#314636"/>
<path d="M185.872 51.5283C185.872 54.7316 183.276 57.3286 180.072 57.3286C176.869 57.3286 174.271 54.7316 174.271 51.5283C174.271 48.3251 176.869 45.7288 180.072 45.7288C183.276 45.7288 185.872 48.3251 185.872 51.5283Z" fill="#DADBD8"/>
<path d="M178.194 53.5835L178.069 53.5317C177.999 53.4623 177.999 53.3502 178.069 53.2808L181.824 49.5252C181.893 49.4564 182.006 49.4564 182.075 49.5252C182.144 49.594 182.144 49.7067 182.075 49.7762L178.319 53.5317L178.194 53.5835Z" fill="white"/>
<path d="M181.949 53.5835L181.824 53.5317L178.069 49.7762C177.999 49.7067 177.999 49.594 178.069 49.5252C178.138 49.4564 178.25 49.4564 178.319 49.5252L182.075 53.2808C182.144 53.3502 182.144 53.4623 182.075 53.5317L181.949 53.5835Z" fill="white"/>
<path d="M30.9002 270.337C30.9002 270.337 12.1681 248.777 5.09888 227.217C-1.97 205.657 1.38779 208.131 1.38779 208.131C1.38779 208.131 10.9306 229.075 18.1765 239.191C25.4221 249.307 38.3228 264.152 38.3228 264.152L30.9002 270.337Z" fill="#33535F"/>
<path d="M34.6347 211.49C34.0304 210.437 32.4219 210.985 32.603 212.184C33.7452 219.758 36.2139 237.53 36.117 249.056C35.9909 264.03 36.1217 269.818 36.1217 269.818H43.9181C43.9181 269.818 42.5342 238.864 40.7725 229.426C39.5373 222.809 36.9154 215.463 34.6347 211.49Z" fill="#33535F"/>
<path d="M38.8857 267.302C38.8857 267.302 43.7933 256.983 45.3029 244.023C45.9455 238.511 44.8 231.062 43.096 221.121C42.2703 216.307 42.0834 212.643 42.11 210.102C42.1302 208.182 44.6643 207.555 45.6026 209.23C46.544 210.909 49.2672 216.646 49.9588 220.241C51.8462 230.056 53.9853 234.963 52.3497 244.275C50.7138 253.585 44.674 267.931 44.674 267.931L38.8857 267.302Z" fill="#33535F"/>
<path d="M45.9082 267.931C45.9082 267.931 66.4759 223.73 67.9009 217.174C69.3267 210.616 74.1734 195.506 74.7434 196.361C75.3142 197.216 76.1692 205.199 72.4626 214.323C68.7567 223.446 52.9312 269.277 52.9312 269.277H45.9082V267.931Z" fill="#33535F"/>
<path d="M36.6323 265.953C36.6234 265.964 36.4251 265.828 36.0559 265.557C35.6912 265.28 35.1364 264.892 34.4629 264.34C33.0939 263.265 31.1727 261.629 28.9353 259.461C24.4451 255.15 18.8575 248.502 14.0137 240.309C9.15927 232.119 5.89428 224.109 3.8282 218.246C2.79385 215.31 2.03912 212.907 1.54949 211.238C1.29829 210.405 1.12516 209.752 1.00363 209.31C0.884807 208.868 0.829434 208.634 0.844111 208.629C0.858503 208.625 0.942377 208.851 1.08836 209.285C1.24342 209.758 1.45172 210.392 1.71263 211.187C2.2521 212.839 3.05057 215.224 4.12045 218.14C6.25736 223.966 9.55695 231.93 14.3914 240.085C19.2157 248.243 24.7353 254.887 29.1529 259.239C31.3544 261.428 33.2382 263.095 34.5709 264.208C35.2267 264.778 35.7632 265.188 36.1099 265.487C36.4614 265.781 36.6417 265.941 36.6323 265.953Z" fill="#17282F"/>
<path d="M38.8829 244.749C38.853 244.751 38.7885 244.288 38.6988 243.452C38.601 242.537 38.4731 241.344 38.3194 239.908C37.9936 236.919 37.4857 232.794 36.7593 228.265C36.0289 223.734 35.2189 219.658 34.591 216.716C34.2869 215.305 34.0344 214.133 33.8405 213.233C33.6638 212.41 33.5799 211.951 33.6093 211.944C33.6386 211.936 33.7785 212.381 34.0064 213.192C34.2368 214.002 34.5415 215.183 34.8941 216.647C35.6005 219.576 36.461 223.653 37.193 228.195C37.9214 232.735 38.3817 236.876 38.629 239.878C38.7533 241.38 38.8339 242.597 38.8688 243.439C38.907 244.28 38.9131 244.747 38.8829 244.749Z" fill="#17282F"/>
<path d="M43.7003 208.884C43.7142 208.878 43.7975 209.071 43.9429 209.445C44.0991 209.862 44.3035 210.406 44.5592 211.087C44.8316 211.799 45.1441 212.677 45.4418 213.718C45.7478 214.756 46.1439 215.926 46.4416 217.257C46.6044 217.921 46.7745 218.614 46.9515 219.336C47.124 220.06 47.2461 220.825 47.4037 221.611C47.7397 223.181 47.9474 224.882 48.1969 226.668C48.599 230.251 48.8187 234.219 48.6882 238.382C48.5207 242.544 48.0172 246.487 47.3594 250.032C46.9827 251.796 46.654 253.479 46.2062 255.02C45.9929 255.793 45.8162 256.547 45.5916 257.257C45.3637 257.964 45.1446 258.644 44.9349 259.294C44.5428 260.6 44.0637 261.739 43.6843 262.752C43.3131 263.77 42.9381 264.623 42.6158 265.313C42.3122 265.974 42.0691 266.503 41.8832 266.907C41.7119 267.269 41.6149 267.456 41.6013 267.45C41.5875 267.443 41.6575 267.244 41.8027 266.871C41.9689 266.46 42.1868 265.92 42.4585 265.247C42.7559 264.548 43.1065 263.688 43.4547 262.665C43.8111 261.647 44.2678 260.505 44.6394 259.198C44.8394 258.549 45.0491 257.869 45.2662 257.162C45.4814 256.453 45.649 255.7 45.8539 254.929C46.2837 253.391 46.5978 251.714 46.9617 249.957C47.5942 246.427 48.0822 242.505 48.2493 238.366C48.3786 234.227 48.1726 230.281 47.7947 226.714C47.5574 224.937 47.3647 223.242 47.0459 221.678C46.8966 220.893 46.7834 220.13 46.6199 219.407C46.4535 218.687 46.2932 217.994 46.1402 217.332C45.8633 216.001 45.4892 214.83 45.2064 213.789C44.9322 212.744 44.6442 211.861 44.3974 211.142C44.1745 210.451 43.9958 209.898 43.8598 209.476C43.7414 209.093 43.6859 208.888 43.7003 208.884Z" fill="#17282F"/>
<path d="M74.5068 197.25C74.5146 197.25 74.5089 197.318 74.4912 197.447C74.4664 197.603 74.4366 197.791 74.3997 198.022C74.309 198.524 74.1955 199.271 73.9942 200.222C73.5971 202.122 72.9357 204.86 71.9062 208.179C70.8824 211.5 69.4772 215.393 67.811 219.67C66.152 223.949 64.2235 228.611 62.3974 233.573C60.5431 238.529 59.1149 243.365 57.7728 247.753C56.4429 252.144 55.1808 256.086 53.9611 259.341C52.7542 262.599 51.5915 265.166 50.7138 266.899C50.2932 267.775 49.9137 268.428 49.6698 268.877C49.5543 269.08 49.4596 269.245 49.3817 269.383C49.315 269.495 49.2776 269.551 49.2707 269.547C49.2637 269.544 49.2884 269.481 49.3424 269.361C49.4097 269.219 49.4914 269.047 49.5911 268.835C49.8099 268.374 50.1639 267.709 50.5601 266.825C51.3882 265.073 52.503 262.497 53.6698 259.233C54.8488 255.975 56.077 252.033 57.3853 247.636C58.7053 243.244 60.1257 238.391 61.9852 233.422C63.8154 228.447 65.7557 223.789 67.4338 219.523C69.1191 215.257 70.5506 211.385 71.6105 208.085C72.6747 204.787 73.3802 202.071 73.8276 200.185C74.0537 199.242 74.1941 198.502 74.3132 198.005C74.3671 197.778 74.4104 197.593 74.4472 197.44C74.4791 197.312 74.4997 197.248 74.5068 197.25Z" fill="#17282F"/>
<path d="M11.0855 187.486C9.7891 186.198 7.63354 187.545 8.17004 189.292C8.71398 191.063 9.5379 193.353 10.7545 195.938C13.5817 201.946 21.888 223.506 25.7755 235.346C29.6636 247.187 35.142 269.277 35.142 269.277L43.4442 267.931C43.4442 267.931 35.8491 231.636 28.4268 218.558C22.463 208.05 16.499 192.865 11.0855 187.486Z" fill="#33535F"/>
<path d="M28.048 242.752C28.0768 242.742 28.2274 243.097 28.4758 243.747C28.7218 244.398 29.0561 245.348 29.433 246.534C30.1979 248.902 31.1332 252.211 32.0762 255.886C33.0162 259.563 33.7997 262.907 34.3455 265.332C34.5948 266.478 34.8039 267.442 34.9704 268.209C35.1089 268.89 35.1715 269.27 35.1421 269.277C35.1127 269.284 34.9936 268.917 34.8042 268.249C34.6017 267.491 34.347 266.539 34.0439 265.404C33.4086 262.907 32.5742 259.625 31.6505 255.995C30.7086 252.324 29.8227 249.01 29.1359 246.624C28.8079 245.499 28.5326 244.553 28.3138 243.801C28.1155 243.135 28.0192 242.762 28.048 242.752Z" fill="#17282F"/>
<path d="M39.3129 268.603C39.3054 268.604 39.2894 268.529 39.2658 268.382C39.2409 268.209 39.2101 267.995 39.1716 267.728C39.0844 267.154 39.0068 266.302 38.8316 265.214C38.5272 263.033 37.983 259.89 37.0912 256.056C36.205 252.221 34.9118 247.71 33.2047 242.793C31.5018 237.873 29.3659 232.559 26.9453 227.058C22.0611 216.071 17.182 206.325 13.9757 199.118C12.3547 195.523 11.1004 192.589 10.274 190.543C9.85218 189.525 9.55058 188.723 9.34015 188.183C9.24649 187.931 9.17063 187.727 9.10972 187.564C9.06009 187.423 9.03826 187.35 9.0452 187.347C9.05208 187.344 9.08838 187.413 9.15155 187.547C9.22267 187.706 9.31186 187.904 9.42239 188.149C9.66635 188.712 10.0034 189.491 10.4313 190.478C11.3056 192.5 12.6023 195.414 14.2579 198.99C17.5343 206.157 22.4557 215.877 27.3472 226.881C29.7714 232.39 31.9011 237.721 33.5878 242.66C35.278 247.598 36.5436 252.132 37.3936 255.986C38.2494 259.841 38.7479 263 39.001 265.192C39.1506 266.285 39.201 267.142 39.2597 267.719C39.2805 267.987 39.2971 268.204 39.3104 268.378C39.3195 268.527 39.3206 268.602 39.3129 268.603Z" fill="#17282F"/>
<path d="M43.4446 267.931C43.4144 267.935 43.3161 267.438 43.1646 266.535C42.9993 265.561 42.7815 264.274 42.5182 262.719C41.946 259.502 41.0725 255.072 39.8165 250.249C38.573 245.422 37.1722 241.128 36.0946 238.045C35.5653 236.558 35.1277 235.33 34.796 234.398C34.4852 233.538 34.3266 233.057 34.3548 233.046C34.3828 233.035 34.5952 233.495 34.9552 234.336C35.3131 235.179 35.8132 236.405 36.3865 237.939C37.5413 241.002 38.994 245.296 40.2416 250.139C41.5018 254.977 42.3295 259.433 42.8245 262.669C43.061 264.288 43.2422 265.601 43.3338 266.512C43.4335 267.422 43.4745 267.927 43.4446 267.931Z" fill="#17282F"/>
<path d="M28.0791 306.222H60.486V266.738H28.0791V306.222Z" fill="#314636"/>
<path d="M60.486 306.222H28.0791V266.738H60.486V305.739V306.044V306.222Z" fill="#1F2C22"/>
<path d="M50.1473 306.222H21.3965V266.738H50.1473V306.222Z" fill="#314636"/>
<path d="M206.612 271.424L206.654 271.444L206.612 271.424Z" fill="#F8A58D"/>
<path d="M206.865 271.545L206.959 271.589L206.865 271.545Z" fill="#F8A58D"/>
<path d="M206.655 271.444C206.738 271.483 206.81 271.517 206.866 271.545C206.794 271.51 206.718 271.474 206.655 271.444Z" fill="#F8A58D"/>
<path d="M206.52 271.379L206.612 271.424L206.52 271.379Z" fill="#F8A58D"/>
<path d="M206.959 271.588L207.041 271.627L206.959 271.588Z" fill="#F8A58D"/>
<path d="M207.041 271.628L207.086 271.649L207.041 271.628Z" fill="#F8A58D"/>
<path d="M174.099 211.523C174.089 211.547 173.871 211.473 173.485 211.317C173.099 211.165 172.552 210.917 171.886 210.586C170.556 209.927 168.772 208.896 166.945 207.548C165.12 206.198 163.61 204.794 162.589 203.716C162.078 203.177 161.68 202.726 161.421 202.402C161.159 202.079 161.025 201.893 161.044 201.876C161.088 201.838 161.712 202.508 162.774 203.532C163.835 204.556 165.357 205.913 167.165 207.251C168.974 208.586 170.718 209.642 172.008 210.356C173.299 211.071 174.123 211.47 174.099 211.523Z" fill="white"/>
<path d="M255.946 214.195C255.948 214.201 255.888 214.241 255.766 214.317C255.626 214.401 255.447 214.508 255.222 214.643C254.747 214.934 254.026 215.328 253.088 215.822C251.212 216.799 248.415 218.078 244.826 219.297C241.238 220.514 236.85 221.629 231.901 222.405C226.952 223.187 221.451 223.612 215.679 223.751C209.902 223.89 204.402 223.781 199.401 223.668C194.399 223.548 189.892 223.233 186.144 222.668C182.394 222.107 179.419 221.318 177.414 220.64C176.41 220.3 175.64 220.015 175.127 219.793C174.886 219.692 174.693 219.612 174.542 219.55C174.412 219.492 174.346 219.46 174.349 219.455C174.351 219.448 174.421 219.469 174.557 219.514C174.711 219.568 174.907 219.638 175.155 219.724C175.674 219.923 176.451 220.185 177.458 220.502C179.47 221.137 182.443 221.884 186.181 222.41C189.92 222.939 194.414 223.226 199.409 223.329C204.406 223.422 209.905 223.52 215.67 223.382C221.431 223.243 226.914 222.829 231.848 222.068C236.782 221.314 241.159 220.23 244.743 219.05C248.329 217.867 251.131 216.629 253.024 215.693C253.969 215.22 254.699 214.848 255.185 214.578C255.418 214.457 255.602 214.36 255.747 214.285C255.875 214.22 255.942 214.19 255.946 214.195" fill="white"/>
<path d="M174.349 239.436C174.341 239.461 174.028 239.392 173.469 239.248C172.839 239.076 172.049 238.86 171.109 238.604C169.122 238.044 166.383 237.247 163.366 236.343C160.347 235.441 157.619 234.604 155.651 233.98C154.725 233.678 153.946 233.424 153.325 233.223C152.779 233.036 152.48 232.921 152.487 232.897C152.495 232.873 152.807 232.94 153.367 233.085C153.997 233.257 154.787 233.473 155.726 233.73C157.714 234.289 160.452 235.087 163.471 235.99C166.489 236.893 169.215 237.729 171.184 238.353C172.11 238.655 172.889 238.908 173.51 239.11C174.056 239.297 174.356 239.411 174.349 239.436Z" fill="white"/>
<path d="M278.883 193.868C278.898 193.889 278.619 194.107 278.103 194.484C277.588 194.863 276.825 195.387 275.866 196.01C273.951 197.26 271.225 198.872 268.091 200.412C264.956 201.951 262.013 203.122 259.854 203.874C258.775 204.252 257.894 204.535 257.279 204.711C256.665 204.889 256.321 204.976 256.314 204.952C256.306 204.928 256.634 204.794 257.233 204.575C257.898 204.326 258.747 204.009 259.764 203.63C261.893 202.817 264.807 201.613 267.929 200.082C271.049 198.547 273.782 196.979 275.727 195.79C276.65 195.217 277.42 194.739 278.022 194.365C278.563 194.026 278.869 193.848 278.883 193.868Z" fill="white"/>
<path d="M293.007 234.15C293.018 234.174 292.608 234.366 291.857 234.696C291.108 235.031 290.007 235.472 288.631 235.977C285.882 236.991 281.998 238.184 277.606 239.061C273.212 239.93 269.166 240.314 266.238 240.43C264.774 240.489 263.587 240.503 262.768 240.481C261.949 240.465 261.496 240.443 261.497 240.418C261.497 240.392 261.949 240.365 262.767 240.338C263.584 240.315 264.766 240.261 266.225 240.169C269.14 239.987 273.161 239.564 277.535 238.698C281.905 237.826 285.782 236.679 288.545 235.731C289.926 235.258 291.04 234.855 291.803 234.562C292.569 234.275 292.997 234.127 293.007 234.15" fill="white"/>
<path d="M218.654 256.812C218.597 256.736 218.539 256.659 218.482 256.581C219.972 256.498 221.207 256.428 222.141 256.376C222.611 256.355 222.994 256.338 223.3 256.326C223.403 256.323 223.487 256.321 223.552 256.321C223.624 256.321 223.672 256.323 223.693 256.327C223.701 256.328 223.706 256.33 223.706 256.333V256.333C223.698 256.347 223.562 256.369 223.306 256.399C223.001 256.431 222.619 256.471 222.151 256.519C221.252 256.595 220.071 256.693 218.654 256.812Z" fill="#A7A9A8"/>
<path d="M256.56 222.246C256.546 222.194 256.533 222.142 256.52 222.09L256.615 221.565C256.595 221.792 256.577 222.019 256.56 222.246" fill="#1F2C22"/>
<path d="M260.874 253.797C260.855 253.729 260.837 253.659 260.818 253.591C261.514 253.484 262.121 253.389 262.633 253.31C263.052 253.25 263.397 253.2 263.678 253.159C263.85 253.137 263.963 253.126 264.015 253.126C264.035 253.126 264.045 253.128 264.046 253.131C264.048 253.143 263.925 253.178 263.691 253.232C263.413 253.291 263.072 253.364 262.658 253.451C262.176 253.55 261.576 253.666 260.874 253.797" fill="#A7A9A8"/>
<path d="M163.36 266.863C163.402 267.004 173.634 264.068 186.212 260.306C198.794 256.542 208.957 253.378 208.914 253.236C208.872 253.096 198.642 256.031 186.058 259.795C173.481 263.557 163.317 266.721 163.36 266.863" fill="white"/>
<path d="M95.0007 234.611C94.9997 234.63 95.1985 234.662 95.5797 234.708C96.0203 234.754 96.5717 234.811 97.248 234.881C98.7739 235.009 100.856 235.183 103.396 235.396C108.59 235.798 115.769 236.287 123.707 236.702C131.646 237.118 138.841 237.367 144.052 237.423C146.657 237.442 148.766 237.451 150.223 237.404C150.902 237.383 151.458 237.365 151.9 237.35C152.283 237.333 152.484 237.315 152.483 237.296C152.483 237.278 152.282 237.259 151.899 237.244C151.457 237.231 150.902 237.215 150.223 237.197C148.694 237.159 146.605 237.108 144.06 237.046C138.856 236.893 131.669 236.585 123.734 236.168C115.835 235.722 108.687 235.317 103.422 235.019C100.877 234.877 98.7913 234.759 97.2634 234.674C96.584 234.644 96.0296 234.62 95.5879 234.601C95.2036 234.59 95.0017 234.593 95.0007 234.611Z" fill="white"/>
<path d="M306.903 202.844L285.839 306.243H103.024C101.007 306.243 99.3734 304.609 99.3734 302.591C99.3734 300.575 101.007 298.941 103.024 298.941H139.826L159.355 202.777C159.729 200.931 161.341 199.599 163.223 199.579L302.947 198.054C305.49 198.025 307.41 200.351 306.903 202.844Z" fill="#DADBD8"/>
<path d="M306.903 202.844C306.903 202.844 306.926 202.739 306.96 202.532C306.993 202.326 307.021 202.007 306.978 201.592C306.905 200.793 306.471 199.451 305.044 198.57C304.694 198.355 304.283 198.198 303.836 198.092C303.386 197.99 302.895 197.997 302.397 198.003C301.395 198.01 300.297 198.018 299.109 198.027C296.728 198.047 293.98 198.069 290.883 198.096C278.481 198.213 260.481 198.384 238.051 198.596C226.832 198.709 214.508 198.834 201.222 198.968C194.58 199.037 187.696 199.106 180.59 199.18C177.039 199.216 173.43 199.255 169.769 199.292C167.939 199.31 166.095 199.331 164.237 199.349C163.767 199.361 163.325 199.342 162.823 199.385C162.334 199.435 161.853 199.573 161.412 199.792C160.524 200.226 159.797 200.983 159.404 201.897C159.198 202.354 159.114 202.85 159.022 203.302L158.738 204.692C158.55 205.621 158.36 206.553 158.17 207.488C157.788 209.357 157.406 211.239 157.021 213.133C156.25 216.92 155.47 220.755 154.68 224.634C153.102 232.395 151.486 240.337 149.838 248.443C146.542 264.653 143.114 281.518 139.583 298.89L139.827 298.691C132.915 298.69 125.833 298.69 118.632 298.689C115.033 298.689 111.405 298.689 107.752 298.687H105.01H103.636C103.189 298.692 102.7 298.666 102.213 298.774C101.248 298.972 100.374 299.56 99.8156 300.369C99.2499 301.178 99.0183 302.207 99.1689 303.181C99.336 304.378 100.111 305.45 101.164 306.025C101.693 306.308 102.285 306.469 102.883 306.489L104.571 306.497C106.806 306.497 109.035 306.495 111.259 306.495C115.706 306.495 120.127 306.495 124.519 306.495C133.303 306.495 141.974 306.493 150.512 306.492C167.589 306.488 184.136 306.484 200.005 306.48C231.739 306.465 260.752 306.449 285.84 306.436H285.998L286.03 306.282C292.467 274.5 297.704 248.647 301.334 230.73C303.134 221.778 304.535 214.811 305.488 210.072C305.956 207.711 306.315 205.908 306.557 204.684C306.795 203.47 306.903 202.844 306.903 202.844C306.903 202.844 306.758 203.461 306.501 204.674C306.246 205.893 305.869 207.694 305.377 210.05C304.401 214.783 302.965 221.745 301.12 230.687C297.452 248.596 292.159 274.438 285.65 306.204L285.84 306.049C260.752 306.037 231.739 306.022 200.005 306.005C184.136 306.003 167.589 305.999 150.512 305.995C141.974 305.994 133.303 305.993 124.519 305.992C120.127 305.991 115.706 305.991 111.259 305.991C109.035 305.991 106.806 305.991 104.571 305.991L102.901 305.984C102.381 305.965 101.865 305.826 101.405 305.58C100.489 305.08 99.8135 304.146 99.669 303.104C99.5379 302.256 99.7387 301.361 100.231 300.658C100.717 299.952 101.479 299.44 102.317 299.268C102.73 299.174 103.167 299.197 103.636 299.193H105.01H107.752C111.405 299.193 115.033 299.193 118.632 299.193C125.833 299.192 132.915 299.191 139.827 299.191H140.032L140.072 298.991C143.597 281.616 147.018 264.75 150.307 248.537C151.949 240.431 153.56 232.488 155.134 224.727C155.919 220.846 156.697 217.011 157.464 213.222C157.848 211.329 158.229 209.447 158.608 207.577C158.798 206.642 158.986 205.71 159.175 204.781L159.455 203.391C159.553 202.918 159.628 202.477 159.81 202.073C160.16 201.255 160.812 200.576 161.604 200.187C162.001 199.991 162.431 199.866 162.869 199.819C163.295 199.782 163.785 199.798 164.242 199.786C166.099 199.765 167.944 199.744 169.774 199.723C173.434 199.681 177.044 199.64 180.595 199.599C187.7 199.516 194.584 199.437 201.226 199.36C214.513 199.205 226.836 199.059 238.055 198.928C260.484 198.651 278.483 198.429 290.884 198.275C293.982 198.233 296.73 198.196 299.11 198.164C300.299 198.147 301.396 198.132 302.399 198.117C302.902 198.108 303.375 198.099 303.815 198.193C304.25 198.295 304.653 198.443 304.997 198.65C306.399 199.497 306.845 200.808 306.932 201.598C307.015 202.421 306.876 202.842 306.903 202.844" fill="#17282F"/>
<path d="M222.661 250.163C222.661 253.499 225.365 256.202 228.699 256.202C232.034 256.202 234.737 253.499 234.737 250.163C234.737 246.829 232.034 244.126 228.699 244.126C225.365 244.126 222.661 246.829 222.661 250.163Z" fill="white"/>
<path d="M306.732 203.68C306.732 203.68 306.519 203.663 306.103 203.658C305.669 203.656 305.055 203.653 304.255 203.649C302.611 203.651 300.22 203.654 297.147 203.657C290.957 203.687 282.03 203.731 271.007 203.783C248.921 203.94 218.438 204.155 184.769 204.392C180.557 204.426 176.397 204.459 172.296 204.492C171.27 204.501 170.25 204.509 169.231 204.517C168.734 204.527 168.204 204.495 167.666 204.611C167.139 204.719 166.633 204.924 166.183 205.213C165.279 205.787 164.601 206.701 164.328 207.729C164.1 208.74 163.93 209.697 163.728 210.677C162.184 218.467 160.692 225.98 159.272 233.137C156.443 247.451 153.895 260.342 151.755 271.173C149.634 281.991 147.92 290.752 146.729 296.824C146.149 299.842 145.698 302.19 145.388 303.803C145.242 304.59 145.13 305.194 145.053 305.62C144.979 306.031 144.954 306.243 144.954 306.243C144.954 306.243 145.014 306.037 145.103 305.63C145.193 305.206 145.321 304.606 145.488 303.824C145.82 302.214 146.302 299.873 146.923 296.864C148.149 290.797 149.919 282.049 152.105 271.243C154.277 260.417 156.86 247.534 159.728 233.228C161.159 226.072 162.658 218.56 164.215 210.774C164.413 209.809 164.595 208.803 164.808 207.861C165.05 206.95 165.651 206.141 166.453 205.633C166.852 205.378 167.299 205.196 167.766 205.102C168.223 205 168.718 205.027 169.235 205.019C170.254 205.011 171.275 205.003 172.3 204.995C176.401 204.963 180.561 204.931 184.773 204.897C218.441 204.602 248.924 204.336 271.01 204.141C282.033 204.02 290.959 203.922 297.149 203.854C300.222 203.809 302.612 203.775 304.256 203.75C305.055 203.733 305.67 203.72 306.103 203.71C306.519 203.698 306.732 203.68 306.732 203.68" fill="#17282F"/>
<path d="M240.175 142.091C241.105 141.918 242.114 142.565 242.344 143.482C242.574 144.4 241.992 145.446 241.091 145.733C240.189 146.02 239.109 145.504 238.766 144.622C238.423 143.741 238.872 142.63 239.73 142.233" fill="white"/>
<path d="M112 78.5L119.5 86L132.5 72" stroke="#F1F1F1" stroke-width="4"/>
<path d="M97.3648 120.768H92.6488L91.8928 123H88.6708L93.2428 110.364H96.8068L101.379 123H98.1208L97.3648 120.768ZM96.5728 118.392L95.0068 113.766L93.4588 118.392H96.5728ZM102.158 117.978C102.158 116.934 102.368 116.022 102.788 115.242C103.22 114.462 103.814 113.862 104.57 113.442C105.338 113.022 106.214 112.812 107.198 112.812C108.458 112.812 109.508 113.142 110.348 113.802C111.2 114.462 111.758 115.392 112.022 116.592H108.746C108.47 115.824 107.936 115.44 107.144 115.44C106.58 115.44 106.13 115.662 105.794 116.106C105.458 116.538 105.29 117.162 105.29 117.978C105.29 118.794 105.458 119.424 105.794 119.868C106.13 120.3 106.58 120.516 107.144 120.516C107.936 120.516 108.47 120.132 108.746 119.364H112.022C111.758 120.54 111.2 121.464 110.348 122.136C109.496 122.808 108.446 123.144 107.198 123.144C106.214 123.144 105.338 122.934 104.57 122.514C103.814 122.094 103.22 121.494 102.788 120.714C102.368 119.934 102.158 119.022 102.158 117.978ZM113.057 117.978C113.057 116.934 113.267 116.022 113.687 115.242C114.119 114.462 114.713 113.862 115.469 113.442C116.237 113.022 117.113 112.812 118.097 112.812C119.357 112.812 120.407 113.142 121.247 113.802C122.099 114.462 122.657 115.392 122.921 116.592H119.645C119.369 115.824 118.835 115.44 118.043 115.44C117.479 115.44 117.029 115.662 116.693 116.106C116.357 116.538 116.189 117.162 116.189 117.978C116.189 118.794 116.357 119.424 116.693 119.868C117.029 120.3 117.479 120.516 118.043 120.516C118.835 120.516 119.369 120.132 119.645 119.364H122.921C122.657 120.54 122.099 121.464 121.247 122.136C120.395 122.808 119.345 123.144 118.097 123.144C117.113 123.144 116.237 122.934 115.469 122.514C114.713 122.094 114.119 121.494 113.687 120.714C113.267 119.934 113.057 119.022 113.057 117.978ZM134.035 117.816C134.035 118.104 134.017 118.404 133.981 118.716H127.015C127.063 119.34 127.261 119.82 127.609 120.156C127.969 120.48 128.407 120.642 128.923 120.642C129.691 120.642 130.225 120.318 130.525 119.67H133.801C133.633 120.33 133.327 120.924 132.883 121.452C132.451 121.98 131.905 122.394 131.245 122.694C130.585 122.994 129.847 123.144 129.031 123.144C128.047 123.144 127.171 122.934 126.403 122.514C125.635 122.094 125.035 121.494 124.603 120.714C124.171 119.934 123.955 119.022 123.955 117.978C123.955 116.934 124.165 116.022 124.585 115.242C125.017 114.462 125.617 113.862 126.385 113.442C127.153 113.022 128.035 112.812 129.031 112.812C130.003 112.812 130.867 113.016 131.623 113.424C132.379 113.832 132.967 114.414 133.387 115.17C133.819 115.926 134.035 116.808 134.035 117.816ZM130.885 117.006C130.885 116.478 130.705 116.058 130.345 115.746C129.985 115.434 129.535 115.278 128.995 115.278C128.479 115.278 128.041 115.428 127.681 115.728C127.333 116.028 127.117 116.454 127.033 117.006H130.885ZM139.745 123.144C138.869 123.144 138.089 122.994 137.405 122.694C136.721 122.394 136.181 121.986 135.785 121.47C135.389 120.942 135.167 120.354 135.119 119.706H138.161C138.197 120.054 138.359 120.336 138.647 120.552C138.935 120.768 139.289 120.876 139.709 120.876C140.093 120.876 140.387 120.804 140.591 120.66C140.807 120.504 140.915 120.306 140.915 120.066C140.915 119.778 140.765 119.568 140.465 119.436C140.165 119.292 139.679 119.136 139.007 118.968C138.287 118.8 137.687 118.626 137.207 118.446C136.727 118.254 136.313 117.96 135.965 117.564C135.617 117.156 135.443 116.61 135.443 115.926C135.443 115.35 135.599 114.828 135.911 114.36C136.235 113.88 136.703 113.502 137.315 113.226C137.939 112.95 138.677 112.812 139.529 112.812C140.789 112.812 141.779 113.124 142.499 113.748C143.231 114.372 143.651 115.2 143.759 116.232H140.915C140.867 115.884 140.711 115.608 140.447 115.404C140.195 115.2 139.859 115.098 139.439 115.098C139.079 115.098 138.803 115.17 138.611 115.314C138.419 115.446 138.323 115.632 138.323 115.872C138.323 116.16 138.473 116.376 138.773 116.52C139.085 116.664 139.565 116.808 140.213 116.952C140.957 117.144 141.563 117.336 142.031 117.528C142.499 117.708 142.907 118.008 143.255 118.428C143.615 118.836 143.801 119.388 143.813 120.084C143.813 120.672 143.645 121.2 143.309 121.668C142.985 122.124 142.511 122.484 141.887 122.748C141.275 123.012 140.561 123.144 139.745 123.144ZM149.782 123.144C148.906 123.144 148.126 122.994 147.442 122.694C146.758 122.394 146.218 121.986 145.822 121.47C145.426 120.942 145.204 120.354 145.156 119.706H148.198C148.234 120.054 148.396 120.336 148.684 120.552C148.972 120.768 149.326 120.876 149.746 120.876C150.13 120.876 150.424 120.804 150.628 120.66C150.844 120.504 150.952 120.306 150.952 120.066C150.952 119.778 150.802 119.568 150.502 119.436C150.202 119.292 149.716 119.136 149.044 118.968C148.324 118.8 147.724 118.626 147.244 118.446C146.764 118.254 146.35 117.96 146.002 117.564C145.654 117.156 145.48 116.61 145.48 115.926C145.48 115.35 145.636 114.828 145.948 114.36C146.272 113.88 146.74 113.502 147.352 113.226C147.976 112.95 148.714 112.812 149.566 112.812C150.826 112.812 151.816 113.124 152.536 113.748C153.268 114.372 153.688 115.2 153.796 116.232H150.952C150.904 115.884 150.748 115.608 150.484 115.404C150.232 115.2 149.896 115.098 149.476 115.098C149.116 115.098 148.84 115.17 148.648 115.314C148.456 115.446 148.36 115.632 148.36 115.872C148.36 116.16 148.51 116.376 148.81 116.52C149.122 116.664 149.602 116.808 150.25 116.952C150.994 117.144 151.6 117.336 152.068 117.528C152.536 117.708 152.944 118.008 153.292 118.428C153.652 118.836 153.838 119.388 153.85 120.084C153.85 120.672 153.682 121.2 153.346 121.668C153.022 122.124 152.548 122.484 151.924 122.748C151.312 123.012 150.598 123.144 149.782 123.144ZM92.8155 134.36C92.5875 133.94 92.2575 133.622 91.8255 133.406C91.4055 133.178 90.9075 133.064 90.3315 133.064C89.3355 133.064 88.5375 133.394 87.9375 134.054C87.3375 134.702 87.0375 135.572 87.0375 136.664C87.0375 137.828 87.3495 138.74 87.9735 139.4C88.6095 140.048 89.4795 140.372 90.5835 140.372C91.3395 140.372 91.9755 140.18 92.4915 139.796C93.0195 139.412 93.4035 138.86 93.6435 138.14H89.7375V135.872H96.4335V138.734C96.2055 139.502 95.8155 140.216 95.2635 140.876C94.7235 141.536 94.0335 142.07 93.1935 142.478C92.3535 142.886 91.4055 143.09 90.3495 143.09C89.1015 143.09 87.9855 142.82 87.0015 142.28C86.0295 141.728 85.2675 140.966 84.7155 139.994C84.1755 139.022 83.9055 137.912 83.9055 136.664C83.9055 135.416 84.1755 134.306 84.7155 133.334C85.2675 132.35 86.0295 131.588 87.0015 131.048C87.9735 130.496 89.0835 130.22 90.3315 130.22C91.8435 130.22 93.1155 130.586 94.1475 131.318C95.1915 132.05 95.8815 133.064 96.2175 134.36H92.8155ZM101.216 134.63C101.576 134.078 102.026 133.646 102.566 133.334C103.106 133.01 103.706 132.848 104.366 132.848V136.106H103.52C102.752 136.106 102.176 136.274 101.792 136.61C101.408 136.934 101.216 137.51 101.216 138.338V143H98.1385V132.956H101.216V134.63ZM105.226 137.96C105.226 136.928 105.418 136.022 105.802 135.242C106.198 134.462 106.732 133.862 107.404 133.442C108.076 133.022 108.826 132.812 109.654 132.812C110.362 132.812 110.98 132.956 111.508 133.244C112.048 133.532 112.462 133.91 112.75 134.378V132.956H115.828V143H112.75V141.578C112.45 142.046 112.03 142.424 111.49 142.712C110.962 143 110.344 143.144 109.636 143.144C108.82 143.144 108.076 142.934 107.404 142.514C106.732 142.082 106.198 141.476 105.802 140.696C105.418 139.904 105.226 138.992 105.226 137.96ZM112.75 137.978C112.75 137.21 112.534 136.604 112.102 136.16C111.682 135.716 111.166 135.494 110.554 135.494C109.942 135.494 109.42 135.716 108.988 136.16C108.568 136.592 108.358 137.192 108.358 137.96C108.358 138.728 108.568 139.34 108.988 139.796C109.42 140.24 109.942 140.462 110.554 140.462C111.166 140.462 111.682 140.24 112.102 139.796C112.534 139.352 112.75 138.746 112.75 137.978ZM124.174 132.848C125.35 132.848 126.286 133.232 126.982 134C127.69 134.756 128.044 135.8 128.044 137.132V143H124.984V137.546C124.984 136.874 124.81 136.352 124.462 135.98C124.114 135.608 123.646 135.422 123.058 135.422C122.47 135.422 122.002 135.608 121.654 135.98C121.306 136.352 121.132 136.874 121.132 137.546V143H118.054V132.956H121.132V134.288C121.444 133.844 121.864 133.496 122.392 133.244C122.92 132.98 123.514 132.848 124.174 132.848ZM135.781 140.39V143H134.215C133.099 143 132.229 142.73 131.605 142.19C130.981 141.638 130.669 140.744 130.669 139.508V135.512H129.445V132.956H130.669V130.508H133.747V132.956H135.763V135.512H133.747V139.544C133.747 139.844 133.819 140.06 133.963 140.192C134.107 140.324 134.347 140.39 134.683 140.39H135.781ZM146.964 137.816C146.964 138.104 146.946 138.404 146.91 138.716H139.944C139.992 139.34 140.19 139.82 140.538 140.156C140.898 140.48 141.336 140.642 141.852 140.642C142.62 140.642 143.154 140.318 143.454 139.67H146.73C146.562 140.33 146.256 140.924 145.812 141.452C145.38 141.98 144.834 142.394 144.174 142.694C143.514 142.994 142.776 143.144 141.96 143.144C140.976 143.144 140.1 142.934 139.332 142.514C138.564 142.094 137.964 141.494 137.532 140.714C137.1 139.934 136.884 139.022 136.884 137.978C136.884 136.934 137.094 136.022 137.514 135.242C137.946 134.462 138.546 133.862 139.314 133.442C140.082 133.022 140.964 132.812 141.96 132.812C142.932 132.812 143.796 133.016 144.552 133.424C145.308 133.832 145.896 134.414 146.316 135.17C146.748 135.926 146.964 136.808 146.964 137.816ZM143.814 137.006C143.814 136.478 143.634 136.058 143.274 135.746C142.914 135.434 142.464 135.278 141.924 135.278C141.408 135.278 140.97 135.428 140.61 135.728C140.262 136.028 140.046 136.454 139.962 137.006H143.814ZM147.976 137.96C147.976 136.928 148.168 136.022 148.552 135.242C148.948 134.462 149.482 133.862 150.154 133.442C150.826 133.022 151.576 132.812 152.404 132.812C153.064 132.812 153.664 132.95 154.204 133.226C154.756 133.502 155.188 133.874 155.5 134.342V129.68H158.578V143H155.5V141.56C155.212 142.04 154.798 142.424 154.258 142.712C153.73 143 153.112 143.144 152.404 143.144C151.576 143.144 150.826 142.934 150.154 142.514C149.482 142.082 148.948 141.476 148.552 140.696C148.168 139.904 147.976 138.992 147.976 137.96ZM155.5 137.978C155.5 137.21 155.284 136.604 154.852 136.16C154.432 135.716 153.916 135.494 153.304 135.494C152.692 135.494 152.17 135.716 151.738 136.16C151.318 136.592 151.108 137.192 151.108 137.96C151.108 138.728 151.318 139.34 151.738 139.796C152.17 140.24 152.692 140.462 153.304 140.462C153.916 140.462 154.432 140.24 154.852 139.796C155.284 139.352 155.5 138.746 155.5 137.978Z" fill="#28424D"/>
</svg>