<svg width="511" height="621" viewBox="0 0 511 621" fill="none" xmlns="http://www.w3.org/2000/svg">
<g clip-path="url(#clip0)">
<path d="M74.7072 577.321C-24.9018 519.812 -24.9023 426.574 74.705 369.066C174.312 311.558 335.808 311.558 435.415 369.066C535.023 426.574 535.023 519.812 435.418 577.321C335.811 634.83 174.316 634.83 74.7072 577.321" fill="#F3F2F1"/>
<path d="M306.18 514.736L311.932 518.056L123.126 547.421V543.206L306.18 514.736Z" fill="#DADBD8"/>
<path d="M58.2922 565.048C45.4365 572.553 45.4365 584.723 58.2922 592.229C71.149 599.734 91.9927 599.734 104.848 592.229C117.704 584.723 117.704 572.553 104.847 565.048C91.9913 557.542 71.1485 557.542 58.2922 565.048" fill="#DADBD8"/>
<path d="M254.809 455.828C223.722 473.977 223.722 503.404 254.809 521.553C285.897 539.704 336.3 539.704 367.385 521.553C398.472 503.405 398.472 473.977 367.384 455.828C336.297 437.677 285.896 437.677 254.809 455.828" fill="#DADBD8"/>
<path d="M387.614 458.993C396.464 458.223 406.248 457.708 413.277 463.136C416.569 465.679 418.857 469.261 421.362 472.581C424.047 476.141 427.048 479.464 430.316 482.5C432.038 484.101 433.866 485.641 436.006 486.612C438.328 487.664 440.919 487.997 443.467 487.985C454.182 487.939 464.039 482.092 472.251 475.209C474.447 473.368 476.689 471.243 477.27 468.436C478.231 463.804 474.323 459.611 470.333 457.071C459.105 449.924 445.129 445.825 432.365 442.403C418.75 438.751 404.646 436.485 390.521 436.757C381.727 436.928 372.949 438.047 364.402 440.125C359.225 441.385 351.726 442.935 347.727 446.703C345.987 448.341 344.925 450.941 345.776 453.177C346.776 455.805 349.845 456.907 352.585 457.547C363.969 460.208 376.081 459.999 387.614 458.993" fill="#DADBD8"/>
<path d="M94.8789 202.407V207.507C94.8789 209.115 96.0076 209.766 97.3997 208.963L102.322 206.12V195.2L97.3997 198.042C96.0081 198.846 94.8789 200.8 94.8789 202.407" fill="#DADBD8"/>
<path d="M102.323 369.576L81.7815 381.436C80.3894 382.24 79.2607 384.193 79.2607 385.801V390.901C79.2607 392.509 80.3894 393.16 81.7815 392.356L102.323 380.496V369.576Z" fill="#DADBD8"/>
<path d="M79.2607 198.052V203.152C79.2607 204.76 80.3894 205.411 81.7815 204.608L102.323 192.748V181.828L81.7815 193.687C80.3894 194.491 79.2607 196.444 79.2607 198.052Z" fill="#DADBD8"/>
<path d="M90.3769 255.709L67.0452 269.181C65.6531 269.984 64.5249 271.939 64.5244 273.547V278.647C64.5244 280.253 65.6525 280.905 67.0447 280.101L90.3769 266.631C91.7687 265.827 92.8973 263.872 92.8973 262.265V257.165C92.8973 255.557 91.7687 254.907 90.3769 255.709" fill="#DADBD8"/>
<path d="M102.323 315.933L81.7815 327.793C80.3894 328.597 79.2607 330.552 79.2607 332.159V337.259C79.2607 338.867 80.3894 339.517 81.7815 338.715L102.323 326.855V315.933Z" fill="#DADBD8"/>
<path d="M79.2607 144.409V149.509C79.2607 151.117 80.3894 151.768 81.7815 150.965L102.322 139.105V128.184L81.7815 140.044C80.3894 140.848 79.2607 142.801 79.2607 144.409Z" fill="#DADBD8"/>
<path d="M102.324 450.04L81.7815 461.9C80.3894 462.704 79.2607 464.659 79.2607 466.265V471.365C79.2607 472.972 80.3894 473.624 81.7815 472.821L102.324 460.96V450.04Z" fill="#DADBD8"/>
<path d="M55.8867 305.661V310.761C55.8867 312.368 57.0148 313.02 58.4071 312.217L81.7383 298.747C83.131 297.943 84.2597 295.988 84.2597 294.38V289.28C84.2597 287.673 83.131 287.021 81.7383 287.825L58.4071 301.296C57.0159 302.1 55.8867 304.053 55.8867 305.661" fill="#DADBD8"/>
<path d="M79.2607 251.694V256.794C79.2607 258.402 80.3894 259.053 81.7815 258.249L102.323 246.39L102.323 235.469L81.7815 247.329C80.3894 248.133 79.2607 250.088 79.2607 251.694" fill="#DADBD8"/>
<path d="M77.2778 338.375V333.275C77.2778 331.667 76.1486 331.016 74.7575 331.82L51.4251 345.291C50.0324 346.093 48.9043 348.048 48.9043 349.656V354.756C48.9043 356.363 50.0324 357.015 51.4247 356.211L74.7575 342.74C76.1486 341.936 77.2778 339.981 77.2778 338.375" fill="#DADBD8"/>
<path d="M67.0447 467.851L90.3769 454.38C91.7687 453.576 92.8973 451.621 92.8973 450.015V444.915C92.8973 443.307 91.7687 442.656 90.3769 443.459L67.0452 456.929C65.6531 457.733 64.5249 459.688 64.5244 461.296V466.395C64.5244 468.003 65.6525 468.655 67.0447 467.851Z" fill="#DADBD8"/>
<path d="M77.3935 129.285L54.0623 142.755C52.6701 143.559 51.541 145.513 51.541 147.121V152.221C51.541 153.828 52.6697 154.48 54.0623 153.676L77.3935 140.205C78.7858 139.401 79.9149 137.447 79.9149 135.84V130.74C79.9149 129.133 78.7858 128.481 77.3935 129.285" fill="#DADBD8"/>
<path d="M90.3769 148.425L67.0452 161.894C65.6531 162.698 64.5249 164.653 64.5244 166.261V171.361C64.5244 172.968 65.6525 173.62 67.0447 172.816L90.3769 159.345C91.7687 158.541 92.8973 156.586 92.8973 154.98V149.88C92.8973 148.273 91.7687 147.621 90.3769 148.425Z" fill="#DADBD8"/>
<path d="M90.3769 202.068L67.0452 215.539C65.6531 216.342 64.5249 218.296 64.5244 219.904V225.004C64.5244 226.611 65.6525 227.263 67.0447 226.459L90.3769 212.988C91.7687 212.184 92.8973 210.23 92.8973 208.623V203.523C92.8973 201.915 91.7687 201.264 90.3769 202.068" fill="#DADBD8"/>
<path d="M67.0447 360.565L90.3769 347.095C91.7687 346.291 92.8973 344.336 92.8973 342.729V337.629C92.8973 336.023 91.7687 335.371 90.3769 336.175L67.0452 349.644C65.6531 350.448 64.5249 352.403 64.5244 354.011V359.111C64.5244 360.717 65.6525 361.369 67.0447 360.565" fill="#DADBD8"/>
<path d="M102.323 396.397L81.7815 408.257C80.3894 409.06 79.2607 411.016 79.2607 412.623V417.723C79.2607 419.331 80.3894 419.981 81.7815 419.177L102.324 407.319L102.323 396.397Z" fill="#DADBD8"/>
<path d="M320.28 88.9415V94.0428C320.28 95.6495 319.152 97.6042 317.76 98.4082L312.837 101.25V90.3295L317.76 87.4882C319.152 86.6842 320.28 87.3348 320.28 88.9415Z" fill="#DADBD8"/>
<path d="M312.837 264.707L333.38 252.847C334.769 252.043 335.9 252.693 335.9 254.301V259.401C335.9 261.008 334.77 262.964 333.38 263.767L312.837 275.627V264.707" fill="#DADBD8"/>
<path d="M335.9 66.5521V71.6521C335.9 73.2601 334.77 75.2148 333.38 76.0174L312.837 87.8774V76.9575L333.38 65.0975C334.769 64.2935 335.9 64.9441 335.9 66.5521" fill="#DADBD8"/>
<path d="M324.782 137.045L348.114 123.575C349.506 122.772 350.636 123.423 350.636 125.029V130.129C350.636 131.737 349.508 133.692 348.114 134.496L324.782 147.967C323.392 148.769 322.264 148.119 322.264 146.511V141.412C322.264 139.804 323.392 137.849 324.782 137.045Z" fill="#DADBD8"/>
<path d="M312.837 211.064L333.38 199.204C334.769 198.4 335.9 199.052 335.9 200.659V205.759C335.9 207.367 334.77 209.32 333.38 210.124L312.837 221.984V211.064" fill="#DADBD8"/>
<path d="M335.9 12.9095V18.0095C335.9 19.6175 334.771 21.5709 333.38 22.3749L312.839 34.2349V23.3136L333.38 11.4549C334.77 10.6522 335.9 11.3029 335.9 12.9095Z" fill="#DADBD8"/>
<path d="M312.836 345.171L333.38 333.311C334.769 332.507 335.9 333.159 335.9 334.765V339.865C335.9 341.472 334.771 343.427 333.38 344.231L312.836 356.091V345.171Z" fill="#DADBD8"/>
<path d="M359.274 147.17V152.272C359.274 153.878 358.146 155.833 356.754 156.637L333.422 170.108C332.03 170.912 330.9 170.26 330.9 168.653V163.553C330.9 161.945 332.03 159.99 333.422 159.186L356.754 145.716C358.146 144.913 359.274 145.564 359.274 147.17" fill="#DADBD8"/>
<path d="M335.9 120.195V125.295C335.9 126.901 334.77 128.856 333.38 129.66L312.837 141.521V130.599L333.38 118.74C334.769 117.936 335.9 118.587 335.9 120.195" fill="#DADBD8"/>
<path d="M337.881 204.585V199.485C337.881 197.877 339.01 195.923 340.402 195.12L363.733 181.649C365.126 180.845 366.254 181.497 366.254 183.104V188.204C366.254 189.812 365.126 191.765 363.734 192.569L340.402 206.041C339.01 206.844 337.881 206.192 337.881 204.585" fill="#DADBD8"/>
<path d="M348.114 322.245L324.782 335.716C323.392 336.519 322.264 335.868 322.264 334.26V329.161C322.264 327.553 323.392 325.599 324.782 324.795L348.114 311.325C349.506 310.521 350.636 311.172 350.636 312.779V317.88C350.636 319.487 349.508 321.441 348.114 322.245" fill="#DADBD8"/>
<path d="M324.782 29.7598L348.114 16.2905C349.506 15.4865 350.636 16.1372 350.636 17.7452V22.8452C350.636 24.4518 349.508 26.4065 348.114 27.2105L324.782 40.6812C323.392 41.4838 322.264 40.8332 322.264 39.2252V34.1252C322.264 32.5185 323.392 30.5638 324.782 29.7598" fill="#DADBD8"/>
<path d="M324.782 83.4029L348.114 69.9336C349.506 69.1296 350.636 69.7816 350.636 71.3869V76.4882C350.636 78.0949 349.508 80.0496 348.114 80.8536L324.782 94.3242C323.392 95.1269 322.264 94.4762 322.264 92.8682V87.7682C322.264 86.1616 323.392 84.2069 324.782 83.4029" fill="#DADBD8"/>
<path d="M348.114 214.96L324.782 228.431C323.392 229.233 322.264 228.583 322.264 226.975V221.875C322.264 220.268 323.392 218.313 324.782 217.509L348.114 204.04C349.506 203.236 350.636 203.887 350.636 205.495V210.595C350.636 212.201 349.508 214.156 348.114 214.96" fill="#DADBD8"/>
<path d="M312.837 291.527L333.38 279.668C334.769 278.864 335.9 279.515 335.9 281.123V286.223C335.9 287.829 334.771 289.785 333.38 290.588L312.836 302.448L312.837 291.527" fill="#DADBD8"/>
<path d="M123.126 347.181L291.435 444.412V37.5868L123.126 134.821V347.181Z" fill="#26B6A6"/>
<path d="M123.126 347.181V134.821L291.435 37.5921V108.644L123.126 134.821V347.181Z" fill="#08917E"/>
<path d="M123.126 347.181V134.821L291.435 37.5921V108.644L123.126 134.821V347.181Z" fill="#1A2C1E"/>
<path d="M291.435 444.412L123.126 347.181V541.551L291.435 444.412Z" fill="#DADBD8"/>
<path d="M291.435 444.412L299.312 448.927L299.311 33.0415L291.435 37.5868V444.412" fill="#26B6A6"/>
<path d="M291.435 108.644V37.5867L299.311 33.0414V107.419L291.435 108.644Z" fill="#BACEBD"/>
<path d="M299.312 448.927L312.836 441.117L312.833 4.49876L110.07 121.564L110.076 558.184L123.126 550.647V134.821L299.311 33.0415L299.312 448.927" fill="#26B6A6"/>
<path d="M123.126 347.181V134.821L291.435 37.5921V37.5867L123.126 134.821V347.181Z" fill="#9FDECC"/>
<path d="M299.311 107.419V33.0416L291.435 37.5923V37.587L299.311 33.0416V107.419Z" fill="#C0E9DF"/>
<path d="M113.189 556.385C115.462 545.009 116.171 532.539 114.484 523.709C114.488 523.594 114.49 523.48 114.49 523.365C114.49 520.037 113.018 516.709 110.076 513.741L110.075 495.645L112.418 495.065L121.707 478.849L110.075 477.803V474.884L123.126 471.605V550.646L113.189 556.385V556.385ZM110.075 453.267L110.07 121.564L312.833 4.49865L312.836 259.403C312.523 259.173 312.221 258.945 311.932 258.724V105.456L299.311 107.419V33.0413L291.435 37.592L123.126 134.821V347.181V447.544C118.804 449.107 114.379 451.016 110.075 453.267V453.267ZM311.932 441.64V427.267C312.272 428.353 312.58 429.3 312.836 430.076V441.117L311.932 441.64Z" fill="#A1DFD6"/>
<path d="M113.189 556.385C115.462 545.009 116.171 532.539 114.484 523.709C114.488 523.594 114.49 523.48 114.49 523.365C114.49 520.037 113.018 516.709 110.076 513.741L110.075 495.645L112.418 495.065L121.707 478.849L110.075 477.803V474.884L123.126 471.605V550.646L113.189 556.385V556.385ZM110.075 453.267L110.07 121.564L312.833 4.49865L312.836 259.403C312.523 259.173 312.221 258.945 311.932 258.724V105.456L299.311 107.419V33.0413L291.435 37.592L123.126 134.821V347.181V447.544C118.804 449.107 114.379 451.016 110.075 453.267V453.267ZM311.932 441.64V427.267C312.272 428.353 312.58 429.3 312.836 430.076V441.117L311.932 441.64Z" fill="#8FB096"/>
<path d="M312.833 4.49859L110.07 121.564L102.324 117.069L305.096 0.00393246L312.833 4.49859" fill="#26B6A6"/>
<path d="M110.07 121.564L102.324 117.069L305.096 0.00393246L312.833 4.49859L110.07 121.564" fill="#BACEBD"/>
<path d="M110.073 558.184L110.07 121.564L102.324 117.069L102.193 553.632L110.073 558.184" fill="#26B6A6"/>
<path d="M110.072 513.739C108.76 512.416 107.155 511.165 105.258 510.018C107.209 505.699 108.018 502.372 108.018 502.372L102.209 501.657L102.21 497.592L110.072 495.645V513.739V513.739ZM110.072 477.803L102.216 477.096L102.217 476.857L110.072 474.884V477.803V477.803ZM102.222 457.872L102.324 117.069L110.07 121.564L110.072 453.268C107.391 454.671 104.757 456.205 102.222 457.872" fill="#BACEBD"/>
<path d="M391.955 122.896C392.308 122.865 392.623 122.969 392.9 123.205C393.18 123.441 393.332 123.735 393.363 124.088L393.715 128.325C393.744 128.68 393.641 128.996 393.405 129.272C393.171 129.551 392.877 129.705 392.524 129.735L388.383 130.08C388.028 130.108 387.713 130.005 387.435 129.769C387.156 129.535 387.001 129.241 386.973 128.887L386.62 124.648C386.592 124.296 386.693 123.98 386.929 123.701C387.165 123.424 387.459 123.269 387.813 123.24L391.955 122.896ZM387.751 95.7013C389.261 95.5747 390.747 95.6627 392.211 95.96C393.672 96.2587 394.993 96.772 396.168 97.4987C397.345 98.224 398.321 99.16 399.095 100.309C399.869 101.457 400.323 102.819 400.452 104.392C400.559 105.676 400.452 106.808 400.129 107.788C399.807 108.769 399.364 109.663 398.801 110.469C398.237 111.275 397.611 112.023 396.927 112.711C396.239 113.399 395.589 114.051 394.98 114.665C394.368 115.283 393.837 115.917 393.392 116.569C392.944 117.22 392.704 117.903 392.665 118.617C392.629 118.976 392.511 119.293 392.308 119.568C392.104 119.845 391.827 119.996 391.473 120.025L387.813 120.329C387.459 120.36 387.136 120.259 386.841 120.023C386.548 119.789 386.401 119.496 386.404 119.139C386.365 117.881 386.537 116.76 386.924 115.773C387.312 114.788 387.801 113.891 388.397 113.08C388.993 112.272 389.643 111.531 390.347 110.859C391.049 110.184 391.7 109.541 392.295 108.925C392.889 108.311 393.373 107.704 393.743 107.108C394.115 106.512 394.271 105.876 394.215 105.201C394.113 103.981 393.517 103.02 392.424 102.319C391.331 101.619 389.933 101.339 388.231 101.48C385.503 101.707 383.609 103.24 382.552 106.075C382.423 106.441 382.275 106.72 382.113 106.912C381.952 107.103 381.66 107.216 381.244 107.251L377.343 107.575C377.055 107.599 376.797 107.523 376.573 107.348C376.348 107.173 376.223 106.925 376.196 106.603C376.133 105.477 376.384 104.301 376.944 103.075C377.504 101.848 378.3 100.715 379.328 99.6746C380.359 98.636 381.595 97.748 383.036 97.0146C384.479 96.28 386.048 95.8427 387.751 95.7013" fill="#26B6A6"/>
<path d="M413.227 162.939C413.494 163.015 413.699 163.178 413.839 163.427C413.979 163.678 414.011 163.936 413.936 164.204L413.028 167.423C412.952 167.69 412.79 167.895 412.54 168.035C412.29 168.175 412.032 168.206 411.764 168.131L408.619 167.244C408.351 167.168 408.147 167.007 408.006 166.758C407.866 166.507 407.834 166.247 407.91 165.98L408.818 162.762C408.892 162.495 409.054 162.29 409.306 162.15C409.555 162.01 409.815 161.976 410.083 162.052L413.227 162.939V162.939ZM417.619 141.759C418.764 142.082 419.835 142.554 420.83 143.178C421.826 143.8 422.658 144.54 423.323 145.399C423.988 146.258 424.448 147.216 424.702 148.274C424.956 149.335 424.915 150.46 424.579 151.654C424.303 152.628 423.912 153.435 423.404 154.067C422.898 154.7 422.326 155.236 421.688 155.675C421.051 156.114 420.386 156.492 419.691 156.808C418.996 157.127 418.339 157.427 417.719 157.714C417.1 157.998 416.535 158.32 416.027 158.678C415.519 159.032 415.154 159.47 414.93 159.984C414.803 160.24 414.628 160.439 414.403 160.587C414.178 160.734 413.931 160.77 413.663 160.694L410.883 159.911C410.615 159.835 410.406 159.67 410.254 159.416C410.102 159.163 410.075 158.907 410.175 158.644C410.492 157.708 410.928 156.93 411.484 156.311C412.04 155.692 412.65 155.166 413.31 154.734C413.971 154.302 414.654 153.935 415.358 153.634C416.06 153.332 416.715 153.036 417.326 152.747C417.932 152.459 418.454 152.144 418.891 151.808C419.327 151.471 419.619 151.047 419.764 150.534C420.024 149.608 419.85 148.736 419.238 147.918C418.626 147.102 417.674 146.511 416.382 146.146C414.311 145.562 412.494 146.17 410.936 147.967C410.738 148.199 410.554 148.364 410.38 148.46C410.21 148.558 409.964 148.56 409.648 148.472L406.687 147.638C406.467 147.575 406.299 147.448 406.182 147.258C406.064 147.066 406.042 146.85 406.108 146.606C406.374 145.76 406.882 144.963 407.632 144.214C408.382 143.464 409.28 142.848 410.324 142.367C411.367 141.884 412.522 141.572 413.784 141.428C415.05 141.284 416.327 141.395 417.619 141.759" fill="#26B6A6"/>
<path d="M412.042 168.171C411.95 168.171 411.857 168.158 411.764 168.131L408.618 167.244C408.35 167.168 408.146 167.007 408.005 166.758C407.914 166.595 407.869 166.428 407.869 166.259C407.869 166.167 407.882 166.074 407.909 165.98L408.817 162.762C408.892 162.495 409.053 162.29 409.305 162.15C409.468 162.058 409.634 162.012 409.804 162.012C409.896 162.012 409.988 162.026 410.082 162.052L413.226 162.939C413.493 163.015 413.698 163.178 413.838 163.427C413.93 163.592 413.976 163.76 413.974 163.931C413.974 164.022 413.961 164.112 413.936 164.204L413.028 167.423C412.952 167.69 412.789 167.895 412.54 168.035C412.377 168.126 412.212 168.171 412.042 168.171ZM413.928 160.732C413.842 160.732 413.753 160.719 413.662 160.694L410.882 159.911C410.614 159.835 410.405 159.67 410.253 159.416C410.161 159.264 410.116 159.111 410.114 158.955C410.114 158.852 410.134 158.75 410.174 158.644C410.492 157.708 410.928 156.93 411.484 156.311C412.04 155.692 412.649 155.166 413.309 154.734C413.97 154.302 414.653 153.935 415.357 153.634C416.06 153.332 416.714 153.036 417.325 152.747C417.932 152.459 418.453 152.144 418.89 151.808C419.326 151.471 419.618 151.047 419.764 150.534C419.841 150.255 419.881 149.982 419.88 149.714C419.878 149.09 419.665 148.491 419.237 147.918C418.625 147.102 417.673 146.511 416.381 146.146C415.874 146.003 415.381 145.931 414.904 145.931C413.434 145.931 412.112 146.61 410.936 147.967C410.737 148.199 410.553 148.364 410.38 148.46C410.292 148.511 410.182 148.536 410.054 148.536C409.936 148.536 409.8 148.515 409.648 148.472L406.686 147.638C406.466 147.575 406.298 147.448 406.181 147.258C406.108 147.138 406.072 147.008 406.07 146.868C406.07 146.784 406.082 146.696 406.108 146.606C406.373 145.76 406.881 144.963 407.632 144.214C408.381 143.464 409.28 142.848 410.324 142.367C411.366 141.884 412.521 141.572 413.784 141.428C414.142 141.388 414.501 141.367 414.861 141.367C415.773 141.367 416.692 141.498 417.618 141.759C418.764 142.082 419.834 142.554 420.829 143.178C421.825 143.8 422.657 144.54 423.322 145.399C423.988 146.258 424.448 147.216 424.701 148.274C424.81 148.73 424.865 149.198 424.865 149.678C424.866 150.315 424.77 150.974 424.578 151.654C424.302 152.628 423.912 153.435 423.404 154.067C422.897 154.7 422.325 155.236 421.688 155.675C421.05 156.114 420.385 156.492 419.69 156.808C418.996 157.127 418.338 157.427 417.718 157.714C417.1 157.998 416.534 158.32 416.026 158.678C415.518 159.032 415.153 159.47 414.929 159.984C414.802 160.24 414.628 160.439 414.402 160.587C414.254 160.683 414.096 160.732 413.928 160.732" fill="#14B099"/>
<path d="M442.585 108.322C443.546 108.969 444.392 109.734 445.121 110.613C445.852 111.493 446.394 112.432 446.748 113.429C447.102 114.426 447.234 115.453 447.148 116.509C447.058 117.566 446.677 118.596 446 119.598C445.449 120.416 444.841 121.04 444.18 121.469C443.518 121.901 442.825 122.222 442.102 122.434C441.378 122.645 440.648 122.792 439.909 122.874C439.168 122.954 438.469 123.034 437.809 123.108C437.149 123.184 436.528 123.308 435.949 123.484C435.37 123.658 434.898 123.95 434.534 124.358C434.34 124.556 434.117 124.686 433.865 124.754C433.61 124.821 433.373 124.78 433.148 124.626L430.816 123.054C430.592 122.902 430.446 122.686 430.384 122.406C430.32 122.125 430.373 121.88 430.546 121.668C431.126 120.898 431.766 120.312 432.47 119.908C433.173 119.505 433.896 119.205 434.641 119.006C435.384 118.809 436.125 118.677 436.869 118.613C437.61 118.549 438.308 118.476 438.958 118.394C439.608 118.312 440.186 118.181 440.694 118.004C441.201 117.825 441.601 117.521 441.889 117.092C442.414 116.314 442.517 115.456 442.201 114.513C441.885 113.57 441.185 112.733 440.102 112.002C438.364 110.83 436.498 110.837 434.508 112.022C434.254 112.18 434.033 112.276 433.845 112.313C433.656 112.348 433.43 112.277 433.164 112.098L430.68 110.422C430.496 110.298 430.38 110.129 430.328 109.917C430.278 109.705 430.324 109.497 430.46 109.293C430.962 108.59 431.676 108.008 432.6 107.544C433.522 107.08 434.54 106.785 435.653 106.658C436.764 106.53 437.926 106.593 439.14 106.846C440.352 107.098 441.5 107.59 442.585 108.322V108.322ZM432.058 126.57C432.282 126.722 432.422 126.936 432.477 127.209C432.529 127.484 432.48 127.733 432.328 127.958L430.508 130.657C430.356 130.882 430.144 131.021 429.869 131.074C429.596 131.128 429.345 131.078 429.12 130.926L426.484 129.146C426.258 128.994 426.118 128.782 426.066 128.509C426.012 128.234 426.061 127.985 426.214 127.76L428.034 125.061C428.186 124.836 428.397 124.697 428.673 124.644C428.946 124.59 429.196 124.64 429.421 124.792L432.058 126.57" fill="#26B6A6"/>
<path d="M429.66 131.095C429.466 131.095 429.286 131.039 429.12 130.927L426.484 129.147C426.258 128.995 426.118 128.783 426.066 128.509C426.052 128.436 426.045 128.365 426.045 128.296C426.045 128.104 426.102 127.925 426.214 127.76L428.034 125.061C428.186 124.836 428.397 124.697 428.673 124.644C428.744 124.631 428.813 124.623 428.881 124.623C429.074 124.623 429.254 124.68 429.421 124.792L432.058 126.571C432.282 126.723 432.422 126.936 432.477 127.209C432.49 127.277 432.497 127.345 432.497 127.411C432.498 127.607 432.441 127.789 432.328 127.959L430.508 130.657C430.356 130.883 430.144 131.021 429.869 131.075C429.797 131.088 429.728 131.095 429.66 131.095V131.095ZM433.636 124.785C433.466 124.785 433.304 124.733 433.148 124.627L430.816 123.055C430.592 122.903 430.446 122.687 430.384 122.407C430.365 122.329 430.357 122.256 430.357 122.184C430.357 121.993 430.42 121.823 430.546 121.668C431.126 120.899 431.766 120.312 432.47 119.908C433.173 119.505 433.896 119.205 434.641 119.007C435.384 118.809 436.125 118.677 436.869 118.613C437.61 118.549 438.308 118.476 438.958 118.395C439.608 118.312 440.186 118.181 440.694 118.004C441.201 117.825 441.601 117.521 441.889 117.092C442.217 116.605 442.381 116.088 442.38 115.539C442.378 115.208 442.32 114.867 442.201 114.513C441.885 113.571 441.185 112.733 440.102 112.003C439.237 111.42 438.342 111.129 437.416 111.129C436.478 111.129 435.509 111.427 434.508 112.023C434.254 112.18 434.033 112.276 433.845 112.313C433.813 112.319 433.78 112.321 433.746 112.321C433.578 112.321 433.385 112.248 433.164 112.099L430.68 110.423C430.496 110.299 430.38 110.129 430.328 109.917C430.316 109.861 430.309 109.805 430.309 109.749C430.309 109.595 430.36 109.443 430.46 109.293C430.962 108.591 431.676 108.008 432.6 107.544C433.522 107.08 434.54 106.785 435.653 106.659C436.025 106.615 436.404 106.595 436.788 106.595C437.549 106.595 438.333 106.677 439.14 106.847C440.352 107.099 441.5 107.591 442.585 108.323C443.546 108.969 444.392 109.735 445.121 110.613C445.852 111.493 446.394 112.432 446.748 113.429C447.033 114.232 447.174 115.053 447.173 115.893C447.173 116.099 447.164 116.303 447.148 116.509C447.058 117.567 446.677 118.596 446 119.599C445.449 120.416 444.841 121.04 444.18 121.469C443.518 121.901 442.825 122.223 442.102 122.435C441.378 122.645 440.648 122.792 439.909 122.875C439.168 122.955 438.469 123.035 437.809 123.108C437.149 123.184 436.528 123.308 435.949 123.484C435.37 123.659 434.898 123.951 434.534 124.359C434.34 124.556 434.117 124.687 433.865 124.755C433.786 124.775 433.71 124.785 433.636 124.785" fill="#87D6CB"/>
<path d="M322.075 487.7C321.791 490.875 323.849 499.144 323.849 499.144C323.849 499.144 325.616 501.836 330.631 503.041L330.968 491.049L322.075 487.7" fill="#17282F"/>
<path d="M330.631 503.041L340.518 498.036L341.614 488.416L330.827 496.12L330.631 503.041" fill="#040606"/>
<path d="M338.147 473.923L337.923 471.907C339.44 472.377 343.428 483.629 348.827 490.796C353.756 497.34 361.975 500.151 364.919 502.876C368.859 506.521 363.25 512.853 352.599 512.221C347.312 511.909 339.062 509.817 336.434 506.684C333.804 503.551 332.124 497.315 330.019 495.037C327.912 492.761 323.382 490.459 322.075 487.7C321.356 486.184 321.622 482.661 322.063 479.66C322.47 476.905 322.904 473.879 323.847 474.028C323.884 474.355 324.083 475.72 324.083 475.72C324.403 477.075 326.17 478.459 331.71 477.861C334.204 477.592 338.583 476.656 338.147 473.923" fill="#33535F"/>
<path d="M229.027 426.305C227.328 428.636 224.35 444.905 224.35 444.905C224.35 444.905 228.256 450.613 230.508 452.339L237.74 436.979L229.027 426.305" fill="#17282F"/>
<path d="M230.508 452.339L243.789 449.292L248.724 439.057L234.89 442.911L230.508 452.339" fill="#040606"/>
<path d="M238.914 415.948C238.161 415.375 237.066 416.86 234.412 419.236C232.55 420.901 228.518 422.481 228.52 427.303C228.59 430.724 230.802 434.96 232.989 438.503C235.3 442.249 235.493 445.241 235.473 450.28C235.45 456.376 234.354 460.1 241.85 465.525C247.852 469.867 260.037 470.659 262.721 468.144C267.3 463.856 256.593 457.961 254.853 449.176C252.452 437.044 252.149 435.028 252.52 426.561L238.914 415.948Z" fill="#33535F"/>
<path d="M356.167 266.969C350.327 270.127 332.6 271.023 307.719 265.687L310.665 337.703C310.665 337.703 288.869 353.063 282.16 361.544C275.452 370.028 243.195 410.991 243.195 410.991L238.748 416.141C235.985 419.34 237.411 423.668 240.615 426.424C243.692 428.959 247.703 430.747 250.712 428.133L254.389 424.936C254.391 424.935 326.467 369.368 329.117 365.827C331.769 362.284 337.779 353.473 344.317 334.905C352.707 311.083 354.113 293.823 356.167 266.969Z" fill="#EA9F87"/>
<path d="M356.164 266.967C340.408 274.203 308.763 271.724 308.763 271.724L310.212 337.535C310.212 337.535 297.757 344.904 287.971 354.337C278.532 363.433 264.132 382.301 264.132 382.301C269.072 396.185 283.118 402.664 283.118 402.664C283.118 402.664 312.679 381.953 329.215 370.241C337.863 364.116 344.373 360.701 346.973 350.741C349.896 339.544 350.272 336.157 351.692 327.553C353.111 318.951 353.781 309.171 354.607 301.937C356.953 281.368 356.164 266.967 356.164 266.967" fill="#26B6A6"/>
<path d="M340.521 361.779C340.525 361.024 340.527 360.272 340.527 359.524C340.527 342.231 339.561 327.084 339.561 327.084L338.412 297.581C338.412 297.581 350.288 294.495 355.104 284.5C355.104 284.5 356.193 278.705 356.192 269.407C356.192 268.644 356.184 267.857 356.168 267.048C356.191 267.489 356.292 269.743 356.292 273.424C356.292 279.553 356.009 289.644 354.607 301.937C353.781 309.171 353.111 318.951 351.692 327.553C350.272 336.157 349.896 339.544 346.973 350.741C345.696 355.635 343.475 358.948 340.521 361.779V361.779ZM355.977 267.052C356.04 267.024 356.103 266.996 356.164 266.967C356.164 266.967 356.164 266.968 356.165 266.971C356.152 266.976 356.089 267.005 355.977 267.052" fill="#08917E"/>
<path d="M340.521 361.779C340.525 361.024 340.527 360.272 340.527 359.524C340.527 342.231 339.561 327.084 339.561 327.084L338.412 297.581C338.412 297.581 350.288 294.495 355.104 284.5C355.104 284.5 356.193 278.705 356.192 269.407C356.192 268.644 356.184 267.857 356.168 267.048C356.191 267.489 356.292 269.743 356.292 273.424C356.292 279.553 356.009 289.644 354.607 301.937C353.781 309.171 353.111 318.951 351.692 327.553C350.272 336.157 349.896 339.544 346.973 350.741C345.696 355.635 343.475 358.948 340.521 361.779V361.779ZM355.977 267.052C356.04 267.024 356.103 266.996 356.164 266.967C356.164 266.967 356.164 266.968 356.165 266.971C356.152 266.976 356.089 267.005 355.977 267.052" fill="#1A2C1E"/>
<path d="M338.648 475.5L338.602 474.011C337.446 460.556 339.309 386.589 339.226 366.623C339.137 345.016 335.177 292.648 335.177 292.648C335.177 292.648 347.95 275.965 356.166 266.969C348.401 275.86 309.204 271.355 306.806 254.241C303.6 260.977 292.205 267.948 291.202 290.111C289.924 318.369 309.906 368.331 309.906 368.331C309.15 372.1 305.716 387.919 307.73 402.519C310.909 425.552 322.294 466.291 323.497 471.905L324.222 476.639C326.816 479.676 336.857 479.213 338.648 475.5Z" fill="#EA9F87"/>
<path d="M339.561 327.084L338.412 297.581C338.412 297.581 350.288 294.495 355.104 284.5C355.104 284.5 356.385 277.681 356.166 266.969C356.166 266.969 345.79 271.788 331.184 268.227C316.577 264.665 306.806 254.241 306.806 254.241C306.806 254.241 304.017 256.997 298.266 265.564C295.513 269.667 290.873 280.293 290.473 288.495C289.552 307.329 295.568 327.437 295.568 327.437C298.642 342.187 307.94 369.027 307.94 369.027C307.94 369.027 304.402 388.572 306.181 402.585C307.96 416.599 313.642 432.439 313.642 432.439C313.642 432.439 329.433 437.767 339.83 431.587C339.83 431.587 340.318 382.845 340.505 363.839C340.693 344.832 339.561 327.084 339.561 327.084" fill="#26B6A6"/>
<path d="M327.249 434.573C319.969 434.573 313.642 432.439 313.642 432.439C313.642 432.439 313.333 431.576 312.836 430.076C312.58 429.3 312.272 428.353 311.932 427.267V258.724C316.205 262.001 322.921 266.212 331.184 268.227C335.126 269.188 338.758 269.539 341.964 269.539C350.634 269.539 356.166 266.969 356.166 266.969C356.184 267.807 356.192 268.619 356.192 269.407C356.193 278.705 355.104 284.5 355.104 284.5C350.288 294.495 338.412 297.581 338.412 297.581L339.561 327.084C339.561 327.084 340.526 342.231 340.526 359.524C340.526 360.951 340.52 362.391 340.505 363.839C340.318 382.845 339.83 431.587 339.83 431.587C336.014 433.855 331.472 434.573 327.249 434.573" fill="#06AB91"/>
<path d="M327.249 434.573C319.969 434.573 313.642 432.439 313.642 432.439C313.642 432.439 313.333 431.576 312.836 430.076C312.58 429.3 312.272 428.353 311.932 427.267V258.724C316.205 262.001 322.921 266.212 331.184 268.227C335.126 269.188 338.758 269.539 341.964 269.539C350.634 269.539 356.166 266.969 356.166 266.969C356.184 267.807 356.192 268.619 356.192 269.407C356.193 278.705 355.104 284.5 355.104 284.5C350.288 294.495 338.412 297.581 338.412 297.581L339.561 327.084C339.561 327.084 340.526 342.231 340.526 359.524C340.526 360.951 340.52 362.391 340.505 363.839C340.318 382.845 339.83 431.587 339.83 431.587C336.014 433.855 331.472 434.573 327.249 434.573" fill="#2B4D32"/>
<path d="M393.104 203.443C393.104 203.443 399.316 197.038 393.829 188.464C388.344 179.89 375.417 183.23 375.417 183.23L371.954 177.667L371.988 177.651C373.236 177.182 374.617 177.359 375.95 177.414C378.368 177.508 380.801 177.163 383.097 176.399C385.505 175.598 387.857 174.242 389.16 172.063C390.462 169.884 390.402 166.767 388.521 165.063C391.077 165.08 393.618 163.954 395.322 162.048C397.024 160.142 397.86 157.491 397.556 154.952C397.464 154.186 397.256 153.396 396.737 152.824C396.119 152.139 395.173 151.879 394.301 151.58C391.877 150.748 389.637 149.387 387.784 147.619C384.089 144.091 382.536 139.95 377.432 136.618C373.072 133.772 368.126 132.303 362.861 132.302C357.01 132.302 351.739 133.987 347.769 138.819C341.232 138.819 332.738 142.706 326.924 158.844C321.204 174.718 323.284 193.255 334.094 209.828C341.218 220.751 369.664 238.923 390.004 231.755C410.343 224.587 401.793 203.943 393.104 203.443" fill="#17282F"/>
<path d="M359.189 199.143C374.978 202.08 375.881 209.961 376.674 216.851C378.744 234.807 375.185 264.471 373.938 271.004C373.938 271.004 352.718 264.535 352.953 263.483C353.188 262.431 359.189 199.143 359.189 199.143Z" fill="#EA9F87"/>
<path d="M359.44 260.603C359.44 260.603 366.593 258.933 371.988 260.603C371.988 260.603 367.548 255.977 357.397 258.984L359.44 260.603" fill="#F47089"/>
<path d="M357.623 265.687C360.412 258.148 362.317 251.983 362.965 247.967C373.507 242.549 375.811 234.455 373.603 226.859C369.064 211.249 364.656 203.652 360.6 199.145C357.459 196.921 346.257 193.863 346.257 193.863C344.255 193.547 326.133 191.261 320.599 190.813C320.599 190.813 315.841 194.248 314.041 199.801C312.971 203.099 311.105 205.916 311.111 217.219L313.208 237.436C313.208 237.436 313.768 243.487 311.653 247.013C309.431 250.721 300.887 256.964 296.901 265.687C296.901 265.687 297.381 278.939 321.753 284.479C341.58 288.985 356.292 281.756 356.292 281.756C356.936 277.94 357.531 273.18 357.623 265.687" fill="#F3F2F1"/>
<path d="M374.188 234.303C373.532 233.5 372.575 232.883 371.553 232.759C369.261 232.48 367.087 233.677 364.979 234.62C361.053 236.376 356.544 237.34 352.451 236.025C348.025 234.601 344.488 230.66 339.852 230.289C335.46 229.939 331.551 232.913 328.32 235.909C323.543 240.339 319.112 245.22 313.687 248.824C311.367 250.364 308.893 251.648 306.415 252.92L306.404 252.929C306.053 253.293 305.693 253.672 305.329 254.056L305.119 254.279C304.304 255.145 303.471 256.063 302.647 257.028C302.545 257.148 302.444 257.273 302.343 257.395C302.048 257.747 301.753 258.103 301.463 258.468C301.321 258.645 301.183 258.828 301.043 259.009C300.793 259.331 300.548 259.657 300.305 259.988C300.157 260.192 300.011 260.396 299.867 260.603C299.635 260.932 299.409 261.267 299.188 261.605C299.051 261.815 298.913 262.023 298.78 262.236C298.548 262.605 298.328 262.984 298.111 263.364C298.003 263.553 297.891 263.737 297.787 263.929C297.475 264.504 297.175 265.088 296.901 265.687C296.901 265.687 296.939 266.735 297.537 268.364C297.936 269.451 298.581 270.797 299.629 272.263C299.98 272.751 300.373 273.253 300.819 273.763C304.155 277.591 310.328 281.881 321.753 284.479C326.709 285.605 331.347 285.999 335.513 285.955C337.077 285.939 338.573 285.86 339.996 285.736C341.419 285.612 342.768 285.443 344.036 285.243C345.724 284.976 347.269 284.656 348.648 284.319C353.476 283.14 356.292 281.756 356.292 281.756C356.773 278.893 357.229 275.501 357.467 270.823C357.505 270.043 357.54 269.227 357.565 268.372C357.592 267.517 357.611 266.623 357.623 265.687C359.017 261.916 360.192 258.491 361.097 255.505C361.324 254.759 361.533 254.04 361.725 253.351C362.303 251.28 362.721 249.472 362.965 247.967C370.085 244.307 373.437 239.425 374.188 234.303" fill="#E7E8E5"/>
<path d="M381.12 153.852C382.274 156.449 384.098 160.612 379.99 176.929C376.506 190.757 371.219 193.168 368.731 193.643C366.244 194.119 362.018 192.525 359.083 191.389L354.196 200.047C354.643 203.787 355.914 211.303 353.45 216.071C346.283 210.596 338.951 203.985 333.918 193.636L341.792 176.419C341.792 176.419 337.227 178.612 334.783 173.389C332.531 168.575 333.368 164.555 336.719 162.411C340.072 160.264 344.424 162.213 345.147 166.329C345.87 170.444 349.867 170.753 350.97 164.632C351.306 162.769 352.88 152.643 360.099 150.388C368.548 161.065 379.463 159.592 381.12 153.852" fill="#EA9F87"/>
<path d="M362.475 167.961C362.288 169.025 361.308 169.74 360.284 169.559C359.262 169.376 358.582 168.365 358.77 167.301C358.955 166.237 359.936 165.524 360.959 165.705C361.983 165.887 362.66 166.897 362.475 167.961" fill="#17282F"/>
<path d="M364.626 182.626C364.449 183.639 363.514 184.32 362.541 184.147C361.565 183.974 360.918 183.011 361.097 181.998C361.273 180.984 362.208 180.304 363.182 180.478C364.158 180.651 364.804 181.612 364.626 182.626Z" fill="#C35363"/>
<path d="M378.32 165.389L375.34 162.135C376.215 161.271 377.592 161.3 378.415 162.199C379.237 163.099 379.194 164.526 378.32 165.389Z" fill="#17282F"/>
<path d="M361.872 160.181L357.8 161.884C357.283 160.769 357.775 159.482 358.9 159.013C360.024 158.542 361.355 159.065 361.872 160.181Z" fill="#17282F"/>
<path d="M376.463 170.557C376.276 171.621 375.296 172.336 374.272 172.154C373.249 171.972 372.571 170.963 372.757 169.899C372.943 168.833 373.924 168.12 374.947 168.301C375.971 168.484 376.649 169.495 376.463 170.557Z" fill="#17282F"/>
<path d="M367.878 166.867L367.001 179.253L373.602 177.843L367.878 166.867Z" fill="#F47089"/>
<path d="M359.083 191.389C354.747 189.787 345.001 184.517 344.395 180.555C344.395 180.555 344.353 182.948 346.564 185.928C348.776 188.908 357.445 194.248 357.445 194.248L359.083 191.389" fill="#F47089"/>
<path d="M364.32 197.68C363.85 196.201 361.944 196.045 361.944 196.045C361.944 196.045 362.482 194.056 361.267 192.668C360.635 191.956 359.028 191.975 359.028 191.975C359.5 190.916 358.876 188.523 357.578 188.225C356.279 187.929 353.854 188.399 353.854 188.399C353.854 188.399 352.78 188.897 350.594 191.599L352.575 187.733C352.575 187.733 356.419 186.704 357.803 186.005C359.794 185.003 359.711 182.804 358.935 182.691C358.57 182.637 356.364 182.787 353.72 183.22C351.536 183.58 348.772 183.567 348.026 184.925C347.279 186.285 346.452 187.919 344.918 191.043C343.383 194.167 342.964 195.108 343.159 196.887C343.352 198.665 343.334 202.184 343.879 206.657C344.423 211.131 343.546 212.149 341.58 214.659C340.247 216.36 332.007 224.524 323.319 232.473L324.506 215.211C324.506 215.211 327.339 197.452 320.599 190.813C311.532 189.344 307.139 193.453 305.124 198.351C301.58 206.963 302.626 231.504 303.306 244.421C303.986 257.339 309.071 262.232 312.955 263.048C316.838 263.863 327.522 259.408 334.508 250.22C339.995 243.923 351.758 223.145 353.475 220.244C355.191 217.343 356.448 215.788 358.047 214.103C359.358 212.72 360.451 207.407 360.459 204.253C360.742 205.256 361.778 206.047 362.622 205.424C362.838 203.865 364.459 198.755 364.32 197.68" fill="#EA9F87"/>
<path d="M341.58 214.659C342.241 213.788 342.952 212.937 343.415 211.943C343.887 210.952 344.015 209.84 343.989 208.752C343.965 207.659 343.8 206.576 343.679 205.485C343.557 204.395 343.46 203.303 343.381 202.208L343.195 198.924L343.091 197.287C343.037 196.751 342.973 196.185 343.031 195.628C343.144 194.501 343.635 193.485 344.087 192.492C344.551 191.497 345.045 190.519 345.543 189.54L347.027 186.603L347.768 185.135C347.969 184.621 348.459 184.161 348.98 183.96C350.029 183.513 351.144 183.42 352.225 183.273C353.313 183.155 354.384 182.944 355.48 182.807C356.573 182.671 357.656 182.537 358.776 182.519C358.903 182.517 359.133 182.541 359.261 182.673C359.4 182.791 359.476 182.943 359.528 183.089C359.623 183.387 359.628 183.692 359.579 183.981C359.48 184.559 359.195 185.099 358.783 185.505C357.929 186.335 356.8 186.591 355.781 186.967C354.736 187.311 353.684 187.62 352.623 187.913L352.74 187.817L350.755 191.681L350.452 191.484C350.937 190.889 351.44 190.305 351.981 189.753C352.248 189.475 352.528 189.208 352.82 188.951C353.119 188.695 353.403 188.452 353.781 188.244L353.797 188.236L353.821 188.231C354.5 188.109 355.176 188.024 355.865 187.981C356.552 187.968 357.245 187.896 357.956 188.201C358.628 188.577 358.964 189.268 359.164 189.931C359.348 190.603 359.443 191.332 359.167 192.037L359.027 191.824C359.545 191.832 360.048 191.897 360.547 192.063C360.792 192.149 361.037 192.264 361.247 192.445C361.455 192.639 361.592 192.848 361.728 193.075C362.247 193.993 362.3 195.08 362.076 196.081L361.955 195.909C362.488 195.973 362.989 196.135 363.447 196.409C363.903 196.685 364.277 197.121 364.443 197.64L364.448 197.655V197.663C364.468 198.384 364.289 199.012 364.153 199.665L363.669 201.596C363.344 202.876 362.961 204.155 362.731 205.44L362.723 205.485L362.687 205.515C362.265 205.856 361.621 205.805 361.215 205.5C360.791 205.209 360.499 204.767 360.359 204.283L360.563 204.255C360.54 205.76 360.352 207.253 360.068 208.725C359.772 210.193 359.405 211.659 358.784 213.032C358.495 213.74 357.947 214.295 357.437 214.828C356.933 215.379 356.444 215.944 355.987 216.533C355.063 217.708 354.245 218.964 353.475 220.244C354.227 218.953 355.028 217.687 355.937 216.496C356.388 215.899 356.871 215.325 357.369 214.765C357.881 214.213 358.396 213.681 358.672 212.98C359.267 211.617 359.613 210.153 359.885 208.691C360.157 207.225 360.339 205.739 360.355 204.253L360.361 203.549L360.559 204.225C360.688 204.664 360.961 205.068 361.335 205.321C361.703 205.583 362.203 205.617 362.555 205.335L362.511 205.409C362.741 204.085 363.116 202.821 363.437 201.535L363.908 199.609C364.043 198.975 364.211 198.304 364.189 197.696L364.195 197.719C363.904 196.783 362.876 196.291 361.933 196.183L361.777 196.164L361.812 196.009C362.013 195.084 361.956 194.041 361.479 193.219C361.24 192.792 360.92 192.476 360.449 192.343C360.001 192.193 359.505 192.132 359.031 192.127L358.807 192.125L358.889 191.915C359.116 191.34 359.044 190.637 358.864 190.019C358.681 189.403 358.345 188.776 357.808 188.487C357.264 188.247 356.536 188.287 355.884 188.313C355.216 188.357 354.544 188.445 353.885 188.567L353.925 188.553C353.633 188.716 353.327 188.969 353.048 189.212C352.768 189.463 352.495 189.724 352.233 189.999C351.707 190.543 351.213 191.123 350.735 191.713L349.639 193.065L350.432 191.516L352.409 187.648L352.447 187.575L352.527 187.553C353.58 187.269 354.633 186.965 355.671 186.629C356.687 186.265 357.801 185.993 358.541 185.267C358.909 184.905 359.16 184.427 359.249 183.928C359.339 183.46 359.228 182.793 358.771 182.844C357.7 182.857 356.6 182.984 355.519 183.115C354.437 183.244 353.356 183.451 352.263 183.565C351.181 183.704 350.073 183.8 349.095 184.215C348.595 184.424 348.223 184.752 348.005 185.264L347.259 186.727L345.764 189.652C345.263 190.625 344.764 191.601 344.297 192.591C343.84 193.579 343.357 194.579 343.247 195.649C343.189 196.187 343.247 196.716 343.299 197.27L343.396 198.915L343.561 202.196C343.625 203.289 343.707 204.381 343.813 205.471C343.919 206.559 344.071 207.651 344.079 208.751C344.091 209.847 343.945 210.971 343.456 211.963C342.976 212.957 342.253 213.797 341.58 214.659" fill="#C35363"/>
<path d="M359.083 192.135C359.203 191.866 359.196 191.352 359.182 190.968C358.091 191.259 356.677 191.408 355.771 191.73C354.557 192.162 354.076 193.255 354.076 193.255C354.551 192.758 355.874 192.112 359.083 192.135Z" fill="#C35363"/>
<path d="M358.095 197.008C358.847 196.54 360.347 196.045 361.933 196.182C361.933 196.182 362.045 195.641 362.055 195.081C358.932 195.536 358.095 197.008 358.095 197.008" fill="#C35363"/>
<path d="M360.323 205.064C360.422 203.149 360.38 201.673 360.219 200.831C360.059 199.996 360.012 199.535 360.954 199.648C361.895 199.763 363.211 198.631 362.96 199.431C362.83 199.849 361.144 200.553 361.046 201.157C360.9 202.044 360.862 203.331 360.323 205.064Z" fill="#C35363"/>
<path d="M323.319 232.473C320.915 234.467 312.789 240.676 311.653 247.013C311.653 247.013 310.517 242.264 315.18 236.989C319.844 231.715 323.592 228.493 323.592 228.493L323.319 232.473" fill="#F47089"/>
<path d="M373.938 271.004C373.133 275.745 371.621 277.471 366.794 279.591C358.93 283.044 327.432 291.971 318.122 292.035C312.841 292.071 307.549 291.4 302.546 289.691C301.338 289.277 300.638 288.839 300.258 288.244C299.86 287.62 299.502 287.105 298.92 286.653C298.301 286.173 297.51 285.975 296.842 285.568C296.009 285.059 295.386 284.215 295.148 283.268C294.989 282.645 295.014 281.993 294.565 281.488C294.198 281.076 293.794 280.688 293.509 280.215C293.13 279.589 292.98 278.847 292.981 278.116C292.982 277.749 293.018 277.371 292.893 277.025C292.772 276.692 292.516 276.429 292.278 276.164C292.002 275.859 291.745 275.535 291.504 275.199C291.317 274.935 291.034 274.551 291.062 274.205C291.085 273.947 291.27 273.615 291.408 273.401C292.512 271.683 294.962 272.039 296.72 272.245C298.833 272.493 300.924 272.909 303.037 273.157C305.989 273.504 308.964 273.581 311.928 273.353L311.926 267.872C311.926 267.872 314.317 268.183 317.933 270.405C321.402 272.539 323.493 275.42 329.944 273.72C336.396 272.023 351.728 263.296 359.44 260.603C367.152 257.908 374.416 268.208 373.938 271.004" fill="#EA9F87"/>
<path d="M123.126 543.927L311.932 514.62V105.456L123.126 134.821V543.927Z" fill="#C72121"/>
<path d="M306.18 102.135L311.932 105.456L123.126 134.821L133.112 129.052L306.18 102.135" fill="#9F1414"/>
<path d="M145.282 346.661L277.418 326.131L277.42 492.432L145.284 512.961L145.282 346.661" fill="#33535F"/>
<path d="M145.284 512.961L155.196 501.396L155.194 355.157L145.282 346.661L277.418 326.131L277.42 492.432L145.284 512.961" fill="#2C4954"/>
<path d="M145.284 512.961L155.196 501.396L155.194 355.157L145.282 346.661L277.418 326.131L277.42 492.432L145.284 512.961" fill="#BA1212"/>
<path d="M155.194 355.157L267.506 337.695L267.508 483.936L155.196 501.396L155.194 355.157Z" fill="#C72121"/>
<path d="M145.284 512.961L155.196 501.396L267.508 483.936L277.42 492.432L145.284 512.961Z" fill="#17282F"/>
<path d="M145.284 512.961L155.196 501.396L267.508 483.936L277.42 492.432L145.284 512.961Z" fill="#CE4747"/>
<path d="M145.282 346.661L155.194 355.157L155.196 501.396L145.284 512.961L145.282 346.661Z" fill="#9F1414"/>
<path d="M267.507 337.695L277.419 326.131L277.42 492.432L267.508 483.936L267.507 337.695" fill="#D63030"/>
<path d="M220.351 145.272L277.419 136.401L277.42 302.703L220.353 311.572L220.351 145.272" fill="#33535F"/>
<path d="M220.353 311.572L220.351 145.272L277.419 136.401L277.42 302.703L220.353 311.572Z" fill="#2C4954"/>
<path d="M220.353 311.572L220.351 145.272L277.419 136.401L277.42 302.703L220.353 311.572Z" fill="#BA1212"/>
<path d="M230.264 153.768L267.506 147.965L267.508 294.207L230.265 300.008L230.264 153.768" fill="#C72121"/>
<path d="M220.354 311.572L230.266 300.008L267.508 294.207L277.42 302.703L220.354 311.572" fill="#17282F"/>
<path d="M220.354 311.572L230.266 300.008L267.508 294.207L277.42 302.703L220.354 311.572" fill="#CE4747"/>
<path d="M220.352 145.272L230.264 153.768L230.265 300.008L220.353 311.572L220.352 145.272Z" fill="#9F1414"/>
<path d="M267.507 147.965L277.419 136.401L277.42 302.703L267.508 294.207L267.507 147.965" fill="#D63030"/>
<path d="M145.369 156.883L202.436 148.012L202.437 314.315L145.37 323.184L145.369 156.883" fill="#33535F"/>
<path d="M145.37 323.184L145.369 156.883L202.436 148.012L202.437 314.315L145.37 323.184Z" fill="#2C4954"/>
<path d="M145.37 323.184L145.369 156.883L202.436 148.012L202.437 314.315L145.37 323.184Z" fill="#BA1212"/>
<path d="M155.281 165.379L192.524 159.577L192.525 305.819L155.283 311.619L155.281 165.379" fill="#C72121"/>
<path d="M145.371 323.184L155.283 311.619L192.526 305.819L202.438 314.315L145.371 323.184" fill="#17282F"/>
<path d="M145.371 323.184L155.283 311.619L192.526 305.819L202.438 314.315L145.371 323.184" fill="#CE4747"/>
<path d="M145.369 156.883L155.281 165.379L155.282 311.619L145.37 323.184L145.369 156.883" fill="#9F1414"/>
<path d="M192.524 159.577L202.436 148.012L202.438 314.315L192.526 305.819L192.524 159.577" fill="#D63030"/>
<path d="M286.495 295.857L289.07 298.444L289.071 341.173L286.496 338.587L286.495 295.857" fill="#DADBD8"/>
<path d="M289.069 298.444L302.947 296.369V339.099L289.071 341.173L289.069 298.444" fill="#FAFAF9"/>
<path d="M289.069 318.516V310.152L289.071 318.516H289.069Z" fill="#CED0CD"/>
<path d="M289.071 318.516L289.069 310.152H289.071V310.231L299.185 311.361L300.755 312.939L302.947 310.077V316.508L289.071 318.516ZM302.947 309.259L301.964 308.271L302.947 308.128V309.259Z" fill="#EAEAE7"/>
<path d="M302.947 296.369L300.372 293.783L286.493 295.857L289.069 298.444L302.947 296.369Z" fill="#E7E8E5"/>
<path d="M294.388 306.54L300.755 312.939L303.301 309.615L296.936 303.216C296.609 302.889 296.16 302.724 295.661 302.799C294.667 302.947 293.861 304 293.861 305.148C293.861 305.723 294.063 306.213 294.388 306.54Z" fill="#DADBD8"/>
<path d="M289.07 310.152V307.191L294.264 306.4C294.302 306.449 294.345 306.496 294.388 306.54L296.852 309.017L289.07 310.152" fill="#DBDCD9"/>
<path d="M299.185 311.361L289.07 310.231V310.152L296.852 309.017L299.185 311.361" fill="#CED0CD"/>
<path d="M301.648 307.953L299.335 305.628L301.65 307.953H301.648Z" fill="#DBDCD9"/>
<path d="M299.185 311.361L296.852 309.017L294.388 306.54C294.345 306.496 294.302 306.449 294.264 306.4L299.334 305.628L301.648 307.953L299.185 308.321V311.361" fill="#C0C1BF"/>
<path d="M268.229 313.899L268.231 320.576L304.384 315.163V308.487L268.229 313.899Z" fill="#FAFAF9"/>
<path d="M268.229 313.899L265.916 311.572V318.249L268.231 320.576L268.229 313.899Z" fill="#DADBD8"/>
<path d="M304.384 308.487L302.071 306.161L265.916 311.572L268.229 313.899L304.384 308.487" fill="#E7E8E5"/>
<path d="M293.669 325.053C293.669 323.561 294.716 322.196 296.008 322.003C297.298 321.809 298.346 322.861 298.346 324.353C298.346 325.464 297.765 326.5 296.936 327.039V331.401C296.936 331.905 296.581 332.367 296.145 332.432L295.872 332.473C295.436 332.539 295.081 332.183 295.081 331.679V327.319C294.252 327.028 293.669 326.164 293.669 325.053Z" fill="#33535F"/>
<path d="M102.795 582.199C114.149 570.485 120.818 522.808 109.744 513.516H53.3994C42.3286 522.805 48.9901 570.465 60.3369 582.188L60.6478 582.511C60.7781 582.64 60.9073 582.772 61.039 582.897C61.3593 583.211 61.6989 583.518 62.065 583.82L62.3363 584.036C62.6145 584.256 62.889 584.477 63.1931 584.691C63.6775 585.037 64.1655 585.361 64.6603 585.639C73.9999 591.091 89.1417 591.091 98.4797 585.639H98.4802H98.4822C98.9806 585.359 99.4723 585.032 99.9593 584.683C100.242 584.485 100.496 584.279 100.757 584.073L101.092 583.806C101.445 583.516 101.772 583.22 102.082 582.916C102.234 582.773 102.384 582.621 102.533 582.471L102.795 582.199" fill="#33535F"/>
<path d="M58.2922 509.775C45.4365 517.28 45.4365 529.449 58.2922 536.955C71.149 544.461 91.9927 544.461 104.848 536.955C117.704 529.449 117.704 517.28 104.847 509.775C91.9913 502.268 71.1485 502.268 58.2922 509.775" fill="#33535F"/>
<path d="M81.5707 542.585C73.1457 542.585 64.7201 540.708 58.292 536.955C51.8644 533.203 48.6504 528.284 48.6504 523.364C48.6504 518.882 51.3176 514.401 56.6535 510.801C57.4457 512.508 58.5717 514.679 60.0468 516.929C55.3895 522.234 56.866 528.903 64.4753 533.345C67.7395 535.251 71.7045 536.497 75.8859 537.085C75.892 537.087 75.8988 537.088 75.9045 537.088C75.9217 537.091 75.94 537.093 75.9567 537.096C77.8004 537.352 79.6859 537.48 81.5707 537.48C87.7577 537.48 93.9447 536.101 98.6649 533.345C106.769 528.613 107.917 521.358 102.108 515.912C103.383 513.888 104.425 511.863 105.258 510.018C111.412 513.739 114.489 518.552 114.489 523.365C114.489 528.284 111.276 533.203 104.848 536.955C98.4201 540.708 89.9957 542.585 81.5707 542.585" fill="#46646E"/>
<path d="M64.4751 513.384C55.0341 518.896 55.0346 527.834 64.4751 533.345C73.9169 538.857 89.2237 538.857 98.6647 533.345C108.106 527.834 108.106 518.896 98.6642 513.384C89.2237 507.872 73.9163 507.872 64.4751 513.384" fill="#17282F"/>
<path d="M98.664 522.859C89.2235 517.345 73.9167 517.345 64.475 522.857C61.8531 524.388 59.9864 526.189 58.8203 528.101C59.9864 530.015 61.8531 531.813 64.475 533.345C73.9167 538.857 89.2235 538.857 98.664 533.345C101.287 531.813 103.154 530.015 104.32 528.101C103.154 526.189 101.287 524.388 98.664 522.859" fill="#F3F2F1"/>
<path d="M50.3371 421.027L72.8657 436.441L51.5595 428.371C51.5595 428.371 51.3903 435.824 55.7693 444.741C55.7693 444.741 69.8413 451.576 77.4876 458.775L58.7465 452.884C58.7465 452.884 57.7299 456.876 59.3277 462.671C59.448 463.107 59.5813 463.555 59.7267 464.003C60.7184 466.991 62.134 472.665 64.5293 479.38L64.5417 479.392C66.4173 484.667 68.9095 490.596 72.2856 496.33C73.81 498.932 75.5157 501.485 77.4397 503.941C77.548 504.099 77.6693 504.244 77.7908 504.401C81.2627 502.079 84.8803 499.804 88.6433 497.589C90.8084 492.06 93.1923 478.617 93.6283 467.717C95.2616 425.987 62.2793 404.463 36.5449 398.28C36.5449 398.28 45.958 408.516 50.3371 421.027" fill="#78987F"/>
<path d="M78.3413 489.023C78.3032 488.947 78.2647 488.871 78.2261 488.796C77.7799 487.891 77.3111 486.979 76.7923 486.052L76.7892 486.045C76.5881 485.687 76.358 485.345 76.146 484.995C74.5064 482.304 72.5132 479.821 70.2147 477.569C67.7012 475.097 64.8491 472.877 61.7813 470.9C60.9157 467.995 60.26 465.609 59.7267 464.003C59.5813 463.555 59.448 463.107 59.3277 462.671C58.6256 460.124 58.4283 457.925 58.4277 456.261C58.4267 454.137 58.7465 452.884 58.7465 452.884L77.4876 458.775C69.8413 451.576 55.7693 444.741 55.7693 444.741C51.7064 436.468 51.5584 429.456 51.5584 428.485C51.5584 428.409 51.5595 428.371 51.5595 428.371L72.8657 436.441L50.3371 421.027C45.958 408.516 36.5449 398.28 36.5449 398.28C61.5835 404.296 93.4835 424.837 93.6856 464.379C91.5225 466.305 89.5157 468.353 87.7132 470.525C86.8808 471.524 86.0923 472.551 85.3523 473.604C85.6469 467.144 85.1455 460.653 83.9236 454.324C82.76 448.267 81.0048 442.32 78.5575 436.664C77.3559 433.827 75.8876 431.109 74.2887 428.479C72.56 425.939 70.7084 423.437 68.2996 421.5C70.6767 423.476 72.4799 426 74.1611 428.559C75.7132 431.208 77.1299 433.936 78.2808 436.781C80.6251 442.452 82.2741 448.397 83.3313 454.431C84.5356 461.256 84.8917 468.243 84.3236 475.133C83.1788 476.917 82.1725 478.773 81.3277 480.7C81.3084 480.744 81.2897 480.787 81.2709 480.831C80.036 483.675 79.0756 486.411 78.3413 489.023" fill="#6FA47A"/>
<path d="M68.2998 421.5C70.6769 423.476 72.4801 426 74.1613 428.559C75.7134 431.208 77.1301 433.936 78.281 436.781C80.6253 442.452 82.2743 448.397 83.3315 454.431C85.4591 466.492 84.9405 479.052 81.3493 490.706L81.3451 490.718C81.2477 491.036 81.4253 491.373 81.743 491.471C82.0602 491.568 82.3967 491.391 82.4946 491.073L82.4977 491.064C85.9634 479.127 86.2607 466.431 83.9238 454.324C82.7602 448.267 81.005 442.32 78.5577 436.664C77.3561 433.827 75.8878 431.109 74.2889 428.479C72.5602 425.939 70.7086 423.437 68.2998 421.5" fill="#FAFAF9"/>
<path d="M147.081 442.341L147.049 442.372C146.54 443.029 138.564 449.987 126.325 470.803L101.514 477.033L121.707 478.849L112.418 495.065L91.2449 500.306L108.018 502.372C108.018 502.372 104.02 518.817 92.3527 526.06C85.9115 530.058 82.7131 530.753 80.6646 528.952C79.2323 527.692 78.6069 519.903 77.1845 512.984C75.7615 506.067 75.2298 494.746 81.2714 480.831C82.8766 477.129 85.0766 473.692 87.7137 470.525C102.821 452.331 132.322 442.699 147.081 442.341" fill="#78987F"/>
<path d="M83.2528 529.892C82.4198 529.892 81.7246 529.691 81.123 529.301C81.1272 529.299 81.1308 529.296 81.1351 529.293C81.3736 529.435 81.6272 529.547 81.8918 529.64C81.8616 529.317 81.8329 528.979 81.8059 528.628C82.9007 526.909 84.3594 520.551 84.36 514.824C84.36 514.616 84.358 514.408 84.3537 514.2C84.2662 509.599 83.9694 505.268 82.7585 500.499C83.7089 496.385 84.9746 492.371 86.6761 488.528C89.097 482.964 92.2075 477.68 96.0454 472.936C99.8818 468.193 104.355 463.968 109.208 460.244C114.051 456.503 119.276 453.253 124.719 450.425L124.745 450.344H124.743C131.994 446.647 139.607 443.864 147.081 442.341L147.049 442.372C146.921 442.539 146.315 443.107 145.284 444.2C142.235 447.432 135.469 455.249 126.325 470.803L123.126 471.605L110.075 474.884H110.073L102.217 476.857L101.514 477.033L121.707 478.849L112.418 495.065L110.075 495.645H110.073L102.211 497.592L91.2449 500.306L108.018 502.372C108.018 502.372 104.02 518.817 92.3528 526.06C88.1141 528.692 85.2793 529.892 83.2528 529.892V529.892ZM85.3053 473.671C86.0594 472.595 86.8637 471.545 87.7137 470.525C90.7304 466.891 94.3209 463.6 98.2542 460.655C94.3209 463.6 90.7308 466.891 87.7141 470.525C86.8641 471.545 86.0594 472.595 85.3053 473.671" fill="#76BC85"/>
<path d="M81.8916 529.64C81.6269 529.546 81.3733 529.434 81.1348 529.293C81.3029 529.177 81.4624 529.048 81.6066 528.893C81.6712 528.824 81.7373 528.734 81.8056 528.628C81.8326 528.979 81.8613 529.317 81.8916 529.64" fill="#0FAE96"/>
<path d="M110.072 453.269V453.268L110.074 453.267V453.268L110.072 453.269Z" fill="#D5D7D4"/>
<path d="M98.2539 460.655C99.5424 459.691 100.869 458.761 102.222 457.872C100.869 458.763 99.5424 459.691 98.2539 460.655Z" fill="#C0C1BF"/>
<path d="M110.074 453.268V453.267C114.379 451.016 118.803 449.107 123.126 447.544C118.803 449.107 114.379 451.016 110.074 453.268Z" fill="#8DD8C7"/>
<path d="M102.223 457.872C104.758 456.205 107.391 454.671 110.073 453.268V453.269C107.391 454.671 104.758 456.205 102.223 457.872Z" fill="#78D1BF"/>
<path d="M123.126 447.544C131.404 444.552 139.308 442.833 145.284 442.427C139.308 442.833 131.404 444.552 123.126 447.544" fill="#2C4954"/>
<path d="M145.284 442.427C145.904 442.384 146.504 442.356 147.082 442.341C146.504 442.356 145.904 442.384 145.284 442.427Z" fill="#21363E"/>
<path d="M78.3422 489.023C78.3418 489.023 78.3422 489.023 78.3418 489.023C79.0761 486.411 80.0365 483.675 81.2714 480.831C80.0365 483.675 79.0761 486.411 78.3422 489.023V489.023ZM81.3282 480.7C82.173 478.773 83.1793 476.917 84.3241 475.133C84.3241 475.135 84.3241 475.133 84.3241 475.133C83.1793 476.917 82.173 478.773 81.3282 480.7Z" fill="#069983"/>
<path d="M84.3242 475.133C84.3242 475.133 84.3242 475.135 84.3242 475.133C84.6409 474.64 84.9685 474.153 85.3054 473.671C84.9685 474.153 84.6409 474.641 84.3242 475.133Z" fill="#DBDCD9"/>
<path d="M82.3679 499.059C81.4809 495.979 80.1981 492.694 78.3418 489.023C79.0757 486.411 80.0361 483.675 81.271 480.831C81.2898 480.787 81.3085 480.744 81.3278 480.7C82.4059 478.24 83.7475 475.896 85.3049 473.671C86.059 472.595 86.8637 471.545 87.7137 470.525C90.7303 466.891 94.3205 463.6 98.2538 460.655C114.015 448.855 135.269 442.628 147.081 442.341C139.606 443.864 131.993 446.647 124.742 450.344L124.665 450.317C113.641 455.672 103.289 462.835 95.3033 472.323C91.3179 477.037 87.897 482.305 85.5685 488.06C84.1409 491.616 83.0601 495.306 82.3679 499.059" fill="#4E985E"/>
<path d="M124.665 450.317C113.641 455.672 103.289 462.835 95.3035 472.323C91.3182 477.037 87.8972 482.305 85.5687 488.06C83.2592 493.811 81.8578 499.915 81.54 506.064L81.5972 506.128L81.6598 506.076C82.6624 500.015 84.213 494.091 86.6759 488.528C89.0968 482.964 92.2072 477.68 96.0452 472.936C99.8816 468.193 104.355 463.968 109.208 460.244C114.05 456.503 119.275 453.253 124.719 450.425L124.745 450.344L124.665 450.317" fill="#FAFAF9"/>
<path d="M15.5826 458.107C17.206 457.981 19.0451 457.963 21.0487 458.056C27.0607 458.333 34.5587 459.605 42.1899 461.976C44.7326 462.767 47.2915 463.68 49.8139 464.719C51.0758 465.237 52.3284 465.788 53.5659 466.371C59.7539 469.284 65.5643 472.997 70.2154 477.569C72.5139 479.821 74.5071 482.304 76.1467 484.995C76.3587 485.345 76.5888 485.687 76.7899 486.045L76.793 486.052C77.3118 486.979 77.7806 487.891 78.2268 488.796C83.4107 498.957 84.2008 506.165 84.3539 514.2C84.4732 520.432 82.7524 527.66 81.6071 528.893C81.4492 529.063 81.2738 529.201 81.0872 529.325C79.3768 530.553 76.5211 530.051 71.0867 527.394C60.1976 522.072 55.2222 507.339 55.2222 507.339L69.7654 504.032L50.7082 501.315L42.3894 489.796L56.3363 486.453L37.0263 484.569C24.4279 467.38 16.1186 458.663 15.6123 458.131L15.582 458.107H15.5826" fill="#6FA47A"/>
<path d="M21.0479 458.056C20.7865 458.043 20.5282 458.033 20.2725 458.025C20.5282 458.033 20.7865 458.043 21.0479 458.056Z" fill="#E5E5E3"/>
<path d="M79.9487 529.817C80.7164 520.103 74.62 495.916 66.882 486.256C58.831 476.208 40.2675 462.016 15.6123 458.131L15.631 458.104C16.5643 458.033 17.568 457.997 18.6326 457.997C19.1643 457.997 19.7118 458.007 20.2732 458.025C20.529 458.033 20.7872 458.043 21.0487 458.056C27.0607 458.333 34.5587 459.605 42.1899 461.976C44.7326 462.767 47.2915 463.68 49.8139 464.719C51.0758 465.237 52.3284 465.788 53.5659 466.371C59.7539 469.284 65.5643 472.997 70.2154 477.569C72.5139 479.821 74.5071 482.304 76.1467 484.995C76.3587 485.345 76.5888 485.687 76.7899 486.045L76.793 486.052C77.3118 486.979 77.7806 487.891 78.2268 488.796C83.4107 498.958 84.2008 506.165 84.3539 514.2C84.3582 514.408 84.3602 514.616 84.3602 514.824C84.3596 520.551 82.9008 526.909 81.806 528.628C81.7378 528.735 81.6716 528.824 81.6071 528.894C81.4628 529.048 81.3034 529.177 81.1352 529.294C81.131 529.296 81.1274 529.299 81.1232 529.301C81.1112 529.309 81.0992 529.317 81.0872 529.325C80.7587 529.561 80.3711 529.712 79.9487 529.817" fill="#76BC85"/>
<path d="M80.0087 529.817C80.1337 522.667 79.1582 515.519 77.4435 508.57C75.6435 501.648 73.1315 494.836 69.2493 488.737C67.303 485.679 64.8837 482.972 62.3243 480.447C59.7618 477.916 56.9623 475.64 54.0457 473.54C48.1711 469.403 41.7998 465.964 35.0639 463.547L34.9863 463.583L35.0181 463.659C41.4727 466.704 47.6634 470.253 53.3378 474.512C56.1847 476.623 58.9315 478.869 61.4993 481.304C64.0686 483.735 66.4941 486.336 68.4467 489.268C72.3451 495.165 74.9623 501.883 76.8623 508.721C78.7197 515.585 79.853 522.679 79.8883 529.816L79.9482 529.877L80.0087 529.817" fill="#FAFAF9"/>
<path d="M464.449 427.152C462.903 432.053 454.081 444.529 451.125 447.896C448.169 451.264 447.711 465.945 447.727 468.999C447.745 472.052 449.803 474.943 451.099 476.905C452.392 478.867 450.141 482.188 445.439 480.685C440.739 479.181 439.307 474.387 438.615 471.2C437.923 468.013 436.355 449.743 438.289 438.395C438.289 438.395 447.896 426.204 464.449 427.152" fill="#273E47"/>
<path d="M392.193 381.308C384.75 381.461 374.457 375.533 370.806 365.36C367.156 355.188 369.378 339.98 373.224 331.436C375.422 326.555 374.748 323.385 372.873 322.511C370.137 321.236 367.368 322.685 365.337 327.015C362.742 332.553 357.544 353.252 362.229 365.855C366.916 378.456 375.424 385.229 380.444 387.167L392.193 381.308" fill="#273E47"/>
<path d="M389.847 410.028C390.309 420.048 395.111 437.8 397.832 442.129C400.707 446.703 402.945 448.015 407.601 448.148C412.256 448.281 412.947 444.235 407.02 440.621C405.905 439.033 405.487 431.329 406.128 423.228C406.771 415.128 389.847 410.028 389.847 410.028" fill="#273E47"/>
<path d="M471.077 390.005C471.142 395.377 472.044 409.613 468.677 418.841C465.476 427.625 459.652 435.671 446.569 437.716C433.488 439.761 421.952 436.961 414.418 432.597C406.882 428.235 399.488 419.452 394.172 418.447C394.172 418.447 389.84 423.137 381.184 424.916C372.528 426.693 368.178 424.509 368.178 424.509C368.178 424.509 365.633 431.564 365.52 435.177C365.406 438.792 365.532 442.216 368.264 444.079C370.994 445.94 372.36 446.893 372.065 448.869C372.065 448.869 371.996 451.056 366.422 450.896C360.848 450.736 360.645 449.819 358.942 444.757C357.242 439.697 355.097 426.543 354.77 422.151C354.442 417.759 359.806 417.197 362.477 413.579C365.148 409.957 367.353 406.335 369.16 400.565C370.969 394.797 375.201 385.836 384.36 382.883C393.518 379.929 402.792 380.713 415.634 386.331C428.476 391.949 434.892 394.371 441.201 390.849C449.756 386.075 448.886 378.559 448.886 378.559C458.136 377.247 468.672 372.373 471.077 390.005Z" fill="#33535F"/>
<path d="M440.318 438.332L439.58 435.193L433.471 432.157L431.587 433.371C432.53 434.42 433.659 436.723 434.383 438.279C436.303 438.403 438.284 438.421 440.318 438.332" fill="#273E47"/>
<path d="M431.587 433.371C435.262 435.827 438.18 441.265 443.376 444.492C448.571 447.719 452.967 448.299 452.967 448.299C452.967 448.299 455.072 451.561 456.251 456.179C457.431 460.796 458.778 466.524 462.69 469.071C466.55 471.584 472.832 469.932 469.606 465.411C467.315 462.2 466.242 458.1 465.148 453.988C463.696 448.539 464.951 446.023 462.196 442.377C459.44 438.731 456.916 434.968 455.331 429.176C455.331 429.176 437.138 425.245 431.587 433.371" fill="#33535F"/>
<path d="M396.221 419.148C398.743 414.849 397.86 409.883 397.86 409.883C397.86 409.883 397.155 414.744 394.172 418.447C394.825 418.571 395.509 418.813 396.221 419.148Z" fill="#273E47"/>
<path d="M452.576 385.212C463.609 395.776 449.987 402.548 450.329 416.184C450.444 420.696 452.493 425.461 457.065 434.063C463.111 430.427 467.04 424.969 469.215 419.005C471.753 412.044 471.715 400.828 471.201 395.369C470.687 389.913 468.687 385.72 467.192 383.152C467.192 383.152 441.543 374.649 452.576 385.212" fill="#DADBD8"/>
<path d="M441.715 390.548C444.422 391.8 449.774 393.647 456.076 392.473C465.192 390.776 467.192 383.152 467.192 383.152L448.317 382.713C447.533 385.121 445.742 388.14 441.715 390.548Z" fill="#273E47"/>
<path d="M458.883 357.781C461.785 354.364 469.32 351.68 473.296 355.052C475.537 356.951 469.552 367.299 469.552 367.299C469.552 367.299 461.844 363.152 458.883 357.781Z" fill="#273E47"/>
<path d="M461.967 361.353C465.647 364.419 469.552 367.299 469.552 367.299C469.552 367.299 475.537 356.951 473.296 355.052C471.727 354.1 466.603 354.944 461.967 361.353Z" fill="#F6879F"/>
<path d="M469.341 364.789C469.718 364.28 470.113 363.924 470.498 363.665C470.842 363.007 471.229 362.235 471.605 361.415C470.092 360.332 467.83 360.009 467.83 360.009C467.884 358.784 469.214 357.739 469.214 357.739C467.669 357.089 464.862 358.136 464.02 360.532C464.02 360.532 464.413 362.076 465.477 363.317C466.305 363.872 467.058 364.348 467.682 364.725C468.176 364.847 468.722 364.888 469.341 364.789Z" fill="#F47089"/>
<path d="M464.605 361.483C465.333 359.844 467.293 358.527 468.881 358.855C468.881 358.855 467.815 360.096 467.993 361.269C467.993 361.269 472.264 361.037 473.339 363.219C473.339 363.219 470.505 363.245 469.405 365.573C465.66 366.955 464.605 361.483 464.605 361.483" fill="#33535F"/>
<path d="M434.632 354.485C434.632 354.485 439.677 359.387 439.457 366.416L442.599 364.143C442.599 364.143 442.676 358.593 440.336 356.631C437.997 354.667 434.632 354.485 434.632 354.485" fill="#F47089"/>
<path d="M449.057 358.065C447.549 355.043 439.775 351.097 434.632 354.485C434.632 354.485 441.303 356.637 441.616 363.577L449.057 358.065" fill="#273E47"/>
<path d="M471.077 390.136C470.657 383.776 472.277 375.324 471.272 370.484C470.104 364.861 466.66 357.696 455.713 357.096C444.765 356.495 439.436 362.301 437.528 369.58C436.4 373.204 434.813 374.784 435.332 378.8C435.852 382.816 437.925 387.463 444.549 389.305C449.156 390.587 461.414 391.003 467.192 383.152L471.077 390.136" fill="#33535F"/>
<path d="M441.528 362.609C441.528 362.609 441.352 361.517 439.493 360.353C437.361 359.02 434.884 359.812 434.884 359.812C434.884 359.812 437.383 361.861 437.672 363.532C437.672 363.532 436.265 363.023 434.771 363.441C434.771 363.441 438.441 365.963 437.726 369.839C437.726 369.839 441.606 365.263 441.528 362.609" fill="#33535F"/>
<path d="M448.025 380.659C447.756 380.649 447.543 380.424 447.552 380.153L447.632 377.636C447.641 377.364 447.867 377.153 448.137 377.161C448.407 377.169 448.62 377.395 448.609 377.665L448.531 380.184C448.521 380.455 448.296 380.665 448.025 380.659" fill="#17282F"/>
<path d="M450.349 382.252L450.089 382.167L448.025 380.752L445.921 382.033C445.69 382.176 445.386 382.104 445.248 381.871C445.106 381.64 445.18 381.339 445.41 381.199L447.785 379.751C447.949 379.651 448.16 379.655 448.317 379.765L450.641 381.36C450.865 381.512 450.921 381.819 450.769 382.04C450.67 382.183 450.51 382.257 450.349 382.252" fill="#17282F"/>
<path d="M448.167 374.64C445.64 374.519 445.336 375.275 445.58 376.177C445.782 376.931 447.356 378.163 448.023 378.275C448.622 378.375 450.915 377.24 451.01 376.269C451.092 375.412 450.555 374.756 448.167 374.64Z" fill="#F47089"/>
<path d="M456.86 377.073L456.832 377.041C456.698 376.856 456.738 376.583 456.926 376.432C458.899 374.839 462.039 373.344 465.79 375.256C465.994 375.359 466.068 375.619 465.956 375.833C465.846 376.051 465.591 376.141 465.387 376.037C462.022 374.321 459.196 375.669 457.419 377.104C457.243 377.247 457 377.229 456.86 377.073" fill="#17282F"/>
<path d="M457.6 378.457L457.524 378.336C457.437 378.12 457.54 377.861 457.755 377.76C459.549 376.905 462.355 377.257 463.748 378.108C463.944 378.225 463.999 378.491 463.873 378.699C463.748 378.907 463.489 378.979 463.295 378.859C462.077 378.116 459.584 377.824 458.071 378.544C457.901 378.624 457.715 378.583 457.6 378.457" fill="#17282F"/>
<path d="M456.82 380.091L456.728 379.847C456.716 379.609 456.897 379.397 457.129 379.373C459.143 379.163 462.199 380.096 464.188 382.647C464.328 382.829 464.292 383.101 464.108 383.256C463.927 383.409 463.667 383.391 463.525 383.216L463.519 383.209C461.715 380.888 458.968 380.044 457.167 380.233C457.028 380.247 456.9 380.191 456.82 380.091" fill="#17282F"/>
<path d="M441.955 376.392L441.988 376.365C442.159 376.211 442.171 375.936 442.018 375.751C440.396 373.8 437.614 371.715 433.559 372.849C433.339 372.909 433.215 373.151 433.282 373.384C433.348 373.616 433.58 373.756 433.799 373.695C437.438 372.676 439.942 374.556 441.402 376.312C441.546 376.487 441.786 376.517 441.955 376.392Z" fill="#17282F"/>
<path d="M441.029 377.495L441.118 377.385C441.233 377.183 441.165 376.913 440.966 376.783C439.297 375.7 436.472 375.681 434.978 376.341C434.769 376.433 434.68 376.688 434.776 376.911C434.873 377.133 435.121 377.239 435.329 377.147C436.634 376.569 439.144 376.607 440.549 377.519C440.706 377.62 440.898 377.605 441.029 377.495" fill="#17282F"/>
<path d="M441.657 379.273L441.775 379.041C441.812 378.807 441.657 378.576 441.429 378.525C439.451 378.092 436.311 378.68 434.049 380.995C433.889 381.16 433.895 381.435 434.06 381.609C434.225 381.781 434.485 381.792 434.645 381.635L434.652 381.628C436.703 379.523 439.527 378.988 441.296 379.376C441.433 379.407 441.564 379.364 441.657 379.273Z" fill="#17282F"/>
<path d="M458.616 370.485C458.588 371.405 457.82 372.128 456.899 372.099C455.98 372.069 455.259 371.301 455.287 370.381C455.316 369.461 456.084 368.74 457.003 368.768C457.924 368.797 458.646 369.565 458.616 370.485" fill="#17282F"/>
<path d="M445.179 369.909C445.151 370.829 444.382 371.551 443.462 371.523C442.543 371.493 441.82 370.724 441.848 369.804C441.878 368.885 442.647 368.163 443.566 368.192C444.486 368.22 445.208 368.989 445.179 369.909Z" fill="#17282F"/>
</g>
<defs>
<clipPath id="clip0">
<rect width="510.12" height="620.453" fill="white"/>
</clipPath>
</defs>
</svg>
