<svg width="136" height="124" viewBox="0 0 136 124" fill="none" xmlns="http://www.w3.org/2000/svg">
<path d="M124.243 107.322C115.088 117.599 97.0222 118.211 81.7635 117.233H18.776C17.067 110.258 17.9221 94.668 10.7194 81.2603C-2.09799 57.4011 10.7195 36.4088 22.0719 25.0995C31.593 15.6145 73.7071 -1.32927 86.1581 21.0617C98.6091 43.4527 118.018 39.4151 130.103 58.1354C142.188 76.8557 133.399 97.0442 124.243 107.322Z" fill="#0B4D29" fill-opacity="0.19"/>
<path d="M95.9007 42.2964C96.0053 42.211 96.0744 42.0838 96.0835 41.9418C96.0849 41.9245 96.0854 41.9068 96.0845 41.889C96.0797 41.7633 96.0288 41.6506 95.9496 41.5656C95.9348 41.8103 95.9189 42.0541 95.9007 42.2964V42.2964ZM77.6176 14.2275C77.7476 13.9545 77.8839 13.6849 78.0254 13.4205C78.0604 13.3552 78.0791 13.2861 78.0839 13.2166C78.0964 13.0266 77.999 12.8375 77.82 12.7416C77.7447 12.7013 77.6636 12.6821 77.584 12.6821C77.405 12.6821 77.2318 12.778 77.1416 12.9469C76.9751 13.2578 76.8153 13.5759 76.6647 13.8974C76.9837 14.0025 77.3023 14.1129 77.6176 14.2275" fill="url(#paint0_linear)"/>
<path d="M79.0339 11.3816C79.1879 11.3816 79.3405 11.3106 79.4384 11.1767C79.5924 10.967 79.7517 10.7578 79.9129 10.5558C79.9791 10.4728 80.0146 10.3754 80.0209 10.2766C80.0314 10.1183 79.9666 9.958 79.8333 9.85149C79.7411 9.77808 79.6308 9.74209 79.5214 9.74209C79.3741 9.74209 79.2277 9.80686 79.1289 9.93113C78.9595 10.1437 78.7916 10.3634 78.6299 10.5842C78.4658 10.8073 78.5143 11.1211 78.7378 11.2847C78.8271 11.3499 78.9307 11.3816 79.0339 11.3816Z" fill="url(#paint1_linear)"/>
<path d="M111.543 32.9434C111.714 32.9434 111.88 32.857 111.974 32.7001C112.261 32.2212 112.532 31.7242 112.778 31.2228C112.807 31.1618 112.824 31.098 112.828 31.0347C112.841 30.838 112.736 30.6436 112.548 30.5515C112.477 30.517 112.402 30.5002 112.328 30.5002C112.143 30.5002 111.965 30.6033 111.878 30.7809C111.644 31.2573 111.387 31.7294 111.114 32.1843C110.971 32.4218 111.048 32.7294 111.286 32.8719C111.367 32.9203 111.456 32.9434 111.543 32.9434V32.9434ZM113.334 29.0368C113.544 29.0368 113.74 28.9029 113.81 28.6922C113.984 28.1621 114.139 27.618 114.269 27.0738C114.276 27.0455 114.28 27.0172 114.282 26.9894C114.297 26.75 114.139 26.5274 113.898 26.4698C113.859 26.4602 113.82 26.4559 113.781 26.4559C113.555 26.4559 113.349 26.6104 113.294 26.8407C113.17 27.3574 113.024 27.8747 112.858 28.378C112.77 28.6404 112.914 28.9245 113.177 29.0113C113.229 29.0286 113.282 29.0368 113.334 29.0368V29.0368ZM114.224 24.8317C114.479 24.8317 114.697 24.6383 114.723 24.3797C114.746 24.1484 114.765 23.9177 114.78 23.6874C114.801 23.3592 114.815 23.0271 114.82 22.7013C114.825 22.4245 114.604 22.1961 114.327 22.1918C114.324 22.1918 114.321 22.1918 114.319 22.1918C114.046 22.1918 113.823 22.4106 113.818 22.685C113.809 23.2119 113.778 23.7469 113.725 24.2804C113.697 24.5549 113.899 24.8015 114.174 24.8288C114.191 24.8307 114.208 24.8317 114.224 24.8317V24.8317ZM114.179 20.535C114.2 20.535 114.22 20.5336 114.24 20.5312C114.484 20.5019 114.665 20.3028 114.68 20.0667C114.682 20.036 114.681 20.0048 114.678 19.9732C114.61 19.4195 114.519 18.861 114.405 18.3135C114.355 18.0769 114.147 17.9143 113.914 17.9143C113.88 17.9143 113.846 17.9176 113.811 17.9248C113.54 17.9815 113.367 18.2468 113.423 18.5179C113.531 19.038 113.619 19.5682 113.682 20.0941C113.713 20.3484 113.929 20.535 114.179 20.535ZM113.193 16.3554C113.249 16.3554 113.306 16.3463 113.362 16.3261C113.556 16.257 113.681 16.08 113.694 15.8866C113.698 15.8204 113.689 15.7523 113.666 15.6856C113.478 15.1607 113.266 14.6362 113.034 14.1272C112.95 13.9424 112.768 13.8335 112.578 13.8335C112.508 13.8335 112.438 13.8479 112.371 13.8786C112.119 13.9928 112.007 14.2903 112.122 14.5422C112.342 15.0258 112.544 15.5239 112.721 16.0224C112.794 16.2278 112.988 16.3554 113.193 16.3554V16.3554ZM111.314 12.4929C111.406 12.4929 111.498 12.468 111.581 12.4157C111.722 12.3264 111.804 12.1786 111.814 12.0241C111.821 11.9219 111.796 11.8169 111.738 11.7243C111.44 11.2517 111.118 10.7862 110.782 10.3405C110.683 10.21 110.533 10.1414 110.381 10.1414C110.276 10.1414 110.17 10.1745 110.08 10.2426C109.858 10.4096 109.815 10.7239 109.982 10.9446C110.301 11.3678 110.607 11.8101 110.89 12.2593C110.985 12.4104 111.148 12.4929 111.314 12.4929V12.4929ZM108.637 9.13137C108.765 9.13137 108.892 9.08292 108.99 8.98552C109.08 8.89579 109.129 8.78063 109.137 8.66308C109.146 8.52441 109.098 8.38287 108.992 8.27683C108.598 7.88003 108.183 7.4957 107.758 7.13441C107.664 7.05428 107.548 7.01493 107.433 7.01493C107.291 7.01493 107.151 7.07491 107.051 7.19151C106.871 7.40262 106.897 7.71881 107.108 7.89778C107.512 8.24133 107.906 8.60647 108.281 8.9836C108.379 9.08196 108.508 9.13137 108.637 9.13137V9.13137ZM105.29 6.43436C105.456 6.43436 105.618 6.35232 105.713 6.20262C105.76 6.12873 105.786 6.04764 105.791 5.96607C105.802 5.7895 105.72 5.61245 105.56 5.51025C105.089 5.20941 104.599 4.92536 104.105 4.66579C104.03 4.62692 103.951 4.60821 103.872 4.60821C103.692 4.60821 103.518 4.70609 103.428 4.8769C103.299 5.12161 103.394 5.42485 103.639 5.55344C104.108 5.80006 104.573 6.06971 105.021 6.35567C105.104 6.40893 105.198 6.43436 105.29 6.43436V6.43436ZM101.432 4.53768C101.638 4.53768 101.831 4.41053 101.904 4.20613C101.92 4.16054 101.93 4.11449 101.933 4.0689C101.947 3.85155 101.817 3.64187 101.602 3.56463C101.077 3.37558 100.537 3.20669 99.9977 3.06227C99.954 3.05027 99.9104 3.04499 99.8677 3.04499C99.646 3.04499 99.4435 3.19277 99.3835 3.41684C99.3125 3.68361 99.4709 3.95903 99.7381 4.03052C100.252 4.16774 100.764 4.32848 101.262 4.50793C101.319 4.52808 101.376 4.53768 101.432 4.53768V4.53768ZM97.2551 3.53536C97.5041 3.53536 97.7196 3.35015 97.7517 3.09729C97.7531 3.08673 97.7541 3.07618 97.7551 3.0661C97.7718 2.80365 97.5818 2.56998 97.3179 2.53639C96.9101 2.48505 96.4956 2.44475 96.0863 2.41836C95.938 2.40876 95.7902 2.40061 95.6425 2.39389C95.6348 2.39389 95.6276 2.39341 95.6199 2.39341C95.3531 2.39341 95.1267 2.60021 95.1199 2.87322C95.1075 3.14959 95.3224 3.38374 95.5988 3.39574C95.7394 3.40197 95.88 3.40964 96.021 3.41876C96.4101 3.44419 96.8036 3.4821 97.1913 3.53104C97.2129 3.53392 97.2345 3.53536 97.2551 3.53536" fill="url(#paint2_linear)"/>
<path d="M109.496 35.7517C109.635 35.7517 109.774 35.6936 109.873 35.5804C110.054 35.3741 110.231 35.1625 110.402 34.9509C110.469 34.8674 110.505 34.7691 110.511 34.6697C110.522 34.5124 110.458 34.3526 110.326 34.2461C110.233 34.1717 110.122 34.1352 110.012 34.1352C109.865 34.1352 109.72 34.1995 109.621 34.3224C109.459 34.5229 109.29 34.724 109.119 34.9202C108.936 35.1284 108.957 35.4451 109.166 35.6274C109.261 35.7109 109.378 35.7517 109.496 35.7517" fill="url(#paint3_linear)"/>
<path d="M101.968 35.6C101.887 35.6581 101.777 35.6581 101.696 35.6L99.3743 33.9437C98.1422 34.449 96.8203 34.7613 95.4528 34.8486L94.0907 37.3518C94.0427 37.4396 93.9448 37.4876 93.846 37.4708L90.4729 36.9046C90.3741 36.8883 90.2968 36.8111 90.2805 36.7122L89.8103 33.9015C88.546 33.3727 87.3988 32.6458 86.3988 31.7663L83.6639 32.5734C83.5684 32.6017 83.4648 32.5662 83.4067 32.4846L81.4222 29.6993C81.3642 29.6178 81.3642 29.5084 81.4222 29.4273L83.0781 27.1055C82.5728 25.8733 82.261 24.5519 82.1731 23.184L79.67 21.8218C79.5822 21.7743 79.5347 21.676 79.551 21.5776L80.1172 18.2041C80.134 18.1057 80.2112 18.0284 80.3096 18.0116L83.1203 17.5414C83.6495 16.2771 84.376 15.1299 85.2559 14.1305L84.4484 11.3956C84.4201 11.2996 84.4561 11.1964 84.5372 11.1384L87.3229 9.15341C87.4045 9.09535 87.5134 9.09535 87.595 9.15341L89.9163 10.8092C91.1485 10.3045 92.4703 9.99212 93.8378 9.90479L95.2 7.40162C95.248 7.31381 95.3458 7.26584 95.4447 7.28216L98.8182 7.84833C98.9166 7.86512 98.9938 7.94237 99.0101 8.04073L99.4804 10.8519C100.745 11.3807 101.892 12.1076 102.892 12.9871L105.627 12.18C105.723 12.1517 105.826 12.1872 105.884 12.2688L107.869 15.0541C107.927 15.1357 107.927 15.2451 107.869 15.3262L106.213 17.648C106.718 18.8801 107.03 20.2015 107.117 21.5694L109.621 22.9311C109.708 22.9791 109.756 23.0775 109.74 23.1758L109.173 26.5494C109.157 26.6477 109.08 26.725 108.981 26.7418L106.17 27.212C105.641 28.4758 104.915 29.623 104.035 30.623L104.842 33.3579C104.871 33.4538 104.835 33.557 104.753 33.6151L101.968 35.6" fill="#318D61" fill-opacity="0.5"/>
<path d="M92.6365 20.6691C93.0923 20.1327 93.73 19.806 94.432 19.7489C95.8805 19.6313 97.1549 20.7143 97.2724 22.1633C97.3905 23.6123 96.3071 24.8862 94.8585 25.0042C93.4095 25.1218 92.1351 24.0384 92.0176 22.5898C92.007 22.4584 92.0061 22.3278 92.0147 22.1988C92.0512 21.6379 92.2656 21.1053 92.6365 20.6691ZM98.0718 22.0985C97.9188 20.209 96.2567 18.7965 94.3667 18.9495C93.4512 19.0239 92.6197 19.4499 92.0253 20.15C91.4303 20.8496 91.1438 21.7391 91.2182 22.6546C91.3718 24.5441 93.0333 25.9566 94.9233 25.8036C96.6425 25.664 97.9667 24.2759 98.0761 22.6033C98.0867 22.4372 98.0857 22.2688 98.0718 22.0985Z" fill="#BDD0FB"/>
<path d="M103.036 22.8578C103.018 23.1448 102.984 23.4327 102.936 23.7205C102.921 23.8112 102.904 23.9014 102.886 23.9916C102.797 24.4355 102.672 24.8716 102.515 25.2933C102.512 25.2991 102.51 25.3049 102.508 25.3106C102.502 25.3269 102.496 25.3433 102.489 25.3596C102.477 25.3912 102.465 25.4229 102.452 25.4541C102.42 25.5371 102.338 25.586 102.253 25.5803C102.233 25.5788 102.212 25.5745 102.192 25.5664C102.089 25.5256 102.039 25.409 102.08 25.3063C102.291 24.7766 102.445 24.221 102.54 23.6543C103.013 20.8402 101.957 18.1164 99.9804 16.3339C98.8811 15.3421 97.4969 14.6421 95.9313 14.3791C95.6568 14.3331 95.3824 14.3014 95.1084 14.2836C93.2645 14.1632 91.4503 14.6761 89.9255 15.7629C88.1737 17.0109 87.0126 18.8668 86.6566 20.988C85.9215 25.3692 88.8867 29.5281 93.2655 30.2632C93.5356 30.3083 93.8067 30.34 94.0783 30.3577C95.2543 30.4345 96.4341 30.2527 97.5324 29.8223C97.5607 29.8112 97.59 29.8069 97.6188 29.8088C97.6936 29.8136 97.7632 29.8607 97.7925 29.9355C97.8323 30.0387 97.7824 30.1553 97.6787 30.1956C96.5258 30.6475 95.2869 30.8385 94.0523 30.7579C93.7673 30.7392 93.4828 30.7061 93.1992 30.6586C88.6017 29.887 85.4897 25.5179 86.2612 20.9218C86.635 18.695 87.8537 16.747 89.6928 15.4361C91.2934 14.2952 93.1978 13.7568 95.1338 13.883C95.4212 13.9017 95.7096 13.9353 95.9975 13.9838C98.2248 14.3575 100.173 15.5762 101.484 17.4154C102.625 19.0165 103.163 20.9218 103.036 22.8578" fill="#BDD0FB"/>
<path d="M54.0006 20V21.8329C54.0006 41.8335 61.4525 59.0371 72.8156 65.4021V66.5975C61.4523 72.9625 54.0004 90.1661 54.0004 110.167V112H110V110.167C110 90.0487 102.422 72.8399 90.9532 66.5791V65.4205C102.421 59.1592 110 41.9501 110 21.8327V20H54H54.0006ZM57.6988 23.6655H106.302C105.818 42.5857 97.955 58.0988 88.3474 62.686L87.3039 63.1827V68.823L88.3476 69.3193C97.9546 73.9065 105.818 89.4151 106.302 108.334H57.6988C58.1785 89.521 65.9255 73.9879 75.446 69.3071L76.4713 68.8045V63.1951L75.446 62.6925C65.9259 58.0117 58.1783 42.4786 57.6988 23.6657V23.6655ZM99.4242 40.5611C88.174 46.0168 75.1052 46.0227 64.7477 41.3645C67.6095 51.3508 73.3046 58.4586 80.0051 59.6333C79.7043 60.0349 79.5227 60.5328 79.5227 61.074C79.5227 62.4002 80.5945 63.4772 81.915 63.4772C83.2356 63.4772 84.3074 62.4002 84.3074 61.074C84.3074 60.5404 84.1302 60.0504 83.8375 59.6518C90.7559 58.4983 96.6268 51.0063 99.4242 40.5613V40.5611ZM81.915 66.4261C80.5945 66.4261 79.5227 67.5027 79.5227 68.8292C79.5227 70.1558 80.5945 71.2324 81.915 71.2324C83.2356 71.2324 84.3074 70.1558 84.3074 68.8292C84.3074 67.5027 83.2356 66.4261 81.915 66.4261ZM81.915 74.1319C80.5945 74.1319 79.5227 75.2089 79.5227 76.535C79.5227 77.8617 80.5945 78.9382 81.915 78.9382C83.2356 78.9382 84.3074 77.8617 84.3074 76.535C84.3074 75.2089 83.2356 74.1319 81.915 74.1319ZM81.915 81.8873C80.5945 81.8873 79.5227 82.9639 79.5227 84.2904C79.5227 85.6166 80.5945 86.6936 81.915 86.6936C83.2356 86.6936 84.3074 85.6166 84.3074 84.2904C84.3074 82.9639 83.2356 81.8873 81.915 81.8873ZM81.9395 89.7158C77.4067 89.7708 72.9189 94.7713 67.1338 104.558H97.0135C91.0526 94.5522 86.4722 89.6609 81.9395 89.7158Z" fill="#AB8632"/>
<path d="M51.0006 20V21.8248C51.0006 41.7375 58.4533 58.8654 69.8176 65.2023V66.3926C58.4531 72.7295 51.0004 89.8574 51.0004 109.77V111.595H107.006V109.77C107.006 89.7406 99.427 72.6074 87.957 66.3742V65.2207C99.4262 58.9869 107.006 41.8535 107.006 21.8246V20H51H51.0006ZM54.6992 23.6494H103.308C102.824 42.4863 94.9596 57.9312 85.351 62.4982L84.3074 62.9928V68.6082L85.3512 69.1023C94.9592 73.6693 102.823 89.1098 103.308 107.945H54.6992C55.1789 89.2152 62.9268 73.7504 72.4482 69.0902L73.4736 68.5898V63.0051L72.4482 62.5047C62.9271 57.8445 55.1787 42.3797 54.6992 23.6496V23.6494ZM96.4289 40.4707C85.1775 45.9023 72.1074 45.9082 61.7488 41.2705C64.6109 51.2129 70.3066 58.2894 77.0078 59.459C76.707 59.8588 76.5254 60.3545 76.5254 60.8934C76.5254 62.2137 77.5973 63.2859 78.918 63.2859C80.2387 63.2859 81.3105 62.2137 81.3105 60.8934C81.3105 60.3621 81.1334 59.8742 80.8406 59.4773C87.7598 58.3289 93.6313 50.8699 96.4289 40.4709V40.4707ZM78.918 66.2219C77.5973 66.2219 76.5254 67.2937 76.5254 68.6145C76.5254 69.9352 77.5973 71.007 78.918 71.007C80.2387 71.007 81.3105 69.9352 81.3105 68.6145C81.3105 67.2937 80.2387 66.2219 78.918 66.2219ZM78.918 73.8937C77.5973 73.8937 76.5254 74.966 76.5254 76.2863C76.5254 77.6072 77.5973 78.6789 78.918 78.6789C80.2387 78.6789 81.3105 77.6072 81.3105 76.2863C81.3105 74.966 80.2387 73.8937 78.918 73.8937ZM78.918 81.615C77.5973 81.615 76.5254 82.6869 76.5254 84.0076C76.5254 85.3279 77.5973 86.4002 78.918 86.4002C80.2387 86.4002 81.3105 85.3279 81.3105 84.0076C81.3105 82.6869 80.2387 81.615 78.918 81.615ZM78.9424 89.4092C74.4092 89.4639 69.9209 94.4424 64.1352 104.186H94.018C88.0564 94.2242 83.4756 89.3545 78.9424 89.4092Z" fill="#FBC343"/>
<path d="M107.08 60.3103C107.096 60.3103 107.113 60.3089 107.129 60.306C107.389 60.2642 107.651 60.2139 107.908 60.1563C108.045 60.1256 108.14 60.0085 108.149 59.8746C108.151 59.8459 108.149 59.8161 108.142 59.7868C108.11 59.6424 107.982 59.5445 107.84 59.5445C107.818 59.5445 107.795 59.5469 107.772 59.5522C107.528 59.6069 107.278 59.6549 107.031 59.6947C106.862 59.7221 106.747 59.8809 106.774 60.0498C106.799 60.2024 106.931 60.3103 107.08 60.3103" fill="url(#paint4_linear)"/>
<path d="M105.004 60.4766C105.166 60.4766 105.329 60.4737 105.49 60.4679C105.65 60.4622 105.777 60.3355 105.788 60.1791C105.788 60.1685 105.788 60.158 105.788 60.1474C105.782 59.9804 105.645 59.849 105.479 59.849C105.475 59.849 105.471 59.849 105.467 59.849C105.314 59.8547 105.16 59.8576 105.006 59.8576C104.726 59.8576 104.446 59.8485 104.168 59.8303C104.078 59.8245 103.987 59.8173 103.895 59.8091C103.886 59.8087 103.877 59.8082 103.869 59.8082C103.71 59.8082 103.574 59.9296 103.56 60.0913C103.553 60.253 103.672 60.4113 103.842 60.4262C103.938 60.4348 104.033 60.442 104.128 60.4483C104.418 60.467 104.712 60.4766 105.004 60.4766V60.4766ZM102.276 60.1911C102.42 60.1911 102.548 60.0913 102.579 59.9454C102.582 59.931 102.584 59.9161 102.585 59.9013C102.595 59.7501 102.493 59.611 102.34 59.5788C101.828 59.4704 101.318 59.3298 100.825 59.16C100.792 59.1484 100.758 59.1432 100.724 59.1432C100.595 59.1432 100.475 59.2238 100.431 59.3519C100.376 59.5131 100.461 59.6902 100.624 59.7453C101.14 59.9233 101.675 60.0711 102.212 60.1844C102.233 60.1892 102.255 60.1911 102.276 60.1911ZM99.2361 59.1446C99.3502 59.1446 99.4606 59.0808 99.5143 58.9714C99.5326 58.934 99.5426 58.8941 99.545 58.8553C99.5532 58.7339 99.4884 58.6139 99.3723 58.5568C98.9035 58.327 98.4439 58.065 98.0063 57.7786C97.954 57.744 97.895 57.7277 97.8369 57.7277C97.7362 57.7277 97.6373 57.7771 97.5778 57.8678C97.4838 58.0113 97.5236 58.2027 97.6671 58.2963C98.1258 58.5971 98.608 58.8716 99.0998 59.1129C99.1434 59.1345 99.19 59.1446 99.2361 59.1446ZM96.5462 57.3827C96.634 57.3827 96.7214 57.3458 96.7828 57.2734C96.8269 57.2206 96.8514 57.1577 96.8552 57.0939C96.8615 56.9994 96.8245 56.9029 96.7468 56.8372C96.3476 56.4985 95.9661 56.1319 95.613 55.748C95.5516 55.6818 95.4686 55.6482 95.3851 55.6482C95.3098 55.6482 95.2349 55.6751 95.1754 55.7303C95.0497 55.8454 95.0416 56.0417 95.1572 56.1674C95.5276 56.57 95.9278 56.9543 96.3462 57.3093C96.4042 57.3588 96.4757 57.3827 96.5462 57.3827V57.3827ZM94.3689 55.0183C94.4312 55.0183 94.4941 54.9995 94.5488 54.9607C94.6275 54.9041 94.6716 54.8182 94.6774 54.7289C94.6822 54.6598 94.6639 54.5888 94.6203 54.5284C94.3358 54.1311 94.0719 53.7141 93.8348 53.2871C93.7528 53.5553 93.6688 53.8211 93.5834 54.0845C93.7518 54.3595 93.9303 54.6282 94.117 54.8892C94.1774 54.9736 94.2724 55.0183 94.3689 55.0183" fill="url(#paint5_linear)"/>
<path d="M116.216 54.0945C116.321 54.0945 116.424 54.0407 116.482 53.9433C116.758 53.4803 117.008 52.9952 117.226 52.5015C117.241 52.4674 117.249 52.4324 117.251 52.3969C117.26 52.2712 117.19 52.1474 117.067 52.0937C117.027 52.0754 116.984 52.0673 116.943 52.0673C116.824 52.0673 116.71 52.1359 116.659 52.252C116.452 52.7227 116.213 53.1852 115.95 53.6267C115.863 53.7735 115.911 53.9635 116.057 54.0508C116.107 54.0806 116.162 54.0945 116.216 54.0945V54.0945ZM117.492 51.2003C117.625 51.2003 117.747 51.1139 117.788 50.98C117.943 50.4642 118.069 49.9331 118.161 49.4019C118.163 49.3909 118.164 49.3799 118.165 49.3688C118.175 49.2129 118.067 49.0714 117.909 49.044C117.891 49.0407 117.873 49.0392 117.856 49.0392C117.708 49.0392 117.577 49.1452 117.551 49.2959C117.463 49.8026 117.343 50.3093 117.195 50.8016C117.146 50.9642 117.238 51.1379 117.402 51.1868C117.432 51.196 117.462 51.2003 117.492 51.2003V51.2003ZM118.034 48.0839C118.196 48.0839 118.332 47.9582 118.343 47.7946L118.343 47.7908C118.372 47.2514 118.367 46.7064 118.33 46.17C118.319 46.0063 118.183 45.8816 118.022 45.8816C118.014 45.8816 118.007 45.8816 118 45.8821C117.829 45.8941 117.702 46.0428 117.712 46.2122C117.748 46.7241 117.752 47.2442 117.725 47.7581C117.716 47.9289 117.847 48.0748 118.018 48.0834C118.023 48.0839 118.029 48.0839 118.034 48.0839V48.0839ZM117.816 44.9301C117.835 44.9301 117.855 44.9282 117.875 44.9244C118.016 44.897 118.116 44.778 118.125 44.6408C118.127 44.6149 118.125 44.5885 118.12 44.5616C118.017 44.0314 117.881 43.5032 117.716 42.9912C117.673 42.8602 117.552 42.7772 117.421 42.7772C117.389 42.7772 117.357 42.782 117.326 42.7921C117.163 42.8449 117.074 43.0186 117.126 43.1822C117.284 43.6701 117.414 44.1739 117.512 44.6797C117.541 44.8274 117.671 44.9301 117.816 44.9301ZM116.843 41.9232C116.886 41.9232 116.931 41.914 116.973 41.8944C117.079 41.845 117.144 41.7427 117.151 41.6334C117.155 41.5835 117.146 41.5316 117.123 41.4832C116.897 40.9947 116.637 40.5149 116.353 40.0567C116.295 39.9622 116.193 39.9104 116.09 39.9104C116.034 39.9104 115.978 39.9252 115.927 39.9569C115.781 40.0471 115.736 40.2381 115.827 40.3834C116.098 40.8201 116.345 41.2778 116.562 41.7437C116.614 41.8569 116.726 41.9232 116.843 41.9232V41.9232ZM115.176 39.2367C115.244 39.2367 115.312 39.2146 115.369 39.1686C115.44 39.112 115.479 39.0309 115.485 38.9474C115.489 38.8725 115.468 38.7962 115.417 38.7334C115.079 38.3126 114.713 37.9081 114.328 37.5324C114.268 37.4734 114.19 37.4441 114.112 37.4441C114.031 37.4441 113.951 37.4753 113.89 37.5372C113.771 37.6591 113.773 37.8553 113.895 37.9753C114.262 38.3337 114.612 38.7195 114.934 39.1211C114.995 39.1974 115.085 39.2367 115.176 39.2367V39.2367ZM112.913 37.0267C113.006 37.0267 113.098 36.985 113.159 36.9053C113.198 36.8549 113.218 36.7964 113.222 36.7374C113.229 36.6376 113.187 36.5363 113.101 36.4711C112.672 36.1429 112.219 35.8387 111.755 35.5662C111.706 35.5369 111.652 35.5235 111.599 35.5235C111.492 35.5235 111.389 35.5782 111.331 35.6765C111.245 35.8238 111.294 36.0133 111.442 36.1002C111.884 36.3598 112.316 36.65 112.725 36.9629C112.781 37.0061 112.847 37.0267 112.913 37.0267" fill="url(#paint6_linear)"/>
<path d="M114.823 56.0115C114.909 56.0115 114.995 55.976 115.056 55.9059C115.228 55.7102 115.397 55.5048 115.56 55.2951C115.599 55.2443 115.62 55.1852 115.624 55.1257C115.631 55.0269 115.59 54.9261 115.505 54.8609C115.449 54.8167 115.382 54.7956 115.316 54.7956C115.223 54.7956 115.132 54.8369 115.071 54.9156C114.916 55.1152 114.754 55.311 114.59 55.4981C114.478 55.6267 114.491 55.8224 114.619 55.9352C114.678 55.9865 114.751 56.0115 114.823 56.0115" fill="url(#paint7_linear)"/>
<path d="M109.786 55.9362C109.732 55.9751 109.659 55.9751 109.604 55.9362L108.051 54.8278C107.226 55.1661 106.342 55.3748 105.427 55.4334L104.515 57.1084C104.483 57.1669 104.418 57.1991 104.351 57.188L102.094 56.809C102.028 56.7979 101.977 56.7466 101.966 56.6804L101.651 54.7995C100.805 54.4454 100.037 53.9594 99.3686 53.3707L97.5381 53.9109C97.4743 53.9296 97.4052 53.9061 97.3664 53.8514L96.0378 51.9874C95.9994 51.9332 95.9994 51.8597 96.0383 51.8055L97.1461 50.2519C96.8083 49.4276 96.5992 48.5433 96.5406 47.6278L94.8656 46.7167C94.8071 46.6845 94.7749 46.6188 94.786 46.5531L95.165 44.2956C95.176 44.2293 95.2279 44.178 95.2936 44.167L97.1744 43.8522C97.5285 43.0063 98.0146 42.2386 98.6033 41.5698L98.0631 39.7393C98.0443 39.6755 98.0683 39.6064 98.1225 39.5675L99.9866 38.2394C100.041 38.2005 100.114 38.2005 100.168 38.2394L101.722 39.3473C102.546 39.0095 103.431 38.8003 104.346 38.7418L105.258 37.0667C105.289 37.0082 105.355 36.9761 105.421 36.9871L107.678 37.3661C107.745 37.3772 107.796 37.429 107.807 37.4947L108.122 39.3756C108.968 39.7297 109.736 40.2162 110.405 40.8045L112.235 40.2642C112.299 40.2455 112.368 40.2695 112.407 40.3237L113.735 42.1877C113.774 42.2424 113.774 42.3154 113.735 42.3701L112.627 43.9232C112.965 44.748 113.174 45.6323 113.232 46.5473L114.907 47.4589C114.966 47.4906 114.998 47.5563 114.987 47.6226L114.608 49.8796C114.597 49.9458 114.545 49.9976 114.479 50.0086L112.598 50.3229C112.244 51.1693 111.758 51.937 111.169 52.6059L111.71 54.4358C111.729 54.5001 111.705 54.5692 111.65 54.6081L109.786 55.9362" fill="#318D61" fill-opacity="0.5"/>
<path d="M104.746 45.3704C105.206 45.3334 105.651 45.4769 106.002 45.7749C106.352 46.0728 106.566 46.4898 106.603 46.9485C106.64 47.4072 106.497 47.8524 106.199 48.2037C105.901 48.5539 105.484 48.7674 105.026 48.8049C104.078 48.8816 103.246 48.1739 103.169 47.2273C103.162 47.1418 103.162 47.0574 103.167 46.9744C103.221 46.1362 103.885 45.4404 104.746 45.3704V45.3704ZM107.22 46.8986C107.17 46.2748 106.88 45.7082 106.403 45.3032C105.926 44.8978 105.32 44.703 104.696 44.7534C103.41 44.858 102.449 45.9884 102.552 47.2772C102.656 48.5645 103.789 49.5265 105.075 49.4219C105.699 49.3715 106.265 49.0812 106.67 48.6043C107 48.2171 107.19 47.744 107.223 47.2455C107.23 47.1308 107.23 47.0152 107.22 46.8986Z" fill="#BDD0FB"/>
<path d="M110.675 47.4269C110.662 47.6226 110.639 47.8189 110.606 48.0161C110.54 48.4076 110.435 48.7929 110.292 49.1624C110.285 49.1787 110.279 49.1955 110.272 49.2118C110.222 49.3399 110.095 49.4147 109.965 49.4066C109.933 49.4047 109.901 49.3975 109.87 49.385C109.711 49.3221 109.635 49.1417 109.697 48.9829C109.834 48.6394 109.934 48.28 109.995 47.9139V47.9134C109.999 47.8937 110.002 47.8731 110.005 47.8534C110.142 46.9859 110.058 46.117 109.771 45.3109C109.615 44.8733 109.4 44.454 109.127 44.0639L109.12 44.0543C109.113 44.0447 109.107 44.0346 109.1 44.0255C108.292 42.8912 107.09 42.1399 105.717 41.9091C105.539 41.8793 105.361 41.8587 105.184 41.8472C103.991 41.769 102.816 42.1015 101.829 42.8049C100.695 43.6129 99.9434 44.8143 99.7131 46.1875C99.4832 47.5603 99.8004 48.9416 100.608 50.0759C101.416 51.2097 102.618 51.9616 103.991 52.1919C104.166 52.2216 104.341 52.2418 104.517 52.2533C105.279 52.3027 106.042 52.1856 106.753 51.9064C106.797 51.8896 106.843 51.8829 106.886 51.8858C107.002 51.8934 107.109 51.9664 107.154 52.0815C107.216 52.2408 107.139 52.4207 106.979 52.4831C106.184 52.795 105.329 52.9265 104.477 52.8713C104.28 52.8583 104.084 52.8358 103.889 52.8027C102.352 52.545 101.008 51.7039 100.104 50.4353C99.2001 49.1662 98.8432 47.6222 99.1018 46.0853C99.3599 44.5485 100.201 43.2046 101.47 42.3006C102.574 41.5137 103.888 41.1419 105.223 41.2292C105.421 41.2421 105.62 41.2652 105.819 41.2983C108.794 41.7978 110.867 44.4794 110.675 47.4269" fill="#BDD0FB"/>
<path d="M51.5969 94.4416C51.6401 93.9071 52.1857 93.445 53.1093 93.0741C52.1055 92.5209 51.5499 91.9274 51.5969 91.3454C51.739 89.5845 57.3153 88.5975 64.0523 89.1406C70.7893 89.6838 76.1358 91.5517 75.9938 93.3126C75.9511 93.8466 75.4051 94.3087 74.4815 94.6796C75.4857 95.2333 76.0408 95.8263 75.9938 96.4083C75.9511 96.9423 75.4051 97.4049 74.4815 97.7753C75.4857 98.329 76.0408 98.9225 75.9938 99.5045C75.9511 100.039 75.4051 100.501 74.4815 100.872C75.4857 101.425 76.0408 102.018 75.9938 102.6C75.931 103.379 74.8039 104.006 72.9849 104.417C73.0084 104.992 72.9955 105.623 72.9389 106.32C72.6755 109.564 69.0256 112.109 64.1982 112.109C59.3708 112.109 55.1926 108.64 55.1451 105.385C55.1336 104.587 55.1672 103.885 55.2397 103.26C52.9299 102.489 51.5231 101.547 51.5969 100.633C51.6401 100.099 52.1857 99.637 53.1093 99.2661C52.1055 98.7124 51.5499 98.1193 51.5969 97.5373C51.6401 97.0033 52.1857 96.5407 53.1093 96.1703C52.1055 95.6166 51.5499 95.0231 51.5969 94.4416" fill="#318D61" fill-opacity="0.5"/>
<path d="M67.1694 105.118C69.1702 105.118 71.0012 104.97 72.514 104.681C72.6018 104.664 72.6594 104.579 72.6426 104.491C72.6258 104.404 72.5414 104.346 72.4531 104.363C70.0862 104.816 66.9247 104.916 63.5512 104.644C60.7908 104.421 58.209 103.976 56.0853 103.356C55.9994 103.331 55.9097 103.38 55.8848 103.466C55.8598 103.552 55.9092 103.642 55.9946 103.667C58.1394 104.293 60.7433 104.742 63.5253 104.967C64.778 105.067 66.003 105.118 67.1694 105.118" fill="url(#paint8_linear)"/>
<path d="M67.1357 102.019C69.7358 102.019 72.0585 101.775 73.6976 101.308C73.7835 101.283 73.8329 101.194 73.8089 101.108C73.7839 101.022 73.6952 100.972 73.6088 100.996C71.2736 101.661 67.5138 101.868 63.551 101.548C59.631 101.232 55.9753 100.436 53.7716 99.4201C53.6905 99.3827 53.5945 99.4182 53.5566 99.4993C53.5197 99.5804 53.5547 99.6768 53.6358 99.7143C55.8722 100.745 59.5691 101.551 63.5251 101.871C64.7592 101.97 65.9755 102.019 67.1357 102.019" fill="#91B3FA"/>
<path d="M67.1693 98.9248C69.9762 98.9248 72.4323 98.6379 74.0858 98.0928C74.1707 98.065 74.2167 97.9733 74.1884 97.8884C74.1606 97.8035 74.0694 97.7574 73.984 97.7853C71.6838 98.5438 67.7835 98.7929 63.5511 98.4522C59.6315 98.136 55.9753 97.3405 53.7716 96.3242C53.6905 96.2868 53.5945 96.3223 53.5566 96.4034C53.5197 96.4845 53.5547 96.5805 53.6358 96.6179C55.8727 97.6495 59.5696 98.4556 63.5251 98.7746C64.7784 98.8759 66.0043 98.9248 67.1693 98.9248Z" fill="#91B3FA"/>
<path d="M67.1481 95.8276C69.3744 95.8276 71.3997 95.6477 72.9739 95.2979C73.0612 95.2783 73.1159 95.1919 73.0968 95.105C73.0776 95.0177 72.9907 94.9625 72.9039 94.9817C70.5365 95.5081 67.1274 95.6444 63.5514 95.356C59.6664 95.0427 56.0294 94.2558 53.8218 93.2511C53.7408 93.2136 53.6448 93.2501 53.6078 93.3312C53.5704 93.4128 53.6064 93.5087 53.688 93.5457C55.9277 94.5653 59.605 95.3622 63.5255 95.6784C64.7639 95.7782 65.9836 95.8276 67.1481 95.8276Z" fill="#91B3FA"/>
<path d="M2.08947 120.657L70.6235 120.657V106.94H2.08947C3.55625 106.94 3.55625 120.657 2.08947 120.657" fill="#318D61" fill-opacity="0.5"/>
<path d="M70.6242 117.225V110.947C70.6242 108.734 69.2697 106.94 67.599 106.94H0.161301C0.0725363 106.94 8.69101e-05 106.868 8.69101e-05 106.779V104C8.69101e-05 103.911 0.0725363 103.839 0.161301 103.839H72.0036C73.6384 103.839 76.2336 106.408 76.2336 109.579V118.346C76.2336 121.335 73.7137 123.759 72.1725 123.759H0.161301C0.0725363 123.759 8.69101e-05 123.686 8.69101e-05 123.598V120.819C8.69101e-05 120.73 0.0725363 120.657 0.161301 120.657H68.0327C69.464 120.657 70.6242 119.12 70.6242 117.225" fill="#1E653E"/>
<path d="M4.46266 109.916H68.7231C68.8118 109.916 68.8843 109.844 68.8843 109.755C68.8843 109.665 68.8118 109.593 68.7231 109.593H4.46266C4.37341 109.593 4.30144 109.665 4.30144 109.755C4.30144 109.844 4.37341 109.916 4.46266 109.916Z" fill="url(#paint9_linear)"/>
<path d="M4.46266 111.951H68.7231C68.8118 111.951 68.8843 111.879 68.8843 111.79C68.8843 111.701 68.8118 111.629 68.7231 111.629H4.46266C4.37341 111.629 4.30144 111.701 4.30144 111.79C4.30144 111.879 4.37341 111.951 4.46266 111.951Z" fill="url(#paint10_linear)"/>
<path d="M62.8633 103.932H0.915052C0.548958 103.932 0.252437 103.635 0.252437 103.27V91.2311C0.252437 90.8655 0.548958 90.5689 0.915052 90.5689H62.8633C63.2289 90.5689 63.5254 90.8655 63.5254 91.2311V103.27C63.5254 103.635 63.2289 103.932 62.8633 103.932Z" fill="#1E653E"/>
<path d="M13.0122 102.396H6.50839V92.1046H13.0122V102.396Z" fill="#7D97F4"/>
<path d="M16.4089 102.396H13.9686V92.1046H16.4089V102.396Z" fill="#7D97F4"/>
<path d="M54.5546 6.74967L58.5437 13.0726C58.5437 13.0726 58.2625 24.5448 46.7927 30.5012C35.3233 36.4575 29.2345 31.4623 29.2345 31.4623L24.127 22.0417L54.5546 6.74967Z" fill="#318D61" fill-opacity="0.5"/>
<path d="M33.6808 0.00269672L59.4639 1.43925C60.7915 1.51314 61.5002 3.0375 60.6998 4.09931C56.7966 9.27934 47.9767 21.2842 45.0643 27.7678C44.7529 28.4616 44.0087 28.8527 43.2602 28.7203L16.4456 23.9797C15.2326 23.7653 14.665 22.3532 15.3938 21.3595C19.2352 16.1219 29.0497 2.96408 32.6017 0.324169C32.9122 0.0933807 33.2946 -0.0188947 33.6808 0.00269672" fill="#1E653E"/>
<path d="M36.9779 12.4295C36.9779 12.4295 25.8377 23.455 25.2633 25.5384C24.6895 27.6217 28.5486 35.6628 28.5486 35.6628C28.0971 43.2904 29.5173 51.1506 33.8606 54.4675C33.8606 54.4675 36.0188 44.0916 33.244 40.5324C30.4688 36.9737 29.3782 35.504 29.3782 35.504C29.3782 35.504 25.722 26.831 25.961 25.4227C25.961 25.4227 38.1908 12.704 36.9779 12.4295" fill="#7D97F4"/>
<path d="M56.6445 4.38015C56.6445 4.38015 51.7922 11.8863 46.9394 19.3919C46.3329 20.3304 45.7265 21.2685 45.1296 22.1921C44.8311 22.6542 44.5351 23.1119 44.2424 23.5649C44.0961 23.7908 43.9502 24.0159 43.8058 24.2395C43.7352 24.3479 43.6594 24.4693 43.5927 24.5657C43.5131 24.6823 43.4522 24.7605 43.3663 24.8512C43.04 25.2048 42.6072 25.4457 42.1533 25.5417C41.9268 25.5911 41.6951 25.606 41.4691 25.5877C41.233 25.5671 40.9845 25.5378 40.748 25.5138C39.7931 25.4131 38.8901 25.3181 38.0572 25.2303C34.7239 24.8795 32.5015 24.6454 32.5015 24.6454C32.4156 24.6363 32.3383 24.6986 32.3292 24.7845C32.3206 24.8704 32.382 24.9467 32.4674 24.9568C32.4674 24.9568 34.687 25.2116 38.0174 25.5935C38.8493 25.6885 39.7514 25.7921 40.7052 25.9015C40.9461 25.9279 41.1807 25.9581 41.435 25.9831C41.6994 26.0071 41.971 25.9922 42.2373 25.9365C42.7704 25.8286 43.2823 25.5513 43.6709 25.1377C43.7674 25.0398 43.8681 24.9098 43.9377 24.809C44.0217 24.6886 44.0865 24.5854 44.1623 24.4722C44.3086 24.25 44.4564 24.0264 44.6047 23.8014C44.9017 23.3518 45.202 22.896 45.5048 22.4373C46.1103 21.5194 46.7254 20.5867 47.3405 19.6544C52.2629 12.1934 57.1848 4.73329 57.1848 4.73329C57.2827 4.58455 57.2419 4.38447 57.0931 4.28611C56.9444 4.18823 56.7443 4.22901 56.6464 4.37775L56.6445 4.38015" fill="#91B3FA"/>
<path d="M30.419 39.8591C30.419 39.8591 30.4669 39.8898 30.5245 39.9358C30.5547 39.957 30.596 39.9925 30.645 40.0356C30.6934 40.0779 30.7505 40.1239 30.8095 40.1858C30.8685 40.2463 30.9381 40.3091 31.0067 40.3854C31.0749 40.4632 31.1488 40.5471 31.227 40.6368C31.3047 40.7275 31.3776 40.8341 31.4601 40.9406C31.5 40.9953 31.5441 41.0485 31.5839 41.1075C31.6223 41.168 31.6617 41.2294 31.7015 41.2923C31.7792 41.4199 31.8728 41.5442 31.9467 41.6886C32.023 41.8311 32.1021 41.9784 32.1837 42.1295C32.2672 42.2802 32.3291 42.4476 32.4059 42.6117C32.4778 42.7782 32.5613 42.9442 32.6184 43.1251C32.6822 43.3036 32.7465 43.485 32.8123 43.6683L32.8612 43.8065L32.9005 43.949C32.9269 44.0445 32.9533 44.1399 32.9797 44.2364C33.032 44.4288 33.0853 44.6231 33.1385 44.8179C33.1779 45.0165 33.2177 45.2157 33.2575 45.4153C33.2949 45.6149 33.3439 45.813 33.3712 46.0141C33.3971 46.2156 33.423 46.4161 33.449 46.6153C33.4744 46.8144 33.4998 47.0121 33.5248 47.2078C33.5377 47.4041 33.5502 47.5989 33.5627 47.7898C33.5747 47.9813 33.5867 48.1694 33.5987 48.3536C33.6044 48.4457 33.6102 48.5369 33.6155 48.6271C33.6159 48.7173 33.6159 48.8066 33.6164 48.8944C33.6174 49.2465 33.6183 49.5795 33.6193 49.8871C33.6279 50.1946 33.6035 50.4763 33.5915 50.7258C33.578 50.9758 33.566 51.1936 33.5564 51.3731C33.5368 51.732 33.5257 51.9368 33.5257 51.9368L33.5252 51.9426C33.5219 52.0045 33.5694 52.0573 33.6313 52.0611C33.6917 52.0645 33.744 52.0184 33.7488 51.9584C33.7488 51.9584 33.7671 51.7526 33.7983 51.3923C33.8136 51.2114 33.8328 50.9926 33.8544 50.7412C33.8741 50.4897 33.9077 50.2066 33.9096 49.8957C33.9182 49.5848 33.9283 49.2485 33.9384 48.892C33.9408 48.8032 33.9436 48.713 33.946 48.6214C33.9436 48.5297 33.9408 48.4371 33.9379 48.3435C33.9321 48.1564 33.9259 47.965 33.9197 47.7707C33.9129 47.5759 33.9067 47.3777 33.9 47.1776C33.8813 46.9775 33.8616 46.7755 33.8424 46.5716C33.8222 46.3677 33.8021 46.1618 33.7819 45.9555C33.7608 45.7487 33.7172 45.5443 33.6855 45.338C33.651 45.1317 33.6164 44.9259 33.5823 44.7205C33.5339 44.5175 33.4859 44.3155 33.4379 44.115C33.4139 44.0152 33.3895 43.9149 33.3655 43.8156L33.3295 43.6668L33.2829 43.5219C33.221 43.3286 33.1601 43.1376 33.0997 42.95C33.0454 42.7605 32.9643 42.5829 32.8943 42.4059C32.8194 42.2303 32.7595 42.0532 32.6769 41.8911C32.5954 41.7279 32.5167 41.5691 32.4399 41.4156C32.3665 41.2606 32.271 41.1229 32.1919 40.9838C32.1511 40.9151 32.1108 40.8475 32.0714 40.7822C32.0306 40.717 31.9851 40.657 31.9438 40.5965C31.8579 40.4775 31.7826 40.3605 31.7 40.2578C31.6166 40.1556 31.5384 40.0606 31.4659 39.9723C31.392 39.885 31.3157 39.8106 31.2509 39.7401C31.1871 39.6695 31.1209 39.6115 31.0657 39.5602C31.0106 39.5088 30.9631 39.4651 30.9156 39.4287C30.823 39.3534 30.7846 39.3274 30.7846 39.3274L30.7745 39.3202C30.6262 39.2214 30.4262 39.2612 30.3268 39.409C30.228 39.5568 30.2673 39.7574 30.4156 39.8567L30.419 39.8591" fill="#91B3FA"/>
<path d="M30.7346 43.2339C30.7346 43.2339 30.7442 43.2689 30.7624 43.3346C30.7807 43.4008 30.7946 43.4795 30.8205 43.5889C30.8738 43.8365 30.9505 44.1901 31.0422 44.6143C31.2197 45.4731 31.4567 46.6179 31.6942 47.7633C32.1592 50.0558 32.6246 52.3488 32.6246 52.3488C32.6438 52.4438 32.7359 52.5057 32.8309 52.4865C32.924 52.4678 32.9849 52.3781 32.9696 52.285C32.9696 52.285 32.5761 49.9781 32.1832 47.6711C31.9821 46.5177 31.7806 45.3647 31.6299 44.4996C31.5498 44.0634 31.4831 43.7002 31.4366 43.4455C31.4078 43.3054 31.3838 43.1864 31.3675 43.1197C31.3507 43.053 31.342 43.0175 31.342 43.0175C31.2998 42.8447 31.1257 42.7392 30.9529 42.7814C30.7802 42.8236 30.6746 42.9978 30.7169 43.1705L30.7193 43.1792L30.7346 43.2339" fill="#91B3FA"/>
<defs>
<linearGradient id="paint0_linear" x1="-7.3855" y1="123.382" x2="90.1713" y2="38.0199" gradientUnits="userSpaceOnUse">
<stop stop-color="#C4D5FD"/>
<stop offset="1" stop-color="#CEDDFC"/>
</linearGradient>
<linearGradient id="paint1_linear" x1="-7.3847" y1="123.381" x2="90.1719" y2="38.0193" gradientUnits="userSpaceOnUse">
<stop stop-color="#C4D5FD"/>
<stop offset="1" stop-color="#CEDDFC"/>
</linearGradient>
<linearGradient id="paint2_linear" x1="-7.3851" y1="123.382" x2="90.1717" y2="38.0198" gradientUnits="userSpaceOnUse">
<stop stop-color="#C4D5FD"/>
<stop offset="1" stop-color="#CEDDFC"/>
</linearGradient>
<linearGradient id="paint3_linear" x1="-7.38529" y1="123.382" x2="90.1716" y2="38.0198" gradientUnits="userSpaceOnUse">
<stop stop-color="#C4D5FD"/>
<stop offset="1" stop-color="#CEDDFC"/>
</linearGradient>
<linearGradient id="paint4_linear" x1="-7.38578" y1="123.382" x2="90.1708" y2="38.0196" gradientUnits="userSpaceOnUse">
<stop stop-color="#C4D5FD"/>
<stop offset="1" stop-color="#CEDDFC"/>
</linearGradient>
<linearGradient id="paint5_linear" x1="-7.38482" y1="123.382" x2="90.172" y2="38.0196" gradientUnits="userSpaceOnUse">
<stop stop-color="#C4D5FD"/>
<stop offset="1" stop-color="#CEDDFC"/>
</linearGradient>
<linearGradient id="paint6_linear" x1="-7.38542" y1="123.382" x2="90.1714" y2="38.0199" gradientUnits="userSpaceOnUse">
<stop stop-color="#C4D5FD"/>
<stop offset="1" stop-color="#CEDDFC"/>
</linearGradient>
<linearGradient id="paint7_linear" x1="-7.38475" y1="123.382" x2="90.1721" y2="38.02" gradientUnits="userSpaceOnUse">
<stop stop-color="#C4D5FD"/>
<stop offset="1" stop-color="#CEDDFC"/>
</linearGradient>
<linearGradient id="paint8_linear" x1="64.9887" y1="106.665" x2="75.5598" y2="145.174" gradientUnits="userSpaceOnUse">
<stop stop-color="#4F52FF"/>
<stop offset="1" stop-color="#4042E2"/>
</linearGradient>
<linearGradient id="paint9_linear" x1="68.8843" y1="109.755" x2="4.30145" y2="109.755" gradientUnits="userSpaceOnUse">
<stop stop-color="#DAE3FE"/>
<stop offset="1" stop-color="#E9EFFD"/>
</linearGradient>
<linearGradient id="paint10_linear" x1="68.8843" y1="111.79" x2="4.30145" y2="111.79" gradientUnits="userSpaceOnUse">
<stop stop-color="#DAE3FE"/>
<stop offset="1" stop-color="#E9EFFD"/>
</linearGradient>
</defs>
</svg>
